<?xml version="1.0" encoding="UTF-8" standalone="no"?>
<!DOCTYPE svg PUBLIC "-//W3C//DTD SVG 1.1//EN"
 "http://www.w3.org/Graphics/SVG/1.1/DTD/svg11.dtd">
<!-- Generated by graphviz version 2.43.0 (0)
 -->
<!-- Title: G Pages: 1 -->
<svg width="2062pt" height="205pt"
 viewBox="0.00 0.00 2061.94 204.50" xmlns="http://www.w3.org/2000/svg" xmlns:xlink="http://www.w3.org/1999/xlink">
<g id="graph0" class="graph" transform="scale(1 1) rotate(0) translate(4 200.5)">
<title>G</title>
<polygon fill="white" stroke="transparent" points="-4,4 -4,-200.5 2057.94,-200.5 2057.94,4 -4,4"/>
<!-- 0\n[start] -->
<g id="node1" class="node">
<title>0\n[start]</title>
<ellipse fill="none" stroke="green" cx="34.65" cy="-41.5" rx="34.8" ry="34.8"/>
<text text-anchor="middle" x="34.65" y="-45.3" font-family="Times,serif" font-size="14.00" fill="green">0</text>
<text text-anchor="middle" x="34.65" y="-30.3" font-family="Times,serif" font-size="14.00" fill="green">[start]</text>
</g>
<!-- 2\nOh, dear. -->
<g id="node3" class="node">
<title>2\nOh, dear.</title>
<polygon fill="none" stroke="black" points="172.3,-84.5 105.3,-84.5 105.3,-46.5 172.3,-46.5 172.3,-84.5"/>
<text text-anchor="middle" x="138.8" y="-69.3" font-family="Times,serif" font-size="14.00">2</text>
<text text-anchor="middle" x="138.8" y="-54.3" font-family="Times,serif" font-size="14.00">Oh, dear.</text>
</g>
<!-- 0\n[start]&#45;&gt;2\nOh, dear. -->
<g id="edge1" class="edge">
<title>0\n[start]&#45;&gt;2\nOh, dear.</title>
<path fill="none" stroke="green" stroke-dasharray="5,2" d="M68.53,-49.23C77.01,-51.22 86.25,-53.39 95.14,-55.48"/>
<polygon fill="green" stroke="green" points="94.44,-58.91 104.98,-57.79 96.04,-52.09 94.44,-58.91"/>
</g>
<!-- 5\nYou didn&#39;t\nYou couldn&#39;t\nYou were unable to\nWe were counting on you to -->
<g id="node6" class="node">
<title>5\nYou didn&#39;t\nYou couldn&#39;t\nYou were unable to\nWe were counting on you to</title>
<polygon fill="none" stroke="black" points="380.3,-83 208.3,-83 208.3,0 380.3,0 380.3,-83"/>
<text text-anchor="middle" x="294.3" y="-67.8" font-family="Times,serif" font-size="14.00">5</text>
<text text-anchor="middle" x="294.3" y="-52.8" font-family="Times,serif" font-size="14.00">You didn&#39;t</text>
<text text-anchor="middle" x="294.3" y="-37.8" font-family="Times,serif" font-size="14.00">You couldn&#39;t</text>
<text text-anchor="middle" x="294.3" y="-22.8" font-family="Times,serif" font-size="14.00">You were unable to</text>
<text text-anchor="middle" x="294.3" y="-7.8" font-family="Times,serif" font-size="14.00">We were counting on you to</text>
</g>
<!-- 0\n[start]&#45;&gt;5\nYou didn&#39;t\nYou couldn&#39;t\nYou were unable to\nWe were counting on you to -->
<g id="edge2" class="edge">
<title>0\n[start]&#45;&gt;5\nYou didn&#39;t\nYou couldn&#39;t\nYou were unable to\nWe were counting on you to</title>
<path fill="none" stroke="green" stroke-dasharray="5,2" d="M69.29,-39.18C80.71,-38.49 93.55,-37.84 105.3,-37.5 135.36,-36.64 168.14,-36.91 197.78,-37.62"/>
<polygon fill="green" stroke="green" points="198.04,-41.13 208.13,-37.89 198.22,-34.13 198.04,-41.13"/>
</g>
<!-- 1\n[end] -->
<g id="node2" class="node">
<title>1\n[end]</title>
<ellipse fill="none" stroke="green" cx="2022.12" cy="-82.5" rx="31.64" ry="31.64"/>
<text text-anchor="middle" x="2022.12" y="-86.3" font-family="Times,serif" font-size="14.00" fill="green">1</text>
<text text-anchor="middle" x="2022.12" y="-71.3" font-family="Times,serif" font-size="14.00" fill="green">[end]</text>
</g>
<!-- 2\nOh, dear.&#45;&gt;5\nYou didn&#39;t\nYou couldn&#39;t\nYou were unable to\nWe were counting on you to -->
<g id="edge3" class="edge">
<title>2\nOh, dear.&#45;&gt;5\nYou didn&#39;t\nYou couldn&#39;t\nYou were unable to\nWe were counting on you to</title>
<path fill="none" stroke="black" d="M172.35,-60.41C180.17,-59.19 188.92,-57.82 198.04,-56.39"/>
<polygon fill="black" stroke="black" points="198.71,-59.83 208.05,-54.83 197.63,-52.91 198.71,-59.83"/>
</g>
<!-- 3\nChin up, Cadet!\nYou must succeed, Cadet!\nYou&#39;ll do better next time. -->
<g id="node4" class="node">
<title>3\nChin up, Cadet!\nYou must succeed, Cadet!\nYou&#39;ll do better next time.</title>
<polygon fill="none" stroke="black" points="1694.3,-155.5 1534.3,-155.5 1534.3,-87.5 1694.3,-87.5 1694.3,-155.5"/>
<text text-anchor="middle" x="1614.3" y="-140.3" font-family="Times,serif" font-size="14.00">3</text>
<text text-anchor="middle" x="1614.3" y="-125.3" font-family="Times,serif" font-size="14.00">Chin up, Cadet!</text>
<text text-anchor="middle" x="1614.3" y="-110.3" font-family="Times,serif" font-size="14.00">You must succeed, Cadet!</text>
<text text-anchor="middle" x="1614.3" y="-95.3" font-family="Times,serif" font-size="14.00">You&#39;ll do better next time.</text>
</g>
<!-- 4\n[console] -->
<g id="node5" class="node">
<title>4\n[console]</title>
<text text-anchor="middle" x="1763.8" y="-117.3" font-family="Times,serif" font-size="14.00" fill="blue">4</text>
<text text-anchor="middle" x="1763.8" y="-102.3" font-family="Times,serif" font-size="14.00" fill="blue">[console]</text>
</g>
<!-- 3\nChin up, Cadet!\nYou must succeed, Cadet!\nYou&#39;ll do better next time.&#45;&gt;4\n[console] -->
<g id="edge4" class="edge">
<title>3\nChin up, Cadet!\nYou must succeed, Cadet!\nYou&#39;ll do better next time.&#45;&gt;4\n[console]</title>
<path fill="none" stroke="blue" d="M1694.66,-117.2C1703.38,-116.72 1712,-116.25 1720.02,-115.82"/>
<polygon fill="blue" stroke="blue" points="1720.39,-119.31 1730.18,-115.27 1720.01,-112.32 1720.39,-119.31"/>
</g>
<!-- 6\n␤␤Mission Failed -->
<g id="node7" class="node">
<title>6\n␤␤Mission Failed</title>
<polygon fill="none" stroke="black" points="1954.3,-101.5 1833.3,-101.5 1833.3,-63.5 1954.3,-63.5 1954.3,-101.5"/>
<text text-anchor="middle" x="1893.8" y="-86.3" font-family="Times,serif" font-size="14.00">6</text>
<text text-anchor="middle" x="1893.8" y="-71.3" font-family="Times,serif" font-size="14.00">␤␤Mission Failed</text>
</g>
<!-- 4\n[console]&#45;&gt;6\n␤␤Mission Failed -->
<g id="edge5" class="edge">
<title>4\n[console]&#45;&gt;6\n␤␤Mission Failed</title>
<path fill="none" stroke="blue" d="M1797.43,-105.6C1805.42,-103.66 1814.29,-101.51 1823.3,-99.33"/>
<polygon fill="blue" stroke="blue" points="1824.2,-102.71 1833.1,-96.96 1822.56,-95.91 1824.2,-102.71"/>
</g>
<!-- 7 -->
<g id="node8" class="node">
<title>7</title>
<text text-anchor="middle" x="443.3" y="-61.8" font-family="Times,serif" font-size="14.00">7</text>
</g>
<!-- 5\nYou didn&#39;t\nYou couldn&#39;t\nYou were unable to\nWe were counting on you to&#45;&gt;7 -->
<g id="edge7" class="edge">
<title>5\nYou didn&#39;t\nYou couldn&#39;t\nYou were unable to\nWe were counting on you to&#45;&gt;7</title>
<path fill="none" stroke="black" d="M380.38,-55.39C389.39,-56.86 398.16,-58.29 406.13,-59.59"/>
<polygon fill="black" stroke="black" points="405.66,-63.07 416.1,-61.22 406.79,-56.16 405.66,-63.07"/>
</g>
<!-- 14\ncollect all %(resources)s\nget the %(resources)s we needed -->
<g id="node15" class="node">
<title>14\ncollect all %(resources)s\nget the %(resources)s we needed</title>
<polygon fill="none" stroke="black" points="1253.3,-90 1057.3,-90 1057.3,-37 1253.3,-37 1253.3,-90"/>
<text text-anchor="middle" x="1155.3" y="-74.8" font-family="Times,serif" font-size="14.00">14</text>
<text text-anchor="middle" x="1155.3" y="-59.8" font-family="Times,serif" font-size="14.00">collect all %(resources)s</text>
<text text-anchor="middle" x="1155.3" y="-44.8" font-family="Times,serif" font-size="14.00">get the %(resources)s we needed</text>
</g>
<!-- 5\nYou didn&#39;t\nYou couldn&#39;t\nYou were unable to\nWe were counting on you to&#45;&gt;14\ncollect all %(resources)s\nget the %(resources)s we needed -->
<g id="edge6" class="edge">
<title>5\nYou didn&#39;t\nYou couldn&#39;t\nYou were unable to\nWe were counting on you to&#45;&gt;14\ncollect all %(resources)s\nget the %(resources)s we needed</title>
<path fill="none" stroke="black" d="M380.34,-31.18C437.95,-25.06 515.85,-18.5 584.8,-18.5 584.8,-18.5 584.8,-18.5 905.3,-18.5 952.37,-18.5 1003.65,-26.38 1047.38,-35.55"/>
<polygon fill="black" stroke="black" points="1046.66,-38.97 1057.17,-37.65 1048.13,-32.13 1046.66,-38.97"/>
</g>
<!-- 6\n␤␤Mission Failed&#45;&gt;1\n[end] -->
<g id="edge8" class="edge">
<title>6\n␤␤Mission Failed&#45;&gt;1\n[end]</title>
<path fill="none" stroke="green" stroke-dasharray="5,2" d="M1954.63,-82.5C1963.14,-82.5 1971.73,-82.5 1979.79,-82.5"/>
<polygon fill="green" stroke="green" points="1980.01,-86 1990.01,-82.5 1980.01,-79 1980.01,-86"/>
</g>
<!-- 8\nfind the lost Rock Raider -->
<g id="node9" class="node">
<title>8\nfind the lost Rock Raider</title>
<polygon fill="none" stroke="black" points="662.8,-84.5 508.8,-84.5 508.8,-46.5 662.8,-46.5 662.8,-84.5"/>
<text text-anchor="middle" x="585.8" y="-69.3" font-family="Times,serif" font-size="14.00">8</text>
<text text-anchor="middle" x="585.8" y="-54.3" font-family="Times,serif" font-size="14.00">find the lost Rock Raider</text>
</g>
<!-- 7&#45;&gt;8\nfind the lost Rock Raider -->
<g id="edge9" class="edge">
<title>7&#45;&gt;8\nfind the lost Rock Raider</title>
<path fill="none" stroke="black" d="M470.39,-65.5C478.67,-65.5 488.31,-65.5 498.43,-65.5"/>
<polygon fill="black" stroke="black" points="498.67,-69 508.67,-65.5 498.67,-62 498.67,-69"/>
</g>
<!-- 10\nfind the lost Rock Raiders -->
<g id="node11" class="node">
<title>10\nfind the lost Rock Raiders</title>
<polygon fill="none" stroke="black" points="665.3,-140.5 506.3,-140.5 506.3,-102.5 665.3,-102.5 665.3,-140.5"/>
<text text-anchor="middle" x="585.8" y="-125.3" font-family="Times,serif" font-size="14.00">10</text>
<text text-anchor="middle" x="585.8" y="-110.3" font-family="Times,serif" font-size="14.00">find the lost Rock Raiders</text>
</g>
<!-- 7&#45;&gt;10\nfind the lost Rock Raiders -->
<g id="edge10" class="edge">
<title>7&#45;&gt;10\nfind the lost Rock Raiders</title>
<path fill="none" stroke="black" d="M470.34,-77.83C481.35,-82.89 494.36,-88.68 506.3,-93.5 510.76,-95.3 515.39,-97.1 520.06,-98.88"/>
<polygon fill="black" stroke="black" points="519.09,-102.26 529.68,-102.48 521.54,-95.7 519.09,-102.26"/>
</g>
<!-- 9\n[lost_miners_one] -->
<g id="node10" class="node">
<title>9\n[lost_miners_one]</title>
<text text-anchor="middle" x="771.3" y="-69.3" font-family="Times,serif" font-size="14.00" fill="blue">9</text>
<text text-anchor="middle" x="771.3" y="-54.3" font-family="Times,serif" font-size="14.00" fill="blue">[lost_miners_one]</text>
</g>
<!-- 8\nfind the lost Rock Raider&#45;&gt;9\n[lost_miners_one] -->
<g id="edge11" class="edge">
<title>8\nfind the lost Rock Raider&#45;&gt;9\n[lost_miners_one]</title>
<path fill="none" stroke="blue" d="M663.02,-65.5C676.23,-65.5 689.88,-65.5 702.84,-65.5"/>
<polygon fill="blue" stroke="blue" points="703.06,-69 713.06,-65.5 703.06,-62 703.06,-69"/>
</g>
<!-- 13 -->
<g id="node14" class="node">
<title>13</title>
<text text-anchor="middle" x="904.3" y="-114.8" font-family="Times,serif" font-size="14.00">13</text>
</g>
<!-- 9\n[lost_miners_one]&#45;&gt;13 -->
<g id="edge12" class="edge">
<title>9\n[lost_miners_one]&#45;&gt;13</title>
<path fill="none" stroke="blue" d="M819.59,-84.63C835.46,-91.06 852.88,-98.1 867.7,-104.1"/>
<polygon fill="blue" stroke="blue" points="866.44,-107.36 877.02,-107.87 869.07,-100.88 866.44,-107.36"/>
</g>
<!-- 11\n[lost_miners_together] -->
<g id="node12" class="node">
<title>11\n[lost_miners_together]</title>
<text text-anchor="middle" x="771.3" y="-181.3" font-family="Times,serif" font-size="14.00" fill="blue">11</text>
<text text-anchor="middle" x="771.3" y="-166.3" font-family="Times,serif" font-size="14.00" fill="blue">[lost_miners_together]</text>
</g>
<!-- 10\nfind the lost Rock Raiders&#45;&gt;11\n[lost_miners_together] -->
<g id="edge13" class="edge">
<title>10\nfind the lost Rock Raiders&#45;&gt;11\n[lost_miners_together]</title>
<path fill="none" stroke="blue" d="M649.18,-140.54C664.84,-145.32 681.77,-150.48 697.88,-155.4"/>
<polygon fill="blue" stroke="blue" points="697.19,-158.85 707.78,-158.42 699.23,-152.15 697.19,-158.85"/>
</g>
<!-- 12\n[lost_miners_apart] -->
<g id="node13" class="node">
<title>12\n[lost_miners_apart]</title>
<text text-anchor="middle" x="771.3" y="-125.3" font-family="Times,serif" font-size="14.00" fill="blue">12</text>
<text text-anchor="middle" x="771.3" y="-110.3" font-family="Times,serif" font-size="14.00" fill="blue">[lost_miners_apart]</text>
</g>
<!-- 10\nfind the lost Rock Raiders&#45;&gt;12\n[lost_miners_apart] -->
<g id="edge14" class="edge">
<title>10\nfind the lost Rock Raiders&#45;&gt;12\n[lost_miners_apart]</title>
<path fill="none" stroke="blue" d="M665.42,-121.5C676.74,-121.5 688.33,-121.5 699.49,-121.5"/>
<polygon fill="blue" stroke="blue" points="699.59,-125 709.59,-121.5 699.59,-118 699.59,-125"/>
</g>
<!-- 11\n[lost_miners_together]&#45;&gt;13 -->
<g id="edge15" class="edge">
<title>11\n[lost_miners_together]&#45;&gt;13</title>
<path fill="none" stroke="blue" d="M820.76,-158.39C827.69,-155.5 834.7,-152.48 841.3,-149.5 850.07,-145.53 859.42,-141.01 868.13,-136.68"/>
<polygon fill="blue" stroke="blue" points="869.91,-139.7 877.27,-132.08 866.76,-133.45 869.91,-139.7"/>
</g>
<!-- 12\n[lost_miners_apart]&#45;&gt;13 -->
<g id="edge16" class="edge">
<title>12\n[lost_miners_apart]&#45;&gt;13</title>
<path fill="none" stroke="blue" d="M832.81,-120.11C844.48,-119.85 856.35,-119.58 866.95,-119.33"/>
<polygon fill="blue" stroke="blue" points="867.15,-122.83 877.07,-119.1 866.99,-115.83 867.15,-122.83"/>
</g>
<!-- 16\nand -->
<g id="node17" class="node">
<title>16\nand</title>
<polygon fill="none" stroke="black" points="1021.3,-88.5 967.3,-88.5 967.3,-50.5 1021.3,-50.5 1021.3,-88.5"/>
<text text-anchor="middle" x="994.3" y="-73.3" font-family="Times,serif" font-size="14.00">16</text>
<text text-anchor="middle" x="994.3" y="-58.3" font-family="Times,serif" font-size="14.00">and</text>
</g>
<!-- 13&#45;&gt;16\nand -->
<g id="edge17" class="edge">
<title>13&#45;&gt;16\nand</title>
<path fill="none" stroke="black" d="M931.7,-103.8C940.04,-99.15 949.39,-93.95 958.24,-89.02"/>
<polygon fill="black" stroke="black" points="960.18,-91.95 967.22,-84.02 956.78,-85.83 960.18,-91.95"/>
</g>
<!-- 17\n. -->
<g id="node18" class="node">
<title>17\n.</title>
<polygon fill="none" stroke="black" points="1498.3,-109.5 1444.3,-109.5 1444.3,-71.5 1498.3,-71.5 1498.3,-109.5"/>
<text text-anchor="middle" x="1471.3" y="-94.3" font-family="Times,serif" font-size="14.00">17</text>
<text text-anchor="middle" x="1471.3" y="-79.3" font-family="Times,serif" font-size="14.00">.</text>
</g>
<!-- 13&#45;&gt;17\n. -->
<g id="edge18" class="edge">
<title>13&#45;&gt;17\n.</title>
<path fill="none" stroke="black" d="M931.5,-117.62C1006.08,-115.06 1225.96,-107.02 1408.3,-95.5 1416.65,-94.97 1425.62,-94.31 1434.08,-93.63"/>
<polygon fill="black" stroke="black" points="1434.38,-97.12 1444.07,-92.82 1433.81,-90.14 1434.38,-97.12"/>
</g>
<!-- 15\n[collect_resources] -->
<g id="node16" class="node">
<title>15\n[collect_resources]</title>
<text text-anchor="middle" x="1348.8" y="-71.3" font-family="Times,serif" font-size="14.00" fill="blue">15</text>
<text text-anchor="middle" x="1348.8" y="-56.3" font-family="Times,serif" font-size="14.00" fill="blue">[collect_resources]</text>
</g>
<!-- 14\ncollect all %(resources)s\nget the %(resources)s we needed&#45;&gt;15\n[collect_resources] -->
<g id="edge19" class="edge">
<title>14\ncollect all %(resources)s\nget the %(resources)s we needed&#45;&gt;15\n[collect_resources]</title>
<path fill="none" stroke="blue" d="M1253.45,-65.53C1262.14,-65.71 1270.81,-65.89 1279.18,-66.07"/>
<polygon fill="blue" stroke="blue" points="1279.15,-69.57 1289.22,-66.28 1279.3,-62.57 1279.15,-69.57"/>
</g>
<!-- 15\n[collect_resources]&#45;&gt;17\n. -->
<g id="edge20" class="edge">
<title>15\n[collect_resources]&#45;&gt;17\n.</title>
<path fill="none" stroke="blue" d="M1408.63,-78.73C1417.27,-80.38 1425.95,-82.04 1433.96,-83.56"/>
<polygon fill="blue" stroke="blue" points="1433.56,-87.05 1444.04,-85.49 1434.87,-80.18 1433.56,-87.05"/>
</g>
<!-- 16\nand&#45;&gt;14\ncollect all %(resources)s\nget the %(resources)s we needed -->
<g id="edge21" class="edge">
<title>16\nand&#45;&gt;14\ncollect all %(resources)s\nget the %(resources)s we needed</title>
<path fill="none" stroke="black" d="M1021.55,-68.51C1029.07,-68.23 1037.75,-67.9 1047.02,-67.55"/>
<polygon fill="black" stroke="black" points="1047.41,-71.04 1057.27,-67.16 1047.14,-64.04 1047.41,-71.04"/>
</g>
<!-- 17\n.&#45;&gt;3\nChin up, Cadet!\nYou must succeed, Cadet!\nYou&#39;ll do better next time. -->
<g id="edge22" class="edge">
<title>17\n.&#45;&gt;3\nChin up, Cadet!\nYou must succeed, Cadet!\nYou&#39;ll do better next time.</title>
<path fill="none" stroke="black" d="M1498.49,-96.26C1506.17,-97.95 1515.04,-99.9 1524.36,-101.95"/>
<polygon fill="black" stroke="black" points="1523.7,-105.39 1534.22,-104.12 1525.21,-98.55 1523.7,-105.39"/>
</g>
<!-- 17\n.&#45;&gt;6\n␤␤Mission Failed -->
<g id="edge23" class="edge">
<title>17\n.&#45;&gt;6\n␤␤Mission Failed</title>
<path fill="none" stroke="black" d="M1498.38,-84.3C1509.39,-81.99 1522.4,-79.64 1534.3,-78.5 1634.1,-68.93 1750.24,-72.99 1822.65,-77.31"/>
<polygon fill="black" stroke="black" points="1822.81,-80.83 1833.01,-77.95 1823.24,-73.84 1822.81,-80.83"/>
</g>
</g>
</svg>
