<?xml version="1.0" encoding="UTF-8" standalone="no"?>
<!DOCTYPE svg PUBLIC "-//W3C//DTD SVG 1.1//EN"
 "http://www.w3.org/Graphics/SVG/1.1/DTD/svg11.dtd">
<!-- Generated by graphviz version 2.43.0 (0)
 -->
<!-- Title: G Pages: 1 -->
<svg width="2014pt" height="197pt"
 viewBox="0.00 0.00 2014.00 197.00" xmlns="http://www.w3.org/2000/svg" xmlns:xlink="http://www.w3.org/1999/xlink">
<g id="graph0" class="graph" transform="scale(1 1) rotate(0) translate(4 193)">
<title>G</title>
<polygon fill="white" stroke="transparent" points="-4,4 -4,-193 2010,-193 2010,4 -4,4"/>
<!-- 0\n[start] -->
<g id="node1" class="node">
<title>0\n[start]</title>
<text text-anchor="middle" x="27" y="-37.8" font-family="Times,serif" font-size="14.00" fill="green">0</text>
<text text-anchor="middle" x="27" y="-22.8" font-family="Times,serif" font-size="14.00" fill="green">[start]</text>
</g>
<!-- 2\nOh, dear. -->
<g id="node3" class="node">
<title>2\nOh, dear.</title>
<polygon fill="none" stroke="black" points="157,-77 90,-77 90,-39 157,-39 157,-77"/>
<text text-anchor="middle" x="123.5" y="-61.8" font-family="Times,serif" font-size="14.00">2</text>
<text text-anchor="middle" x="123.5" y="-46.8" font-family="Times,serif" font-size="14.00">Oh, dear.</text>
</g>
<!-- 0\n[start]&#45;&gt;2\nOh, dear. -->
<g id="edge1" class="edge">
<title>0\n[start]&#45;&gt;2\nOh, dear.</title>
<path fill="none" stroke="green" d="M54.07,-40.62C62.09,-42.66 71.13,-44.95 79.96,-47.2"/>
<polygon fill="green" stroke="green" points="79.2,-50.62 89.76,-49.68 80.93,-43.83 79.2,-50.62"/>
</g>
<!-- 5\nYou didn&#39;t\nYou couldn&#39;t\nWe were counting on you to -->
<g id="node6" class="node">
<title>5\nYou didn&#39;t\nYou couldn&#39;t\nWe were counting on you to</title>
<polygon fill="none" stroke="black" points="365,-68 193,-68 193,0 365,0 365,-68"/>
<text text-anchor="middle" x="279" y="-52.8" font-family="Times,serif" font-size="14.00">5</text>
<text text-anchor="middle" x="279" y="-37.8" font-family="Times,serif" font-size="14.00">You didn&#39;t</text>
<text text-anchor="middle" x="279" y="-22.8" font-family="Times,serif" font-size="14.00">You couldn&#39;t</text>
<text text-anchor="middle" x="279" y="-7.8" font-family="Times,serif" font-size="14.00">We were counting on you to</text>
</g>
<!-- 0\n[start]&#45;&gt;5\nYou didn&#39;t\nYou couldn&#39;t\nWe were counting on you to -->
<g id="edge2" class="edge">
<title>0\n[start]&#45;&gt;5\nYou didn&#39;t\nYou couldn&#39;t\nWe were counting on you to</title>
<path fill="none" stroke="green" d="M54.23,-31.93C65.26,-31.16 78.25,-30.38 90,-30 120.06,-29.03 152.84,-29.28 182.48,-29.99"/>
<polygon fill="green" stroke="green" points="182.74,-33.5 192.82,-30.26 182.92,-26.5 182.74,-33.5"/>
</g>
<!-- 1\n[end] -->
<g id="node2" class="node">
<title>1\n[end]</title>
<text text-anchor="middle" x="1979" y="-86.8" font-family="Times,serif" font-size="14.00" fill="green">1</text>
<text text-anchor="middle" x="1979" y="-71.8" font-family="Times,serif" font-size="14.00" fill="green">[end]</text>
</g>
<!-- 2\nOh, dear.&#45;&gt;5\nYou didn&#39;t\nYou couldn&#39;t\nWe were counting on you to -->
<g id="edge3" class="edge">
<title>2\nOh, dear.&#45;&gt;5\nYou didn&#39;t\nYou couldn&#39;t\nWe were counting on you to</title>
<path fill="none" stroke="black" d="M157.05,-52.91C164.87,-51.69 173.62,-50.32 182.74,-48.89"/>
<polygon fill="black" stroke="black" points="183.42,-52.33 192.76,-47.33 182.34,-45.41 183.42,-52.33"/>
</g>
<!-- 3\nYou&#39;ll do better next time. -->
<g id="node4" class="node">
<title>3\nYou&#39;ll do better next time.</title>
<polygon fill="none" stroke="black" points="1679,-126 1519,-126 1519,-88 1679,-88 1679,-126"/>
<text text-anchor="middle" x="1599" y="-110.8" font-family="Times,serif" font-size="14.00">3</text>
<text text-anchor="middle" x="1599" y="-95.8" font-family="Times,serif" font-size="14.00">You&#39;ll do better next time.</text>
</g>
<!-- 4\n[console] -->
<g id="node5" class="node">
<title>4\n[console]</title>
<text text-anchor="middle" x="1748.5" y="-110.8" font-family="Times,serif" font-size="14.00" fill="blue">4</text>
<text text-anchor="middle" x="1748.5" y="-95.8" font-family="Times,serif" font-size="14.00" fill="blue">[console]</text>
</g>
<!-- 3\nYou&#39;ll do better next time.&#45;&gt;4\n[console] -->
<g id="edge4" class="edge">
<title>3\nYou&#39;ll do better next time.&#45;&gt;4\n[console]</title>
<path fill="none" stroke="blue" d="M1679.36,-107C1688.09,-107 1696.71,-107 1704.73,-107"/>
<polygon fill="blue" stroke="blue" points="1704.89,-110.5 1714.89,-107 1704.89,-103.5 1704.89,-110.5"/>
</g>
<!-- 6\nMission Failed -->
<g id="node7" class="node">
<title>6\nMission Failed</title>
<polygon fill="none" stroke="black" points="1916,-102 1818,-102 1818,-64 1916,-64 1916,-102"/>
<text text-anchor="middle" x="1867" y="-86.8" font-family="Times,serif" font-size="14.00">6</text>
<text text-anchor="middle" x="1867" y="-71.8" font-family="Times,serif" font-size="14.00">Mission Failed</text>
</g>
<!-- 4\n[console]&#45;&gt;6\nMission Failed -->
<g id="edge5" class="edge">
<title>4\n[console]&#45;&gt;6\nMission Failed</title>
<path fill="none" stroke="blue" d="M1782.26,-100.25C1790.28,-98.6 1799.1,-96.78 1807.92,-94.96"/>
<polygon fill="blue" stroke="blue" points="1808.74,-98.37 1817.83,-92.92 1807.33,-91.51 1808.74,-98.37"/>
</g>
<!-- 7 -->
<g id="node8" class="node">
<title>7</title>
<text text-anchor="middle" x="428" y="-54.3" font-family="Times,serif" font-size="14.00">7</text>
</g>
<!-- 5\nYou didn&#39;t\nYou couldn&#39;t\nWe were counting on you to&#45;&gt;7 -->
<g id="edge7" class="edge">
<title>5\nYou didn&#39;t\nYou couldn&#39;t\nWe were counting on you to&#45;&gt;7</title>
<path fill="none" stroke="black" d="M365.08,-47.89C374.09,-49.36 382.86,-50.79 390.83,-52.09"/>
<polygon fill="black" stroke="black" points="390.37,-55.57 400.8,-53.72 391.5,-48.66 390.37,-55.57"/>
</g>
<!-- 14\ncollect all %(resources)s\nget the %(resources)s we needed -->
<g id="node15" class="node">
<title>14\ncollect all %(resources)s\nget the %(resources)s we needed</title>
<polygon fill="none" stroke="black" points="1238,-82.5 1042,-82.5 1042,-29.5 1238,-29.5 1238,-82.5"/>
<text text-anchor="middle" x="1140" y="-67.3" font-family="Times,serif" font-size="14.00">14</text>
<text text-anchor="middle" x="1140" y="-52.3" font-family="Times,serif" font-size="14.00">collect all %(resources)s</text>
<text text-anchor="middle" x="1140" y="-37.3" font-family="Times,serif" font-size="14.00">get the %(resources)s we needed</text>
</g>
<!-- 5\nYou didn&#39;t\nYou couldn&#39;t\nWe were counting on you to&#45;&gt;14\ncollect all %(resources)s\nget the %(resources)s we needed -->
<g id="edge6" class="edge">
<title>5\nYou didn&#39;t\nYou couldn&#39;t\nWe were counting on you to&#45;&gt;14\ncollect all %(resources)s\nget the %(resources)s we needed</title>
<path fill="none" stroke="black" d="M365.05,-23.68C422.66,-17.56 500.55,-11 569.5,-11 569.5,-11 569.5,-11 890,-11 937.07,-11 988.36,-18.88 1032.09,-28.05"/>
<polygon fill="black" stroke="black" points="1031.36,-31.47 1041.87,-30.15 1032.83,-24.63 1031.36,-31.47"/>
</g>
<!-- 6\nMission Failed&#45;&gt;1\n[end] -->
<g id="edge8" class="edge">
<title>6\nMission Failed&#45;&gt;1\n[end]</title>
<path fill="none" stroke="green" d="M1916.25,-83C1924.76,-83 1933.48,-83 1941.6,-83"/>
<polygon fill="green" stroke="green" points="1941.85,-86.5 1951.85,-83 1941.85,-79.5 1941.85,-86.5"/>
</g>
<!-- 8\nfind the lost Rock Raider -->
<g id="node9" class="node">
<title>8\nfind the lost Rock Raider</title>
<polygon fill="none" stroke="black" points="647.5,-77 493.5,-77 493.5,-39 647.5,-39 647.5,-77"/>
<text text-anchor="middle" x="570.5" y="-61.8" font-family="Times,serif" font-size="14.00">8</text>
<text text-anchor="middle" x="570.5" y="-46.8" font-family="Times,serif" font-size="14.00">find the lost Rock Raider</text>
</g>
<!-- 7&#45;&gt;8\nfind the lost Rock Raider -->
<g id="edge9" class="edge">
<title>7&#45;&gt;8\nfind the lost Rock Raider</title>
<path fill="none" stroke="black" d="M455.1,-58C463.37,-58 473.02,-58 483.14,-58"/>
<polygon fill="black" stroke="black" points="483.38,-61.5 493.38,-58 483.38,-54.5 483.38,-61.5"/>
</g>
<!-- 10\nfind the lost Rock Raiders -->
<g id="node11" class="node">
<title>10\nfind the lost Rock Raiders</title>
<polygon fill="none" stroke="black" points="650,-133 491,-133 491,-95 650,-95 650,-133"/>
<text text-anchor="middle" x="570.5" y="-117.8" font-family="Times,serif" font-size="14.00">10</text>
<text text-anchor="middle" x="570.5" y="-102.8" font-family="Times,serif" font-size="14.00">find the lost Rock Raiders</text>
</g>
<!-- 7&#45;&gt;10\nfind the lost Rock Raiders -->
<g id="edge10" class="edge">
<title>7&#45;&gt;10\nfind the lost Rock Raiders</title>
<path fill="none" stroke="black" d="M455.04,-70.33C466.05,-75.39 479.06,-81.18 491,-86 495.46,-87.8 500.09,-89.6 504.76,-91.38"/>
<polygon fill="black" stroke="black" points="503.79,-94.76 514.39,-94.98 506.25,-88.2 503.79,-94.76"/>
</g>
<!-- 9\n[lost_miners_one] -->
<g id="node10" class="node">
<title>9\n[lost_miners_one]</title>
<text text-anchor="middle" x="756" y="-61.8" font-family="Times,serif" font-size="14.00" fill="blue">9</text>
<text text-anchor="middle" x="756" y="-46.8" font-family="Times,serif" font-size="14.00" fill="blue">[lost_miners_one]</text>
</g>
<!-- 8\nfind the lost Rock Raider&#45;&gt;9\n[lost_miners_one] -->
<g id="edge11" class="edge">
<title>8\nfind the lost Rock Raider&#45;&gt;9\n[lost_miners_one]</title>
<path fill="none" stroke="blue" d="M647.73,-58C660.94,-58 674.59,-58 687.54,-58"/>
<polygon fill="blue" stroke="blue" points="687.76,-61.5 697.76,-58 687.76,-54.5 687.76,-61.5"/>
</g>
<!-- 13 -->
<g id="node14" class="node">
<title>13</title>
<text text-anchor="middle" x="889" y="-107.3" font-family="Times,serif" font-size="14.00">13</text>
</g>
<!-- 9\n[lost_miners_one]&#45;&gt;13 -->
<g id="edge12" class="edge">
<title>9\n[lost_miners_one]&#45;&gt;13</title>
<path fill="none" stroke="blue" d="M804.29,-77.13C820.17,-83.56 837.59,-90.6 852.41,-96.6"/>
<polygon fill="blue" stroke="blue" points="851.14,-99.86 861.73,-100.37 853.77,-93.38 851.14,-99.86"/>
</g>
<!-- 11\n[lost_miners_together] -->
<g id="node12" class="node">
<title>11\n[lost_miners_together]</title>
<text text-anchor="middle" x="756" y="-173.8" font-family="Times,serif" font-size="14.00" fill="blue">11</text>
<text text-anchor="middle" x="756" y="-158.8" font-family="Times,serif" font-size="14.00" fill="blue">[lost_miners_together]</text>
</g>
<!-- 10\nfind the lost Rock Raiders&#45;&gt;11\n[lost_miners_together] -->
<g id="edge13" class="edge">
<title>10\nfind the lost Rock Raiders&#45;&gt;11\n[lost_miners_together]</title>
<path fill="none" stroke="blue" d="M633.88,-133.04C649.54,-137.82 666.48,-142.98 682.58,-147.9"/>
<polygon fill="blue" stroke="blue" points="681.89,-151.35 692.48,-150.92 683.94,-144.65 681.89,-151.35"/>
</g>
<!-- 12\n[lost_miners_apart] -->
<g id="node13" class="node">
<title>12\n[lost_miners_apart]</title>
<text text-anchor="middle" x="756" y="-117.8" font-family="Times,serif" font-size="14.00" fill="blue">12</text>
<text text-anchor="middle" x="756" y="-102.8" font-family="Times,serif" font-size="14.00" fill="blue">[lost_miners_apart]</text>
</g>
<!-- 10\nfind the lost Rock Raiders&#45;&gt;12\n[lost_miners_apart] -->
<g id="edge14" class="edge">
<title>10\nfind the lost Rock Raiders&#45;&gt;12\n[lost_miners_apart]</title>
<path fill="none" stroke="blue" d="M650.12,-114C661.44,-114 673.03,-114 684.19,-114"/>
<polygon fill="blue" stroke="blue" points="684.29,-117.5 694.29,-114 684.29,-110.5 684.29,-117.5"/>
</g>
<!-- 11\n[lost_miners_together]&#45;&gt;13 -->
<g id="edge15" class="edge">
<title>11\n[lost_miners_together]&#45;&gt;13</title>
<path fill="none" stroke="blue" d="M805.46,-150.89C812.39,-148 819.4,-144.98 826,-142 834.78,-138.03 844.13,-133.51 852.83,-129.18"/>
<polygon fill="blue" stroke="blue" points="854.61,-132.2 861.97,-124.58 851.47,-125.95 854.61,-132.2"/>
</g>
<!-- 12\n[lost_miners_apart]&#45;&gt;13 -->
<g id="edge16" class="edge">
<title>12\n[lost_miners_apart]&#45;&gt;13</title>
<path fill="none" stroke="blue" d="M817.52,-112.61C829.18,-112.35 841.06,-112.08 851.65,-111.83"/>
<polygon fill="blue" stroke="blue" points="851.85,-115.33 861.77,-111.6 851.69,-108.33 851.85,-115.33"/>
</g>
<!-- 16\nand -->
<g id="node17" class="node">
<title>16\nand</title>
<polygon fill="none" stroke="black" points="1006,-81 952,-81 952,-43 1006,-43 1006,-81"/>
<text text-anchor="middle" x="979" y="-65.8" font-family="Times,serif" font-size="14.00">16</text>
<text text-anchor="middle" x="979" y="-50.8" font-family="Times,serif" font-size="14.00">and</text>
</g>
<!-- 13&#45;&gt;16\nand -->
<g id="edge17" class="edge">
<title>13&#45;&gt;16\nand</title>
<path fill="none" stroke="black" d="M916.4,-96.3C924.74,-91.65 934.1,-86.45 942.94,-81.52"/>
<polygon fill="black" stroke="black" points="944.88,-84.45 951.92,-76.52 941.48,-78.33 944.88,-84.45"/>
</g>
<!-- 17\n. -->
<g id="node18" class="node">
<title>17\n.</title>
<polygon fill="none" stroke="black" points="1483,-102 1429,-102 1429,-64 1483,-64 1483,-102"/>
<text text-anchor="middle" x="1456" y="-86.8" font-family="Times,serif" font-size="14.00">17</text>
<text text-anchor="middle" x="1456" y="-71.8" font-family="Times,serif" font-size="14.00">.</text>
</g>
<!-- 13&#45;&gt;17\n. -->
<g id="edge18" class="edge">
<title>13&#45;&gt;17\n.</title>
<path fill="none" stroke="black" d="M916.2,-110.12C990.79,-107.56 1210.66,-99.52 1393,-88 1401.35,-87.47 1410.33,-86.81 1418.79,-86.13"/>
<polygon fill="black" stroke="black" points="1419.09,-89.62 1428.77,-85.32 1418.52,-82.64 1419.09,-89.62"/>
</g>
<!-- 15\n[collect_resources] -->
<g id="node16" class="node">
<title>15\n[collect_resources]</title>
<text text-anchor="middle" x="1333.5" y="-63.8" font-family="Times,serif" font-size="14.00" fill="blue">15</text>
<text text-anchor="middle" x="1333.5" y="-48.8" font-family="Times,serif" font-size="14.00" fill="blue">[collect_resources]</text>
</g>
<!-- 14\ncollect all %(resources)s\nget the %(resources)s we needed&#45;&gt;15\n[collect_resources] -->
<g id="edge19" class="edge">
<title>14\ncollect all %(resources)s\nget the %(resources)s we needed&#45;&gt;15\n[collect_resources]</title>
<path fill="none" stroke="blue" d="M1238.15,-58.03C1246.84,-58.21 1255.51,-58.39 1263.89,-58.57"/>
<polygon fill="blue" stroke="blue" points="1263.86,-62.07 1273.93,-58.78 1264,-55.07 1263.86,-62.07"/>
</g>
<!-- 15\n[collect_resources]&#45;&gt;17\n. -->
<g id="edge20" class="edge">
<title>15\n[collect_resources]&#45;&gt;17\n.</title>
<path fill="none" stroke="blue" d="M1393.34,-71.23C1401.98,-72.88 1410.66,-74.54 1418.66,-76.06"/>
<polygon fill="blue" stroke="blue" points="1418.26,-79.55 1428.74,-77.99 1419.58,-72.68 1418.26,-79.55"/>
</g>
<!-- 16\nand&#45;&gt;14\ncollect all %(resources)s\nget the %(resources)s we needed -->
<g id="edge21" class="edge">
<title>16\nand&#45;&gt;14\ncollect all %(resources)s\nget the %(resources)s we needed</title>
<path fill="none" stroke="black" d="M1006.26,-61.01C1013.77,-60.73 1022.46,-60.4 1031.72,-60.05"/>
<polygon fill="black" stroke="black" points="1032.11,-63.54 1041.97,-59.66 1031.85,-56.54 1032.11,-63.54"/>
</g>
<!-- 17\n.&#45;&gt;3\nYou&#39;ll do better next time. -->
<g id="edge22" class="edge">
<title>17\n.&#45;&gt;3\nYou&#39;ll do better next time.</title>
<path fill="none" stroke="black" d="M1483.19,-87.46C1490.87,-88.77 1499.74,-90.27 1509.07,-91.86"/>
<polygon fill="black" stroke="black" points="1508.48,-95.31 1518.93,-93.54 1509.66,-88.41 1508.48,-95.31"/>
</g>
<!-- 17\n.&#45;&gt;6\nMission Failed -->
<g id="edge23" class="edge">
<title>17\n.&#45;&gt;6\nMission Failed</title>
<path fill="none" stroke="black" d="M1483.23,-80.93C1494.26,-80.16 1507.25,-79.38 1519,-79 1635.83,-75.24 1665.14,-76.22 1782,-79 1790.2,-79.2 1798.84,-79.5 1807.34,-79.85"/>
<polygon fill="black" stroke="black" points="1807.45,-83.36 1817.6,-80.3 1807.76,-76.36 1807.45,-83.36"/>
</g>
</g>
</svg>
