<?xml version="1.0" encoding="UTF-8" standalone="no"?>
<!DOCTYPE svg PUBLIC "-//W3C//DTD SVG 1.1//EN"
 "http://www.w3.org/Graphics/SVG/1.1/DTD/svg11.dtd">
<!-- Generated by graphviz version 2.43.0 (0)
 -->
<!-- Title: G Pages: 1 -->
<svg width="1073pt" height="178pt"
 viewBox="0.00 0.00 1072.94 177.50" xmlns="http://www.w3.org/2000/svg" xmlns:xlink="http://www.w3.org/1999/xlink">
<g id="graph0" class="graph" transform="scale(1 1) rotate(0) translate(4 173.5)">
<title>G</title>
<polygon fill="white" stroke="transparent" points="-4,4 -4,-173.5 1068.94,-173.5 1068.94,4 -4,4"/>
<!-- 0\n[start] -->
<g id="node1" class="node">
<title>0\n[start]</title>
<ellipse fill="none" stroke="green" cx="34.65" cy="-96" rx="34.8" ry="34.8"/>
<text text-anchor="middle" x="34.65" y="-99.8" font-family="Times,serif" font-size="14.00" fill="green">0</text>
<text text-anchor="middle" x="34.65" y="-84.8" font-family="Times,serif" font-size="14.00" fill="green">[start]</text>
</g>
<!-- 2\nLook! It&#39;s the lost Rock Raider!You\nfound the missing Rock Raider! -->
<g id="node3" class="node">
<title>2\nLook! It&#39;s the lost Rock Raider!You\nfound the missing Rock Raider!</title>
<polygon fill="none" stroke="black" points="327.8,-169.5 115.8,-169.5 115.8,-116.5 327.8,-116.5 327.8,-169.5"/>
<text text-anchor="middle" x="221.8" y="-154.3" font-family="Times,serif" font-size="14.00">2</text>
<text text-anchor="middle" x="221.8" y="-139.3" font-family="Times,serif" font-size="14.00">Look! It&#39;s the lost Rock Raider!You</text>
<text text-anchor="middle" x="221.8" y="-124.3" font-family="Times,serif" font-size="14.00">found the missing Rock Raider!</text>
</g>
<!-- 0\n[start]&#45;&gt;2\nLook! It&#39;s the lost Rock Raider!You\nfound the missing Rock Raider! -->
<g id="edge1" class="edge">
<title>0\n[start]&#45;&gt;2\nLook! It&#39;s the lost Rock Raider!You\nfound the missing Rock Raider!</title>
<path fill="none" stroke="green" stroke-dasharray="5,2" d="M68.32,-104.29C79.35,-107.09 92.36,-110.4 106.07,-113.88"/>
<polygon fill="green" stroke="green" points="105.59,-117.37 116.15,-116.43 107.31,-110.58 105.59,-117.37"/>
</g>
<!-- 4\nAnd that makes %(lost_miners_count)s\nRock Raiders found!You found all\n%(lost_miners_count)s Rock Raiders!\nThat&#39;s all %(lost_miners_count)s Rock\nRaiders found! -->
<g id="node5" class="node">
<title>4\nAnd that makes %(lost_miners_count)s\nRock Raiders found!You found all\n%(lost_miners_count)s Rock Raiders!\nThat&#39;s all %(lost_miners_count)s Rock\nRaiders found!</title>
<polygon fill="none" stroke="black" points="338.3,-98 105.3,-98 105.3,0 338.3,0 338.3,-98"/>
<text text-anchor="middle" x="221.8" y="-82.8" font-family="Times,serif" font-size="14.00">4</text>
<text text-anchor="middle" x="221.8" y="-67.8" font-family="Times,serif" font-size="14.00">And that makes %(lost_miners_count)s</text>
<text text-anchor="middle" x="221.8" y="-52.8" font-family="Times,serif" font-size="14.00">Rock Raiders found!You found all</text>
<text text-anchor="middle" x="221.8" y="-37.8" font-family="Times,serif" font-size="14.00">%(lost_miners_count)s Rock Raiders!</text>
<text text-anchor="middle" x="221.8" y="-22.8" font-family="Times,serif" font-size="14.00">That&#39;s all %(lost_miners_count)s Rock</text>
<text text-anchor="middle" x="221.8" y="-7.8" font-family="Times,serif" font-size="14.00">Raiders found!</text>
</g>
<!-- 0\n[start]&#45;&gt;4\nAnd that makes %(lost_miners_count)s\nRock Raiders found!You found all\n%(lost_miners_count)s Rock Raiders!\nThat&#39;s all %(lost_miners_count)s Rock\nRaiders found! -->
<g id="edge2" class="edge">
<title>0\n[start]&#45;&gt;4\nAnd that makes %(lost_miners_count)s\nRock Raiders found!You found all\n%(lost_miners_count)s Rock Raiders!\nThat&#39;s all %(lost_miners_count)s Rock\nRaiders found!</title>
<path fill="none" stroke="green" stroke-dasharray="5,2" d="M68.32,-87.71C76.42,-85.65 85.59,-83.32 95.32,-80.85"/>
<polygon fill="green" stroke="green" points="96.38,-84.2 105.21,-78.34 94.65,-77.41 96.38,-84.2"/>
</g>
<!-- 1\n[end] -->
<g id="node2" class="node">
<title>1\n[end]</title>
<ellipse fill="none" stroke="green" cx="1033.12" cy="-87" rx="31.64" ry="31.64"/>
<text text-anchor="middle" x="1033.12" y="-90.8" font-family="Times,serif" font-size="14.00" fill="green">1</text>
<text text-anchor="middle" x="1033.12" y="-75.8" font-family="Times,serif" font-size="14.00" fill="green">[end]</text>
</g>
<!-- 3\n[lost_miners_one] -->
<g id="node4" class="node">
<title>3\n[lost_miners_one]</title>
<text text-anchor="middle" x="444.3" y="-146.8" font-family="Times,serif" font-size="14.00" fill="blue">3</text>
<text text-anchor="middle" x="444.3" y="-131.8" font-family="Times,serif" font-size="14.00" fill="blue">[lost_miners_one]</text>
</g>
<!-- 2\nLook! It&#39;s the lost Rock Raider!You\nfound the missing Rock Raider!&#45;&gt;3\n[lost_miners_one] -->
<g id="edge3" class="edge">
<title>2\nLook! It&#39;s the lost Rock Raider!You\nfound the missing Rock Raider!&#45;&gt;3\n[lost_miners_one]</title>
<path fill="none" stroke="blue" d="M327.88,-143C344.19,-143 360.66,-143 375.84,-143"/>
<polygon fill="blue" stroke="blue" points="376.13,-146.5 386.13,-143 376.13,-139.5 376.13,-146.5"/>
</g>
<!-- 7 -->
<g id="node8" class="node">
<title>7</title>
<text text-anchor="middle" x="577.3" y="-83.3" font-family="Times,serif" font-size="14.00">7</text>
</g>
<!-- 3\n[lost_miners_one]&#45;&gt;7 -->
<g id="edge4" class="edge">
<title>3\n[lost_miners_one]&#45;&gt;7</title>
<path fill="none" stroke="blue" d="M492.91,-123.96C500.09,-121.01 507.4,-117.95 514.3,-115 522.99,-111.28 532.3,-107.14 541.01,-103.22"/>
<polygon fill="blue" stroke="blue" points="542.49,-106.39 550.15,-99.08 539.6,-100.02 542.49,-106.39"/>
</g>
<!-- 5\n[lost_miners_together] -->
<g id="node6" class="node">
<title>5\n[lost_miners_together]</title>
<text text-anchor="middle" x="444.3" y="-90.8" font-family="Times,serif" font-size="14.00" fill="blue">5</text>
<text text-anchor="middle" x="444.3" y="-75.8" font-family="Times,serif" font-size="14.00" fill="blue">[lost_miners_together]</text>
</g>
<!-- 4\nAnd that makes %(lost_miners_count)s\nRock Raiders found!You found all\n%(lost_miners_count)s Rock Raiders!\nThat&#39;s all %(lost_miners_count)s Rock\nRaiders found!&#45;&gt;5\n[lost_miners_together] -->
<g id="edge5" class="edge">
<title>4\nAnd that makes %(lost_miners_count)s\nRock Raiders found!You found all\n%(lost_miners_count)s Rock Raiders!\nThat&#39;s all %(lost_miners_count)s Rock\nRaiders found!&#45;&gt;5\n[lost_miners_together]</title>
<path fill="none" stroke="blue" d="M338.54,-68.95C347.18,-70.44 355.79,-71.92 364.13,-73.36"/>
<polygon fill="blue" stroke="blue" points="363.72,-76.84 374.17,-75.09 364.91,-69.94 363.72,-76.84"/>
</g>
<!-- 6\n[lost_miners_apart] -->
<g id="node7" class="node">
<title>6\n[lost_miners_apart]</title>
<text text-anchor="middle" x="444.3" y="-34.8" font-family="Times,serif" font-size="14.00" fill="blue">6</text>
<text text-anchor="middle" x="444.3" y="-19.8" font-family="Times,serif" font-size="14.00" fill="blue">[lost_miners_apart]</text>
</g>
<!-- 4\nAnd that makes %(lost_miners_count)s\nRock Raiders found!You found all\n%(lost_miners_count)s Rock Raiders!\nThat&#39;s all %(lost_miners_count)s Rock\nRaiders found!&#45;&gt;6\n[lost_miners_apart] -->
<g id="edge6" class="edge">
<title>4\nAnd that makes %(lost_miners_count)s\nRock Raiders found!You found all\n%(lost_miners_count)s Rock Raiders!\nThat&#39;s all %(lost_miners_count)s Rock\nRaiders found!&#45;&gt;6\n[lost_miners_apart]</title>
<path fill="none" stroke="blue" d="M338.54,-39.55C350.12,-38.61 361.62,-37.67 372.53,-36.78"/>
<polygon fill="blue" stroke="blue" points="373.1,-40.24 382.79,-35.94 372.54,-33.26 373.1,-40.24"/>
</g>
<!-- 5\n[lost_miners_together]&#45;&gt;7 -->
<g id="edge7" class="edge">
<title>5\n[lost_miners_together]&#45;&gt;7</title>
<path fill="none" stroke="blue" d="M514.63,-87C523.42,-87 532.12,-87 540.09,-87"/>
<polygon fill="blue" stroke="blue" points="540.09,-90.5 550.09,-87 540.09,-83.5 540.09,-90.5"/>
</g>
<!-- 6\n[lost_miners_apart]&#45;&gt;7 -->
<g id="edge8" class="edge">
<title>6\n[lost_miners_apart]&#45;&gt;7</title>
<path fill="none" stroke="blue" d="M492.91,-50.04C500.09,-52.99 507.4,-56.05 514.3,-59 522.99,-62.72 532.3,-66.86 541.01,-70.78"/>
<polygon fill="blue" stroke="blue" points="539.6,-73.98 550.15,-74.92 542.49,-67.61 539.6,-73.98"/>
</g>
<!-- 7&#45;&gt;1\n[end] -->
<g id="edge10" class="edge">
<title>7&#45;&gt;1\n[end]</title>
<path fill="none" stroke="green" stroke-dasharray="5,2" d="M604.51,-89.58C615.55,-90.55 628.54,-91.53 640.3,-92 784.62,-97.81 820.95,-97.39 965.3,-92 973.64,-91.69 982.57,-91.16 991.08,-90.56"/>
<polygon fill="green" stroke="green" points="991.49,-94.04 1001.2,-89.8 990.97,-87.05 991.49,-94.04"/>
</g>
<!-- 8\nNow, collect %(resources)s. -->
<g id="node9" class="node">
<title>8\nNow, collect %(resources)s.</title>
<polygon fill="none" stroke="black" points="810.3,-83 640.3,-83 640.3,-45 810.3,-45 810.3,-83"/>
<text text-anchor="middle" x="725.3" y="-67.8" font-family="Times,serif" font-size="14.00">8</text>
<text text-anchor="middle" x="725.3" y="-52.8" font-family="Times,serif" font-size="14.00">Now, collect %(resources)s.</text>
</g>
<!-- 7&#45;&gt;8\nNow, collect %(resources)s. -->
<g id="edge9" class="edge">
<title>7&#45;&gt;8\nNow, collect %(resources)s.</title>
<path fill="none" stroke="black" d="M604.4,-82.89C612.07,-81.68 620.94,-80.28 630.31,-78.81"/>
<polygon fill="black" stroke="black" points="630.9,-82.26 640.23,-77.24 629.81,-75.34 630.9,-82.26"/>
</g>
<!-- 9\n[collect_resources] -->
<g id="node10" class="node">
<title>9\n[collect_resources]</title>
<text text-anchor="middle" x="905.8" y="-67.8" font-family="Times,serif" font-size="14.00" fill="blue">9</text>
<text text-anchor="middle" x="905.8" y="-52.8" font-family="Times,serif" font-size="14.00" fill="blue">[collect_resources]</text>
</g>
<!-- 8\nNow, collect %(resources)s.&#45;&gt;9\n[collect_resources] -->
<g id="edge11" class="edge">
<title>8\nNow, collect %(resources)s.&#45;&gt;9\n[collect_resources]</title>
<path fill="none" stroke="blue" d="M810.32,-64C818.93,-64 827.61,-64 836.04,-64"/>
<polygon fill="blue" stroke="blue" points="836.16,-67.5 846.16,-64 836.16,-60.5 836.16,-67.5"/>
</g>
<!-- 9\n[collect_resources]&#45;&gt;1\n[end] -->
<g id="edge12" class="edge">
<title>9\n[collect_resources]&#45;&gt;1\n[end]</title>
<path fill="none" stroke="green" stroke-dasharray="5,2" d="M965.42,-74.76C974.3,-76.39 983.28,-78.04 991.66,-79.57"/>
<polygon fill="green" stroke="green" points="991.06,-83.02 1001.53,-81.39 992.32,-76.14 991.06,-83.02"/>
</g>
</g>
</svg>
