<?xml version="1.0" encoding="UTF-8" standalone="no"?>
<!DOCTYPE svg PUBLIC "-//W3C//DTD SVG 1.1//EN"
 "http://www.w3.org/Graphics/SVG/1.1/DTD/svg11.dtd">
<!-- Generated by graphviz version 2.43.0 (0)
 -->
<!-- Title: G Pages: 1 -->
<svg width="841pt" height="205pt"
 viewBox="0.00 0.00 841.00 205.00" xmlns="http://www.w3.org/2000/svg" xmlns:xlink="http://www.w3.org/1999/xlink">
<g id="graph0" class="graph" transform="scale(1 1) rotate(0) translate(4 201)">
<title>G</title>
<polygon fill="white" stroke="transparent" points="-4,4 -4,-201 837,-201 837,4 -4,4"/>
<!-- 0\n[start] -->
<g id="node1" class="node">
<title>0\n[start]</title>
<text text-anchor="middle" x="27" y="-73.8" font-family="Times,serif" font-size="14.00" fill="green">0</text>
<text text-anchor="middle" x="27" y="-58.8" font-family="Times,serif" font-size="14.00" fill="green">[start]</text>
</g>
<!-- 2\nThere it is! -->
<g id="node3" class="node">
<title>2\nThere it is!</title>
<polygon fill="none" stroke="black" points="167,-89 90,-89 90,-51 167,-51 167,-89"/>
<text text-anchor="middle" x="128.5" y="-73.8" font-family="Times,serif" font-size="14.00">2</text>
<text text-anchor="middle" x="128.5" y="-58.8" font-family="Times,serif" font-size="14.00">There it is!</text>
</g>
<!-- 0\n[start]&#45;&gt;2\nThere it is! -->
<g id="edge1" class="edge">
<title>0\n[start]&#45;&gt;2\nThere it is!</title>
<path fill="none" stroke="green" d="M54.14,-70C62.01,-70 70.89,-70 79.7,-70"/>
<polygon fill="green" stroke="green" points="79.93,-73.5 89.93,-70 79.93,-66.5 79.93,-73.5"/>
</g>
<!-- 1\n[end] -->
<g id="node2" class="node">
<title>1\n[end]</title>
<text text-anchor="middle" x="806" y="-77.8" font-family="Times,serif" font-size="14.00" fill="green">1</text>
<text text-anchor="middle" x="806" y="-62.8" font-family="Times,serif" font-size="14.00" fill="green">[end]</text>
</g>
<!-- 3\nNow, find those lost Rock Raiders! -->
<g id="node4" class="node">
<title>3\nNow, find those lost Rock Raiders!</title>
<polygon fill="none" stroke="black" points="412,-129 203,-129 203,-91 412,-91 412,-129"/>
<text text-anchor="middle" x="307.5" y="-113.8" font-family="Times,serif" font-size="14.00">3</text>
<text text-anchor="middle" x="307.5" y="-98.8" font-family="Times,serif" font-size="14.00">Now, find those lost Rock Raiders!</text>
</g>
<!-- 2\nThere it is!&#45;&gt;3\nNow, find those lost Rock Raiders! -->
<g id="edge2" class="edge">
<title>2\nThere it is!&#45;&gt;3\nNow, find those lost Rock Raiders!</title>
<path fill="none" stroke="black" d="M167.04,-78.48C180.48,-81.52 196.31,-85.1 212.38,-88.73"/>
<polygon fill="black" stroke="black" points="211.88,-92.21 222.41,-91 213.42,-85.38 211.88,-92.21"/>
</g>
<!-- 9\nNow, collect %(resources)s. -->
<g id="node10" class="node">
<title>9\nNow, collect %(resources)s.</title>
<polygon fill="none" stroke="black" points="392.5,-61 222.5,-61 222.5,-23 392.5,-23 392.5,-61"/>
<text text-anchor="middle" x="307.5" y="-45.8" font-family="Times,serif" font-size="14.00">9</text>
<text text-anchor="middle" x="307.5" y="-30.8" font-family="Times,serif" font-size="14.00">Now, collect %(resources)s.</text>
</g>
<!-- 2\nThere it is!&#45;&gt;9\nNow, collect %(resources)s. -->
<g id="edge3" class="edge">
<title>2\nThere it is!&#45;&gt;9\nNow, collect %(resources)s.</title>
<path fill="none" stroke="black" d="M167.04,-64.06C180.48,-61.93 196.31,-59.43 212.38,-56.89"/>
<polygon fill="black" stroke="black" points="213.08,-60.32 222.41,-55.3 211.98,-53.41 213.08,-60.32"/>
</g>
<!-- 4\n[lost_miners_one] -->
<g id="node5" class="node">
<title>4\n[lost_miners_one]</title>
<text text-anchor="middle" x="518" y="-181.8" font-family="Times,serif" font-size="14.00" fill="blue">4</text>
<text text-anchor="middle" x="518" y="-166.8" font-family="Times,serif" font-size="14.00" fill="blue">[lost_miners_one]</text>
</g>
<!-- 3\nNow, find those lost Rock Raiders!&#45;&gt;4\n[lost_miners_one] -->
<g id="edge4" class="edge">
<title>3\nNow, find those lost Rock Raiders!&#45;&gt;4\n[lost_miners_one]</title>
<path fill="none" stroke="blue" d="M366.86,-129.03C392.71,-137.47 423.28,-147.43 450.06,-156.17"/>
<polygon fill="blue" stroke="blue" points="449.15,-159.55 459.74,-159.33 451.32,-152.9 449.15,-159.55"/>
</g>
<!-- 5\n[lost_miners_together] -->
<g id="node6" class="node">
<title>5\n[lost_miners_together]</title>
<text text-anchor="middle" x="518" y="-125.8" font-family="Times,serif" font-size="14.00" fill="blue">5</text>
<text text-anchor="middle" x="518" y="-110.8" font-family="Times,serif" font-size="14.00" fill="blue">[lost_miners_together]</text>
</g>
<!-- 3\nNow, find those lost Rock Raiders!&#45;&gt;5\n[lost_miners_together] -->
<g id="edge5" class="edge">
<title>3\nNow, find those lost Rock Raiders!&#45;&gt;5\n[lost_miners_together]</title>
<path fill="none" stroke="blue" d="M412.14,-115.96C420.79,-116.46 429.44,-116.96 437.86,-117.45"/>
<polygon fill="blue" stroke="blue" points="437.81,-120.95 448,-118.03 438.21,-113.96 437.81,-120.95"/>
</g>
<!-- 6\n[lost_miners_apart] -->
<g id="node7" class="node">
<title>6\n[lost_miners_apart]</title>
<text text-anchor="middle" x="518" y="-69.8" font-family="Times,serif" font-size="14.00" fill="blue">6</text>
<text text-anchor="middle" x="518" y="-54.8" font-family="Times,serif" font-size="14.00" fill="blue">[lost_miners_apart]</text>
</g>
<!-- 3\nNow, find those lost Rock Raiders!&#45;&gt;6\n[lost_miners_apart] -->
<g id="edge6" class="edge">
<title>3\nNow, find those lost Rock Raiders!&#45;&gt;6\n[lost_miners_apart]</title>
<path fill="none" stroke="blue" d="M398.74,-90.96C414.72,-87.58 431.15,-84.12 446.48,-80.88"/>
<polygon fill="blue" stroke="blue" points="447.32,-84.28 456.39,-78.79 445.88,-77.43 447.32,-84.28"/>
</g>
<!-- 7 -->
<g id="node8" class="node">
<title>7</title>
<text text-anchor="middle" x="683.5" y="-70.3" font-family="Times,serif" font-size="14.00">7</text>
</g>
<!-- 4\n[lost_miners_one]&#45;&gt;7 -->
<g id="edge7" class="edge">
<title>4\n[lost_miners_one]&#45;&gt;7</title>
<path fill="none" stroke="blue" d="M574.41,-158.81C579.2,-156.19 583.82,-153.26 588,-150 609.33,-133.4 603.07,-118.09 624,-101 630.85,-95.41 639.05,-90.69 647.11,-86.85"/>
<polygon fill="blue" stroke="blue" points="648.69,-89.98 656.42,-82.73 645.86,-83.57 648.69,-89.98"/>
</g>
<!-- 8\n[collect_resources] -->
<g id="node9" class="node">
<title>8\n[collect_resources]</title>
<text text-anchor="middle" x="683.5" y="-132.8" font-family="Times,serif" font-size="14.00" fill="blue">8</text>
<text text-anchor="middle" x="683.5" y="-117.8" font-family="Times,serif" font-size="14.00" fill="blue">[collect_resources]</text>
</g>
<!-- 4\n[lost_miners_one]&#45;&gt;8\n[collect_resources] -->
<g id="edge8" class="edge">
<title>4\n[lost_miners_one]&#45;&gt;8\n[collect_resources]</title>
<path fill="none" stroke="blue" d="M576.18,-160.86C588.51,-157.17 601.66,-153.23 614.36,-149.42"/>
<polygon fill="blue" stroke="blue" points="615.39,-152.77 623.96,-146.54 613.38,-146.06 615.39,-152.77"/>
</g>
<!-- 5\n[lost_miners_together]&#45;&gt;7 -->
<g id="edge9" class="edge">
<title>5\n[lost_miners_together]&#45;&gt;7</title>
<path fill="none" stroke="blue" d="M584.09,-102.89C605.43,-96.63 628.35,-89.9 646.7,-84.51"/>
<polygon fill="blue" stroke="blue" points="647.77,-87.84 656.38,-81.67 645.8,-81.13 647.77,-87.84"/>
</g>
<!-- 5\n[lost_miners_together]&#45;&gt;8\n[collect_resources] -->
<g id="edge10" class="edge">
<title>5\n[lost_miners_together]&#45;&gt;8\n[collect_resources]</title>
<path fill="none" stroke="blue" d="M588.34,-124.97C596.75,-125.33 605.35,-125.7 613.76,-126.06"/>
<polygon fill="blue" stroke="blue" points="613.75,-129.56 623.89,-126.49 614.05,-122.57 613.75,-129.56"/>
</g>
<!-- 6\n[lost_miners_apart]&#45;&gt;7 -->
<g id="edge11" class="edge">
<title>6\n[lost_miners_apart]&#45;&gt;7</title>
<path fill="none" stroke="blue" d="M579.88,-68.98C602.1,-70.07 626.52,-71.26 645.96,-72.21"/>
<polygon fill="blue" stroke="blue" points="646.04,-75.72 656.2,-72.71 646.39,-68.73 646.04,-75.72"/>
</g>
<!-- 6\n[lost_miners_apart]&#45;&gt;8\n[collect_resources] -->
<g id="edge12" class="edge">
<title>6\n[lost_miners_apart]&#45;&gt;8\n[collect_resources]</title>
<path fill="none" stroke="blue" d="M568.5,-85.07C585.79,-91.73 605.37,-99.28 623.36,-106.21"/>
<polygon fill="blue" stroke="blue" points="622.58,-109.66 633.17,-109.99 625.1,-103.13 622.58,-109.66"/>
</g>
<!-- 7&#45;&gt;1\n[end] -->
<g id="edge13" class="edge">
<title>7&#45;&gt;1\n[end]</title>
<path fill="none" stroke="green" d="M710.65,-74C727.62,-74 749.98,-74 768.67,-74"/>
<polygon fill="green" stroke="green" points="768.9,-77.5 778.9,-74 768.9,-70.5 768.9,-77.5"/>
</g>
<!-- 8\n[collect_resources]&#45;&gt;1\n[end] -->
<g id="edge14" class="edge">
<title>8\n[collect_resources]&#45;&gt;1\n[end]</title>
<path fill="none" stroke="green" d="M726.31,-109.92C740.31,-103.53 755.78,-96.46 769.28,-90.3"/>
<polygon fill="green" stroke="green" points="771.06,-93.34 778.7,-86 768.15,-86.97 771.06,-93.34"/>
</g>
<!-- 10\n[collect_resources] -->
<g id="node11" class="node">
<title>10\n[collect_resources]</title>
<text text-anchor="middle" x="683.5" y="-22.8" font-family="Times,serif" font-size="14.00" fill="blue">10</text>
<text text-anchor="middle" x="683.5" y="-7.8" font-family="Times,serif" font-size="14.00" fill="blue">[collect_resources]</text>
</g>
<!-- 9\nNow, collect %(resources)s.&#45;&gt;10\n[collect_resources] -->
<g id="edge15" class="edge">
<title>9\nNow, collect %(resources)s.&#45;&gt;10\n[collect_resources]</title>
<path fill="none" stroke="blue" d="M392.9,-36.81C459.63,-32.71 551.62,-27.05 613.88,-23.22"/>
<polygon fill="blue" stroke="blue" points="614.22,-26.71 623.99,-22.6 613.79,-19.72 614.22,-26.71"/>
</g>
<!-- 10\n[collect_resources]&#45;&gt;1\n[end] -->
<g id="edge16" class="edge">
<title>10\n[collect_resources]&#45;&gt;1\n[end]</title>
<path fill="none" stroke="green" d="M726.31,-38.08C740.31,-44.47 755.78,-51.54 769.28,-57.7"/>
<polygon fill="green" stroke="green" points="768.15,-61.03 778.7,-62 771.06,-54.66 768.15,-61.03"/>
</g>
</g>
</svg>
