<?xml version="1.0" encoding="UTF-8" standalone="no"?>
<!DOCTYPE svg PUBLIC "-//W3C//DTD SVG 1.1//EN"
 "http://www.w3.org/Graphics/SVG/1.1/DTD/svg11.dtd">
<!-- Generated by graphviz version 2.43.0 (0)
 -->
<!-- Title: G Pages: 1 -->
<svg width="1270pt" height="148pt"
 viewBox="0.00 0.00 1269.94 147.50" xmlns="http://www.w3.org/2000/svg" xmlns:xlink="http://www.w3.org/1999/xlink">
<g id="graph0" class="graph" transform="scale(1 1) rotate(0) translate(4 143.5)">
<title>G</title>
<polygon fill="white" stroke="transparent" points="-4,4 -4,-143.5 1265.94,-143.5 1265.94,4 -4,4"/>
<!-- 0\n[start] -->
<g id="node1" class="node">
<title>0\n[start]</title>
<ellipse fill="none" stroke="green" cx="34.65" cy="-80.5" rx="34.8" ry="34.8"/>
<text text-anchor="middle" x="34.65" y="-84.3" font-family="Times,serif" font-size="14.00" fill="green">0</text>
<text text-anchor="middle" x="34.65" y="-69.3" font-family="Times,serif" font-size="14.00" fill="green">[start]</text>
</g>
<!-- 2\nYou found a lost Rock Raider! -->
<g id="node3" class="node">
<title>2\nYou found a lost Rock Raider!</title>
<polygon fill="none" stroke="black" points="328.8,-139.5 144.8,-139.5 144.8,-101.5 328.8,-101.5 328.8,-139.5"/>
<text text-anchor="middle" x="236.8" y="-124.3" font-family="Times,serif" font-size="14.00">2</text>
<text text-anchor="middle" x="236.8" y="-109.3" font-family="Times,serif" font-size="14.00">You found a lost Rock Raider!</text>
</g>
<!-- 0\n[start]&#45;&gt;2\nYou found a lost Rock Raider! -->
<g id="edge2" class="edge">
<title>0\n[start]&#45;&gt;2\nYou found a lost Rock Raider!</title>
<path fill="none" stroke="green" stroke-dasharray="5,2" d="M68.7,-87.11C86.95,-90.75 110.7,-95.5 134.54,-100.26"/>
<polygon fill="green" stroke="green" points="133.89,-103.7 144.38,-102.23 135.26,-96.84 133.89,-103.7"/>
</g>
<!-- 4\nThat&#39;s %(found_miners_count)s Rock\nRaiders found!\nYou found %(found_miners_count)s of them\nhere! -->
<g id="node5" class="node">
<title>4\nThat&#39;s %(found_miners_count)s Rock\nRaiders found!\nYou found %(found_miners_count)s of them\nhere!</title>
<polygon fill="none" stroke="black" points="368.3,-83 105.3,-83 105.3,0 368.3,0 368.3,-83"/>
<text text-anchor="middle" x="236.8" y="-67.8" font-family="Times,serif" font-size="14.00">4</text>
<text text-anchor="middle" x="236.8" y="-52.8" font-family="Times,serif" font-size="14.00">That&#39;s %(found_miners_count)s Rock</text>
<text text-anchor="middle" x="236.8" y="-37.8" font-family="Times,serif" font-size="14.00">Raiders found!</text>
<text text-anchor="middle" x="236.8" y="-22.8" font-family="Times,serif" font-size="14.00">You found %(found_miners_count)s of them</text>
<text text-anchor="middle" x="236.8" y="-7.8" font-family="Times,serif" font-size="14.00">here!</text>
</g>
<!-- 0\n[start]&#45;&gt;4\nThat&#39;s %(found_miners_count)s Rock\nRaiders found!\nYou found %(found_miners_count)s of them\nhere! -->
<g id="edge1" class="edge">
<title>0\n[start]&#45;&gt;4\nThat&#39;s %(found_miners_count)s Rock\nRaiders found!\nYou found %(found_miners_count)s of them\nhere!</title>
<path fill="none" stroke="green" stroke-dasharray="5,2" d="M68.7,-74.06C76.69,-72.5 85.74,-70.74 95.39,-68.86"/>
<polygon fill="green" stroke="green" points="96.08,-72.29 105.23,-66.94 94.74,-65.42 96.08,-72.29"/>
</g>
<!-- 1\n[end] -->
<g id="node2" class="node">
<title>1\n[end]</title>
<ellipse fill="none" stroke="green" cx="1230.12" cy="-80.5" rx="31.64" ry="31.64"/>
<text text-anchor="middle" x="1230.12" y="-84.3" font-family="Times,serif" font-size="14.00" fill="green">1</text>
<text text-anchor="middle" x="1230.12" y="-69.3" font-family="Times,serif" font-size="14.00" fill="green">[end]</text>
</g>
<!-- 3\n[found_miners_one] -->
<g id="node4" class="node">
<title>3\n[found_miners_one]</title>
<text text-anchor="middle" x="473.8" y="-118.3" font-family="Times,serif" font-size="14.00" fill="blue">3</text>
<text text-anchor="middle" x="473.8" y="-103.3" font-family="Times,serif" font-size="14.00" fill="blue">[found_miners_one]</text>
</g>
<!-- 2\nYou found a lost Rock Raider!&#45;&gt;3\n[found_miners_one] -->
<g id="edge3" class="edge">
<title>2\nYou found a lost Rock Raider!&#45;&gt;3\n[found_miners_one]</title>
<path fill="none" stroke="blue" d="M328.99,-118.17C352.37,-117.57 377.22,-116.94 399.57,-116.37"/>
<polygon fill="blue" stroke="blue" points="399.74,-119.87 409.65,-116.11 399.56,-112.87 399.74,-119.87"/>
</g>
<!-- 6 -->
<g id="node7" class="node">
<title>6</title>
<text text-anchor="middle" x="606.3" y="-76.8" font-family="Times,serif" font-size="14.00">6</text>
</g>
<!-- 3\n[found_miners_one]&#45;&gt;6 -->
<g id="edge4" class="edge">
<title>3\n[found_miners_one]&#45;&gt;6</title>
<path fill="none" stroke="blue" d="M538.14,-98C548.93,-95.19 559.8,-92.35 569.55,-89.81"/>
<polygon fill="blue" stroke="blue" points="570.47,-93.19 579.26,-87.28 568.7,-86.42 570.47,-93.19"/>
</g>
<!-- 5\n[found_miners_many] -->
<g id="node6" class="node">
<title>5\n[found_miners_many]</title>
<text text-anchor="middle" x="473.8" y="-56.3" font-family="Times,serif" font-size="14.00" fill="blue">5</text>
<text text-anchor="middle" x="473.8" y="-41.3" font-family="Times,serif" font-size="14.00" fill="blue">[found_miners_many]</text>
</g>
<!-- 4\nThat&#39;s %(found_miners_count)s Rock\nRaiders found!\nYou found %(found_miners_count)s of them\nhere!&#45;&gt;5\n[found_miners_many] -->
<g id="edge5" class="edge">
<title>4\nThat&#39;s %(found_miners_count)s Rock\nRaiders found!\nYou found %(found_miners_count)s of them\nhere!&#45;&gt;5\n[found_miners_many]</title>
<path fill="none" stroke="blue" d="M368.35,-47.61C377.14,-48.02 385.83,-48.43 394.22,-48.82"/>
<polygon fill="blue" stroke="blue" points="394.14,-52.32 404.29,-49.29 394.47,-45.33 394.14,-52.32"/>
</g>
<!-- 5\n[found_miners_many]&#45;&gt;6 -->
<g id="edge6" class="edge">
<title>5\n[found_miners_many]&#45;&gt;6</title>
<path fill="none" stroke="blue" d="M543.49,-67.24C552.28,-69.13 560.99,-70.99 568.98,-72.71"/>
<polygon fill="blue" stroke="blue" points="568.5,-76.18 579.01,-74.86 569.96,-69.34 568.5,-76.18"/>
</g>
<!-- 7\nKeep going!\nKeep searching, Cadet. -->
<g id="node8" class="node">
<title>7\nKeep going!\nKeep searching, Cadet.</title>
<polygon fill="none" stroke="black" points="812.3,-135 669.3,-135 669.3,-82 812.3,-82 812.3,-135"/>
<text text-anchor="middle" x="740.8" y="-119.8" font-family="Times,serif" font-size="14.00">7</text>
<text text-anchor="middle" x="740.8" y="-104.8" font-family="Times,serif" font-size="14.00">Keep going!</text>
<text text-anchor="middle" x="740.8" y="-89.8" font-family="Times,serif" font-size="14.00">Keep searching, Cadet.</text>
</g>
<!-- 6&#45;&gt;7\nKeep going!\nKeep searching, Cadet. -->
<g id="edge7" class="edge">
<title>6&#45;&gt;7\nKeep going!\nKeep searching, Cadet.</title>
<path fill="none" stroke="black" d="M633.47,-86.03C641.12,-87.65 649.9,-89.5 659.07,-91.44"/>
<polygon fill="black" stroke="black" points="658.64,-94.93 669.14,-93.57 660.08,-88.08 658.64,-94.93"/>
</g>
<!-- 8 -->
<g id="node9" class="node">
<title>8</title>
<text text-anchor="middle" x="875.3" y="-76.8" font-family="Times,serif" font-size="14.00">8</text>
</g>
<!-- 6&#45;&gt;8 -->
<g id="edge8" class="edge">
<title>6&#45;&gt;8</title>
<path fill="none" stroke="black" d="M633.49,-76.88C644.52,-75.53 657.51,-74.16 669.3,-73.5 732.75,-69.93 748.84,-69.93 812.3,-73.5 820.68,-73.97 829.67,-74.8 838.13,-75.72"/>
<polygon fill="black" stroke="black" points="837.77,-79.21 848.11,-76.88 838.58,-72.25 837.77,-79.21"/>
</g>
<!-- 7\nKeep going!\nKeep searching, Cadet.&#45;&gt;8 -->
<g id="edge9" class="edge">
<title>7\nKeep going!\nKeep searching, Cadet.&#45;&gt;8</title>
<path fill="none" stroke="black" d="M812.31,-93.6C821.35,-91.69 830.28,-89.8 838.43,-88.08"/>
<polygon fill="black" stroke="black" points="839.23,-91.49 848.29,-86 837.78,-84.64 839.23,-91.49"/>
</g>
<!-- 8&#45;&gt;1\n[end] -->
<g id="edge11" class="edge">
<title>8&#45;&gt;1\n[end]</title>
<path fill="none" stroke="green" stroke-dasharray="5,2" d="M902.38,-86.7C913.39,-89.01 926.4,-91.36 938.3,-92.5 1037.4,-102 1063.13,-101.33 1162.3,-92.5 1170.9,-91.73 1180.06,-90.42 1188.75,-88.94"/>
<polygon fill="green" stroke="green" points="1189.45,-92.37 1198.67,-87.14 1188.2,-85.48 1189.45,-92.37"/>
</g>
<!-- 9\nWe need to find all\n%(lost_miners_count)s before we can\nleave. -->
<g id="node10" class="node">
<title>9\nWe need to find all\n%(lost_miners_count)s before we can\nleave.</title>
<polygon fill="none" stroke="black" points="1162.3,-83.5 938.3,-83.5 938.3,-15.5 1162.3,-15.5 1162.3,-83.5"/>
<text text-anchor="middle" x="1050.3" y="-68.3" font-family="Times,serif" font-size="14.00">9</text>
<text text-anchor="middle" x="1050.3" y="-53.3" font-family="Times,serif" font-size="14.00">We need to find all</text>
<text text-anchor="middle" x="1050.3" y="-38.3" font-family="Times,serif" font-size="14.00">%(lost_miners_count)s before we can</text>
<text text-anchor="middle" x="1050.3" y="-23.3" font-family="Times,serif" font-size="14.00">leave.</text>
</g>
<!-- 8&#45;&gt;9\nWe need to find all\n%(lost_miners_count)s before we can\nleave. -->
<g id="edge10" class="edge">
<title>8&#45;&gt;9\nWe need to find all\n%(lost_miners_count)s before we can\nleave.</title>
<path fill="none" stroke="black" d="M902.57,-75.79C910.08,-74.45 918.79,-72.89 928.14,-71.21"/>
<polygon fill="black" stroke="black" points="928.88,-74.63 938.1,-69.42 927.64,-67.74 928.88,-74.63"/>
</g>
<!-- 9\nWe need to find all\n%(lost_miners_count)s before we can\nleave.&#45;&gt;1\n[end] -->
<g id="edge12" class="edge">
<title>9\nWe need to find all\n%(lost_miners_count)s before we can\nleave.&#45;&gt;1\n[end]</title>
<path fill="none" stroke="green" stroke-dasharray="5,2" d="M1162.4,-68.87C1171.68,-70.49 1180.61,-72.04 1188.76,-73.47"/>
<polygon fill="green" stroke="green" points="1188.18,-76.92 1198.63,-75.19 1189.38,-70.02 1188.18,-76.92"/>
</g>
</g>
</svg>
