<?xml version="1.0" encoding="UTF-8" standalone="no"?>
<!DOCTYPE svg PUBLIC "-//W3C//DTD SVG 1.1//EN"
 "http://www.w3.org/Graphics/SVG/1.1/DTD/svg11.dtd">
<!-- Generated by graphviz version 2.43.0 (0)
 -->
<!-- Title: G Pages: 1 -->
<svg width="686pt" height="214pt"
 viewBox="0.00 0.00 686.00 214.00" xmlns="http://www.w3.org/2000/svg" xmlns:xlink="http://www.w3.org/1999/xlink">
<g id="graph0" class="graph" transform="scale(1 1) rotate(0) translate(4 210)">
<title>G</title>
<polygon fill="white" stroke="transparent" points="-4,4 -4,-210 682,-210 682,4 -4,4"/>
<!-- 0\n[start] -->
<g id="node1" class="node">
<title>0\n[start]</title>
<text text-anchor="middle" x="27" y="-78.8" font-family="Times,serif" font-size="14.00" fill="green">0</text>
<text text-anchor="middle" x="27" y="-63.8" font-family="Times,serif" font-size="14.00" fill="green">[start]</text>
</g>
<!-- 2\nThere it is! -->
<g id="node3" class="node">
<title>2\nThere it is!</title>
<polygon fill="none" stroke="black" points="167,-94 90,-94 90,-56 167,-56 167,-94"/>
<text text-anchor="middle" x="128.5" y="-78.8" font-family="Times,serif" font-size="14.00">2</text>
<text text-anchor="middle" x="128.5" y="-63.8" font-family="Times,serif" font-size="14.00">There it is!</text>
</g>
<!-- 0\n[start]&#45;&gt;2\nThere it is! -->
<g id="edge1" class="edge">
<title>0\n[start]&#45;&gt;2\nThere it is!</title>
<path fill="none" stroke="green" d="M54.14,-75C62.01,-75 70.89,-75 79.7,-75"/>
<polygon fill="green" stroke="green" points="79.93,-78.5 89.93,-75 79.93,-71.5 79.93,-78.5"/>
</g>
<!-- 1\n[end] -->
<g id="node2" class="node">
<title>1\n[end]</title>
<text text-anchor="middle" x="651" y="-106.8" font-family="Times,serif" font-size="14.00" fill="green">1</text>
<text text-anchor="middle" x="651" y="-91.8" font-family="Times,serif" font-size="14.00" fill="green">[end]</text>
</g>
<!-- 3\nNow, find those lost Rock Raiders! -->
<g id="node4" class="node">
<title>3\nNow, find those lost Rock Raiders!</title>
<polygon fill="none" stroke="black" points="412,-136 203,-136 203,-98 412,-98 412,-136"/>
<text text-anchor="middle" x="307.5" y="-120.8" font-family="Times,serif" font-size="14.00">3</text>
<text text-anchor="middle" x="307.5" y="-105.8" font-family="Times,serif" font-size="14.00">Now, find those lost Rock Raiders!</text>
</g>
<!-- 2\nThere it is!&#45;&gt;3\nNow, find those lost Rock Raiders! -->
<g id="edge2" class="edge">
<title>2\nThere it is!&#45;&gt;3\nNow, find those lost Rock Raiders!</title>
<path fill="none" stroke="black" d="M167.04,-83.91C181.68,-87.38 199.14,-91.53 216.68,-95.69"/>
<polygon fill="black" stroke="black" points="215.87,-99.09 226.41,-97.99 217.49,-92.28 215.87,-99.09"/>
</g>
<!-- 7\nNow, collect %(resource)s. -->
<g id="node8" class="node">
<title>7\nNow, collect %(resource)s.</title>
<polygon fill="none" stroke="black" points="390,-66 225,-66 225,-28 390,-28 390,-66"/>
<text text-anchor="middle" x="307.5" y="-50.8" font-family="Times,serif" font-size="14.00">7</text>
<text text-anchor="middle" x="307.5" y="-35.8" font-family="Times,serif" font-size="14.00">Now, collect %(resource)s.</text>
</g>
<!-- 2\nThere it is!&#45;&gt;7\nNow, collect %(resource)s. -->
<g id="edge3" class="edge">
<title>2\nThere it is!&#45;&gt;7\nNow, collect %(resource)s.</title>
<path fill="none" stroke="black" d="M167.04,-69.06C181.2,-66.82 198.01,-64.16 214.97,-61.48"/>
<polygon fill="black" stroke="black" points="215.62,-64.92 224.95,-59.9 214.53,-58.01 215.62,-64.92"/>
</g>
<!-- 4\n[lost_miners_one] -->
<g id="node5" class="node">
<title>4\n[lost_miners_one]</title>
<text text-anchor="middle" x="518" y="-190.8" font-family="Times,serif" font-size="14.00" fill="blue">4</text>
<text text-anchor="middle" x="518" y="-175.8" font-family="Times,serif" font-size="14.00" fill="blue">[lost_miners_one]</text>
</g>
<!-- 3\nNow, find those lost Rock Raiders!&#45;&gt;4\n[lost_miners_one] -->
<g id="edge4" class="edge">
<title>3\nNow, find those lost Rock Raiders!&#45;&gt;4\n[lost_miners_one]</title>
<path fill="none" stroke="blue" d="M365.2,-136.04C391.63,-144.91 423.24,-155.52 450.76,-164.76"/>
<polygon fill="blue" stroke="blue" points="449.72,-168.1 460.31,-167.97 451.95,-161.47 449.72,-168.1"/>
</g>
<!-- 5\n[lost_miners_together] -->
<g id="node6" class="node">
<title>5\n[lost_miners_together]</title>
<text text-anchor="middle" x="518" y="-134.8" font-family="Times,serif" font-size="14.00" fill="blue">5</text>
<text text-anchor="middle" x="518" y="-119.8" font-family="Times,serif" font-size="14.00" fill="blue">[lost_miners_together]</text>
</g>
<!-- 3\nNow, find those lost Rock Raiders!&#45;&gt;5\n[lost_miners_together] -->
<g id="edge5" class="edge">
<title>3\nNow, find those lost Rock Raiders!&#45;&gt;5\n[lost_miners_together]</title>
<path fill="none" stroke="blue" d="M412.14,-123.96C420.79,-124.54 429.44,-125.12 437.86,-125.69"/>
<polygon fill="blue" stroke="blue" points="437.78,-129.19 448,-126.37 438.25,-122.2 437.78,-129.19"/>
</g>
<!-- 6\n[lost_miners_apart] -->
<g id="node7" class="node">
<title>6\n[lost_miners_apart]</title>
<text text-anchor="middle" x="518" y="-78.8" font-family="Times,serif" font-size="14.00" fill="blue">6</text>
<text text-anchor="middle" x="518" y="-63.8" font-family="Times,serif" font-size="14.00" fill="blue">[lost_miners_apart]</text>
</g>
<!-- 3\nNow, find those lost Rock Raiders!&#45;&gt;6\n[lost_miners_apart] -->
<g id="edge6" class="edge">
<title>3\nNow, find those lost Rock Raiders!&#45;&gt;6\n[lost_miners_apart]</title>
<path fill="none" stroke="blue" d="M402.99,-97.97C417.56,-95.03 432.38,-92.05 446.31,-89.24"/>
<polygon fill="blue" stroke="blue" points="447.16,-92.64 456.27,-87.23 445.78,-85.78 447.16,-92.64"/>
</g>
<!-- 4\n[lost_miners_one]&#45;&gt;1\n[end] -->
<g id="edge7" class="edge">
<title>4\n[lost_miners_one]&#45;&gt;1\n[end]</title>
<path fill="none" stroke="green" d="M571.58,-167.94C577.27,-165.21 582.85,-162.23 588,-159 601.15,-150.75 614.14,-139.61 624.81,-129.44"/>
<polygon fill="green" stroke="green" points="627.44,-131.76 632.13,-122.26 622.54,-126.76 627.44,-131.76"/>
</g>
<!-- 5\n[lost_miners_together]&#45;&gt;1\n[end] -->
<g id="edge8" class="edge">
<title>5\n[lost_miners_together]&#45;&gt;1\n[end]</title>
<path fill="none" stroke="green" d="M588.34,-116.18C597.13,-114.3 605.82,-112.44 613.79,-110.74"/>
<polygon fill="green" stroke="green" points="614.75,-114.11 623.8,-108.6 613.29,-107.27 614.75,-114.11"/>
</g>
<!-- 6\n[lost_miners_apart]&#45;&gt;1\n[end] -->
<g id="edge9" class="edge">
<title>6\n[lost_miners_apart]&#45;&gt;1\n[end]</title>
<path fill="none" stroke="green" d="M579.52,-87.93C591.3,-90.45 603.3,-93.02 613.99,-95.3"/>
<polygon fill="green" stroke="green" points="613.26,-98.73 623.77,-97.39 614.72,-91.88 613.26,-98.73"/>
</g>
<!-- 8\n[collect_resources] -->
<g id="node9" class="node">
<title>8\n[collect_resources]</title>
<text text-anchor="middle" x="518" y="-22.8" font-family="Times,serif" font-size="14.00" fill="blue">8</text>
<text text-anchor="middle" x="518" y="-7.8" font-family="Times,serif" font-size="14.00" fill="blue">[collect_resources]</text>
</g>
<!-- 7\nNow, collect %(resource)s.&#45;&gt;8\n[collect_resources] -->
<g id="edge10" class="edge">
<title>7\nNow, collect %(resource)s.&#45;&gt;8\n[collect_resources]</title>
<path fill="none" stroke="blue" d="M390.01,-36.05C409.28,-33.47 429.65,-30.73 448.29,-28.23"/>
<polygon fill="blue" stroke="blue" points="449,-31.66 458.45,-26.86 448.07,-24.73 449,-31.66"/>
</g>
<!-- 8\n[collect_resources]&#45;&gt;1\n[end] -->
<g id="edge11" class="edge">
<title>8\n[collect_resources]&#45;&gt;1\n[end]</title>
<path fill="none" stroke="green" d="M571.58,-38.06C577.27,-40.79 582.85,-43.77 588,-47 601.15,-55.25 614.14,-66.39 624.81,-76.56"/>
<polygon fill="green" stroke="green" points="622.54,-79.24 632.13,-83.74 627.44,-74.24 622.54,-79.24"/>
</g>
</g>
</svg>
