<?xml version="1.0" encoding="UTF-8" standalone="no"?>
<!DOCTYPE svg PUBLIC "-//W3C//DTD SVG 1.1//EN"
 "http://www.w3.org/Graphics/SVG/1.1/DTD/svg11.dtd">
<!-- Generated by graphviz version 2.43.0 (0)
 -->
<!-- Title: G Pages: 1 -->
<svg width="1172pt" height="178pt"
 viewBox="0.00 0.00 1171.94 177.50" xmlns="http://www.w3.org/2000/svg" xmlns:xlink="http://www.w3.org/1999/xlink">
<g id="graph0" class="graph" transform="scale(1 1) rotate(0) translate(4 173.5)">
<title>G</title>
<polygon fill="white" stroke="transparent" points="-4,4 -4,-173.5 1167.94,-173.5 1167.94,4 -4,4"/>
<!-- 0\n[start] -->
<g id="node1" class="node">
<title>0\n[start]</title>
<ellipse fill="none" stroke="green" cx="34.65" cy="-102.5" rx="34.8" ry="34.8"/>
<text text-anchor="middle" x="34.65" y="-106.3" font-family="Times,serif" font-size="14.00" fill="green">0</text>
<text text-anchor="middle" x="34.65" y="-91.3" font-family="Times,serif" font-size="14.00" fill="green">[start]</text>
</g>
<!-- 2\nLook! It&#39;s the lost Rock Raider!\nYou found the missing Rock Raider! -->
<g id="node3" class="node">
<title>2\nLook! It&#39;s the lost Rock Raider!\nYou found the missing Rock Raider!</title>
<polygon fill="none" stroke="black" points="323.3,-167 105.3,-167 105.3,-114 323.3,-114 323.3,-167"/>
<text text-anchor="middle" x="214.3" y="-151.8" font-family="Times,serif" font-size="14.00">2</text>
<text text-anchor="middle" x="214.3" y="-136.8" font-family="Times,serif" font-size="14.00">Look! It&#39;s the lost Rock Raider!</text>
<text text-anchor="middle" x="214.3" y="-121.8" font-family="Times,serif" font-size="14.00">You found the missing Rock Raider!</text>
</g>
<!-- 0\n[start]&#45;&gt;2\nLook! It&#39;s the lost Rock Raider!\nYou found the missing Rock Raider! -->
<g id="edge1" class="edge">
<title>0\n[start]&#45;&gt;2\nLook! It&#39;s the lost Rock Raider!\nYou found the missing Rock Raider!</title>
<path fill="none" stroke="green" stroke-dasharray="5,2" d="M68.65,-109.56C76.61,-111.26 85.59,-113.18 95.07,-115.21"/>
<polygon fill="green" stroke="green" points="94.6,-118.69 105.11,-117.36 96.07,-111.84 94.6,-118.69"/>
</g>
<!-- 4\nAnd that makes %(lost_miners_count)s\nRock Raiders found!\nYou found all %(lost_miners_count)s Rock\nRaiders!\nThat&#39;s all %(lost_miners_count)s Rock\nRaiders found! -->
<g id="node5" class="node">
<title>4\nAnd that makes %(lost_miners_count)s\nRock Raiders found!\nYou found all %(lost_miners_count)s Rock\nRaiders!\nThat&#39;s all %(lost_miners_count)s Rock\nRaiders found!</title>
<polygon fill="none" stroke="black" points="613.3,-113 359.3,-113 359.3,0 613.3,0 613.3,-113"/>
<text text-anchor="middle" x="486.3" y="-97.8" font-family="Times,serif" font-size="14.00">4</text>
<text text-anchor="middle" x="486.3" y="-82.8" font-family="Times,serif" font-size="14.00">And that makes %(lost_miners_count)s</text>
<text text-anchor="middle" x="486.3" y="-67.8" font-family="Times,serif" font-size="14.00">Rock Raiders found!</text>
<text text-anchor="middle" x="486.3" y="-52.8" font-family="Times,serif" font-size="14.00">You found all %(lost_miners_count)s Rock</text>
<text text-anchor="middle" x="486.3" y="-37.8" font-family="Times,serif" font-size="14.00">Raiders!</text>
<text text-anchor="middle" x="486.3" y="-22.8" font-family="Times,serif" font-size="14.00">That&#39;s all %(lost_miners_count)s Rock</text>
<text text-anchor="middle" x="486.3" y="-7.8" font-family="Times,serif" font-size="14.00">Raiders found!</text>
</g>
<!-- 0\n[start]&#45;&gt;4\nAnd that makes %(lost_miners_count)s\nRock Raiders found!\nYou found all %(lost_miners_count)s Rock\nRaiders!\nThat&#39;s all %(lost_miners_count)s Rock\nRaiders found! -->
<g id="edge2" class="edge">
<title>0\n[start]&#45;&gt;4\nAnd that makes %(lost_miners_count)s\nRock Raiders found!\nYou found all %(lost_miners_count)s Rock\nRaiders!\nThat&#39;s all %(lost_miners_count)s Rock\nRaiders found!</title>
<path fill="none" stroke="green" stroke-dasharray="5,2" d="M69.44,-99.04C128.03,-93.05 251.5,-80.42 348.76,-70.47"/>
<polygon fill="green" stroke="green" points="349.39,-73.92 358.98,-69.42 348.68,-66.96 349.39,-73.92"/>
</g>
<!-- 1\n[end] -->
<g id="node2" class="node">
<title>1\n[end]</title>
<ellipse fill="none" stroke="green" cx="1132.12" cy="-103.5" rx="31.64" ry="31.64"/>
<text text-anchor="middle" x="1132.12" y="-107.3" font-family="Times,serif" font-size="14.00" fill="green">1</text>
<text text-anchor="middle" x="1132.12" y="-92.3" font-family="Times,serif" font-size="14.00" fill="green">[end]</text>
</g>
<!-- 3\n[lost_miners_one] -->
<g id="node4" class="node">
<title>3\n[lost_miners_one]</title>
<text text-anchor="middle" x="486.3" y="-154.3" font-family="Times,serif" font-size="14.00" fill="blue">3</text>
<text text-anchor="middle" x="486.3" y="-139.3" font-family="Times,serif" font-size="14.00" fill="blue">[lost_miners_one]</text>
</g>
<!-- 2\nLook! It&#39;s the lost Rock Raider!\nYou found the missing Rock Raider!&#45;&gt;3\n[lost_miners_one] -->
<g id="edge3" class="edge">
<title>2\nLook! It&#39;s the lost Rock Raider!\nYou found the missing Rock Raider!&#45;&gt;3\n[lost_miners_one]</title>
<path fill="none" stroke="blue" d="M323.56,-144.51C355.44,-145.69 389.4,-146.95 417.92,-148"/>
<polygon fill="blue" stroke="blue" points="418.05,-151.51 428.17,-148.38 418.31,-144.52 418.05,-151.51"/>
</g>
<!-- 5 -->
<g id="node6" class="node">
<title>5</title>
<text text-anchor="middle" x="676.3" y="-99.8" font-family="Times,serif" font-size="14.00">5</text>
</g>
<!-- 3\n[lost_miners_one]&#45;&gt;5 -->
<g id="edge4" class="edge">
<title>3\n[lost_miners_one]&#45;&gt;5</title>
<path fill="none" stroke="blue" d="M544.6,-138.76C566.22,-134.07 590.98,-128.39 613.3,-122.5 621.82,-120.25 630.94,-117.6 639.48,-115"/>
<polygon fill="blue" stroke="blue" points="640.66,-118.3 649.18,-112 638.59,-111.61 640.66,-118.3"/>
</g>
<!-- 4\nAnd that makes %(lost_miners_count)s\nRock Raiders found!\nYou found all %(lost_miners_count)s Rock\nRaiders!\nThat&#39;s all %(lost_miners_count)s Rock\nRaiders found!&#45;&gt;5 -->
<g id="edge5" class="edge">
<title>4\nAnd that makes %(lost_miners_count)s\nRock Raiders found!\nYou found all %(lost_miners_count)s Rock\nRaiders!\nThat&#39;s all %(lost_miners_count)s Rock\nRaiders found!&#45;&gt;5</title>
<path fill="none" stroke="black" d="M613.48,-88.05C622.75,-90.36 631.54,-92.56 639.44,-94.53"/>
<polygon fill="black" stroke="black" points="638.71,-97.96 649.26,-96.99 640.41,-91.17 638.71,-97.96"/>
</g>
<!-- 5&#45;&gt;1\n[end] -->
<g id="edge7" class="edge">
<title>5&#45;&gt;1\n[end]</title>
<path fill="none" stroke="green" stroke-dasharray="5,2" d="M703.51,-106.08C714.55,-107.05 727.54,-108.03 739.3,-108.5 883.62,-114.31 919.95,-113.89 1064.3,-108.5 1072.64,-108.19 1081.57,-107.66 1090.08,-107.06"/>
<polygon fill="green" stroke="green" points="1090.49,-110.54 1100.2,-106.3 1089.97,-103.55 1090.49,-110.54"/>
</g>
<!-- 6\nNow, collect %(resources)s. -->
<g id="node7" class="node">
<title>6\nNow, collect %(resources)s.</title>
<polygon fill="none" stroke="black" points="909.3,-99.5 739.3,-99.5 739.3,-61.5 909.3,-61.5 909.3,-99.5"/>
<text text-anchor="middle" x="824.3" y="-84.3" font-family="Times,serif" font-size="14.00">6</text>
<text text-anchor="middle" x="824.3" y="-69.3" font-family="Times,serif" font-size="14.00">Now, collect %(resources)s.</text>
</g>
<!-- 5&#45;&gt;6\nNow, collect %(resources)s. -->
<g id="edge6" class="edge">
<title>5&#45;&gt;6\nNow, collect %(resources)s.</title>
<path fill="none" stroke="black" d="M703.4,-99.39C711.07,-98.18 719.94,-96.78 729.31,-95.31"/>
<polygon fill="black" stroke="black" points="729.9,-98.76 739.23,-93.74 728.81,-91.84 729.9,-98.76"/>
</g>
<!-- 7\n[collect_resources] -->
<g id="node8" class="node">
<title>7\n[collect_resources]</title>
<text text-anchor="middle" x="1004.8" y="-84.3" font-family="Times,serif" font-size="14.00" fill="blue">7</text>
<text text-anchor="middle" x="1004.8" y="-69.3" font-family="Times,serif" font-size="14.00" fill="blue">[collect_resources]</text>
</g>
<!-- 6\nNow, collect %(resources)s.&#45;&gt;7\n[collect_resources] -->
<g id="edge8" class="edge">
<title>6\nNow, collect %(resources)s.&#45;&gt;7\n[collect_resources]</title>
<path fill="none" stroke="blue" d="M909.32,-80.5C917.93,-80.5 926.61,-80.5 935.04,-80.5"/>
<polygon fill="blue" stroke="blue" points="935.16,-84 945.16,-80.5 935.16,-77 935.16,-84"/>
</g>
<!-- 7\n[collect_resources]&#45;&gt;1\n[end] -->
<g id="edge9" class="edge">
<title>7\n[collect_resources]&#45;&gt;1\n[end]</title>
<path fill="none" stroke="green" stroke-dasharray="5,2" d="M1064.42,-91.26C1073.3,-92.89 1082.28,-94.54 1090.66,-96.07"/>
<polygon fill="green" stroke="green" points="1090.06,-99.52 1100.53,-97.89 1091.32,-92.64 1090.06,-99.52"/>
</g>
</g>
</svg>
