<?xml version="1.0" encoding="UTF-8" standalone="no"?>
<!DOCTYPE svg PUBLIC "-//W3C//DTD SVG 1.1//EN"
 "http://www.w3.org/Graphics/SVG/1.1/DTD/svg11.dtd">
<!-- Generated by graphviz version 2.43.0 (0)
 -->
<!-- Title: G Pages: 1 -->
<svg width="1258pt" height="260pt"
 viewBox="0.00 0.00 1257.94 259.50" xmlns="http://www.w3.org/2000/svg" xmlns:xlink="http://www.w3.org/1999/xlink">
<g id="graph0" class="graph" transform="scale(1 1) rotate(0) translate(4 255.5)">
<title>G</title>
<polygon fill="white" stroke="transparent" points="-4,4 -4,-255.5 1253.94,-255.5 1253.94,4 -4,4"/>
<!-- 0\n[start] -->
<g id="node1" class="node">
<title>0\n[start]</title>
<ellipse fill="none" stroke="green" cx="34.65" cy="-158" rx="34.8" ry="34.8"/>
<text text-anchor="middle" x="34.65" y="-161.8" font-family="Times,serif" font-size="14.00" fill="green">0</text>
<text text-anchor="middle" x="34.65" y="-146.8" font-family="Times,serif" font-size="14.00" fill="green">[start]</text>
</g>
<!-- 2\nWow! This ought to do it!\nOur intel was accurate. Look at all\nthose Energy Crystals! -->
<g id="node3" class="node">
<title>2\nWow! This ought to do it!\nOur intel was accurate. Look at all\nthose Energy Crystals!</title>
<polygon fill="none" stroke="black" points="311.3,-192 105.3,-192 105.3,-124 311.3,-124 311.3,-192"/>
<text text-anchor="middle" x="208.3" y="-176.8" font-family="Times,serif" font-size="14.00">2</text>
<text text-anchor="middle" x="208.3" y="-161.8" font-family="Times,serif" font-size="14.00">Wow! This ought to do it!</text>
<text text-anchor="middle" x="208.3" y="-146.8" font-family="Times,serif" font-size="14.00">Our intel was accurate. Look at all</text>
<text text-anchor="middle" x="208.3" y="-131.8" font-family="Times,serif" font-size="14.00">those Energy Crystals!</text>
</g>
<!-- 0\n[start]&#45;&gt;2\nWow! This ought to do it!\nOur intel was accurate. Look at all\nthose Energy Crystals! -->
<g id="edge1" class="edge">
<title>0\n[start]&#45;&gt;2\nWow! This ought to do it!\nOur intel was accurate. Look at all\nthose Energy Crystals!</title>
<path fill="none" stroke="green" stroke-dasharray="5,2" d="M69.56,-158C77.31,-158 85.96,-158 95.05,-158"/>
<polygon fill="green" stroke="green" points="95.07,-161.5 105.07,-158 95.07,-154.5 95.07,-161.5"/>
</g>
<!-- 1\n[end] -->
<g id="node2" class="node">
<title>1\n[end]</title>
<ellipse fill="none" stroke="green" cx="1218.12" cy="-158" rx="31.64" ry="31.64"/>
<text text-anchor="middle" x="1218.12" y="-161.8" font-family="Times,serif" font-size="14.00" fill="green">1</text>
<text text-anchor="middle" x="1218.12" y="-146.8" font-family="Times,serif" font-size="14.00" fill="green">[end]</text>
</g>
<!-- 3\nNow, to get this back.\nGet this back to your base. -->
<g id="node4" class="node">
<title>3\nNow, to get this back.\nGet this back to your base.</title>
<polygon fill="none" stroke="black" points="782.3,-251.5 619.3,-251.5 619.3,-198.5 782.3,-198.5 782.3,-251.5"/>
<text text-anchor="middle" x="700.8" y="-236.3" font-family="Times,serif" font-size="14.00">3</text>
<text text-anchor="middle" x="700.8" y="-221.3" font-family="Times,serif" font-size="14.00">Now, to get this back.</text>
<text text-anchor="middle" x="700.8" y="-206.3" font-family="Times,serif" font-size="14.00">Get this back to your base.</text>
</g>
<!-- 2\nWow! This ought to do it!\nOur intel was accurate. Look at all\nthose Energy Crystals!&#45;&gt;3\nNow, to get this back.\nGet this back to your base. -->
<g id="edge3" class="edge">
<title>2\nWow! This ought to do it!\nOur intel was accurate. Look at all\nthose Energy Crystals!&#45;&gt;3\nNow, to get this back.\nGet this back to your base.</title>
<path fill="none" stroke="black" d="M288.71,-192.08C307.59,-198.85 327.89,-205.07 347.3,-209 434.86,-226.72 537.04,-229.44 608.78,-228.51"/>
<polygon fill="black" stroke="black" points="609.2,-232 619.14,-228.34 609.09,-225 609.2,-232"/>
</g>
<!-- 4\nWith this, we have enough to complete\nour mission!\nCollect all the Energy Crystals you&#39;ve\nfound and complete our mission! -->
<g id="node5" class="node">
<title>4\nWith this, we have enough to complete\nour mission!\nCollect all the Energy Crystals you&#39;ve\nfound and complete our mission!</title>
<polygon fill="none" stroke="black" points="580.8,-199.5 349.8,-199.5 349.8,-116.5 580.8,-116.5 580.8,-199.5"/>
<text text-anchor="middle" x="465.3" y="-184.3" font-family="Times,serif" font-size="14.00">4</text>
<text text-anchor="middle" x="465.3" y="-169.3" font-family="Times,serif" font-size="14.00">With this, we have enough to complete</text>
<text text-anchor="middle" x="465.3" y="-154.3" font-family="Times,serif" font-size="14.00">our mission!</text>
<text text-anchor="middle" x="465.3" y="-139.3" font-family="Times,serif" font-size="14.00">Collect all the Energy Crystals you&#39;ve</text>
<text text-anchor="middle" x="465.3" y="-124.3" font-family="Times,serif" font-size="14.00">found and complete our mission!</text>
</g>
<!-- 2\nWow! This ought to do it!\nOur intel was accurate. Look at all\nthose Energy Crystals!&#45;&gt;4\nWith this, we have enough to complete\nour mission!\nCollect all the Energy Crystals you&#39;ve\nfound and complete our mission! -->
<g id="edge2" class="edge">
<title>2\nWow! This ought to do it!\nOur intel was accurate. Look at all\nthose Energy Crystals!&#45;&gt;4\nWith this, we have enough to complete\nour mission!\nCollect all the Energy Crystals you&#39;ve\nfound and complete our mission!</title>
<path fill="none" stroke="black" d="M311.55,-158C320.7,-158 330.04,-158 339.36,-158"/>
<polygon fill="black" stroke="black" points="339.46,-161.5 349.46,-158 339.46,-154.5 339.46,-161.5"/>
</g>
<!-- 6\nI hope we can collect these without\nattracting too much attention.\nBe careful, Cadet! This is surely enough\nto attract those %(monster_type)s\nmonsters. -->
<g id="node7" class="node">
<title>6\nI hope we can collect these without\nattracting too much attention.\nBe careful, Cadet! This is surely enough\nto attract those %(monster_type)s\nmonsters.</title>
<polygon fill="none" stroke="black" points="583.3,-98 347.3,-98 347.3,0 583.3,0 583.3,-98"/>
<text text-anchor="middle" x="465.3" y="-82.8" font-family="Times,serif" font-size="14.00">6</text>
<text text-anchor="middle" x="465.3" y="-67.8" font-family="Times,serif" font-size="14.00">I hope we can collect these without</text>
<text text-anchor="middle" x="465.3" y="-52.8" font-family="Times,serif" font-size="14.00">attracting too much attention.</text>
<text text-anchor="middle" x="465.3" y="-37.8" font-family="Times,serif" font-size="14.00">Be careful, Cadet! This is surely enough</text>
<text text-anchor="middle" x="465.3" y="-22.8" font-family="Times,serif" font-size="14.00">to attract those %(monster_type)s</text>
<text text-anchor="middle" x="465.3" y="-7.8" font-family="Times,serif" font-size="14.00">monsters.</text>
</g>
<!-- 2\nWow! This ought to do it!\nOur intel was accurate. Look at all\nthose Energy Crystals!&#45;&gt;6\nI hope we can collect these without\nattracting too much attention.\nBe careful, Cadet! This is surely enough\nto attract those %(monster_type)s\nmonsters. -->
<g id="edge4" class="edge">
<title>2\nWow! This ought to do it!\nOur intel was accurate. Look at all\nthose Energy Crystals!&#45;&gt;6\nI hope we can collect these without\nattracting too much attention.\nBe careful, Cadet! This is surely enough\nto attract those %(monster_type)s\nmonsters.</title>
<path fill="none" stroke="black" d="M288.93,-123.96C305.08,-117.06 322.43,-109.64 339.71,-102.25"/>
<polygon fill="black" stroke="black" points="341.48,-105.3 349.3,-98.16 338.73,-98.87 341.48,-105.3"/>
</g>
<!-- 8 -->
<g id="node9" class="node">
<title>8</title>
<text text-anchor="middle" x="845.3" y="-154.3" font-family="Times,serif" font-size="14.00">8</text>
</g>
<!-- 3\nNow, to get this back.\nGet this back to your base.&#45;&gt;8 -->
<g id="edge5" class="edge">
<title>3\nNow, to get this back.\nGet this back to your base.&#45;&gt;8</title>
<path fill="none" stroke="black" d="M758.53,-198.33C775.62,-190.29 793.88,-181.7 809.14,-174.53"/>
<polygon fill="black" stroke="black" points="810.66,-177.68 818.22,-170.26 807.68,-171.35 810.66,-177.68"/>
</g>
<!-- 5\n[treasure_many] -->
<g id="node6" class="node">
<title>5\n[treasure_many]</title>
<text text-anchor="middle" x="700.8" y="-161.8" font-family="Times,serif" font-size="14.00" fill="blue">5</text>
<text text-anchor="middle" x="700.8" y="-146.8" font-family="Times,serif" font-size="14.00" fill="blue">[treasure_many]</text>
</g>
<!-- 4\nWith this, we have enough to complete\nour mission!\nCollect all the Energy Crystals you&#39;ve\nfound and complete our mission!&#45;&gt;5\n[treasure_many] -->
<g id="edge6" class="edge">
<title>4\nWith this, we have enough to complete\nour mission!\nCollect all the Energy Crystals you&#39;ve\nfound and complete our mission!&#45;&gt;5\n[treasure_many]</title>
<path fill="none" stroke="blue" d="M580.99,-158C600.57,-158 620.21,-158 637.74,-158"/>
<polygon fill="blue" stroke="blue" points="637.8,-161.5 647.8,-158 637.8,-154.5 637.8,-161.5"/>
</g>
<!-- 5\n[treasure_many]&#45;&gt;8 -->
<g id="edge7" class="edge">
<title>5\n[treasure_many]&#45;&gt;8</title>
<path fill="none" stroke="blue" d="M754.05,-158C771.9,-158 791.47,-158 807.81,-158"/>
<polygon fill="blue" stroke="blue" points="808.03,-161.5 818.03,-158 808.03,-154.5 808.03,-161.5"/>
</g>
<!-- 7\n[has_monsters] -->
<g id="node8" class="node">
<title>7\n[has_monsters]</title>
<text text-anchor="middle" x="700.8" y="-79.8" font-family="Times,serif" font-size="14.00" fill="blue">7</text>
<text text-anchor="middle" x="700.8" y="-64.8" font-family="Times,serif" font-size="14.00" fill="blue">[has_monsters]</text>
</g>
<!-- 6\nI hope we can collect these without\nattracting too much attention.\nBe careful, Cadet! This is surely enough\nto attract those %(monster_type)s\nmonsters.&#45;&gt;7\n[has_monsters] -->
<g id="edge8" class="edge">
<title>6\nI hope we can collect these without\nattracting too much attention.\nBe careful, Cadet! This is surely enough\nto attract those %(monster_type)s\nmonsters.&#45;&gt;7\n[has_monsters]</title>
<path fill="none" stroke="blue" d="M583.39,-62.54C603.27,-64.84 623.14,-67.14 640.68,-69.16"/>
<polygon fill="blue" stroke="blue" points="640.4,-72.65 650.73,-70.33 641.2,-65.7 640.4,-72.65"/>
</g>
<!-- 7\n[has_monsters]&#45;&gt;8 -->
<g id="edge9" class="edge">
<title>7\n[has_monsters]&#45;&gt;8</title>
<path fill="none" stroke="blue" d="M734.85,-95.02C757.1,-107.83 786.42,-124.7 809.11,-137.75"/>
<polygon fill="blue" stroke="blue" points="807.66,-140.96 818.08,-142.91 811.16,-134.89 807.66,-140.96"/>
</g>
<!-- 8&#45;&gt;1\n[end] -->
<g id="edge13" class="edge">
<title>8&#45;&gt;1\n[end]</title>
<path fill="none" stroke="green" stroke-dasharray="5,2" d="M861.57,-176.21C873,-188.35 889.81,-203.28 908.3,-210 1002.43,-244.25 1121.03,-202.27 1180.12,-176.04"/>
<polygon fill="green" stroke="green" points="1181.76,-179.14 1189.42,-171.82 1178.86,-172.76 1181.76,-179.14"/>
</g>
<!-- 9\n[treasure_one] -->
<g id="node10" class="node">
<title>9\n[treasure_one]</title>
<text text-anchor="middle" x="961.3" y="-185.8" font-family="Times,serif" font-size="14.00" fill="blue">9</text>
<text text-anchor="middle" x="961.3" y="-170.8" font-family="Times,serif" font-size="14.00" fill="blue">[treasure_one]</text>
</g>
<!-- 8&#45;&gt;9\n[treasure_one] -->
<g id="edge10" class="edge">
<title>8&#45;&gt;9\n[treasure_one]</title>
<path fill="none" stroke="blue" d="M872.45,-163.51C881.81,-165.48 892.76,-167.78 903.69,-170.08"/>
<polygon fill="blue" stroke="blue" points="903.17,-173.55 913.68,-172.19 904.61,-166.7 903.17,-173.55"/>
</g>
<!-- 10\n[treasure_many] -->
<g id="node11" class="node">
<title>10\n[treasure_many]</title>
<text text-anchor="middle" x="961.3" y="-91.8" font-family="Times,serif" font-size="14.00" fill="blue">10</text>
<text text-anchor="middle" x="961.3" y="-76.8" font-family="Times,serif" font-size="14.00" fill="blue">[treasure_many]</text>
</g>
<!-- 8&#45;&gt;10\n[treasure_many] -->
<g id="edge11" class="edge">
<title>8&#45;&gt;10\n[treasure_many]</title>
<path fill="none" stroke="blue" d="M872.45,-141.94C886.65,-133.22 904.5,-122.26 920.4,-112.5"/>
<polygon fill="blue" stroke="blue" points="922.3,-115.44 928.99,-107.22 918.64,-109.47 922.3,-115.44"/>
</g>
<!-- 11\n[has_monsters] -->
<g id="node12" class="node">
<title>11\n[has_monsters]</title>
<text text-anchor="middle" x="1100.3" y="-138.8" font-family="Times,serif" font-size="14.00" fill="blue">11</text>
<text text-anchor="middle" x="1100.3" y="-123.8" font-family="Times,serif" font-size="14.00" fill="blue">[has_monsters]</text>
</g>
<!-- 8&#45;&gt;11\n[has_monsters] -->
<g id="edge12" class="edge">
<title>8&#45;&gt;11\n[has_monsters]</title>
<path fill="none" stroke="blue" d="M872.42,-155.63C911.68,-152.06 986.94,-145.21 1039.99,-140.39"/>
<polygon fill="blue" stroke="blue" points="1040.31,-143.88 1049.95,-139.49 1039.67,-136.91 1040.31,-143.88"/>
</g>
<!-- 9\n[treasure_one]&#45;&gt;1\n[end] -->
<g id="edge15" class="edge">
<title>9\n[treasure_one]&#45;&gt;1\n[end]</title>
<path fill="none" stroke="green" stroke-dasharray="5,2" d="M1009.03,-177.6C1056.89,-173.09 1130.53,-166.15 1176.17,-161.86"/>
<polygon fill="green" stroke="green" points="1176.67,-165.33 1186.3,-160.9 1176.01,-158.36 1176.67,-165.33"/>
</g>
<!-- 9\n[treasure_one]&#45;&gt;11\n[has_monsters] -->
<g id="edge14" class="edge">
<title>9\n[treasure_one]&#45;&gt;11\n[has_monsters]</title>
<path fill="none" stroke="blue" d="M1009.06,-165.96C1019.15,-162.5 1029.94,-158.79 1040.42,-155.2"/>
<polygon fill="blue" stroke="blue" points="1041.61,-158.49 1049.94,-151.93 1039.34,-151.87 1041.61,-158.49"/>
</g>
<!-- 10\n[treasure_many]&#45;&gt;1\n[end] -->
<g id="edge17" class="edge">
<title>10\n[treasure_many]&#45;&gt;1\n[end]</title>
<path fill="none" stroke="green" stroke-dasharray="5,2" d="M1014.35,-85.76C1053.12,-85.85 1106.67,-89.76 1150.3,-107 1163.49,-112.21 1176.3,-120.82 1187.12,-129.5"/>
<polygon fill="green" stroke="green" points="1185.06,-132.34 1194.97,-136.09 1189.56,-126.98 1185.06,-132.34"/>
</g>
<!-- 10\n[treasure_many]&#45;&gt;11\n[has_monsters] -->
<g id="edge16" class="edge">
<title>10\n[treasure_many]&#45;&gt;11\n[has_monsters]</title>
<path fill="none" stroke="blue" d="M1014.48,-105.9C1022.94,-108.81 1031.76,-111.83 1040.36,-114.78"/>
<polygon fill="blue" stroke="blue" points="1039.37,-118.14 1049.96,-118.08 1041.64,-111.52 1039.37,-118.14"/>
</g>
<!-- 11\n[has_monsters]&#45;&gt;1\n[end] -->
<g id="edge18" class="edge">
<title>11\n[has_monsters]&#45;&gt;1\n[end]</title>
<path fill="none" stroke="green" stroke-dasharray="5,2" d="M1150.41,-144.75C1159.18,-146.49 1168.22,-148.29 1176.71,-149.98"/>
<polygon fill="green" stroke="green" points="1176.24,-153.45 1186.73,-151.97 1177.61,-146.59 1176.24,-153.45"/>
</g>
</g>
</svg>
