<?xml version="1.0" encoding="UTF-8" standalone="no"?>
<!DOCTYPE svg PUBLIC "-//W3C//DTD SVG 1.1//EN"
 "http://www.w3.org/Graphics/SVG/1.1/DTD/svg11.dtd">
<!-- Generated by graphviz version 2.43.0 (0)
 -->
<!-- Title: G Pages: 1 -->
<svg width="852pt" height="121pt"
 viewBox="0.00 0.00 852.00 121.00" xmlns="http://www.w3.org/2000/svg" xmlns:xlink="http://www.w3.org/1999/xlink">
<g id="graph0" class="graph" transform="scale(1 1) rotate(0) translate(4 117)">
<title>G</title>
<polygon fill="white" stroke="transparent" points="-4,4 -4,-117 848,-117 848,4 -4,4"/>
<!-- 0\n[start] -->
<g id="node1" class="node">
<title>0\n[start]</title>
<text text-anchor="middle" x="27" y="-57.3" font-family="Times,serif" font-size="14.00" fill="green">0</text>
<text text-anchor="middle" x="27" y="-42.3" font-family="Times,serif" font-size="14.00" fill="green">[start]</text>
</g>
<!-- 2\nWow! This ought to do it!\nOur intel was accurate. Look at all\nthose Energy Crystals! -->
<g id="node3" class="node">
<title>2\nWow! This ought to do it!\nOur intel was accurate. Look at all\nthose Energy Crystals!</title>
<polygon fill="none" stroke="black" points="296,-87.5 90,-87.5 90,-19.5 296,-19.5 296,-87.5"/>
<text text-anchor="middle" x="193" y="-72.3" font-family="Times,serif" font-size="14.00">2</text>
<text text-anchor="middle" x="193" y="-57.3" font-family="Times,serif" font-size="14.00">Wow! This ought to do it!</text>
<text text-anchor="middle" x="193" y="-42.3" font-family="Times,serif" font-size="14.00">Our intel was accurate. Look at all</text>
<text text-anchor="middle" x="193" y="-27.3" font-family="Times,serif" font-size="14.00">those Energy Crystals!</text>
</g>
<!-- 0\n[start]&#45;&gt;2\nWow! This ought to do it!\nOur intel was accurate. Look at all\nthose Energy Crystals! -->
<g id="edge1" class="edge">
<title>0\n[start]&#45;&gt;2\nWow! This ought to do it!\nOur intel was accurate. Look at all\nthose Energy Crystals!</title>
<path fill="none" stroke="green" d="M54.35,-53.5C61.8,-53.5 70.4,-53.5 79.61,-53.5"/>
<polygon fill="green" stroke="green" points="79.8,-57 89.8,-53.5 79.8,-50 79.8,-57"/>
</g>
<!-- 1\n[end] -->
<g id="node2" class="node">
<title>1\n[end]</title>
<text text-anchor="middle" x="817" y="-58.3" font-family="Times,serif" font-size="14.00" fill="green">1</text>
<text text-anchor="middle" x="817" y="-43.3" font-family="Times,serif" font-size="14.00" fill="green">[end]</text>
</g>
<!-- 3\nNow, to get this back.\nGet this back to your base. -->
<g id="node4" class="node">
<title>3\nNow, to get this back.\nGet this back to your base.</title>
<polygon fill="none" stroke="black" points="754,-113 591,-113 591,-60 754,-60 754,-113"/>
<text text-anchor="middle" x="672.5" y="-97.8" font-family="Times,serif" font-size="14.00">3</text>
<text text-anchor="middle" x="672.5" y="-82.8" font-family="Times,serif" font-size="14.00">Now, to get this back.</text>
<text text-anchor="middle" x="672.5" y="-67.8" font-family="Times,serif" font-size="14.00">Get this back to your base.</text>
</g>
<!-- 2\nWow! This ought to do it!\nOur intel was accurate. Look at all\nthose Energy Crystals!&#45;&gt;3\nNow, to get this back.\nGet this back to your base. -->
<g id="edge2" class="edge">
<title>2\nWow! This ought to do it!\nOur intel was accurate. Look at all\nthose Energy Crystals!&#45;&gt;3\nNow, to get this back.\nGet this back to your base.</title>
<path fill="none" stroke="black" d="M296.14,-60.56C380.61,-66.4 499.46,-74.61 580.65,-80.22"/>
<polygon fill="black" stroke="black" points="580.64,-83.73 590.86,-80.93 581.12,-76.75 580.64,-83.73"/>
</g>
<!-- 4\nCollect all the Energy Crystals you&#39;ve\nfound and complete our mission! -->
<g id="node5" class="node">
<title>4\nCollect all the Energy Crystals you&#39;ve\nfound and complete our mission!</title>
<polygon fill="none" stroke="black" points="555,-53 332,-53 332,0 555,0 555,-53"/>
<text text-anchor="middle" x="443.5" y="-37.8" font-family="Times,serif" font-size="14.00">4</text>
<text text-anchor="middle" x="443.5" y="-22.8" font-family="Times,serif" font-size="14.00">Collect all the Energy Crystals you&#39;ve</text>
<text text-anchor="middle" x="443.5" y="-7.8" font-family="Times,serif" font-size="14.00">found and complete our mission!</text>
</g>
<!-- 2\nWow! This ought to do it!\nOur intel was accurate. Look at all\nthose Energy Crystals!&#45;&gt;4\nCollect all the Energy Crystals you&#39;ve\nfound and complete our mission! -->
<g id="edge3" class="edge">
<title>2\nWow! This ought to do it!\nOur intel was accurate. Look at all\nthose Energy Crystals!&#45;&gt;4\nCollect all the Energy Crystals you&#39;ve\nfound and complete our mission!</title>
<path fill="none" stroke="black" d="M296.15,-42.4C304.62,-41.48 313.23,-40.55 321.81,-39.61"/>
<polygon fill="black" stroke="black" points="322.31,-43.08 331.87,-38.52 321.55,-36.12 322.31,-43.08"/>
</g>
<!-- 3\nNow, to get this back.\nGet this back to your base.&#45;&gt;1\n[end] -->
<g id="edge4" class="edge">
<title>3\nNow, to get this back.\nGet this back to your base.&#45;&gt;1\n[end]</title>
<path fill="none" stroke="green" d="M754.33,-68.35C763.24,-66.35 771.94,-64.39 779.88,-62.61"/>
<polygon fill="green" stroke="green" points="780.82,-65.99 789.81,-60.38 779.28,-59.16 780.82,-65.99"/>
</g>
<!-- 5\n[treasure_many] -->
<g id="node6" class="node">
<title>5\n[treasure_many]</title>
<text text-anchor="middle" x="672.5" y="-26.3" font-family="Times,serif" font-size="14.00" fill="blue">5</text>
<text text-anchor="middle" x="672.5" y="-11.3" font-family="Times,serif" font-size="14.00" fill="blue">[treasure_many]</text>
</g>
<!-- 4\nCollect all the Energy Crystals you&#39;ve\nfound and complete our mission!&#45;&gt;5\n[treasure_many] -->
<g id="edge5" class="edge">
<title>4\nCollect all the Energy Crystals you&#39;ve\nfound and complete our mission!&#45;&gt;5\n[treasure_many]</title>
<path fill="none" stroke="blue" d="M555.01,-24.55C573.59,-24.23 592.28,-23.9 609.08,-23.6"/>
<polygon fill="blue" stroke="blue" points="609.34,-27.1 619.28,-23.42 609.22,-20.1 609.34,-27.1"/>
</g>
<!-- 5\n[treasure_many]&#45;&gt;1\n[end] -->
<g id="edge6" class="edge">
<title>5\n[treasure_many]&#45;&gt;1\n[end]</title>
<path fill="none" stroke="green" d="M725.75,-34.23C743.61,-38.24 763.18,-42.64 779.52,-46.31"/>
<polygon fill="green" stroke="green" points="779.21,-49.83 789.74,-48.6 780.75,-43 779.21,-49.83"/>
</g>
</g>
</svg>
