<?xml version="1.0" encoding="UTF-8" standalone="no"?>
<!DOCTYPE svg PUBLIC "-//W3C//DTD SVG 1.1//EN"
 "http://www.w3.org/Graphics/SVG/1.1/DTD/svg11.dtd">
<!-- Generated by graphviz version 2.43.0 (0)
 -->
<!-- Title: G Pages: 1 -->
<svg width="1094pt" height="158pt"
 viewBox="0.00 0.00 1093.94 158.00" xmlns="http://www.w3.org/2000/svg" xmlns:xlink="http://www.w3.org/1999/xlink">
<g id="graph0" class="graph" transform="scale(1 1) rotate(0) translate(4 154)">
<title>G</title>
<polygon fill="white" stroke="transparent" points="-4,4 -4,-154 1089.94,-154 1089.94,4 -4,4"/>
<!-- 0\n[start] -->
<g id="node1" class="node">
<title>0\n[start]</title>
<ellipse fill="none" stroke="green" cx="34.65" cy="-91" rx="34.8" ry="34.8"/>
<text text-anchor="middle" x="34.65" y="-94.8" font-family="Times,serif" font-size="14.00" fill="green">0</text>
<text text-anchor="middle" x="34.65" y="-79.8" font-family="Times,serif" font-size="14.00" fill="green">[start]</text>
</g>
<!-- 2\nYou found the missing Rock Raider! -->
<g id="node3" class="node">
<title>2\nYou found the missing Rock Raider!</title>
<polygon fill="none" stroke="black" points="341.3,-150 123.3,-150 123.3,-112 341.3,-112 341.3,-150"/>
<text text-anchor="middle" x="232.3" y="-134.8" font-family="Times,serif" font-size="14.00">2</text>
<text text-anchor="middle" x="232.3" y="-119.8" font-family="Times,serif" font-size="14.00">You found the missing Rock Raider!</text>
</g>
<!-- 0\n[start]&#45;&gt;2\nYou found the missing Rock Raider! -->
<g id="edge1" class="edge">
<title>0\n[start]&#45;&gt;2\nYou found the missing Rock Raider!</title>
<path fill="none" stroke="green" stroke-dasharray="5,2" d="M68.84,-97.79C85.48,-101.19 106.63,-105.51 128.13,-109.91"/>
<polygon fill="green" stroke="green" points="127.52,-113.36 138.02,-111.93 128.92,-106.5 127.52,-113.36"/>
</g>
<!-- 4\nYou found all %(lost_miners_count)s Rock\nRaiders!\nThat&#39;s all %(lost_miners_count)s Rock\nRaiders found! -->
<g id="node5" class="node">
<title>4\nYou found all %(lost_miners_count)s Rock\nRaiders!\nThat&#39;s all %(lost_miners_count)s Rock\nRaiders found!</title>
<polygon fill="none" stroke="black" points="359.3,-93.5 105.3,-93.5 105.3,-10.5 359.3,-10.5 359.3,-93.5"/>
<text text-anchor="middle" x="232.3" y="-78.3" font-family="Times,serif" font-size="14.00">4</text>
<text text-anchor="middle" x="232.3" y="-63.3" font-family="Times,serif" font-size="14.00">You found all %(lost_miners_count)s Rock</text>
<text text-anchor="middle" x="232.3" y="-48.3" font-family="Times,serif" font-size="14.00">Raiders!</text>
<text text-anchor="middle" x="232.3" y="-33.3" font-family="Times,serif" font-size="14.00">That&#39;s all %(lost_miners_count)s Rock</text>
<text text-anchor="middle" x="232.3" y="-18.3" font-family="Times,serif" font-size="14.00">Raiders found!</text>
</g>
<!-- 0\n[start]&#45;&gt;4\nYou found all %(lost_miners_count)s Rock\nRaiders!\nThat&#39;s all %(lost_miners_count)s Rock\nRaiders found! -->
<g id="edge2" class="edge">
<title>0\n[start]&#45;&gt;4\nYou found all %(lost_miners_count)s Rock\nRaiders!\nThat&#39;s all %(lost_miners_count)s Rock\nRaiders found!</title>
<path fill="none" stroke="green" stroke-dasharray="5,2" d="M68.84,-84.38C76.69,-82.82 85.54,-81.05 94.96,-79.18"/>
<polygon fill="green" stroke="green" points="95.84,-82.57 104.96,-77.18 94.47,-75.71 95.84,-82.57"/>
</g>
<!-- 1\n[end] -->
<g id="node2" class="node">
<title>1\n[end]</title>
<ellipse fill="none" stroke="green" cx="1054.12" cy="-75" rx="31.64" ry="31.64"/>
<text text-anchor="middle" x="1054.12" y="-78.8" font-family="Times,serif" font-size="14.00" fill="green">1</text>
<text text-anchor="middle" x="1054.12" y="-63.8" font-family="Times,serif" font-size="14.00" fill="green">[end]</text>
</g>
<!-- 3\n[lost_miners_one] -->
<g id="node4" class="node">
<title>3\n[lost_miners_one]</title>
<text text-anchor="middle" x="465.3" y="-134.8" font-family="Times,serif" font-size="14.00" fill="blue">3</text>
<text text-anchor="middle" x="465.3" y="-119.8" font-family="Times,serif" font-size="14.00" fill="blue">[lost_miners_one]</text>
</g>
<!-- 2\nYou found the missing Rock Raider!&#45;&gt;3\n[lost_miners_one] -->
<g id="edge3" class="edge">
<title>2\nYou found the missing Rock Raider!&#45;&gt;3\n[lost_miners_one]</title>
<path fill="none" stroke="blue" d="M341.36,-131C360.4,-131 379.71,-131 397.21,-131"/>
<polygon fill="blue" stroke="blue" points="397.29,-134.5 407.29,-131 397.29,-127.5 397.29,-134.5"/>
</g>
<!-- 7 -->
<g id="node8" class="node">
<title>7</title>
<text text-anchor="middle" x="598.3" y="-71.3" font-family="Times,serif" font-size="14.00">7</text>
</g>
<!-- 3\n[lost_miners_one]&#45;&gt;7 -->
<g id="edge4" class="edge">
<title>3\n[lost_miners_one]&#45;&gt;7</title>
<path fill="none" stroke="blue" d="M513.91,-111.96C521.09,-109.01 528.4,-105.95 535.3,-103 543.99,-99.28 553.3,-95.14 562.01,-91.22"/>
<polygon fill="blue" stroke="blue" points="563.49,-94.39 571.15,-87.08 560.6,-88.02 563.49,-94.39"/>
</g>
<!-- 5\n[lost_miners_together] -->
<g id="node6" class="node">
<title>5\n[lost_miners_together]</title>
<text text-anchor="middle" x="465.3" y="-78.8" font-family="Times,serif" font-size="14.00" fill="blue">5</text>
<text text-anchor="middle" x="465.3" y="-63.8" font-family="Times,serif" font-size="14.00" fill="blue">[lost_miners_together]</text>
</g>
<!-- 4\nYou found all %(lost_miners_count)s Rock\nRaiders!\nThat&#39;s all %(lost_miners_count)s Rock\nRaiders found!&#45;&gt;5\n[lost_miners_together] -->
<g id="edge5" class="edge">
<title>4\nYou found all %(lost_miners_count)s Rock\nRaiders!\nThat&#39;s all %(lost_miners_count)s Rock\nRaiders found!&#45;&gt;5\n[lost_miners_together]</title>
<path fill="none" stroke="blue" d="M359.61,-64.58C368.3,-65.44 376.9,-66.3 385.22,-67.13"/>
<polygon fill="blue" stroke="blue" points="384.93,-70.61 395.22,-68.12 385.62,-63.65 384.93,-70.61"/>
</g>
<!-- 6\n[lost_miners_apart] -->
<g id="node7" class="node">
<title>6\n[lost_miners_apart]</title>
<text text-anchor="middle" x="465.3" y="-22.8" font-family="Times,serif" font-size="14.00" fill="blue">6</text>
<text text-anchor="middle" x="465.3" y="-7.8" font-family="Times,serif" font-size="14.00" fill="blue">[lost_miners_apart]</text>
</g>
<!-- 4\nYou found all %(lost_miners_count)s Rock\nRaiders!\nThat&#39;s all %(lost_miners_count)s Rock\nRaiders found!&#45;&gt;6\n[lost_miners_apart] -->
<g id="edge6" class="edge">
<title>4\nYou found all %(lost_miners_count)s Rock\nRaiders!\nThat&#39;s all %(lost_miners_count)s Rock\nRaiders found!&#45;&gt;6\n[lost_miners_apart]</title>
<path fill="none" stroke="blue" d="M359.61,-33.96C371.18,-32.3 382.61,-30.67 393.42,-29.12"/>
<polygon fill="blue" stroke="blue" points="394.18,-32.55 403.59,-27.67 393.19,-25.62 394.18,-32.55"/>
</g>
<!-- 5\n[lost_miners_together]&#45;&gt;7 -->
<g id="edge7" class="edge">
<title>5\n[lost_miners_together]&#45;&gt;7</title>
<path fill="none" stroke="blue" d="M535.63,-75C544.42,-75 553.12,-75 561.09,-75"/>
<polygon fill="blue" stroke="blue" points="561.09,-78.5 571.09,-75 561.09,-71.5 561.09,-78.5"/>
</g>
<!-- 6\n[lost_miners_apart]&#45;&gt;7 -->
<g id="edge8" class="edge">
<title>6\n[lost_miners_apart]&#45;&gt;7</title>
<path fill="none" stroke="blue" d="M513.91,-38.04C521.09,-40.99 528.4,-44.05 535.3,-47 543.99,-50.72 553.3,-54.86 562.01,-58.78"/>
<polygon fill="blue" stroke="blue" points="560.6,-61.98 571.15,-62.92 563.49,-55.61 560.6,-61.98"/>
</g>
<!-- 7&#45;&gt;1\n[end] -->
<g id="edge10" class="edge">
<title>7&#45;&gt;1\n[end]</title>
<path fill="none" stroke="green" stroke-dasharray="5,2" d="M625.51,-77.58C636.55,-78.55 649.54,-79.53 661.3,-80 805.62,-85.81 841.95,-85.39 986.3,-80 994.64,-79.69 1003.57,-79.16 1012.08,-78.56"/>
<polygon fill="green" stroke="green" points="1012.49,-82.04 1022.2,-77.8 1011.97,-75.05 1012.49,-82.04"/>
</g>
<!-- 8\nNow, collect %(resources)s. -->
<g id="node9" class="node">
<title>8\nNow, collect %(resources)s.</title>
<polygon fill="none" stroke="black" points="831.3,-71 661.3,-71 661.3,-33 831.3,-33 831.3,-71"/>
<text text-anchor="middle" x="746.3" y="-55.8" font-family="Times,serif" font-size="14.00">8</text>
<text text-anchor="middle" x="746.3" y="-40.8" font-family="Times,serif" font-size="14.00">Now, collect %(resources)s.</text>
</g>
<!-- 7&#45;&gt;8\nNow, collect %(resources)s. -->
<g id="edge9" class="edge">
<title>7&#45;&gt;8\nNow, collect %(resources)s.</title>
<path fill="none" stroke="black" d="M625.4,-70.89C633.07,-69.68 641.94,-68.28 651.31,-66.81"/>
<polygon fill="black" stroke="black" points="651.9,-70.26 661.23,-65.24 650.81,-63.34 651.9,-70.26"/>
</g>
<!-- 9\n[collect_resources] -->
<g id="node10" class="node">
<title>9\n[collect_resources]</title>
<text text-anchor="middle" x="926.8" y="-55.8" font-family="Times,serif" font-size="14.00" fill="blue">9</text>
<text text-anchor="middle" x="926.8" y="-40.8" font-family="Times,serif" font-size="14.00" fill="blue">[collect_resources]</text>
</g>
<!-- 8\nNow, collect %(resources)s.&#45;&gt;9\n[collect_resources] -->
<g id="edge11" class="edge">
<title>8\nNow, collect %(resources)s.&#45;&gt;9\n[collect_resources]</title>
<path fill="none" stroke="blue" d="M831.32,-52C839.93,-52 848.61,-52 857.04,-52"/>
<polygon fill="blue" stroke="blue" points="857.16,-55.5 867.16,-52 857.16,-48.5 857.16,-55.5"/>
</g>
<!-- 9\n[collect_resources]&#45;&gt;1\n[end] -->
<g id="edge12" class="edge">
<title>9\n[collect_resources]&#45;&gt;1\n[end]</title>
<path fill="none" stroke="green" stroke-dasharray="5,2" d="M986.42,-62.76C995.3,-64.39 1004.28,-66.04 1012.66,-67.57"/>
<polygon fill="green" stroke="green" points="1012.06,-71.02 1022.53,-69.39 1013.32,-64.14 1012.06,-71.02"/>
</g>
</g>
</svg>
