<?xml version="1.0" encoding="UTF-8" standalone="no"?>
<!DOCTYPE svg PUBLIC "-//W3C//DTD SVG 1.1//EN"
 "http://www.w3.org/Graphics/SVG/1.1/DTD/svg11.dtd">
<!-- Generated by graphviz version 2.43.0 (0)
 -->
<!-- Title: G Pages: 1 -->
<svg width="1270pt" height="222pt"
 viewBox="0.00 0.00 1269.94 222.00" xmlns="http://www.w3.org/2000/svg" xmlns:xlink="http://www.w3.org/1999/xlink">
<g id="graph0" class="graph" transform="scale(1 1) rotate(0) translate(4 218)">
<title>G</title>
<polygon fill="white" stroke="transparent" points="-4,4 -4,-218 1265.94,-218 1265.94,4 -4,4"/>
<!-- 0\n[start] -->
<g id="node1" class="node">
<title>0\n[start]</title>
<ellipse fill="none" stroke="green" cx="34.65" cy="-122" rx="34.8" ry="34.8"/>
<text text-anchor="middle" x="34.65" y="-125.8" font-family="Times,serif" font-size="14.00" fill="green">0</text>
<text text-anchor="middle" x="34.65" y="-110.8" font-family="Times,serif" font-size="14.00" fill="green">[start]</text>
</g>
<!-- 2\nLook! It&#39;s one of the lost Rock Radiers!\nYou found a lost Rock Raider!\nYou found one of the lost Rock Raiders! -->
<g id="node3" class="node">
<title>2\nLook! It&#39;s one of the lost Rock Radiers!\nYou found a lost Rock Raider!\nYou found one of the lost Rock Raiders!</title>
<polygon fill="none" stroke="black" points="355.8,-214 117.8,-214 117.8,-146 355.8,-146 355.8,-214"/>
<text text-anchor="middle" x="236.8" y="-198.8" font-family="Times,serif" font-size="14.00">2</text>
<text text-anchor="middle" x="236.8" y="-183.8" font-family="Times,serif" font-size="14.00">Look! It&#39;s one of the lost Rock Radiers!</text>
<text text-anchor="middle" x="236.8" y="-168.8" font-family="Times,serif" font-size="14.00">You found a lost Rock Raider!</text>
<text text-anchor="middle" x="236.8" y="-153.8" font-family="Times,serif" font-size="14.00">You found one of the lost Rock Raiders!</text>
</g>
<!-- 0\n[start]&#45;&gt;2\nLook! It&#39;s one of the lost Rock Radiers!\nYou found a lost Rock Raider!\nYou found one of the lost Rock Raiders! -->
<g id="edge2" class="edge">
<title>0\n[start]&#45;&gt;2\nLook! It&#39;s one of the lost Rock Radiers!\nYou found a lost Rock Raider!\nYou found one of the lost Rock Raiders!</title>
<path fill="none" stroke="green" stroke-dasharray="5,2" d="M68.25,-131.45C79.88,-134.82 93.79,-138.85 108.55,-143.13"/>
<polygon fill="green" stroke="green" points="107.78,-146.55 118.36,-145.97 109.73,-139.82 107.78,-146.55"/>
</g>
<!-- 4\nLook at that! %(found_miners_count)s of\nthe lost Rock Raiders are here, safely\ntogether.\nThat&#39;s %(found_miners_count)s Rock\nRaiders found!\nYou found %(found_miners_count)s of them\nhere! -->
<g id="node5" class="node">
<title>4\nLook at that! %(found_miners_count)s of\nthe lost Rock Raiders are here, safely\ntogether.\nThat&#39;s %(found_miners_count)s Rock\nRaiders found!\nYou found %(found_miners_count)s of them\nhere!</title>
<polygon fill="none" stroke="black" points="368.3,-128 105.3,-128 105.3,0 368.3,0 368.3,-128"/>
<text text-anchor="middle" x="236.8" y="-112.8" font-family="Times,serif" font-size="14.00">4</text>
<text text-anchor="middle" x="236.8" y="-97.8" font-family="Times,serif" font-size="14.00">Look at that! %(found_miners_count)s of</text>
<text text-anchor="middle" x="236.8" y="-82.8" font-family="Times,serif" font-size="14.00">the lost Rock Raiders are here, safely</text>
<text text-anchor="middle" x="236.8" y="-67.8" font-family="Times,serif" font-size="14.00">together.</text>
<text text-anchor="middle" x="236.8" y="-52.8" font-family="Times,serif" font-size="14.00">That&#39;s %(found_miners_count)s Rock</text>
<text text-anchor="middle" x="236.8" y="-37.8" font-family="Times,serif" font-size="14.00">Raiders found!</text>
<text text-anchor="middle" x="236.8" y="-22.8" font-family="Times,serif" font-size="14.00">You found %(found_miners_count)s of them</text>
<text text-anchor="middle" x="236.8" y="-7.8" font-family="Times,serif" font-size="14.00">here!</text>
</g>
<!-- 0\n[start]&#45;&gt;4\nLook at that! %(found_miners_count)s of\nthe lost Rock Raiders are here, safely\ntogether.\nThat&#39;s %(found_miners_count)s Rock\nRaiders found!\nYou found %(found_miners_count)s of them\nhere! -->
<g id="edge1" class="edge">
<title>0\n[start]&#45;&gt;4\nLook at that! %(found_miners_count)s of\nthe lost Rock Raiders are here, safely\ntogether.\nThat&#39;s %(found_miners_count)s Rock\nRaiders found!\nYou found %(found_miners_count)s of them\nhere!</title>
<path fill="none" stroke="green" stroke-dasharray="5,2" d="M68.25,-112.55C76.39,-110.19 85.65,-107.51 95.54,-104.65"/>
<polygon fill="green" stroke="green" points="96.56,-107.99 105.19,-101.85 94.61,-101.27 96.56,-107.99"/>
</g>
<!-- 1\n[end] -->
<g id="node2" class="node">
<title>1\n[end]</title>
<ellipse fill="none" stroke="green" cx="1230.12" cy="-122" rx="31.64" ry="31.64"/>
<text text-anchor="middle" x="1230.12" y="-125.8" font-family="Times,serif" font-size="14.00" fill="green">1</text>
<text text-anchor="middle" x="1230.12" y="-110.8" font-family="Times,serif" font-size="14.00" fill="green">[end]</text>
</g>
<!-- 3\n[found_miners_one] -->
<g id="node4" class="node">
<title>3\n[found_miners_one]</title>
<text text-anchor="middle" x="473.8" y="-168.8" font-family="Times,serif" font-size="14.00" fill="blue">3</text>
<text text-anchor="middle" x="473.8" y="-153.8" font-family="Times,serif" font-size="14.00" fill="blue">[found_miners_one]</text>
</g>
<!-- 2\nLook! It&#39;s one of the lost Rock Radiers!\nYou found a lost Rock Raider!\nYou found one of the lost Rock Raiders!&#45;&gt;3\n[found_miners_one] -->
<g id="edge3" class="edge">
<title>2\nLook! It&#39;s one of the lost Rock Radiers!\nYou found a lost Rock Raider!\nYou found one of the lost Rock Raiders!&#45;&gt;3\n[found_miners_one]</title>
<path fill="none" stroke="blue" d="M355.98,-172.46C370.74,-171.51 385.48,-170.57 399.28,-169.69"/>
<polygon fill="blue" stroke="blue" points="399.87,-173.16 409.63,-169.03 399.42,-166.18 399.87,-173.16"/>
</g>
<!-- 6 -->
<g id="node7" class="node">
<title>6</title>
<text text-anchor="middle" x="606.3" y="-118.3" font-family="Times,serif" font-size="14.00">6</text>
</g>
<!-- 3\n[found_miners_one]&#45;&gt;6 -->
<g id="edge4" class="edge">
<title>3\n[found_miners_one]&#45;&gt;6</title>
<path fill="none" stroke="blue" d="M532.8,-145.89C545.33,-141.76 558.22,-137.51 569.59,-133.76"/>
<polygon fill="blue" stroke="blue" points="570.75,-137.07 579.15,-130.62 568.56,-130.42 570.75,-137.07"/>
</g>
<!-- 5\n[found_miners_many] -->
<g id="node6" class="node">
<title>5\n[found_miners_many]</title>
<text text-anchor="middle" x="473.8" y="-97.8" font-family="Times,serif" font-size="14.00" fill="blue">5</text>
<text text-anchor="middle" x="473.8" y="-82.8" font-family="Times,serif" font-size="14.00" fill="blue">[found_miners_many]</text>
</g>
<!-- 4\nLook at that! %(found_miners_count)s of\nthe lost Rock Raiders are here, safely\ntogether.\nThat&#39;s %(found_miners_count)s Rock\nRaiders found!\nYou found %(found_miners_count)s of them\nhere!&#45;&gt;5\n[found_miners_many] -->
<g id="edge5" class="edge">
<title>4\nLook at that! %(found_miners_count)s of\nthe lost Rock Raiders are here, safely\ntogether.\nThat&#39;s %(found_miners_count)s Rock\nRaiders found!\nYou found %(found_miners_count)s of them\nhere!&#45;&gt;5\n[found_miners_many]</title>
<path fill="none" stroke="blue" d="M368.35,-80.67C377.14,-81.79 385.83,-82.9 394.22,-83.97"/>
<polygon fill="blue" stroke="blue" points="393.93,-87.46 404.29,-85.25 394.82,-80.52 393.93,-87.46"/>
</g>
<!-- 5\n[found_miners_many]&#45;&gt;6 -->
<g id="edge6" class="edge">
<title>5\n[found_miners_many]&#45;&gt;6</title>
<path fill="none" stroke="blue" d="M543.49,-108.74C552.28,-110.63 560.99,-112.49 568.98,-114.21"/>
<polygon fill="blue" stroke="blue" points="568.5,-117.68 579.01,-116.36 569.96,-110.84 568.5,-117.68"/>
</g>
<!-- 7\nKeep going!\nKeep searching, Cadet. -->
<g id="node8" class="node">
<title>7\nKeep going!\nKeep searching, Cadet.</title>
<polygon fill="none" stroke="black" points="812.3,-176.5 669.3,-176.5 669.3,-123.5 812.3,-123.5 812.3,-176.5"/>
<text text-anchor="middle" x="740.8" y="-161.3" font-family="Times,serif" font-size="14.00">7</text>
<text text-anchor="middle" x="740.8" y="-146.3" font-family="Times,serif" font-size="14.00">Keep going!</text>
<text text-anchor="middle" x="740.8" y="-131.3" font-family="Times,serif" font-size="14.00">Keep searching, Cadet.</text>
</g>
<!-- 6&#45;&gt;7\nKeep going!\nKeep searching, Cadet. -->
<g id="edge7" class="edge">
<title>6&#45;&gt;7\nKeep going!\nKeep searching, Cadet.</title>
<path fill="none" stroke="black" d="M633.47,-127.53C641.12,-129.15 649.9,-131 659.07,-132.94"/>
<polygon fill="black" stroke="black" points="658.64,-136.43 669.14,-135.07 660.08,-129.58 658.64,-136.43"/>
</g>
<!-- 8 -->
<g id="node9" class="node">
<title>8</title>
<text text-anchor="middle" x="875.3" y="-118.3" font-family="Times,serif" font-size="14.00">8</text>
</g>
<!-- 6&#45;&gt;8 -->
<g id="edge8" class="edge">
<title>6&#45;&gt;8</title>
<path fill="none" stroke="black" d="M633.49,-118.38C644.52,-117.03 657.51,-115.66 669.3,-115 732.75,-111.43 748.84,-111.43 812.3,-115 820.68,-115.47 829.67,-116.3 838.13,-117.22"/>
<polygon fill="black" stroke="black" points="837.77,-120.71 848.11,-118.38 838.58,-113.75 837.77,-120.71"/>
</g>
<!-- 7\nKeep going!\nKeep searching, Cadet.&#45;&gt;8 -->
<g id="edge9" class="edge">
<title>7\nKeep going!\nKeep searching, Cadet.&#45;&gt;8</title>
<path fill="none" stroke="black" d="M812.31,-135.1C821.35,-133.19 830.28,-131.3 838.43,-129.58"/>
<polygon fill="black" stroke="black" points="839.23,-132.99 848.29,-127.5 837.78,-126.14 839.23,-132.99"/>
</g>
<!-- 8&#45;&gt;1\n[end] -->
<g id="edge11" class="edge">
<title>8&#45;&gt;1\n[end]</title>
<path fill="none" stroke="green" stroke-dasharray="5,2" d="M902.38,-128.2C913.39,-130.51 926.4,-132.86 938.3,-134 1037.4,-143.5 1063.13,-142.83 1162.3,-134 1170.9,-133.23 1180.06,-131.92 1188.75,-130.44"/>
<polygon fill="green" stroke="green" points="1189.45,-133.87 1198.67,-128.64 1188.2,-126.98 1189.45,-133.87"/>
</g>
<!-- 9\nWe need to find all\n%(lost_miners_count)s before we can\nleave. -->
<g id="node10" class="node">
<title>9\nWe need to find all\n%(lost_miners_count)s before we can\nleave.</title>
<polygon fill="none" stroke="black" points="1162.3,-125 938.3,-125 938.3,-57 1162.3,-57 1162.3,-125"/>
<text text-anchor="middle" x="1050.3" y="-109.8" font-family="Times,serif" font-size="14.00">9</text>
<text text-anchor="middle" x="1050.3" y="-94.8" font-family="Times,serif" font-size="14.00">We need to find all</text>
<text text-anchor="middle" x="1050.3" y="-79.8" font-family="Times,serif" font-size="14.00">%(lost_miners_count)s before we can</text>
<text text-anchor="middle" x="1050.3" y="-64.8" font-family="Times,serif" font-size="14.00">leave.</text>
</g>
<!-- 8&#45;&gt;9\nWe need to find all\n%(lost_miners_count)s before we can\nleave. -->
<g id="edge10" class="edge">
<title>8&#45;&gt;9\nWe need to find all\n%(lost_miners_count)s before we can\nleave.</title>
<path fill="none" stroke="black" d="M902.57,-117.29C910.08,-115.95 918.79,-114.39 928.14,-112.71"/>
<polygon fill="black" stroke="black" points="928.88,-116.13 938.1,-110.92 927.64,-109.24 928.88,-116.13"/>
</g>
<!-- 9\nWe need to find all\n%(lost_miners_count)s before we can\nleave.&#45;&gt;1\n[end] -->
<g id="edge12" class="edge">
<title>9\nWe need to find all\n%(lost_miners_count)s before we can\nleave.&#45;&gt;1\n[end]</title>
<path fill="none" stroke="green" stroke-dasharray="5,2" d="M1162.4,-110.37C1171.68,-111.99 1180.61,-113.54 1188.76,-114.97"/>
<polygon fill="green" stroke="green" points="1188.18,-118.42 1198.63,-116.69 1189.38,-111.52 1188.18,-118.42"/>
</g>
</g>
</svg>
