<?xml version="1.0" encoding="UTF-8" standalone="no"?>
<!DOCTYPE svg PUBLIC "-//W3C//DTD SVG 1.1//EN"
 "http://www.w3.org/Graphics/SVG/1.1/DTD/svg11.dtd">
<!-- Generated by graphviz version 2.43.0 (0)
 -->
<!-- Title: G Pages: 1 -->
<svg width="1326pt" height="285pt"
 viewBox="0.00 0.00 1325.94 285.00" xmlns="http://www.w3.org/2000/svg" xmlns:xlink="http://www.w3.org/1999/xlink">
<g id="graph0" class="graph" transform="scale(1 1) rotate(0) translate(4 281)">
<title>G</title>
<polygon fill="white" stroke="transparent" points="-4,4 -4,-281 1321.94,-281 1321.94,4 -4,4"/>
<!-- 0\n[start] -->
<g id="node1" class="node">
<title>0\n[start]</title>
<ellipse fill="none" stroke="green" cx="34.65" cy="-158" rx="34.8" ry="34.8"/>
<text text-anchor="middle" x="34.65" y="-161.8" font-family="Times,serif" font-size="14.00" fill="green">0</text>
<text text-anchor="middle" x="34.65" y="-146.8" font-family="Times,serif" font-size="14.00" fill="green">[start]</text>
</g>
<!-- 2\nWow! This ought to do it!\nYou&#39;ve found quite the haul here.\nOur intel was accurate. Look at all\nthose Energy Crystals! -->
<g id="node3" class="node">
<title>2\nWow! This ought to do it!\nYou&#39;ve found quite the haul here.\nOur intel was accurate. Look at all\nthose Energy Crystals!</title>
<polygon fill="none" stroke="black" points="311.3,-199.5 105.3,-199.5 105.3,-116.5 311.3,-116.5 311.3,-199.5"/>
<text text-anchor="middle" x="208.3" y="-184.3" font-family="Times,serif" font-size="14.00">2</text>
<text text-anchor="middle" x="208.3" y="-169.3" font-family="Times,serif" font-size="14.00">Wow! This ought to do it!</text>
<text text-anchor="middle" x="208.3" y="-154.3" font-family="Times,serif" font-size="14.00">You&#39;ve found quite the haul here.</text>
<text text-anchor="middle" x="208.3" y="-139.3" font-family="Times,serif" font-size="14.00">Our intel was accurate. Look at all</text>
<text text-anchor="middle" x="208.3" y="-124.3" font-family="Times,serif" font-size="14.00">those Energy Crystals!</text>
</g>
<!-- 0\n[start]&#45;&gt;2\nWow! This ought to do it!\nYou&#39;ve found quite the haul here.\nOur intel was accurate. Look at all\nthose Energy Crystals! -->
<g id="edge1" class="edge">
<title>0\n[start]&#45;&gt;2\nWow! This ought to do it!\nYou&#39;ve found quite the haul here.\nOur intel was accurate. Look at all\nthose Energy Crystals!</title>
<path fill="none" stroke="green" stroke-dasharray="5,2" d="M69.56,-158C77.31,-158 85.96,-158 95.05,-158"/>
<polygon fill="green" stroke="green" points="95.07,-161.5 105.07,-158 95.07,-154.5 95.07,-161.5"/>
</g>
<!-- 1\n[end] -->
<g id="node2" class="node">
<title>1\n[end]</title>
<ellipse fill="none" stroke="green" cx="1286.12" cy="-142" rx="31.64" ry="31.64"/>
<text text-anchor="middle" x="1286.12" y="-145.8" font-family="Times,serif" font-size="14.00" fill="green">1</text>
<text text-anchor="middle" x="1286.12" y="-130.8" font-family="Times,serif" font-size="14.00" fill="green">[end]</text>
</g>
<!-- 3\nNow, transport these Energy Crystals\nback to your base.\nBring this to your base to complete our\nmission!\nGet this back to your base. -->
<g id="node4" class="node">
<title>3\nNow, transport these Energy Crystals\nback to your base.\nBring this to your base to complete our\nmission!\nGet this back to your base.</title>
<polygon fill="none" stroke="black" points="850.3,-277 619.3,-277 619.3,-179 850.3,-179 850.3,-277"/>
<text text-anchor="middle" x="734.8" y="-261.8" font-family="Times,serif" font-size="14.00">3</text>
<text text-anchor="middle" x="734.8" y="-246.8" font-family="Times,serif" font-size="14.00">Now, transport these Energy Crystals</text>
<text text-anchor="middle" x="734.8" y="-231.8" font-family="Times,serif" font-size="14.00">back to your base.</text>
<text text-anchor="middle" x="734.8" y="-216.8" font-family="Times,serif" font-size="14.00">Bring this to your base to complete our</text>
<text text-anchor="middle" x="734.8" y="-201.8" font-family="Times,serif" font-size="14.00">mission!</text>
<text text-anchor="middle" x="734.8" y="-186.8" font-family="Times,serif" font-size="14.00">Get this back to your base.</text>
</g>
<!-- 2\nWow! This ought to do it!\nYou&#39;ve found quite the haul here.\nOur intel was accurate. Look at all\nthose Energy Crystals!&#45;&gt;3\nNow, transport these Energy Crystals\nback to your base.\nBring this to your base to complete our\nmission!\nGet this back to your base. -->
<g id="edge2" class="edge">
<title>2\nWow! This ought to do it!\nYou&#39;ve found quite the haul here.\nOur intel was accurate. Look at all\nthose Energy Crystals!&#45;&gt;3\nNow, transport these Energy Crystals\nback to your base.\nBring this to your base to complete our\nmission!\nGet this back to your base.</title>
<path fill="none" stroke="black" d="M311.15,-199.55C323.18,-203.29 335.41,-206.57 347.3,-209 433.44,-226.6 532.52,-231.17 608.79,-231.44"/>
<polygon fill="black" stroke="black" points="608.92,-234.94 618.93,-231.45 608.93,-227.94 608.92,-234.94"/>
</g>
<!-- 4\nWith this, we have enough to complete\nour mission!\nCollect all the Energy Crystals you&#39;ve\nfound and complete our mission! -->
<g id="node5" class="node">
<title>4\nWith this, we have enough to complete\nour mission!\nCollect all the Energy Crystals you&#39;ve\nfound and complete our mission!</title>
<polygon fill="none" stroke="black" points="580.8,-199.5 349.8,-199.5 349.8,-116.5 580.8,-116.5 580.8,-199.5"/>
<text text-anchor="middle" x="465.3" y="-184.3" font-family="Times,serif" font-size="14.00">4</text>
<text text-anchor="middle" x="465.3" y="-169.3" font-family="Times,serif" font-size="14.00">With this, we have enough to complete</text>
<text text-anchor="middle" x="465.3" y="-154.3" font-family="Times,serif" font-size="14.00">our mission!</text>
<text text-anchor="middle" x="465.3" y="-139.3" font-family="Times,serif" font-size="14.00">Collect all the Energy Crystals you&#39;ve</text>
<text text-anchor="middle" x="465.3" y="-124.3" font-family="Times,serif" font-size="14.00">found and complete our mission!</text>
</g>
<!-- 2\nWow! This ought to do it!\nYou&#39;ve found quite the haul here.\nOur intel was accurate. Look at all\nthose Energy Crystals!&#45;&gt;4\nWith this, we have enough to complete\nour mission!\nCollect all the Energy Crystals you&#39;ve\nfound and complete our mission! -->
<g id="edge4" class="edge">
<title>2\nWow! This ought to do it!\nYou&#39;ve found quite the haul here.\nOur intel was accurate. Look at all\nthose Energy Crystals!&#45;&gt;4\nWith this, we have enough to complete\nour mission!\nCollect all the Energy Crystals you&#39;ve\nfound and complete our mission!</title>
<path fill="none" stroke="black" d="M311.55,-158C320.7,-158 330.04,-158 339.36,-158"/>
<polygon fill="black" stroke="black" points="339.46,-161.5 349.46,-158 339.46,-154.5 339.46,-161.5"/>
</g>
<!-- 6\nI hope we can collect these without\nattracting too much attention.\nBe careful, Cadet! This is surely enough\nto attract those %(monster_type)s\nmonsters. -->
<g id="node7" class="node">
<title>6\nI hope we can collect these without\nattracting too much attention.\nBe careful, Cadet! This is surely enough\nto attract those %(monster_type)s\nmonsters.</title>
<polygon fill="none" stroke="black" points="583.3,-98 347.3,-98 347.3,0 583.3,0 583.3,-98"/>
<text text-anchor="middle" x="465.3" y="-82.8" font-family="Times,serif" font-size="14.00">6</text>
<text text-anchor="middle" x="465.3" y="-67.8" font-family="Times,serif" font-size="14.00">I hope we can collect these without</text>
<text text-anchor="middle" x="465.3" y="-52.8" font-family="Times,serif" font-size="14.00">attracting too much attention.</text>
<text text-anchor="middle" x="465.3" y="-37.8" font-family="Times,serif" font-size="14.00">Be careful, Cadet! This is surely enough</text>
<text text-anchor="middle" x="465.3" y="-22.8" font-family="Times,serif" font-size="14.00">to attract those %(monster_type)s</text>
<text text-anchor="middle" x="465.3" y="-7.8" font-family="Times,serif" font-size="14.00">monsters.</text>
</g>
<!-- 2\nWow! This ought to do it!\nYou&#39;ve found quite the haul here.\nOur intel was accurate. Look at all\nthose Energy Crystals!&#45;&gt;6\nI hope we can collect these without\nattracting too much attention.\nBe careful, Cadet! This is surely enough\nto attract those %(monster_type)s\nmonsters. -->
<g id="edge3" class="edge">
<title>2\nWow! This ought to do it!\nYou&#39;ve found quite the haul here.\nOur intel was accurate. Look at all\nthose Energy Crystals!&#45;&gt;6\nI hope we can collect these without\nattracting too much attention.\nBe careful, Cadet! This is surely enough\nto attract those %(monster_type)s\nmonsters.</title>
<path fill="none" stroke="black" d="M306.43,-116.48C317.42,-111.78 328.74,-106.94 340.02,-102.12"/>
<polygon fill="black" stroke="black" points="341.66,-105.23 349.48,-98.08 338.91,-98.79 341.66,-105.23"/>
</g>
<!-- 8 -->
<g id="node9" class="node">
<title>8</title>
<text text-anchor="middle" x="913.3" y="-138.3" font-family="Times,serif" font-size="14.00">8</text>
</g>
<!-- 3\nNow, transport these Energy Crystals\nback to your base.\nBring this to your base to complete our\nmission!\nGet this back to your base.&#45;&gt;8 -->
<g id="edge5" class="edge">
<title>3\nNow, transport these Energy Crystals\nback to your base.\nBring this to your base to complete our\nmission!\nGet this back to your base.&#45;&gt;8</title>
<path fill="none" stroke="black" d="M836.42,-178.97C850.96,-171.89 865.04,-165.03 877.04,-159.18"/>
<polygon fill="black" stroke="black" points="878.74,-162.25 886.19,-154.72 875.67,-155.95 878.74,-162.25"/>
</g>
<!-- 5\n[treasure_many] -->
<g id="node6" class="node">
<title>5\n[treasure_many]</title>
<text text-anchor="middle" x="734.8" y="-145.8" font-family="Times,serif" font-size="14.00" fill="blue">5</text>
<text text-anchor="middle" x="734.8" y="-130.8" font-family="Times,serif" font-size="14.00" fill="blue">[treasure_many]</text>
</g>
<!-- 4\nWith this, we have enough to complete\nour mission!\nCollect all the Energy Crystals you&#39;ve\nfound and complete our mission!&#45;&gt;5\n[treasure_many] -->
<g id="edge6" class="edge">
<title>4\nWith this, we have enough to complete\nour mission!\nCollect all the Energy Crystals you&#39;ve\nfound and complete our mission!&#45;&gt;5\n[treasure_many]</title>
<path fill="none" stroke="blue" d="M580.9,-151.14C611.96,-149.29 644.43,-147.35 671.41,-145.73"/>
<polygon fill="blue" stroke="blue" points="671.7,-149.22 681.47,-145.13 671.28,-142.23 671.7,-149.22"/>
</g>
<!-- 5\n[treasure_many]&#45;&gt;8 -->
<g id="edge7" class="edge">
<title>5\n[treasure_many]&#45;&gt;8</title>
<path fill="none" stroke="blue" d="M787.8,-142C816.09,-142 850.4,-142 875.83,-142"/>
<polygon fill="blue" stroke="blue" points="876.15,-145.5 886.15,-142 876.15,-138.5 876.15,-145.5"/>
</g>
<!-- 7\n[has_monsters] -->
<g id="node8" class="node">
<title>7\n[has_monsters]</title>
<text text-anchor="middle" x="734.8" y="-71.8" font-family="Times,serif" font-size="14.00" fill="blue">7</text>
<text text-anchor="middle" x="734.8" y="-56.8" font-family="Times,serif" font-size="14.00" fill="blue">[has_monsters]</text>
</g>
<!-- 6\nI hope we can collect these without\nattracting too much attention.\nBe careful, Cadet! This is surely enough\nto attract those %(monster_type)s\nmonsters.&#45;&gt;7\n[has_monsters] -->
<g id="edge8" class="edge">
<title>6\nI hope we can collect these without\nattracting too much attention.\nBe careful, Cadet! This is surely enough\nto attract those %(monster_type)s\nmonsters.&#45;&gt;7\n[has_monsters]</title>
<path fill="none" stroke="blue" d="M583.63,-57.33C615.12,-59.57 647.84,-61.89 674.68,-63.8"/>
<polygon fill="blue" stroke="blue" points="674.43,-67.29 684.66,-64.51 674.93,-60.31 674.43,-67.29"/>
</g>
<!-- 7\n[has_monsters]&#45;&gt;8 -->
<g id="edge9" class="edge">
<title>7\n[has_monsters]&#45;&gt;8</title>
<path fill="none" stroke="blue" d="M784.45,-87.02C804.87,-95.14 828.82,-104.84 850.3,-114 858.99,-117.71 868.31,-121.84 877.02,-125.76"/>
<polygon fill="blue" stroke="blue" points="875.61,-128.96 886.16,-129.9 878.5,-122.58 875.61,-128.96"/>
</g>
<!-- 8&#45;&gt;1\n[end] -->
<g id="edge13" class="edge">
<title>8&#45;&gt;1\n[end]</title>
<path fill="none" stroke="green" stroke-dasharray="5,2" d="M929.57,-160.21C941,-172.35 957.81,-187.28 976.3,-194 1070.43,-228.25 1189.03,-186.27 1248.12,-160.04"/>
<polygon fill="green" stroke="green" points="1249.76,-163.14 1257.42,-155.82 1246.86,-156.76 1249.76,-163.14"/>
</g>
<!-- 9\n[treasure_one] -->
<g id="node10" class="node">
<title>9\n[treasure_one]</title>
<text text-anchor="middle" x="1029.3" y="-169.8" font-family="Times,serif" font-size="14.00" fill="blue">9</text>
<text text-anchor="middle" x="1029.3" y="-154.8" font-family="Times,serif" font-size="14.00" fill="blue">[treasure_one]</text>
</g>
<!-- 8&#45;&gt;9\n[treasure_one] -->
<g id="edge10" class="edge">
<title>8&#45;&gt;9\n[treasure_one]</title>
<path fill="none" stroke="blue" d="M940.45,-147.51C949.81,-149.48 960.76,-151.78 971.69,-154.08"/>
<polygon fill="blue" stroke="blue" points="971.17,-157.55 981.68,-156.19 972.61,-150.7 971.17,-157.55"/>
</g>
<!-- 10\n[treasure_many] -->
<g id="node11" class="node">
<title>10\n[treasure_many]</title>
<text text-anchor="middle" x="1029.3" y="-75.8" font-family="Times,serif" font-size="14.00" fill="blue">10</text>
<text text-anchor="middle" x="1029.3" y="-60.8" font-family="Times,serif" font-size="14.00" fill="blue">[treasure_many]</text>
</g>
<!-- 8&#45;&gt;10\n[treasure_many] -->
<g id="edge11" class="edge">
<title>8&#45;&gt;10\n[treasure_many]</title>
<path fill="none" stroke="blue" d="M940.45,-125.94C954.65,-117.22 972.5,-106.26 988.4,-96.5"/>
<polygon fill="blue" stroke="blue" points="990.3,-99.44 996.99,-91.22 986.64,-93.47 990.3,-99.44"/>
</g>
<!-- 11\n[has_monsters] -->
<g id="node12" class="node">
<title>11\n[has_monsters]</title>
<text text-anchor="middle" x="1168.3" y="-122.8" font-family="Times,serif" font-size="14.00" fill="blue">11</text>
<text text-anchor="middle" x="1168.3" y="-107.8" font-family="Times,serif" font-size="14.00" fill="blue">[has_monsters]</text>
</g>
<!-- 8&#45;&gt;11\n[has_monsters] -->
<g id="edge12" class="edge">
<title>8&#45;&gt;11\n[has_monsters]</title>
<path fill="none" stroke="blue" d="M940.42,-139.63C979.68,-136.06 1054.94,-129.21 1107.99,-124.39"/>
<polygon fill="blue" stroke="blue" points="1108.31,-127.88 1117.95,-123.49 1107.67,-120.91 1108.31,-127.88"/>
</g>
<!-- 9\n[treasure_one]&#45;&gt;1\n[end] -->
<g id="edge15" class="edge">
<title>9\n[treasure_one]&#45;&gt;1\n[end]</title>
<path fill="none" stroke="green" stroke-dasharray="5,2" d="M1077.03,-161.6C1124.89,-157.09 1198.53,-150.15 1244.17,-145.86"/>
<polygon fill="green" stroke="green" points="1244.67,-149.33 1254.3,-144.9 1244.01,-142.36 1244.67,-149.33"/>
</g>
<!-- 9\n[treasure_one]&#45;&gt;11\n[has_monsters] -->
<g id="edge14" class="edge">
<title>9\n[treasure_one]&#45;&gt;11\n[has_monsters]</title>
<path fill="none" stroke="blue" d="M1077.06,-149.96C1087.15,-146.5 1097.94,-142.79 1108.42,-139.2"/>
<polygon fill="blue" stroke="blue" points="1109.61,-142.49 1117.94,-135.93 1107.34,-135.87 1109.61,-142.49"/>
</g>
<!-- 10\n[treasure_many]&#45;&gt;1\n[end] -->
<g id="edge17" class="edge">
<title>10\n[treasure_many]&#45;&gt;1\n[end]</title>
<path fill="none" stroke="green" stroke-dasharray="5,2" d="M1082.35,-69.76C1121.12,-69.85 1174.67,-73.76 1218.3,-91 1231.49,-96.21 1244.3,-104.82 1255.12,-113.5"/>
<polygon fill="green" stroke="green" points="1253.06,-116.34 1262.97,-120.09 1257.56,-110.98 1253.06,-116.34"/>
</g>
<!-- 10\n[treasure_many]&#45;&gt;11\n[has_monsters] -->
<g id="edge16" class="edge">
<title>10\n[treasure_many]&#45;&gt;11\n[has_monsters]</title>
<path fill="none" stroke="blue" d="M1082.48,-89.9C1090.94,-92.81 1099.76,-95.83 1108.36,-98.78"/>
<polygon fill="blue" stroke="blue" points="1107.37,-102.14 1117.96,-102.08 1109.64,-95.52 1107.37,-102.14"/>
</g>
<!-- 11\n[has_monsters]&#45;&gt;1\n[end] -->
<g id="edge18" class="edge">
<title>11\n[has_monsters]&#45;&gt;1\n[end]</title>
<path fill="none" stroke="green" stroke-dasharray="5,2" d="M1218.41,-128.75C1227.18,-130.49 1236.22,-132.29 1244.71,-133.98"/>
<polygon fill="green" stroke="green" points="1244.24,-137.45 1254.73,-135.97 1245.61,-130.59 1244.24,-137.45"/>
</g>
</g>
</svg>
