<?xml version="1.0" encoding="UTF-8" standalone="no"?>
<!DOCTYPE svg PUBLIC "-//W3C//DTD SVG 1.1//EN"
 "http://www.w3.org/Graphics/SVG/1.1/DTD/svg11.dtd">
<!-- Generated by graphviz version 2.43.0 (0)
 -->
<!-- Title: G Pages: 1 -->
<svg width="906pt" height="214pt"
 viewBox="0.00 0.00 905.94 214.00" xmlns="http://www.w3.org/2000/svg" xmlns:xlink="http://www.w3.org/1999/xlink">
<g id="graph0" class="graph" transform="scale(1 1) rotate(0) translate(4 210)">
<title>G</title>
<polygon fill="white" stroke="transparent" points="-4,4 -4,-210 901.94,-210 901.94,4 -4,4"/>
<!-- 0\n[start] -->
<g id="node1" class="node">
<title>0\n[start]</title>
<ellipse fill="none" stroke="green" cx="34.65" cy="-75" rx="34.8" ry="34.8"/>
<text text-anchor="middle" x="34.65" y="-78.8" font-family="Times,serif" font-size="14.00" fill="green">0</text>
<text text-anchor="middle" x="34.65" y="-63.8" font-family="Times,serif" font-size="14.00" fill="green">[start]</text>
</g>
<!-- 7\nThere it is!\nWay to go, Cadet! -->
<g id="node8" class="node">
<title>7\nThere it is!\nWay to go, Cadet!</title>
<polygon fill="none" stroke="black" points="222.3,-101.5 105.3,-101.5 105.3,-48.5 222.3,-48.5 222.3,-101.5"/>
<text text-anchor="middle" x="163.8" y="-86.3" font-family="Times,serif" font-size="14.00">7</text>
<text text-anchor="middle" x="163.8" y="-71.3" font-family="Times,serif" font-size="14.00">There it is!</text>
<text text-anchor="middle" x="163.8" y="-56.3" font-family="Times,serif" font-size="14.00">Way to go, Cadet!</text>
</g>
<!-- 0\n[start]&#45;&gt;7\nThere it is!\nWay to go, Cadet! -->
<g id="edge1" class="edge">
<title>0\n[start]&#45;&gt;7\nThere it is!\nWay to go, Cadet!</title>
<path fill="none" stroke="green" stroke-dasharray="5,2" d="M69.39,-75C77.41,-75 86.24,-75 95.19,-75"/>
<polygon fill="green" stroke="green" points="95.29,-78.5 105.29,-75 95.29,-71.5 95.29,-78.5"/>
</g>
<!-- 1\n[end] -->
<g id="node2" class="node">
<title>1\n[end]</title>
<ellipse fill="none" stroke="green" cx="866.12" cy="-104" rx="31.64" ry="31.64"/>
<text text-anchor="middle" x="866.12" y="-107.8" font-family="Times,serif" font-size="14.00" fill="green">1</text>
<text text-anchor="middle" x="866.12" y="-92.8" font-family="Times,serif" font-size="14.00" fill="green">[end]</text>
</g>
<!-- 2\nNow, find those lost Rock Raiders! -->
<g id="node3" class="node">
<title>2\nNow, find those lost Rock Raiders!</title>
<polygon fill="none" stroke="black" points="467.3,-150 258.3,-150 258.3,-112 467.3,-112 467.3,-150"/>
<text text-anchor="middle" x="362.8" y="-134.8" font-family="Times,serif" font-size="14.00">2</text>
<text text-anchor="middle" x="362.8" y="-119.8" font-family="Times,serif" font-size="14.00">Now, find those lost Rock Raiders!</text>
</g>
<!-- 3\n[lost_miners_together] -->
<g id="node4" class="node">
<title>3\n[lost_miners_together]</title>
<text text-anchor="middle" x="573.3" y="-190.8" font-family="Times,serif" font-size="14.00" fill="blue">3</text>
<text text-anchor="middle" x="573.3" y="-175.8" font-family="Times,serif" font-size="14.00" fill="blue">[lost_miners_together]</text>
</g>
<!-- 2\nNow, find those lost Rock Raiders!&#45;&gt;3\n[lost_miners_together] -->
<g id="edge2" class="edge">
<title>2\nNow, find those lost Rock Raiders!&#45;&gt;3\n[lost_miners_together]</title>
<path fill="none" stroke="blue" d="M434.68,-150.04C453.48,-155.09 473.89,-160.57 493.1,-165.73"/>
<polygon fill="blue" stroke="blue" points="492.46,-169.18 503.03,-168.39 494.28,-162.42 492.46,-169.18"/>
</g>
<!-- 4\n[lost_miners_apart] -->
<g id="node5" class="node">
<title>4\n[lost_miners_apart]</title>
<text text-anchor="middle" x="573.3" y="-134.8" font-family="Times,serif" font-size="14.00" fill="blue">4</text>
<text text-anchor="middle" x="573.3" y="-119.8" font-family="Times,serif" font-size="14.00" fill="blue">[lost_miners_apart]</text>
</g>
<!-- 2\nNow, find those lost Rock Raiders!&#45;&gt;4\n[lost_miners_apart] -->
<g id="edge3" class="edge">
<title>2\nNow, find those lost Rock Raiders!&#45;&gt;4\n[lost_miners_apart]</title>
<path fill="none" stroke="blue" d="M467.44,-131C478.9,-131 490.37,-131 501.3,-131"/>
<polygon fill="blue" stroke="blue" points="501.59,-134.5 511.59,-131 501.59,-127.5 501.59,-134.5"/>
</g>
<!-- 3\n[lost_miners_together]&#45;&gt;1\n[end] -->
<g id="edge5" class="edge">
<title>3\n[lost_miners_together]&#45;&gt;1\n[end]</title>
<path fill="none" stroke="green" stroke-dasharray="5,2" d="M643.48,-198.14C689.51,-202.37 750.14,-201.64 798.3,-179 816.41,-170.49 831.71,-154.54 843.08,-139.53"/>
<polygon fill="green" stroke="green" points="845.97,-141.5 848.98,-131.34 840.3,-137.4 845.97,-141.5"/>
</g>
<!-- 8\n[collect_resources] -->
<g id="node9" class="node">
<title>8\n[collect_resources]</title>
<text text-anchor="middle" x="738.8" y="-154.8" font-family="Times,serif" font-size="14.00" fill="blue">8</text>
<text text-anchor="middle" x="738.8" y="-139.8" font-family="Times,serif" font-size="14.00" fill="blue">[collect_resources]</text>
</g>
<!-- 3\n[lost_miners_together]&#45;&gt;8\n[collect_resources] -->
<g id="edge4" class="edge">
<title>3\n[lost_miners_together]&#45;&gt;8\n[collect_resources]</title>
<path fill="none" stroke="blue" d="M643.64,-171.73C652.14,-169.86 660.83,-167.95 669.33,-166.08"/>
<polygon fill="blue" stroke="blue" points="670.17,-169.47 679.19,-163.9 668.67,-162.64 670.17,-169.47"/>
</g>
<!-- 4\n[lost_miners_apart]&#45;&gt;1\n[end] -->
<g id="edge7" class="edge">
<title>4\n[lost_miners_apart]&#45;&gt;1\n[end]</title>
<path fill="none" stroke="green" stroke-dasharray="5,2" d="M634.91,-125.37C691.63,-120.11 774.82,-112.38 824.12,-107.81"/>
<polygon fill="green" stroke="green" points="824.48,-111.29 834.11,-106.88 823.83,-104.32 824.48,-111.29"/>
</g>
<!-- 4\n[lost_miners_apart]&#45;&gt;8\n[collect_resources] -->
<g id="edge6" class="edge">
<title>4\n[lost_miners_apart]&#45;&gt;8\n[collect_resources]</title>
<path fill="none" stroke="blue" d="M635.18,-138.45C646.16,-139.79 657.68,-141.2 668.87,-142.57"/>
<polygon fill="blue" stroke="blue" points="668.69,-146.07 679.04,-143.81 669.54,-139.12 668.69,-146.07"/>
</g>
<!-- 5\nNow, find the lost Rock Raider! -->
<g id="node6" class="node">
<title>5\nNow, find the lost Rock Raider!</title>
<polygon fill="none" stroke="black" points="458.3,-94 267.3,-94 267.3,-56 458.3,-56 458.3,-94"/>
<text text-anchor="middle" x="362.8" y="-78.8" font-family="Times,serif" font-size="14.00">5</text>
<text text-anchor="middle" x="362.8" y="-63.8" font-family="Times,serif" font-size="14.00">Now, find the lost Rock Raider!</text>
</g>
<!-- 6\n[lost_miners_one] -->
<g id="node7" class="node">
<title>6\n[lost_miners_one]</title>
<text text-anchor="middle" x="573.3" y="-78.8" font-family="Times,serif" font-size="14.00" fill="blue">6</text>
<text text-anchor="middle" x="573.3" y="-63.8" font-family="Times,serif" font-size="14.00" fill="blue">[lost_miners_one]</text>
</g>
<!-- 5\nNow, find the lost Rock Raider!&#45;&gt;6\n[lost_miners_one] -->
<g id="edge8" class="edge">
<title>5\nNow, find the lost Rock Raider!&#45;&gt;6\n[lost_miners_one]</title>
<path fill="none" stroke="blue" d="M458.59,-75C474.32,-75 490.35,-75 505.21,-75"/>
<polygon fill="blue" stroke="blue" points="505.29,-78.5 515.29,-75 505.29,-71.5 505.29,-78.5"/>
</g>
<!-- 6\n[lost_miners_one]&#45;&gt;1\n[end] -->
<g id="edge10" class="edge">
<title>6\n[lost_miners_one]&#45;&gt;1\n[end]</title>
<path fill="none" stroke="green" stroke-dasharray="5,2" d="M631.41,-80.69C688.08,-86.35 773.57,-94.87 823.92,-99.89"/>
<polygon fill="green" stroke="green" points="823.81,-103.4 834.11,-100.91 824.5,-96.43 823.81,-103.4"/>
</g>
<!-- 6\n[lost_miners_one]&#45;&gt;8\n[collect_resources] -->
<g id="edge9" class="edge">
<title>6\n[lost_miners_one]&#45;&gt;8\n[collect_resources]</title>
<path fill="none" stroke="blue" d="M622.77,-94.07C629.7,-96.97 636.71,-100 643.3,-103 659.67,-110.47 677.33,-119.23 692.9,-127.22"/>
<polygon fill="blue" stroke="blue" points="691.31,-130.33 701.8,-131.81 694.52,-124.11 691.31,-130.33"/>
</g>
<!-- 7\nThere it is!\nWay to go, Cadet!&#45;&gt;2\nNow, find those lost Rock Raiders! -->
<g id="edge13" class="edge">
<title>7\nThere it is!\nWay to go, Cadet!&#45;&gt;2\nNow, find those lost Rock Raiders!</title>
<path fill="none" stroke="black" d="M222.58,-92.57C234.38,-96.08 246.73,-99.7 258.3,-103 265.6,-105.08 273.2,-107.21 280.82,-109.32"/>
<polygon fill="black" stroke="black" points="279.89,-112.69 290.46,-111.97 281.75,-105.94 279.89,-112.69"/>
</g>
<!-- 7\nThere it is!\nWay to go, Cadet!&#45;&gt;5\nNow, find the lost Rock Raider! -->
<g id="edge11" class="edge">
<title>7\nThere it is!\nWay to go, Cadet!&#45;&gt;5\nNow, find the lost Rock Raider!</title>
<path fill="none" stroke="black" d="M222.31,-75C233.31,-75 245.14,-75 257.1,-75"/>
<polygon fill="black" stroke="black" points="257.15,-78.5 267.15,-75 257.15,-71.5 257.15,-78.5"/>
</g>
<!-- 9\nNow, collect %(resources)s. -->
<g id="node10" class="node">
<title>9\nNow, collect %(resources)s.</title>
<polygon fill="none" stroke="black" points="447.8,-38 277.8,-38 277.8,0 447.8,0 447.8,-38"/>
<text text-anchor="middle" x="362.8" y="-22.8" font-family="Times,serif" font-size="14.00">9</text>
<text text-anchor="middle" x="362.8" y="-7.8" font-family="Times,serif" font-size="14.00">Now, collect %(resources)s.</text>
</g>
<!-- 7\nThere it is!\nWay to go, Cadet!&#45;&gt;9\nNow, collect %(resources)s. -->
<g id="edge12" class="edge">
<title>7\nThere it is!\nWay to go, Cadet!&#45;&gt;9\nNow, collect %(resources)s.</title>
<path fill="none" stroke="black" d="M222.58,-57.43C234.38,-53.92 246.73,-50.3 258.3,-47 265.6,-44.92 273.2,-42.79 280.82,-40.68"/>
<polygon fill="black" stroke="black" points="281.75,-44.06 290.46,-38.03 279.89,-37.31 281.75,-44.06"/>
</g>
<!-- 8\n[collect_resources]&#45;&gt;1\n[end] -->
<g id="edge14" class="edge">
<title>8\n[collect_resources]&#45;&gt;1\n[end]</title>
<path fill="none" stroke="green" stroke-dasharray="5,2" d="M790.77,-131.88C802.72,-127.4 815.26,-122.7 826.56,-118.46"/>
<polygon fill="green" stroke="green" points="828,-121.66 836.13,-114.87 825.54,-115.11 828,-121.66"/>
</g>
<!-- 10\n[collect_resources] -->
<g id="node11" class="node">
<title>10\n[collect_resources]</title>
<text text-anchor="middle" x="738.8" y="-22.8" font-family="Times,serif" font-size="14.00" fill="blue">10</text>
<text text-anchor="middle" x="738.8" y="-7.8" font-family="Times,serif" font-size="14.00" fill="blue">[collect_resources]</text>
</g>
<!-- 9\nNow, collect %(resources)s.&#45;&gt;10\n[collect_resources] -->
<g id="edge15" class="edge">
<title>9\nNow, collect %(resources)s.&#45;&gt;10\n[collect_resources]</title>
<path fill="none" stroke="blue" d="M448.2,-19C514.93,-19 606.92,-19 669.17,-19"/>
<polygon fill="blue" stroke="blue" points="669.28,-22.5 679.28,-19 669.28,-15.5 669.28,-22.5"/>
</g>
<!-- 10\n[collect_resources]&#45;&gt;1\n[end] -->
<g id="edge16" class="edge">
<title>10\n[collect_resources]&#45;&gt;1\n[end]</title>
<path fill="none" stroke="green" stroke-dasharray="5,2" d="M775.57,-38.07C783.2,-42.44 791.11,-47.22 798.3,-52 810,-59.79 822.28,-69.02 833.08,-77.52"/>
<polygon fill="green" stroke="green" points="831.01,-80.35 841.01,-83.84 835.37,-74.87 831.01,-80.35"/>
</g>
</g>
</svg>
