<?xml version="1.0" encoding="UTF-8" standalone="no"?>
<!DOCTYPE svg PUBLIC "-//W3C//DTD SVG 1.1//EN"
 "http://www.w3.org/Graphics/SVG/1.1/DTD/svg11.dtd">
<!-- Generated by graphviz version 2.43.0 (0)
 -->
<!-- Title: G Pages: 1 -->
<svg width="1825pt" height="419pt"
 viewBox="0.00 0.00 1824.94 418.50" xmlns="http://www.w3.org/2000/svg" xmlns:xlink="http://www.w3.org/1999/xlink">
<g id="graph0" class="graph" transform="scale(1 1) rotate(0) translate(4 414.5)">
<title>G</title>
<polygon fill="white" stroke="transparent" points="-4,4 -4,-414.5 1820.94,-414.5 1820.94,4 -4,4"/>
<!-- 0\n[start] -->
<g id="node1" class="node">
<title>0\n[start]</title>
<ellipse fill="none" stroke="green" cx="34.65" cy="-95.5" rx="34.8" ry="34.8"/>
<text text-anchor="middle" x="34.65" y="-99.3" font-family="Times,serif" font-size="14.00" fill="green">0</text>
<text text-anchor="middle" x="34.65" y="-84.3" font-family="Times,serif" font-size="14.00" fill="green">[start]</text>
</g>
<!-- 2\nOur Rock Raider HQ is safe and sound!\nWay to go, Cadet! -->
<g id="node3" class="node">
<title>2\nOur Rock Raider HQ is safe and sound!\nWay to go, Cadet!</title>
<polygon fill="none" stroke="black" points="340.3,-87 105.3,-87 105.3,-34 340.3,-34 340.3,-87"/>
<text text-anchor="middle" x="222.8" y="-71.8" font-family="Times,serif" font-size="14.00">2</text>
<text text-anchor="middle" x="222.8" y="-56.8" font-family="Times,serif" font-size="14.00">Our Rock Raider HQ is safe and sound!</text>
<text text-anchor="middle" x="222.8" y="-41.8" font-family="Times,serif" font-size="14.00">Way to go, Cadet!</text>
</g>
<!-- 0\n[start]&#45;&gt;2\nOur Rock Raider HQ is safe and sound!\nWay to go, Cadet! -->
<g id="edge1" class="edge">
<title>0\n[start]&#45;&gt;2\nOur Rock Raider HQ is safe and sound!\nWay to go, Cadet!</title>
<path fill="none" stroke="green" stroke-dasharray="5,2" d="M68.93,-89.24C76.84,-87.75 85.76,-86.08 95.21,-84.3"/>
<polygon fill="green" stroke="green" points="96.05,-87.7 105.23,-82.42 94.76,-80.82 96.05,-87.7"/>
</g>
<!-- 3\nYou found the Rock Raider HQ.\nThere it is! -->
<g id="node4" class="node">
<title>3\nYou found the Rock Raider HQ.\nThere it is!</title>
<polygon fill="none" stroke="black" points="319.8,-158 125.8,-158 125.8,-105 319.8,-105 319.8,-158"/>
<text text-anchor="middle" x="222.8" y="-142.8" font-family="Times,serif" font-size="14.00">3</text>
<text text-anchor="middle" x="222.8" y="-127.8" font-family="Times,serif" font-size="14.00">You found the Rock Raider HQ.</text>
<text text-anchor="middle" x="222.8" y="-112.8" font-family="Times,serif" font-size="14.00">There it is!</text>
</g>
<!-- 0\n[start]&#45;&gt;3\nYou found the Rock Raider HQ.\nThere it is! -->
<g id="edge2" class="edge">
<title>0\n[start]&#45;&gt;3\nYou found the Rock Raider HQ.\nThere it is!</title>
<path fill="none" stroke="green" stroke-dasharray="5,2" d="M68.93,-101.94C82.39,-104.54 98.75,-107.7 115.69,-110.98"/>
<polygon fill="green" stroke="green" points="115.24,-114.46 125.72,-112.92 116.57,-107.58 115.24,-114.46"/>
</g>
<!-- 1\n[end] -->
<g id="node2" class="node">
<title>1\n[end]</title>
<ellipse fill="none" stroke="green" cx="1785.12" cy="-161.5" rx="31.64" ry="31.64"/>
<text text-anchor="middle" x="1785.12" y="-165.3" font-family="Times,serif" font-size="14.00" fill="green">1</text>
<text text-anchor="middle" x="1785.12" y="-150.3" font-family="Times,serif" font-size="14.00" fill="green">[end]</text>
</g>
<!-- 18\nNow, \nNow you should be able to -->
<g id="node19" class="node">
<title>18\nNow, \nNow you should be able to</title>
<polygon fill="none" stroke="black" points="935.8,-94 771.8,-94 771.8,-41 935.8,-41 935.8,-94"/>
<text text-anchor="middle" x="853.8" y="-78.8" font-family="Times,serif" font-size="14.00">18</text>
<text text-anchor="middle" x="853.8" y="-63.8" font-family="Times,serif" font-size="14.00">Now, </text>
<text text-anchor="middle" x="853.8" y="-48.8" font-family="Times,serif" font-size="14.00">Now you should be able to</text>
</g>
<!-- 2\nOur Rock Raider HQ is safe and sound!\nWay to go, Cadet!&#45;&gt;18\nNow, \nNow you should be able to -->
<g id="edge3" class="edge">
<title>2\nOur Rock Raider HQ is safe and sound!\nWay to go, Cadet!&#45;&gt;18\nNow, \nNow you should be able to</title>
<path fill="none" stroke="black" d="M340.63,-61.8C462.25,-63.15 650.18,-65.25 761.39,-66.48"/>
<polygon fill="black" stroke="black" points="761.54,-69.98 771.58,-66.6 761.62,-62.98 761.54,-69.98"/>
</g>
<!-- 4\nShore up the base defenses\nNow, get some Electric Fences up -->
<g id="node5" class="node">
<title>4\nShore up the base defenses\nNow, get some Electric Fences up</title>
<polygon fill="none" stroke="black" points="579.3,-180 376.3,-180 376.3,-127 579.3,-127 579.3,-180"/>
<text text-anchor="middle" x="477.8" y="-164.8" font-family="Times,serif" font-size="14.00">4</text>
<text text-anchor="middle" x="477.8" y="-149.8" font-family="Times,serif" font-size="14.00">Shore up the base defenses</text>
<text text-anchor="middle" x="477.8" y="-134.8" font-family="Times,serif" font-size="14.00">Now, get some Electric Fences up</text>
</g>
<!-- 3\nYou found the Rock Raider HQ.\nThere it is!&#45;&gt;4\nShore up the base defenses\nNow, get some Electric Fences up -->
<g id="edge5" class="edge">
<title>3\nYou found the Rock Raider HQ.\nThere it is!&#45;&gt;4\nShore up the base defenses\nNow, get some Electric Fences up</title>
<path fill="none" stroke="black" d="M319.81,-139.85C334.94,-141.16 350.7,-142.53 366.13,-143.88"/>
<polygon fill="black" stroke="black" points="365.96,-147.37 376.22,-144.75 366.56,-140.4 365.96,-147.37"/>
</g>
<!-- 3\nYou found the Rock Raider HQ.\nThere it is!&#45;&gt;18\nNow, \nNow you should be able to -->
<g id="edge4" class="edge">
<title>3\nYou found the Rock Raider HQ.\nThere it is!&#45;&gt;18\nNow, \nNow you should be able to</title>
<path fill="none" stroke="black" d="M320.01,-121.71C440.06,-109.5 643.84,-88.76 761.53,-76.79"/>
<polygon fill="black" stroke="black" points="762,-80.26 771.6,-75.76 761.3,-73.29 762,-80.26"/>
</g>
<!-- 5\n[has_monsters] -->
<g id="node6" class="node">
<title>5\n[has_monsters]</title>
<text text-anchor="middle" x="665.3" y="-157.3" font-family="Times,serif" font-size="14.00" fill="blue">5</text>
<text text-anchor="middle" x="665.3" y="-142.3" font-family="Times,serif" font-size="14.00" fill="blue">[has_monsters]</text>
</g>
<!-- 4\nShore up the base defenses\nNow, get some Electric Fences up&#45;&gt;5\n[has_monsters] -->
<g id="edge6" class="edge">
<title>4\nShore up the base defenses\nNow, get some Electric Fences up&#45;&gt;5\n[has_monsters]</title>
<path fill="none" stroke="blue" d="M579.42,-153.5C588.16,-153.5 596.81,-153.5 605.05,-153.5"/>
<polygon fill="blue" stroke="blue" points="605.25,-157 615.25,-153.5 605.25,-150 605.25,-157"/>
</g>
<!-- 9\nbefore the monsters find it too!\nand keep it safe from those\n%(monster_type)s monsters!\nand hope those monsters don&#39;t cause any\nmore damage! -->
<g id="node10" class="node">
<title>9\nbefore the monsters find it too!\nand keep it safe from those\n%(monster_type)s monsters!\nand hope those monsters don&#39;t cause any\nmore damage!</title>
<polygon fill="none" stroke="black" points="1231.3,-328.5 992.3,-328.5 992.3,-230.5 1231.3,-230.5 1231.3,-328.5"/>
<text text-anchor="middle" x="1111.8" y="-313.3" font-family="Times,serif" font-size="14.00">9</text>
<text text-anchor="middle" x="1111.8" y="-298.3" font-family="Times,serif" font-size="14.00">before the monsters find it too!</text>
<text text-anchor="middle" x="1111.8" y="-283.3" font-family="Times,serif" font-size="14.00">and keep it safe from those</text>
<text text-anchor="middle" x="1111.8" y="-268.3" font-family="Times,serif" font-size="14.00">%(monster_type)s monsters!</text>
<text text-anchor="middle" x="1111.8" y="-253.3" font-family="Times,serif" font-size="14.00">and hope those monsters don&#39;t cause any</text>
<text text-anchor="middle" x="1111.8" y="-238.3" font-family="Times,serif" font-size="14.00">more damage!</text>
</g>
<!-- 5\n[has_monsters]&#45;&gt;9\nbefore the monsters find it too!\nand keep it safe from those\n%(monster_type)s monsters!\nand hope those monsters don&#39;t cause any\nmore damage! -->
<g id="edge8" class="edge">
<title>5\n[has_monsters]&#45;&gt;9\nbefore the monsters find it too!\nand keep it safe from those\n%(monster_type)s monsters!\nand hope those monsters don&#39;t cause any\nmore damage!</title>
<path fill="none" stroke="blue" d="M707.74,-172.57C721.43,-178.46 736.86,-184.67 751.3,-189.5 826.6,-214.7 912.86,-236.53 982.01,-252.37"/>
<polygon fill="blue" stroke="blue" points="981.56,-255.85 992.08,-254.66 983.11,-249.03 981.56,-255.85"/>
</g>
<!-- 10\n. We need this base secure if we&#39;re\ngoing to\n. Once the base is safe, -->
<g id="node11" class="node">
<title>10\n. We need this base secure if we&#39;re\ngoing to\n. Once the base is safe,</title>
<polygon fill="none" stroke="black" points="956.3,-180.5 751.3,-180.5 751.3,-112.5 956.3,-112.5 956.3,-180.5"/>
<text text-anchor="middle" x="853.8" y="-165.3" font-family="Times,serif" font-size="14.00">10</text>
<text text-anchor="middle" x="853.8" y="-150.3" font-family="Times,serif" font-size="14.00">. We need this base secure if we&#39;re</text>
<text text-anchor="middle" x="853.8" y="-135.3" font-family="Times,serif" font-size="14.00">going to</text>
<text text-anchor="middle" x="853.8" y="-120.3" font-family="Times,serif" font-size="14.00">. Once the base is safe,</text>
</g>
<!-- 5\n[has_monsters]&#45;&gt;10\n. We need this base secure if we&#39;re\ngoing to\n. Once the base is safe, -->
<g id="edge7" class="edge">
<title>5\n[has_monsters]&#45;&gt;10\n. We need this base secure if we&#39;re\ngoing to\n. Once the base is safe,</title>
<path fill="none" stroke="blue" d="M715.3,-151.66C723.37,-151.36 732.03,-151.03 740.92,-150.7"/>
<polygon fill="blue" stroke="blue" points="741.17,-154.19 751.03,-150.32 740.91,-147.2 741.17,-154.19"/>
</g>
<!-- 6\n[lost_miners_together] -->
<g id="node7" class="node">
<title>6\n[lost_miners_together]</title>
<text text-anchor="middle" x="1337.3" y="-395.3" font-family="Times,serif" font-size="14.00" fill="blue">6</text>
<text text-anchor="middle" x="1337.3" y="-380.3" font-family="Times,serif" font-size="14.00" fill="blue">[lost_miners_together]</text>
</g>
<!-- 19 -->
<g id="node20" class="node">
<title>19</title>
<text text-anchor="middle" x="1502.8" y="-204.8" font-family="Times,serif" font-size="14.00">19</text>
</g>
<!-- 6\n[lost_miners_together]&#45;&gt;19 -->
<g id="edge9" class="edge">
<title>6\n[lost_miners_together]&#45;&gt;19</title>
<path fill="none" stroke="blue" d="M1394.35,-372.49C1398.96,-369.83 1403.36,-366.85 1407.3,-363.5 1448.72,-328.3 1477.22,-270.17 1491.41,-235.99"/>
<polygon fill="blue" stroke="blue" points="1494.7,-237.2 1495.19,-226.61 1488.21,-234.58 1494.7,-237.2"/>
</g>
<!-- 7\n[lost_miners_apart] -->
<g id="node8" class="node">
<title>7\n[lost_miners_apart]</title>
<text text-anchor="middle" x="1337.3" y="-339.3" font-family="Times,serif" font-size="14.00" fill="blue">7</text>
<text text-anchor="middle" x="1337.3" y="-324.3" font-family="Times,serif" font-size="14.00" fill="blue">[lost_miners_apart]</text>
</g>
<!-- 7\n[lost_miners_apart]&#45;&gt;19 -->
<g id="edge10" class="edge">
<title>7\n[lost_miners_apart]&#45;&gt;19</title>
<path fill="none" stroke="blue" d="M1391.84,-316.46C1397.23,-313.76 1402.49,-310.77 1407.3,-307.5 1436.92,-287.36 1464.42,-256.61 1482.03,-234.73"/>
<polygon fill="blue" stroke="blue" points="1484.83,-236.84 1488.28,-226.82 1479.33,-232.5 1484.83,-236.84"/>
</g>
<!-- 8\n[lost_miners_one] -->
<g id="node9" class="node">
<title>8\n[lost_miners_one]</title>
<text text-anchor="middle" x="1337.3" y="-283.3" font-family="Times,serif" font-size="14.00" fill="blue">8</text>
<text text-anchor="middle" x="1337.3" y="-268.3" font-family="Times,serif" font-size="14.00" fill="blue">[lost_miners_one]</text>
</g>
<!-- 8\n[lost_miners_one]&#45;&gt;19 -->
<g id="edge11" class="edge">
<title>8\n[lost_miners_one]&#45;&gt;19</title>
<path fill="none" stroke="blue" d="M1382.11,-260.47C1408.5,-249.01 1441.66,-234.61 1466.39,-223.88"/>
<polygon fill="blue" stroke="blue" points="1467.97,-227.01 1475.75,-219.81 1465.18,-220.58 1467.97,-227.01"/>
</g>
<!-- 9\nbefore the monsters find it too!\nand keep it safe from those\n%(monster_type)s monsters!\nand hope those monsters don&#39;t cause any\nmore damage!&#45;&gt;6\n[lost_miners_together] -->
<g id="edge12" class="edge">
<title>9\nbefore the monsters find it too!\nand keep it safe from those\n%(monster_type)s monsters!\nand hope those monsters don&#39;t cause any\nmore damage!&#45;&gt;6\n[lost_miners_together]</title>
<path fill="none" stroke="blue" d="M1198.94,-328.55C1220.97,-340.48 1244.8,-352.86 1267.3,-363.5 1270.81,-365.16 1274.45,-366.82 1278.14,-368.45"/>
<polygon fill="blue" stroke="blue" points="1276.8,-371.69 1287.37,-372.44 1279.58,-365.26 1276.8,-371.69"/>
</g>
<!-- 9\nbefore the monsters find it too!\nand keep it safe from those\n%(monster_type)s monsters!\nand hope those monsters don&#39;t cause any\nmore damage!&#45;&gt;7\n[lost_miners_apart] -->
<g id="edge13" class="edge">
<title>9\nbefore the monsters find it too!\nand keep it safe from those\n%(monster_type)s monsters!\nand hope those monsters don&#39;t cause any\nmore damage!&#45;&gt;7\n[lost_miners_apart]</title>
<path fill="none" stroke="blue" d="M1231.42,-309.22C1243.1,-312.15 1254.67,-315.05 1265.64,-317.8"/>
<polygon fill="blue" stroke="blue" points="1264.97,-321.24 1275.52,-320.27 1266.67,-314.45 1264.97,-321.24"/>
</g>
<!-- 9\nbefore the monsters find it too!\nand keep it safe from those\n%(monster_type)s monsters!\nand hope those monsters don&#39;t cause any\nmore damage!&#45;&gt;8\n[lost_miners_one] -->
<g id="edge14" class="edge">
<title>9\nbefore the monsters find it too!\nand keep it safe from those\n%(monster_type)s monsters!\nand hope those monsters don&#39;t cause any\nmore damage!&#45;&gt;8\n[lost_miners_one]</title>
<path fill="none" stroke="blue" d="M1231.42,-279.5C1244.27,-279.5 1256.99,-279.5 1268.92,-279.5"/>
<polygon fill="blue" stroke="blue" points="1269.17,-283 1279.17,-279.5 1269.17,-276 1269.17,-283"/>
</g>
<!-- 9\nbefore the monsters find it too!\nand keep it safe from those\n%(monster_type)s monsters!\nand hope those monsters don&#39;t cause any\nmore damage!&#45;&gt;19 -->
<g id="edge15" class="edge">
<title>9\nbefore the monsters find it too!\nand keep it safe from those\n%(monster_type)s monsters!\nand hope those monsters don&#39;t cause any\nmore damage!&#45;&gt;19</title>
<path fill="none" stroke="black" d="M1231.36,-257.86C1311.81,-243.18 1412.83,-224.74 1465.72,-215.09"/>
<polygon fill="black" stroke="black" points="1466.42,-218.51 1475.63,-213.28 1465.17,-211.63 1466.42,-218.51"/>
</g>
<!-- 11\nfind those lost Rock Raiders! -->
<g id="node12" class="node">
<title>11\nfind those lost Rock Raiders!</title>
<polygon fill="none" stroke="black" points="1199.8,-165.5 1023.8,-165.5 1023.8,-127.5 1199.8,-127.5 1199.8,-165.5"/>
<text text-anchor="middle" x="1111.8" y="-150.3" font-family="Times,serif" font-size="14.00">11</text>
<text text-anchor="middle" x="1111.8" y="-135.3" font-family="Times,serif" font-size="14.00">find those lost Rock Raiders!</text>
</g>
<!-- 10\n. We need this base secure if we&#39;re\ngoing to\n. Once the base is safe,&#45;&gt;11\nfind those lost Rock Raiders! -->
<g id="edge16" class="edge">
<title>10\n. We need this base secure if we&#39;re\ngoing to\n. Once the base is safe,&#45;&gt;11\nfind those lost Rock Raiders!</title>
<path fill="none" stroke="black" d="M956.34,-146.5C975.07,-146.5 994.59,-146.5 1013.2,-146.5"/>
<polygon fill="black" stroke="black" points="1013.43,-150 1023.43,-146.5 1013.43,-143 1013.43,-150"/>
</g>
<!-- 14\nfind the lost Rock Raider! -->
<g id="node15" class="node">
<title>14\nfind the lost Rock Raider!</title>
<polygon fill="none" stroke="black" points="1190.8,-109.5 1032.8,-109.5 1032.8,-71.5 1190.8,-71.5 1190.8,-109.5"/>
<text text-anchor="middle" x="1111.8" y="-94.3" font-family="Times,serif" font-size="14.00">14</text>
<text text-anchor="middle" x="1111.8" y="-79.3" font-family="Times,serif" font-size="14.00">find the lost Rock Raider!</text>
</g>
<!-- 10\n. We need this base secure if we&#39;re\ngoing to\n. Once the base is safe,&#45;&gt;14\nfind the lost Rock Raider! -->
<g id="edge17" class="edge">
<title>10\n. We need this base secure if we&#39;re\ngoing to\n. Once the base is safe,&#45;&gt;14\nfind the lost Rock Raider!</title>
<path fill="none" stroke="black" d="M956.34,-124.29C978.28,-119.49 1001.29,-114.45 1022.66,-109.78"/>
<polygon fill="black" stroke="black" points="1023.66,-113.14 1032.68,-107.59 1022.16,-106.31 1023.66,-113.14"/>
</g>
<!-- 16\ncollect %(resources)s.\nget those %(resource_names)s. -->
<g id="node17" class="node">
<title>16\ncollect %(resources)s.\nget those %(resource_names)s.</title>
<polygon fill="none" stroke="black" points="1205.3,-53 1018.3,-53 1018.3,0 1205.3,0 1205.3,-53"/>
<text text-anchor="middle" x="1111.8" y="-37.8" font-family="Times,serif" font-size="14.00">16</text>
<text text-anchor="middle" x="1111.8" y="-22.8" font-family="Times,serif" font-size="14.00">collect %(resources)s.</text>
<text text-anchor="middle" x="1111.8" y="-7.8" font-family="Times,serif" font-size="14.00">get those %(resource_names)s.</text>
</g>
<!-- 10\n. We need this base secure if we&#39;re\ngoing to\n. Once the base is safe,&#45;&gt;16\ncollect %(resources)s.\nget those %(resource_names)s. -->
<g id="edge18" class="edge">
<title>10\n. We need this base secure if we&#39;re\ngoing to\n. Once the base is safe,&#45;&gt;16\ncollect %(resources)s.\nget those %(resource_names)s.</title>
<path fill="none" stroke="black" d="M940.73,-112.48C946.15,-109.36 951.38,-106.03 956.3,-102.5 975.71,-88.53 972.11,-75.34 992.3,-62.5 997.54,-59.17 1003.1,-56.13 1008.85,-53.36"/>
<polygon fill="black" stroke="black" points="1010.34,-56.53 1018.02,-49.23 1007.46,-50.15 1010.34,-56.53"/>
</g>
<!-- 12\n[lost_miners_together] -->
<g id="node13" class="node">
<title>12\n[lost_miners_together]</title>
<text text-anchor="middle" x="1337.3" y="-133.3" font-family="Times,serif" font-size="14.00" fill="blue">12</text>
<text text-anchor="middle" x="1337.3" y="-118.3" font-family="Times,serif" font-size="14.00" fill="blue">[lost_miners_together]</text>
</g>
<!-- 11\nfind those lost Rock Raiders!&#45;&gt;12\n[lost_miners_together] -->
<g id="edge19" class="edge">
<title>11\nfind those lost Rock Raiders!&#45;&gt;12\n[lost_miners_together]</title>
<path fill="none" stroke="blue" d="M1199.85,-139.88C1218.67,-138.45 1238.48,-136.94 1256.98,-135.53"/>
<polygon fill="blue" stroke="blue" points="1257.41,-139.01 1267.12,-134.76 1256.88,-132.03 1257.41,-139.01"/>
</g>
<!-- 13\n[lost_miners_apart] -->
<g id="node14" class="node">
<title>13\n[lost_miners_apart]</title>
<text text-anchor="middle" x="1337.3" y="-189.3" font-family="Times,serif" font-size="14.00" fill="blue">13</text>
<text text-anchor="middle" x="1337.3" y="-174.3" font-family="Times,serif" font-size="14.00" fill="blue">[lost_miners_apart]</text>
</g>
<!-- 11\nfind those lost Rock Raiders!&#45;&gt;13\n[lost_miners_apart] -->
<g id="edge20" class="edge">
<title>11\nfind those lost Rock Raiders!&#45;&gt;13\n[lost_miners_apart]</title>
<path fill="none" stroke="blue" d="M1199.85,-161.69C1221.65,-165.49 1244.78,-169.53 1265.67,-173.18"/>
<polygon fill="blue" stroke="blue" points="1265.28,-176.66 1275.73,-174.93 1266.48,-169.77 1265.28,-176.66"/>
</g>
<!-- 12\n[lost_miners_together]&#45;&gt;19 -->
<g id="edge21" class="edge">
<title>12\n[lost_miners_together]&#45;&gt;19</title>
<path fill="none" stroke="blue" d="M1387.21,-148.57C1394.01,-151.45 1400.86,-154.47 1407.3,-157.5 1427.4,-166.97 1449.28,-178.68 1466.91,-188.49"/>
<polygon fill="blue" stroke="blue" points="1465.28,-191.59 1475.72,-193.43 1468.7,-185.48 1465.28,-191.59"/>
</g>
<!-- 13\n[lost_miners_apart]&#45;&gt;19 -->
<g id="edge22" class="edge">
<title>13\n[lost_miners_apart]&#45;&gt;19</title>
<path fill="none" stroke="blue" d="M1399.18,-194.06C1421.5,-197.2 1446.04,-200.66 1465.52,-203.4"/>
<polygon fill="blue" stroke="blue" points="1465.11,-206.87 1475.5,-204.8 1466.08,-199.94 1465.11,-206.87"/>
</g>
<!-- 15\n[lost_miners_one] -->
<g id="node16" class="node">
<title>15\n[lost_miners_one]</title>
<text text-anchor="middle" x="1337.3" y="-77.3" font-family="Times,serif" font-size="14.00" fill="blue">15</text>
<text text-anchor="middle" x="1337.3" y="-62.3" font-family="Times,serif" font-size="14.00" fill="blue">[lost_miners_one]</text>
</g>
<!-- 14\nfind the lost Rock Raider!&#45;&gt;15\n[lost_miners_one] -->
<g id="edge23" class="edge">
<title>14\nfind the lost Rock Raider!&#45;&gt;15\n[lost_miners_one]</title>
<path fill="none" stroke="blue" d="M1190.97,-84.55C1216.3,-82.63 1244.17,-80.51 1268.67,-78.64"/>
<polygon fill="blue" stroke="blue" points="1269.24,-82.11 1278.95,-77.86 1268.71,-75.13 1269.24,-82.11"/>
</g>
<!-- 15\n[lost_miners_one]&#45;&gt;19 -->
<g id="edge24" class="edge">
<title>15\n[lost_miners_one]&#45;&gt;19</title>
<path fill="none" stroke="blue" d="M1392.33,-92.54C1397.57,-95.23 1402.66,-98.21 1407.3,-101.5 1438.64,-123.7 1466.66,-158.24 1483.9,-182.03"/>
<polygon fill="blue" stroke="blue" points="1481.11,-184.14 1489.75,-190.27 1486.82,-180.09 1481.11,-184.14"/>
</g>
<!-- 17\n[collect_resources] -->
<g id="node18" class="node">
<title>17\n[collect_resources]</title>
<text text-anchor="middle" x="1502.8" y="-67.3" font-family="Times,serif" font-size="14.00" fill="blue">17</text>
<text text-anchor="middle" x="1502.8" y="-52.3" font-family="Times,serif" font-size="14.00" fill="blue">[collect_resources]</text>
</g>
<!-- 16\ncollect %(resources)s.\nget those %(resource_names)s.&#45;&gt;17\n[collect_resources] -->
<g id="edge25" class="edge">
<title>16\ncollect %(resources)s.\nget those %(resource_names)s.&#45;&gt;17\n[collect_resources]</title>
<path fill="none" stroke="blue" d="M1205.59,-29.54C1263.71,-32.18 1340.08,-36.96 1407.3,-45.5 1415.69,-46.57 1424.47,-47.92 1433.14,-49.39"/>
<polygon fill="blue" stroke="blue" points="1432.79,-52.89 1443.25,-51.18 1434.01,-45.99 1432.79,-52.89"/>
</g>
<!-- 17\n[collect_resources]&#45;&gt;1\n[end] -->
<g id="edge26" class="edge">
<title>17\n[collect_resources]&#45;&gt;1\n[end]</title>
<path fill="none" stroke="green" stroke-dasharray="5,2" d="M1558.18,-82.51C1613.14,-101.73 1696.7,-130.94 1745.31,-147.93"/>
<polygon fill="green" stroke="green" points="1744.24,-151.27 1754.84,-151.26 1746.55,-144.66 1744.24,-151.27"/>
</g>
<!-- 18\nNow, \nNow you should be able to&#45;&gt;11\nfind those lost Rock Raiders! -->
<g id="edge27" class="edge">
<title>18\nNow, \nNow you should be able to&#45;&gt;11\nfind those lost Rock Raiders!</title>
<path fill="none" stroke="black" d="M931.17,-94.09C939.67,-97.2 948.18,-100.37 956.3,-103.5 972.47,-109.73 975.81,-113.16 992.3,-118.5 999.21,-120.74 1006.4,-122.88 1013.68,-124.92"/>
<polygon fill="black" stroke="black" points="1013.06,-128.37 1023.62,-127.62 1014.89,-121.62 1013.06,-128.37"/>
</g>
<!-- 18\nNow, \nNow you should be able to&#45;&gt;14\nfind the lost Rock Raider! -->
<g id="edge28" class="edge">
<title>18\nNow, \nNow you should be able to&#45;&gt;14\nfind the lost Rock Raider!</title>
<path fill="none" stroke="black" d="M936.15,-74.81C963.66,-77.28 994.51,-80.05 1022.53,-82.57"/>
<polygon fill="black" stroke="black" points="1022.44,-86.08 1032.71,-83.48 1023.07,-79.1 1022.44,-86.08"/>
</g>
<!-- 18\nNow, \nNow you should be able to&#45;&gt;16\ncollect %(resources)s.\nget those %(resource_names)s. -->
<g id="edge29" class="edge">
<title>18\nNow, \nNow you should be able to&#45;&gt;16\ncollect %(resources)s.\nget those %(resource_names)s.</title>
<path fill="none" stroke="black" d="M936.15,-54.47C958.95,-50.82 984.04,-46.8 1007.92,-42.98"/>
<polygon fill="black" stroke="black" points="1008.75,-46.39 1018.07,-41.35 1007.64,-39.48 1008.75,-46.39"/>
</g>
<!-- 19&#45;&gt;1\n[end] -->
<g id="edge31" class="edge">
<title>19&#45;&gt;1\n[end]</title>
<path fill="none" stroke="green" stroke-dasharray="5,2" d="M1529.95,-199.32C1548.74,-193.08 1574.79,-185.14 1598.3,-180.5 1647.59,-170.77 1705.28,-165.85 1743.15,-163.49"/>
<polygon fill="green" stroke="green" points="1743.5,-166.98 1753.28,-162.89 1743.09,-159.99 1743.5,-166.98"/>
</g>
<!-- 20\n[collect_resources] -->
<g id="node21" class="node">
<title>20\n[collect_resources]</title>
<text text-anchor="middle" x="1657.8" y="-212.3" font-family="Times,serif" font-size="14.00" fill="blue">20</text>
<text text-anchor="middle" x="1657.8" y="-197.3" font-family="Times,serif" font-size="14.00" fill="blue">[collect_resources]</text>
</g>
<!-- 19&#45;&gt;20\n[collect_resources] -->
<g id="edge30" class="edge">
<title>19&#45;&gt;20\n[collect_resources]</title>
<path fill="none" stroke="blue" d="M1530.1,-208.5C1546.18,-208.5 1567.56,-208.5 1588.16,-208.5"/>
<polygon fill="blue" stroke="blue" points="1588.19,-212 1598.19,-208.5 1588.19,-205 1588.19,-212"/>
</g>
<!-- 20\n[collect_resources]&#45;&gt;1\n[end] -->
<g id="edge32" class="edge">
<title>20\n[collect_resources]&#45;&gt;1\n[end]</title>
<path fill="none" stroke="green" stroke-dasharray="5,2" d="M1709.77,-189.38C1721.72,-184.9 1734.26,-180.2 1745.56,-175.96"/>
<polygon fill="green" stroke="green" points="1747,-179.16 1755.13,-172.37 1744.54,-172.61 1747,-179.16"/>
</g>
</g>
</svg>
