<?xml version="1.0" encoding="UTF-8" standalone="no"?>
<!DOCTYPE svg PUBLIC "-//W3C//DTD SVG 1.1//EN"
 "http://www.w3.org/Graphics/SVG/1.1/DTD/svg11.dtd">
<!-- Generated by graphviz version 2.43.0 (0)
 -->
<!-- Title: G Pages: 1 -->
<svg width="938pt" height="1393pt"
 viewBox="0.00 0.00 938.00 1393.00" xmlns="http://www.w3.org/2000/svg" xmlns:xlink="http://www.w3.org/1999/xlink">
<g id="graph0" class="graph" transform="scale(1 1) rotate(0) translate(4 1389)">
<title>G</title>
<polygon fill="white" stroke="transparent" points="-4,4 -4,-1389 934,-1389 934,4 -4,4"/>
<!-- 0\n[start] -->
<g id="node1" class="node">
<title>0\n[start]</title>
<text text-anchor="middle" x="386" y="-1369.8" font-family="Times,serif" font-size="14.00">0</text>
<text text-anchor="middle" x="386" y="-1354.8" font-family="Times,serif" font-size="14.00">[start]</text>
</g>
<!-- 2\nbuild the Rock Raider HQ\nbuild up your base -->
<g id="node3" class="node">
<title>2\nbuild the Rock Raider HQ\nbuild up your base</title>
<polygon fill="none" stroke="black" points="930,-1059 770,-1059 770,-1006 930,-1006 930,-1059"/>
<text text-anchor="middle" x="850" y="-1043.8" font-family="Times,serif" font-size="14.00">2</text>
<text text-anchor="middle" x="850" y="-1028.8" font-family="Times,serif" font-size="14.00">build the Rock Raider HQ</text>
<text text-anchor="middle" x="850" y="-1013.8" font-family="Times,serif" font-size="14.00">build up your base</text>
</g>
<!-- 0\n[start]&#45;&gt;2\nbuild the Rock Raider HQ\nbuild up your base -->
<g id="edge2" class="edge">
<title>0\n[start]&#45;&gt;2\nbuild the Rock Raider HQ\nbuild up your base</title>
<path fill="none" stroke="black" d="M413.18,-1363.14C479.42,-1358.17 647.02,-1342.7 692,-1311 777.25,-1250.92 822.53,-1129.29 840.54,-1069.01"/>
<polygon fill="black" stroke="black" points="843.97,-1069.77 843.4,-1059.19 837.25,-1067.82 843.97,-1069.77"/>
</g>
<!-- 5\nexplore the cavern -->
<g id="node6" class="node">
<title>5\nexplore the cavern</title>
<polygon fill="none" stroke="black" points="319.5,-1051.5 202.5,-1051.5 202.5,-1013.5 319.5,-1013.5 319.5,-1051.5"/>
<text text-anchor="middle" x="261" y="-1036.3" font-family="Times,serif" font-size="14.00">5</text>
<text text-anchor="middle" x="261" y="-1021.3" font-family="Times,serif" font-size="14.00">explore the cavern</text>
</g>
<!-- 0\n[start]&#45;&gt;5\nexplore the cavern -->
<g id="edge1" class="edge">
<title>0\n[start]&#45;&gt;5\nexplore the cavern</title>
<path fill="none" stroke="black" d="M358.83,-1360.71C326.04,-1354.42 270.52,-1340.15 232,-1311 199.95,-1286.75 192.12,-1275.33 180,-1237 159.43,-1171.95 207.49,-1098.11 238.07,-1059.77"/>
<polygon fill="black" stroke="black" points="241.06,-1061.65 244.68,-1051.69 235.64,-1057.22 241.06,-1061.65"/>
</g>
<!-- 6\n[spawn_has_erosion] -->
<g id="node7" class="node">
<title>6\n[spawn_has_erosion]</title>
<text text-anchor="middle" x="486" y="-1295.8" font-family="Times,serif" font-size="14.00">6</text>
<text text-anchor="middle" x="486" y="-1280.8" font-family="Times,serif" font-size="14.00">[spawn_has_erosion]</text>
</g>
<!-- 0\n[start]&#45;&gt;6\n[spawn_has_erosion] -->
<g id="edge5" class="edge">
<title>0\n[start]&#45;&gt;6\n[spawn_has_erosion]</title>
<path fill="none" stroke="black" d="M411.23,-1346.83C423.79,-1337.79 439.13,-1326.75 452.64,-1317.02"/>
<polygon fill="black" stroke="black" points="454.7,-1319.85 460.77,-1311.16 450.61,-1314.17 454.7,-1319.85"/>
</g>
<!-- 8 -->
<g id="node9" class="node">
<title>8</title>
<text text-anchor="middle" x="284" y="-770.3" font-family="Times,serif" font-size="14.00">8</text>
</g>
<!-- 0\n[start]&#45;&gt;8 -->
<g id="edge7" class="edge">
<title>0\n[start]&#45;&gt;8</title>
<path fill="none" stroke="black" d="M358.72,-1363.6C318.34,-1360.27 241.97,-1349.01 191,-1311 146.02,-1277.46 124,-1260.11 124,-1204 124,-1204 124,-1204 124,-942.5 124,-871.24 200.65,-818.38 247.84,-792.59"/>
<polygon fill="black" stroke="black" points="249.67,-795.58 256.86,-787.8 246.39,-789.4 249.67,-795.58"/>
</g>
<!-- 14\n[has_monsters] -->
<g id="node15" class="node">
<title>14\n[has_monsters]</title>
<text text-anchor="middle" x="291" y="-1295.8" font-family="Times,serif" font-size="14.00">14</text>
<text text-anchor="middle" x="291" y="-1280.8" font-family="Times,serif" font-size="14.00">[has_monsters]</text>
</g>
<!-- 0\n[start]&#45;&gt;14\n[has_monsters] -->
<g id="edge4" class="edge">
<title>0\n[start]&#45;&gt;14\n[has_monsters]</title>
<path fill="none" stroke="black" d="M362.03,-1346.83C350.21,-1337.88 335.8,-1326.96 323.06,-1317.3"/>
<polygon fill="black" stroke="black" points="325.05,-1314.41 314.96,-1311.16 320.82,-1319.99 325.05,-1314.41"/>
</g>
<!-- 16\n[spawn_is_ruins] -->
<g id="node17" class="node">
<title>16\n[spawn_is_ruins]</title>
<text text-anchor="middle" x="628" y="-1295.8" font-family="Times,serif" font-size="14.00">16</text>
<text text-anchor="middle" x="628" y="-1280.8" font-family="Times,serif" font-size="14.00">[spawn_is_ruins]</text>
</g>
<!-- 0\n[start]&#45;&gt;16\n[spawn_is_ruins] -->
<g id="edge3" class="edge">
<title>0\n[start]&#45;&gt;16\n[spawn_is_ruins]</title>
<path fill="none" stroke="black" d="M413.29,-1356.88C449.37,-1346.15 514.1,-1326.89 563.08,-1312.32"/>
<polygon fill="black" stroke="black" points="564.38,-1315.58 572.96,-1309.37 562.38,-1308.87 564.38,-1315.58"/>
</g>
<!-- 18\n[find_hq] -->
<g id="node19" class="node">
<title>18\n[find_hq]</title>
<text text-anchor="middle" x="452" y="-1036.3" font-family="Times,serif" font-size="14.00">18</text>
<text text-anchor="middle" x="452" y="-1021.3" font-family="Times,serif" font-size="14.00">[find_hq]</text>
</g>
<!-- 0\n[start]&#45;&gt;18\n[find_hq] -->
<g id="edge6" class="edge">
<title>0\n[start]&#45;&gt;18\n[find_hq]</title>
<path fill="none" stroke="black" d="M386.33,-1346.94C387.26,-1312.13 390.91,-1233.46 405,-1169 413.39,-1130.61 429.3,-1088.05 440.27,-1061.06"/>
<polygon fill="black" stroke="black" points="443.63,-1062.09 444.21,-1051.51 437.16,-1059.42 443.63,-1062.09"/>
</g>
<!-- 1\n[end] -->
<g id="node2" class="node">
<title>1\n[end]</title>
<text text-anchor="middle" x="454" y="-22.8" font-family="Times,serif" font-size="14.00">1</text>
<text text-anchor="middle" x="454" y="-7.8" font-family="Times,serif" font-size="14.00">[end]</text>
</g>
<!-- 3\n[has_monsters] -->
<g id="node4" class="node">
<title>3\n[has_monsters]</title>
<text text-anchor="middle" x="628" y="-858.3" font-family="Times,serif" font-size="14.00">3</text>
<text text-anchor="middle" x="628" y="-843.3" font-family="Times,serif" font-size="14.00">[has_monsters]</text>
</g>
<!-- 2\nbuild the Rock Raider HQ\nbuild up your base&#45;&gt;3\n[has_monsters] -->
<g id="edge9" class="edge">
<title>2\nbuild the Rock Raider HQ\nbuild up your base&#45;&gt;3\n[has_monsters]</title>
<path fill="none" stroke="black" d="M817.72,-1005.91C775.1,-972.12 700.59,-913.05 658.76,-879.88"/>
<polygon fill="black" stroke="black" points="660.85,-877.08 650.84,-873.61 656.5,-882.56 660.85,-877.08"/>
</g>
<!-- 24 -->
<g id="node25" class="node">
<title>24</title>
<text text-anchor="middle" x="351" y="-939.8" font-family="Times,serif" font-size="14.00">24</text>
</g>
<!-- 2\nbuild the Rock Raider HQ\nbuild up your base&#45;&gt;24 -->
<g id="edge8" class="edge">
<title>2\nbuild the Rock Raider HQ\nbuild up your base&#45;&gt;24</title>
<path fill="none" stroke="black" d="M769.63,-1007.76C766.73,-1007.13 763.84,-1006.54 761,-1006 596.94,-974.87 543.51,-1028.22 387,-970 384.61,-969.11 382.24,-968.02 379.91,-966.8"/>
<polygon fill="black" stroke="black" points="381.64,-963.76 371.27,-961.58 378.02,-969.75 381.64,-963.76"/>
</g>
<!-- 4\nand keep it safe\nand make sure it is heavily defended -->
<g id="node5" class="node">
<title>4\nand keep it safe\nand make sure it is heavily defended</title>
<polygon fill="none" stroke="black" points="736.5,-557 519.5,-557 519.5,-504 736.5,-504 736.5,-557"/>
<text text-anchor="middle" x="628" y="-541.8" font-family="Times,serif" font-size="14.00">4</text>
<text text-anchor="middle" x="628" y="-526.8" font-family="Times,serif" font-size="14.00">and keep it safe</text>
<text text-anchor="middle" x="628" y="-511.8" font-family="Times,serif" font-size="14.00">and make sure it is heavily defended</text>
</g>
<!-- 3\n[has_monsters]&#45;&gt;4\nand keep it safe\nand make sure it is heavily defended -->
<g id="edge10" class="edge">
<title>3\n[has_monsters]&#45;&gt;4\nand keep it safe\nand make sure it is heavily defended</title>
<path fill="none" stroke="black" d="M628,-835.27C628,-783.74 628,-636.36 628,-567.62"/>
<polygon fill="black" stroke="black" points="631.5,-567.29 628,-557.29 624.5,-567.29 631.5,-567.29"/>
</g>
<!-- 29\n. Then\n. Once you have done that, -->
<g id="node30" class="node">
<title>29\n. Then\n. Once you have done that,</title>
<polygon fill="none" stroke="black" points="665,-460.5 501,-460.5 501,-407.5 665,-407.5 665,-460.5"/>
<text text-anchor="middle" x="583" y="-445.3" font-family="Times,serif" font-size="14.00">29</text>
<text text-anchor="middle" x="583" y="-430.3" font-family="Times,serif" font-size="14.00">. Then</text>
<text text-anchor="middle" x="583" y="-415.3" font-family="Times,serif" font-size="14.00">. Once you have done that,</text>
</g>
<!-- 4\nand keep it safe\nand make sure it is heavily defended&#45;&gt;29\n. Then\n. Once you have done that, -->
<g id="edge11" class="edge">
<title>4\nand keep it safe\nand make sure it is heavily defended&#45;&gt;29\n. Then\n. Once you have done that,</title>
<path fill="none" stroke="black" d="M615.7,-503.68C610.74,-493.26 604.94,-481.08 599.62,-469.89"/>
<polygon fill="black" stroke="black" points="602.74,-468.32 595.28,-460.79 596.42,-471.32 602.74,-468.32"/>
</g>
<!-- 31\n. -->
<g id="node32" class="node">
<title>31\n.</title>
<polygon fill="none" stroke="black" points="481,-201 427,-201 427,-163 481,-163 481,-201"/>
<text text-anchor="middle" x="454" y="-185.8" font-family="Times,serif" font-size="14.00">31</text>
<text text-anchor="middle" x="454" y="-170.8" font-family="Times,serif" font-size="14.00">.</text>
</g>
<!-- 4\nand keep it safe\nand make sure it is heavily defended&#45;&gt;31\n. -->
<g id="edge12" class="edge">
<title>4\nand keep it safe\nand make sure it is heavily defended&#45;&gt;31\n.</title>
<path fill="none" stroke="black" d="M653.01,-503.82C661.37,-493.53 669.67,-481.03 674,-468 706.93,-368.98 704.21,-312.33 632,-237 595.08,-198.48 531.66,-187.19 491.34,-184.02"/>
<polygon fill="black" stroke="black" points="491.32,-180.52 481.11,-183.36 490.86,-187.5 491.32,-180.52"/>
</g>
<!-- 5\nexplore the cavern&#45;&gt;24 -->
<g id="edge13" class="edge">
<title>5\nexplore the cavern&#45;&gt;24</title>
<path fill="none" stroke="black" d="M279.65,-1013.47C293.06,-1000.5 311.31,-982.87 325.99,-968.68"/>
<polygon fill="black" stroke="black" points="328.54,-971.08 333.29,-961.62 323.67,-966.05 328.54,-971.08"/>
</g>
<!-- 7\nmove to a safer cavern\nget your Rock Raiders to safety -->
<g id="node8" class="node">
<title>7\nmove to a safer cavern\nget your Rock Raiders to safety</title>
<polygon fill="none" stroke="black" points="603.5,-1229.5 414.5,-1229.5 414.5,-1176.5 603.5,-1176.5 603.5,-1229.5"/>
<text text-anchor="middle" x="509" y="-1214.3" font-family="Times,serif" font-size="14.00">7</text>
<text text-anchor="middle" x="509" y="-1199.3" font-family="Times,serif" font-size="14.00">move to a safer cavern</text>
<text text-anchor="middle" x="509" y="-1184.3" font-family="Times,serif" font-size="14.00">get your Rock Raiders to safety</text>
</g>
<!-- 6\n[spawn_has_erosion]&#45;&gt;7\nmove to a safer cavern\nget your Rock Raiders to safety -->
<g id="edge14" class="edge">
<title>6\n[spawn_has_erosion]&#45;&gt;7\nmove to a safer cavern\nget your Rock Raiders to safety</title>
<path fill="none" stroke="black" d="M490.77,-1272.97C493.33,-1263.27 496.58,-1250.96 499.63,-1239.44"/>
<polygon fill="black" stroke="black" points="503.06,-1240.15 502.23,-1229.59 496.29,-1238.37 503.06,-1240.15"/>
</g>
<!-- 7\nmove to a safer cavern\nget your Rock Raiders to safety&#45;&gt;24 -->
<g id="edge15" class="edge">
<title>7\nmove to a safer cavern\nget your Rock Raiders to safety&#45;&gt;24</title>
<path fill="none" stroke="black" d="M489.43,-1176.38C468.39,-1148.32 434.53,-1101.62 409,-1059 391.47,-1029.73 374.16,-994.51 363.08,-970.93"/>
<polygon fill="black" stroke="black" points="366.12,-969.17 358.73,-961.59 359.78,-972.13 366.12,-969.17"/>
</g>
<!-- 26\n, -->
<g id="node27" class="node">
<title>26\n,</title>
<polygon fill="none" stroke="black" points="536,-1133 482,-1133 482,-1095 536,-1095 536,-1133"/>
<text text-anchor="middle" x="509" y="-1117.8" font-family="Times,serif" font-size="14.00">26</text>
<text text-anchor="middle" x="509" y="-1102.8" font-family="Times,serif" font-size="14.00">,</text>
</g>
<!-- 7\nmove to a safer cavern\nget your Rock Raiders to safety&#45;&gt;26\n, -->
<g id="edge16" class="edge">
<title>7\nmove to a safer cavern\nget your Rock Raiders to safety&#45;&gt;26\n,</title>
<path fill="none" stroke="black" d="M509,-1176.37C509,-1165.92 509,-1153.8 509,-1143.11"/>
<polygon fill="black" stroke="black" points="512.5,-1143.01 509,-1133.01 505.5,-1143.01 512.5,-1143.01"/>
</g>
<!-- 9\n[lost_miners_one] -->
<g id="node10" class="node">
<title>9\n[lost_miners_one]</title>
<text text-anchor="middle" x="121" y="-704.8" font-family="Times,serif" font-size="14.00">9</text>
<text text-anchor="middle" x="121" y="-689.8" font-family="Times,serif" font-size="14.00">[lost_miners_one]</text>
</g>
<!-- 8&#45;&gt;9\n[lost_miners_one] -->
<g id="edge17" class="edge">
<title>8&#45;&gt;9\n[lost_miners_one]</title>
<path fill="none" stroke="black" d="M256.72,-761.12C233.59,-751.04 199.81,-736.33 171.74,-724.1"/>
<polygon fill="black" stroke="black" points="173.02,-720.84 162.46,-720.06 170.23,-727.26 173.02,-720.84"/>
</g>
<!-- 11\n[lost_miners_many] -->
<g id="node12" class="node">
<title>11\n[lost_miners_many]</title>
<text text-anchor="middle" x="288" y="-704.8" font-family="Times,serif" font-size="14.00">11</text>
<text text-anchor="middle" x="288" y="-689.8" font-family="Times,serif" font-size="14.00">[lost_miners_many]</text>
</g>
<!-- 8&#45;&gt;11\n[lost_miners_many] -->
<g id="edge18" class="edge">
<title>8&#45;&gt;11\n[lost_miners_many]</title>
<path fill="none" stroke="black" d="M284.97,-755.81C285.4,-748.11 285.93,-738.82 286.41,-730.15"/>
<polygon fill="black" stroke="black" points="289.92,-730.2 286.98,-720.02 282.93,-729.81 289.92,-730.2"/>
</g>
<!-- 10\nfind the lost Rock Raider\nlocate the missing Rock Raider -->
<g id="node11" class="node">
<title>10\nfind the lost Rock Raider\nlocate the missing Rock Raider</title>
<polygon fill="none" stroke="black" points="188,-646 0,-646 0,-593 188,-593 188,-646"/>
<text text-anchor="middle" x="94" y="-630.8" font-family="Times,serif" font-size="14.00">10</text>
<text text-anchor="middle" x="94" y="-615.8" font-family="Times,serif" font-size="14.00">find the lost Rock Raider</text>
<text text-anchor="middle" x="94" y="-600.8" font-family="Times,serif" font-size="14.00">locate the missing Rock Raider</text>
</g>
<!-- 9\n[lost_miners_one]&#45;&gt;10\nfind the lost Rock Raider\nlocate the missing Rock Raider -->
<g id="edge19" class="edge">
<title>9\n[lost_miners_one]&#45;&gt;10\nfind the lost Rock Raider\nlocate the missing Rock Raider</title>
<path fill="none" stroke="black" d="M114.87,-681.96C112.22,-674.15 109.02,-664.74 105.94,-655.65"/>
<polygon fill="black" stroke="black" points="109.19,-654.35 102.66,-646 102.56,-656.6 109.19,-654.35"/>
</g>
<!-- 13 -->
<g id="node14" class="node">
<title>13</title>
<text text-anchor="middle" x="262" y="-526.8" font-family="Times,serif" font-size="14.00">13</text>
</g>
<!-- 10\nfind the lost Rock Raider\nlocate the missing Rock Raider&#45;&gt;13 -->
<g id="edge20" class="edge">
<title>10\nfind the lost Rock Raider\nlocate the missing Rock Raider&#45;&gt;13</title>
<path fill="none" stroke="black" d="M143.5,-592.87C169.81,-579.24 201.6,-562.78 225.63,-550.34"/>
<polygon fill="black" stroke="black" points="227.48,-553.32 234.75,-545.61 224.26,-547.1 227.48,-553.32"/>
</g>
<!-- 12\nfind the lost Rock Raiders\nlocate the missing Rock Raiders -->
<g id="node13" class="node">
<title>12\nfind the lost Rock Raiders\nlocate the missing Rock Raiders</title>
<polygon fill="none" stroke="black" points="399.5,-646 206.5,-646 206.5,-593 399.5,-593 399.5,-646"/>
<text text-anchor="middle" x="303" y="-630.8" font-family="Times,serif" font-size="14.00">12</text>
<text text-anchor="middle" x="303" y="-615.8" font-family="Times,serif" font-size="14.00">find the lost Rock Raiders</text>
<text text-anchor="middle" x="303" y="-600.8" font-family="Times,serif" font-size="14.00">locate the missing Rock Raiders</text>
</g>
<!-- 11\n[lost_miners_many]&#45;&gt;12\nfind the lost Rock Raiders\nlocate the missing Rock Raiders -->
<g id="edge21" class="edge">
<title>11\n[lost_miners_many]&#45;&gt;12\nfind the lost Rock Raiders\nlocate the missing Rock Raiders</title>
<path fill="none" stroke="black" d="M291.4,-681.96C292.86,-674.24 294.62,-664.94 296.31,-655.94"/>
<polygon fill="black" stroke="black" points="299.77,-656.48 298.19,-646 292.89,-655.18 299.77,-656.48"/>
</g>
<!-- 12\nfind the lost Rock Raiders\nlocate the missing Rock Raiders&#45;&gt;13 -->
<g id="edge22" class="edge">
<title>12\nfind the lost Rock Raiders\nlocate the missing Rock Raiders&#45;&gt;13</title>
<path fill="none" stroke="black" d="M290.92,-592.87C285.73,-581.86 279.67,-569 274.44,-557.91"/>
<polygon fill="black" stroke="black" points="277.54,-556.26 270.11,-548.7 271.2,-559.24 277.54,-556.26"/>
</g>
<!-- 30\n. Once you have done that,\n. With them secure,\n. Along the way, -->
<g id="node31" class="node">
<title>30\n. Once you have done that,\n. With them secure,\n. Along the way,</title>
<polygon fill="none" stroke="black" points="407,-468 243,-468 243,-400 407,-400 407,-468"/>
<text text-anchor="middle" x="325" y="-452.8" font-family="Times,serif" font-size="14.00">30</text>
<text text-anchor="middle" x="325" y="-437.8" font-family="Times,serif" font-size="14.00">. Once you have done that,</text>
<text text-anchor="middle" x="325" y="-422.8" font-family="Times,serif" font-size="14.00">. With them secure,</text>
<text text-anchor="middle" x="325" y="-407.8" font-family="Times,serif" font-size="14.00">. Along the way,</text>
</g>
<!-- 13&#45;&gt;30\n. Once you have done that,\n. With them secure,\n. Along the way, -->
<g id="edge23" class="edge">
<title>13&#45;&gt;30\n. Once you have done that,\n. With them secure,\n. Along the way,</title>
<path fill="none" stroke="black" d="M273.56,-512.17C280.19,-502.21 288.84,-489.24 297.14,-476.79"/>
<polygon fill="black" stroke="black" points="300.17,-478.55 302.81,-468.29 294.35,-474.67 300.17,-478.55"/>
</g>
<!-- 13&#45;&gt;31\n. -->
<g id="edge24" class="edge">
<title>13&#45;&gt;31\n.</title>
<path fill="none" stroke="black" d="M251.82,-512.43C245.3,-500.46 237.43,-483.82 234,-468 211.88,-366.02 203.79,-312.33 276,-237 312.92,-198.48 376.34,-187.19 416.66,-184.02"/>
<polygon fill="black" stroke="black" points="417.14,-187.5 426.89,-183.36 416.68,-180.52 417.14,-187.5"/>
</g>
<!-- 15\ndefend the Rock Radier HQ\nbuild up your defenses\narm your Rock Raiders -->
<g id="node16" class="node">
<title>15\ndefend the Rock Radier HQ\nbuild up your defenses\narm your Rock Raiders</title>
<polygon fill="none" stroke="black" points="358.5,-1237 189.5,-1237 189.5,-1169 358.5,-1169 358.5,-1237"/>
<text text-anchor="middle" x="274" y="-1221.8" font-family="Times,serif" font-size="14.00">15</text>
<text text-anchor="middle" x="274" y="-1206.8" font-family="Times,serif" font-size="14.00">defend the Rock Radier HQ</text>
<text text-anchor="middle" x="274" y="-1191.8" font-family="Times,serif" font-size="14.00">build up your defenses</text>
<text text-anchor="middle" x="274" y="-1176.8" font-family="Times,serif" font-size="14.00">arm your Rock Raiders</text>
</g>
<!-- 14\n[has_monsters]&#45;&gt;15\ndefend the Rock Radier HQ\nbuild up your defenses\narm your Rock Raiders -->
<g id="edge25" class="edge">
<title>14\n[has_monsters]&#45;&gt;15\ndefend the Rock Radier HQ\nbuild up your defenses\narm your Rock Raiders</title>
<path fill="none" stroke="black" d="M287.48,-1272.97C285.99,-1265.37 284.19,-1256.17 282.4,-1246.99"/>
<polygon fill="black" stroke="black" points="285.83,-1246.27 280.47,-1237.12 278.96,-1247.61 285.83,-1246.27"/>
</g>
<!-- 15\ndefend the Rock Radier HQ\nbuild up your defenses\narm your Rock Raiders&#45;&gt;24 -->
<g id="edge26" class="edge">
<title>15\ndefend the Rock Radier HQ\nbuild up your defenses\narm your Rock Raiders&#45;&gt;24</title>
<path fill="none" stroke="black" d="M289.15,-1168.93C294.12,-1157.63 299.51,-1144.85 304,-1133 316.24,-1100.66 319.25,-1092.45 328,-1059 335.74,-1029.4 342.35,-994.92 346.47,-971.59"/>
<polygon fill="black" stroke="black" points="349.92,-972.16 348.18,-961.71 343.02,-970.97 349.92,-972.16"/>
</g>
<!-- 25\n, -->
<g id="node26" class="node">
<title>25\n,</title>
<polygon fill="none" stroke="black" points="295,-1133 241,-1133 241,-1095 295,-1095 295,-1133"/>
<text text-anchor="middle" x="268" y="-1117.8" font-family="Times,serif" font-size="14.00">25</text>
<text text-anchor="middle" x="268" y="-1102.8" font-family="Times,serif" font-size="14.00">,</text>
</g>
<!-- 15\ndefend the Rock Radier HQ\nbuild up your defenses\narm your Rock Raiders&#45;&gt;25\n, -->
<g id="edge27" class="edge">
<title>15\ndefend the Rock Radier HQ\nbuild up your defenses\narm your Rock Raiders&#45;&gt;25\n,</title>
<path fill="none" stroke="black" d="M271.7,-1168.61C271.12,-1160.22 270.5,-1151.29 269.94,-1143.17"/>
<polygon fill="black" stroke="black" points="273.43,-1142.83 269.25,-1133.09 266.44,-1143.31 273.43,-1142.83"/>
</g>
<!-- 17\nclean up this mess\nget the Rock Raider HQ back in operation -->
<g id="node18" class="node">
<title>17\nclean up this mess\nget the Rock Raider HQ back in operation</title>
<polygon fill="none" stroke="black" points="751.5,-1059 504.5,-1059 504.5,-1006 751.5,-1006 751.5,-1059"/>
<text text-anchor="middle" x="628" y="-1043.8" font-family="Times,serif" font-size="14.00">17</text>
<text text-anchor="middle" x="628" y="-1028.8" font-family="Times,serif" font-size="14.00">clean up this mess</text>
<text text-anchor="middle" x="628" y="-1013.8" font-family="Times,serif" font-size="14.00">get the Rock Raider HQ back in operation</text>
</g>
<!-- 16\n[spawn_is_ruins]&#45;&gt;17\nclean up this mess\nget the Rock Raider HQ back in operation -->
<g id="edge28" class="edge">
<title>16\n[spawn_is_ruins]&#45;&gt;17\nclean up this mess\nget the Rock Raider HQ back in operation</title>
<path fill="none" stroke="black" d="M628,-1272.89C628,-1230.73 628,-1125.37 628,-1069.54"/>
<polygon fill="black" stroke="black" points="631.5,-1069.39 628,-1059.39 624.5,-1069.39 631.5,-1069.39"/>
</g>
<!-- 17\nclean up this mess\nget the Rock Raider HQ back in operation&#45;&gt;3\n[has_monsters] -->
<g id="edge30" class="edge">
<title>17\nclean up this mess\nget the Rock Raider HQ back in operation&#45;&gt;3\n[has_monsters]</title>
<path fill="none" stroke="black" d="M628,-1005.91C628,-973.39 628,-917.45 628,-883.72"/>
<polygon fill="black" stroke="black" points="631.5,-883.61 628,-873.61 624.5,-883.61 631.5,-883.61"/>
</g>
<!-- 17\nclean up this mess\nget the Rock Raider HQ back in operation&#45;&gt;24 -->
<g id="edge29" class="edge">
<title>17\nclean up this mess\nget the Rock Raider HQ back in operation&#45;&gt;24</title>
<path fill="none" stroke="black" d="M511.32,-1005.94C461.57,-994.18 409.78,-980.53 387,-970 385.18,-969.16 383.35,-968.22 381.53,-967.21"/>
<polygon fill="black" stroke="black" points="383.04,-964.03 372.69,-961.76 379.37,-969.99 383.04,-964.03"/>
</g>
<!-- 19\nreach the Rock Raider HQ\nlocate the base -->
<g id="node20" class="node">
<title>19\nreach the Rock Raider HQ\nlocate the base</title>
<polygon fill="none" stroke="black" points="557.5,-970 396.5,-970 396.5,-917 557.5,-917 557.5,-970"/>
<text text-anchor="middle" x="477" y="-954.8" font-family="Times,serif" font-size="14.00">19</text>
<text text-anchor="middle" x="477" y="-939.8" font-family="Times,serif" font-size="14.00">reach the Rock Raider HQ</text>
<text text-anchor="middle" x="477" y="-924.8" font-family="Times,serif" font-size="14.00">locate the base</text>
</g>
<!-- 18\n[find_hq]&#45;&gt;19\nreach the Rock Raider HQ\nlocate the base -->
<g id="edge31" class="edge">
<title>18\n[find_hq]&#45;&gt;19\nreach the Rock Raider HQ\nlocate the base</title>
<path fill="none" stroke="black" d="M457.18,-1013.47C459.97,-1003.77 463.51,-991.46 466.82,-979.94"/>
<polygon fill="black" stroke="black" points="470.25,-980.67 469.65,-970.09 463.52,-978.74 470.25,-980.67"/>
</g>
<!-- 19\nreach the Rock Raider HQ\nlocate the base&#45;&gt;3\n[has_monsters] -->
<g id="edge33" class="edge">
<title>19\nreach the Rock Raider HQ\nlocate the base&#45;&gt;3\n[has_monsters]</title>
<path fill="none" stroke="black" d="M521.49,-916.87C542.56,-904.73 567.52,-890.35 587.99,-878.55"/>
<polygon fill="black" stroke="black" points="589.83,-881.53 596.75,-873.51 586.34,-875.47 589.83,-881.53"/>
</g>
<!-- 20\nand use it to\n, and from there you can -->
<g id="node21" class="node">
<title>20\nand use it to\n, and from there you can</title>
<polygon fill="none" stroke="black" points="553,-881 401,-881 401,-828 553,-828 553,-881"/>
<text text-anchor="middle" x="477" y="-865.8" font-family="Times,serif" font-size="14.00">20</text>
<text text-anchor="middle" x="477" y="-850.8" font-family="Times,serif" font-size="14.00">and use it to</text>
<text text-anchor="middle" x="477" y="-835.8" font-family="Times,serif" font-size="14.00">, and from there you can</text>
</g>
<!-- 19\nreach the Rock Raider HQ\nlocate the base&#45;&gt;20\nand use it to\n, and from there you can -->
<g id="edge34" class="edge">
<title>19\nreach the Rock Raider HQ\nlocate the base&#45;&gt;20\nand use it to\n, and from there you can</title>
<path fill="none" stroke="black" d="M477,-916.87C477,-908.89 477,-899.93 477,-891.38"/>
<polygon fill="black" stroke="black" points="480.5,-891.25 477,-881.25 473.5,-891.25 480.5,-891.25"/>
</g>
<!-- 27\nand -->
<g id="node28" class="node">
<title>27\nand</title>
<polygon fill="none" stroke="black" points="383,-873.5 329,-873.5 329,-835.5 383,-835.5 383,-873.5"/>
<text text-anchor="middle" x="356" y="-858.3" font-family="Times,serif" font-size="14.00">27</text>
<text text-anchor="middle" x="356" y="-843.3" font-family="Times,serif" font-size="14.00">and</text>
</g>
<!-- 19\nreach the Rock Raider HQ\nlocate the base&#45;&gt;27\nand -->
<g id="edge32" class="edge">
<title>19\nreach the Rock Raider HQ\nlocate the base&#45;&gt;27\nand</title>
<path fill="none" stroke="black" d="M441.35,-916.87C424.85,-905 405.36,-890.99 389.17,-879.35"/>
<polygon fill="black" stroke="black" points="391.21,-876.5 381.04,-873.51 387.12,-882.19 391.21,-876.5"/>
</g>
<!-- 20\nand use it to\n, and from there you can&#45;&gt;8 -->
<g id="edge35" class="edge">
<title>20\nand use it to\n, and from there you can&#45;&gt;8</title>
<path fill="none" stroke="black" d="M414.07,-827.9C383.15,-815.33 346.98,-800.62 320.64,-789.9"/>
<polygon fill="black" stroke="black" points="321.64,-786.53 311.06,-786 319,-793.01 321.64,-786.53"/>
</g>
<!-- 21\n[collect_resources] -->
<g id="node22" class="node">
<title>21\n[collect_resources]</title>
<text text-anchor="middle" x="454" y="-348.8" font-family="Times,serif" font-size="14.00">21</text>
<text text-anchor="middle" x="454" y="-333.8" font-family="Times,serif" font-size="14.00">[collect_resources]</text>
</g>
<!-- 20\nand use it to\n, and from there you can&#45;&gt;21\n[collect_resources] -->
<g id="edge36" class="edge">
<title>20\nand use it to\n, and from there you can&#45;&gt;21\n[collect_resources]</title>
<path fill="none" stroke="black" d="M475.91,-827.77C474.72,-797.64 473,-746.2 473,-702 473,-702 473,-702 473,-529.5 473,-474.35 464.4,-410.37 458.78,-374.39"/>
<polygon fill="black" stroke="black" points="462.18,-373.49 457.14,-364.17 455.26,-374.59 462.18,-373.49"/>
</g>
<!-- 22\ncontinue our mining operation by collecting %(resources)s\ncollect %(resources)s -->
<g id="node23" class="node">
<title>22\ncontinue our mining operation by collecting %(resources)s\ncollect %(resources)s</title>
<polygon fill="none" stroke="black" points="623,-290 285,-290 285,-237 623,-237 623,-290"/>
<text text-anchor="middle" x="454" y="-274.8" font-family="Times,serif" font-size="14.00">22</text>
<text text-anchor="middle" x="454" y="-259.8" font-family="Times,serif" font-size="14.00">continue our mining operation by collecting %(resources)s</text>
<text text-anchor="middle" x="454" y="-244.8" font-family="Times,serif" font-size="14.00">collect %(resources)s</text>
</g>
<!-- 21\n[collect_resources]&#45;&gt;22\ncontinue our mining operation by collecting %(resources)s\ncollect %(resources)s -->
<g id="edge37" class="edge">
<title>21\n[collect_resources]&#45;&gt;22\ncontinue our mining operation by collecting %(resources)s\ncollect %(resources)s</title>
<path fill="none" stroke="black" d="M454,-325.96C454,-318.32 454,-309.14 454,-300.23"/>
<polygon fill="black" stroke="black" points="457.5,-300 454,-290 450.5,-300 457.5,-300"/>
</g>
<!-- 22\ncontinue our mining operation by collecting %(resources)s\ncollect %(resources)s&#45;&gt;31\n. -->
<g id="edge38" class="edge">
<title>22\ncontinue our mining operation by collecting %(resources)s\ncollect %(resources)s&#45;&gt;31\n.</title>
<path fill="none" stroke="black" d="M454,-236.91C454,-228.74 454,-219.65 454,-211.3"/>
<polygon fill="black" stroke="black" points="457.5,-211.24 454,-201.24 450.5,-211.24 457.5,-211.24"/>
</g>
<!-- 23\nWe&#39;re counting on you, Cadet!\nGood luck out there, Cadet! -->
<g id="node24" class="node">
<title>23\nWe&#39;re counting on you, Cadet!\nGood luck out there, Cadet!</title>
<polygon fill="none" stroke="black" points="606,-127 422,-127 422,-74 606,-74 606,-127"/>
<text text-anchor="middle" x="514" y="-111.8" font-family="Times,serif" font-size="14.00">23</text>
<text text-anchor="middle" x="514" y="-96.8" font-family="Times,serif" font-size="14.00">We&#39;re counting on you, Cadet!</text>
<text text-anchor="middle" x="514" y="-81.8" font-family="Times,serif" font-size="14.00">Good luck out there, Cadet!</text>
</g>
<!-- 23\nWe&#39;re counting on you, Cadet!\nGood luck out there, Cadet!&#45;&gt;1\n[end] -->
<g id="edge39" class="edge">
<title>23\nWe&#39;re counting on you, Cadet!\nGood luck out there, Cadet!&#45;&gt;1\n[end]</title>
<path fill="none" stroke="black" d="M494.69,-73.91C488.04,-65.1 480.59,-55.23 473.9,-46.36"/>
<polygon fill="black" stroke="black" points="476.58,-44.11 467.77,-38.24 471,-48.33 476.58,-44.11"/>
</g>
<!-- 24&#45;&gt;27\nand -->
<g id="edge40" class="edge">
<title>24&#45;&gt;27\nand</title>
<path fill="none" stroke="black" d="M351.99,-925.31C352.67,-913.51 353.58,-897.57 354.37,-883.9"/>
<polygon fill="black" stroke="black" points="357.88,-883.74 354.96,-873.55 350.89,-883.33 357.88,-883.74"/>
</g>
<!-- 28\n, then\nand -->
<g id="node29" class="node">
<title>28\n, then\nand</title>
<polygon fill="none" stroke="black" points="311,-881 257,-881 257,-828 311,-828 311,-881"/>
<text text-anchor="middle" x="284" y="-865.8" font-family="Times,serif" font-size="14.00">28</text>
<text text-anchor="middle" x="284" y="-850.8" font-family="Times,serif" font-size="14.00">, then</text>
<text text-anchor="middle" x="284" y="-835.8" font-family="Times,serif" font-size="14.00">and</text>
</g>
<!-- 24&#45;&gt;28\n, then\nand -->
<g id="edge41" class="edge">
<title>24&#45;&gt;28\n, then\nand</title>
<path fill="none" stroke="black" d="M337.76,-925.31C329.89,-915.09 319.63,-901.77 310.19,-889.5"/>
<polygon fill="black" stroke="black" points="312.69,-887.02 303.82,-881.23 307.15,-891.29 312.69,-887.02"/>
</g>
<!-- 25\n,&#45;&gt;5\nexplore the cavern -->
<g id="edge42" class="edge">
<title>25\n,&#45;&gt;5\nexplore the cavern</title>
<path fill="none" stroke="black" d="M266.41,-1094.96C265.55,-1085.17 264.46,-1072.85 263.49,-1061.81"/>
<polygon fill="black" stroke="black" points="266.97,-1061.4 262.61,-1051.74 260,-1062.01 266.97,-1061.4"/>
</g>
<!-- 26\n,&#45;&gt;2\nbuild the Rock Raider HQ\nbuild up your base -->
<g id="edge43" class="edge">
<title>26\n,&#45;&gt;2\nbuild the Rock Raider HQ\nbuild up your base</title>
<path fill="none" stroke="black" d="M536.36,-1107.77C581.1,-1099.08 672.88,-1080.69 759.79,-1059.24"/>
<polygon fill="black" stroke="black" points="760.68,-1062.63 769.54,-1056.82 758.99,-1055.84 760.68,-1062.63"/>
</g>
<!-- 26\n,&#45;&gt;18\n[find_hq] -->
<g id="edge44" class="edge">
<title>26\n,&#45;&gt;18\n[find_hq]</title>
<path fill="none" stroke="black" d="M496.07,-1094.96C488.68,-1084.67 479.29,-1071.57 471.08,-1060.11"/>
<polygon fill="black" stroke="black" points="473.75,-1057.83 465.08,-1051.74 468.06,-1061.91 473.75,-1057.83"/>
</g>
<!-- 27\nand&#45;&gt;21\n[collect_resources] -->
<g id="edge45" class="edge">
<title>27\nand&#45;&gt;21\n[collect_resources]</title>
<path fill="none" stroke="black" d="M372.75,-835.49C395.94,-808.6 435,-755.39 435,-702 435,-702 435,-702 435,-529.5 435,-474.35 443.6,-410.37 449.22,-374.39"/>
<polygon fill="black" stroke="black" points="452.74,-374.59 450.86,-364.17 445.82,-373.49 452.74,-374.59"/>
</g>
<!-- 28\n, then\nand&#45;&gt;8 -->
<g id="edge46" class="edge">
<title>28\n, then\nand&#45;&gt;8</title>
<path fill="none" stroke="black" d="M284,-827.8C284,-819.71 284,-810.76 284,-802.55"/>
<polygon fill="black" stroke="black" points="287.5,-802.33 284,-792.33 280.5,-802.33 287.5,-802.33"/>
</g>
<!-- 29\n. Then\n. Once you have done that,&#45;&gt;21\n[collect_resources] -->
<g id="edge47" class="edge">
<title>29\n. Then\n. Once you have done that,&#45;&gt;21\n[collect_resources]</title>
<path fill="none" stroke="black" d="M544.99,-407.37C527.4,-395.5 506.62,-381.49 489.37,-369.85"/>
<polygon fill="black" stroke="black" points="490.95,-366.7 480.7,-364.01 487.03,-372.5 490.95,-366.7"/>
</g>
<!-- 30\n. Once you have done that,\n. With them secure,\n. Along the way,&#45;&gt;21\n[collect_resources] -->
<g id="edge48" class="edge">
<title>30\n. Once you have done that,\n. With them secure,\n. Along the way,&#45;&gt;21\n[collect_resources]</title>
<path fill="none" stroke="black" d="M374.14,-399.86C388.86,-389.93 404.71,-379.24 418.38,-370.02"/>
<polygon fill="black" stroke="black" points="420.68,-372.69 427.01,-364.2 416.77,-366.89 420.68,-372.69"/>
</g>
<!-- 31\n.&#45;&gt;1\n[end] -->
<g id="edge49" class="edge">
<title>31\n.&#45;&gt;1\n[end]</title>
<path fill="none" stroke="black" d="M435.4,-162.81C426.8,-153.09 417.51,-140.39 413,-127 405.49,-104.68 405.49,-96.32 413,-74 416.38,-63.96 422.45,-54.3 428.9,-46.01"/>
<polygon fill="black" stroke="black" points="431.7,-48.12 435.4,-38.19 426.31,-43.65 431.7,-48.12"/>
</g>
<!-- 31\n.&#45;&gt;23\nWe&#39;re counting on you, Cadet!\nGood luck out there, Cadet! -->
<g id="edge50" class="edge">
<title>31\n.&#45;&gt;23\nWe&#39;re counting on you, Cadet!\nGood luck out there, Cadet!</title>
<path fill="none" stroke="black" d="M467.61,-162.96C473.82,-154.74 481.37,-144.73 488.57,-135.2"/>
<polygon fill="black" stroke="black" points="491.52,-137.09 494.75,-127 485.93,-132.88 491.52,-137.09"/>
</g>
</g>
</svg>
