<?xml version="1.0" encoding="UTF-8" standalone="no"?>
<!DOCTYPE svg PUBLIC "-//W3C//DTD SVG 1.1//EN"
 "http://www.w3.org/Graphics/SVG/1.1/DTD/svg11.dtd">
<!-- Generated by graphviz version 2.43.0 (0)
 -->
<!-- Title: G Pages: 1 -->
<svg width="2765pt" height="453pt"
 viewBox="0.00 0.00 2765.00 453.27" xmlns="http://www.w3.org/2000/svg" xmlns:xlink="http://www.w3.org/1999/xlink">
<g id="graph0" class="graph" transform="scale(1 1) rotate(0) translate(4 449.27)">
<title>G</title>
<polygon fill="white" stroke="transparent" points="-4,4 -4,-449.27 2761,-449.27 2761,4 -4,4"/>
<!-- 0\n[start] -->
<g id="node1" class="node">
<title>0\n[start]</title>
<text text-anchor="middle" x="27" y="-206.3" font-family="Times,serif" font-size="14.00" fill="blue">0</text>
<text text-anchor="middle" x="27" y="-191.3" font-family="Times,serif" font-size="14.00" fill="blue">[start]</text>
</g>
<!-- 2\nbuild the Rock Raider HQ\n\nbuild up your base -->
<g id="node3" class="node">
<title>2\nbuild the Rock Raider HQ\n\nbuild up your base</title>
<polygon fill="none" stroke="black" points="790.5,-223 630.5,-223 630.5,-154 790.5,-154 790.5,-223"/>
<text text-anchor="middle" x="710.5" y="-207.8" font-family="Times,serif" font-size="14.00">2</text>
<text text-anchor="middle" x="710.5" y="-192.8" font-family="Times,serif" font-size="14.00">build the Rock Raider HQ</text>
<text text-anchor="middle" x="710.5" y="-161.8" font-family="Times,serif" font-size="14.00">build up your base</text>
</g>
<!-- 0\n[start]&#45;&gt;2\nbuild the Rock Raider HQ\n\nbuild up your base -->
<g id="edge2" class="edge">
<title>0\n[start]&#45;&gt;2\nbuild the Rock Raider HQ\n\nbuild up your base</title>
<path fill="none" stroke="blue" d="M48.64,-183.41C59.95,-174.26 74.75,-164.27 90,-159.5 96.33,-157.52 591.52,-160.2 594,-160.5 602.63,-161.55 611.55,-163.01 620.43,-164.72"/>
<polygon fill="blue" stroke="blue" points="619.92,-168.19 630.42,-166.75 621.32,-161.33 619.92,-168.19"/>
</g>
<!-- 5\nexplore the cavern -->
<g id="node6" class="node">
<title>5\nexplore the cavern</title>
<polygon fill="none" stroke="black" points="769,-355.5 652,-355.5 652,-317.5 769,-317.5 769,-355.5"/>
<text text-anchor="middle" x="710.5" y="-340.3" font-family="Times,serif" font-size="14.00">5</text>
<text text-anchor="middle" x="710.5" y="-325.3" font-family="Times,serif" font-size="14.00">explore the cavern</text>
</g>
<!-- 0\n[start]&#45;&gt;5\nexplore the cavern -->
<g id="edge1" class="edge">
<title>0\n[start]&#45;&gt;5\nexplore the cavern</title>
<path fill="none" stroke="blue" d="M28.76,-221.67C31.31,-256.99 42.37,-331.73 90,-364.5 182.27,-427.98 482.79,-377.79 594,-364.5 609.63,-362.63 626.2,-359.39 641.76,-355.76"/>
<polygon fill="blue" stroke="blue" points="642.93,-359.08 651.83,-353.33 641.28,-352.28 642.93,-359.08"/>
</g>
<!-- 6\nmove to a safer cavern\n\nget your Rock Raiders to safety -->
<g id="node7" class="node">
<title>6\nmove to a safer cavern\n\nget your Rock Raiders to safety</title>
<polygon fill="none" stroke="black" points="308,-237 119,-237 119,-168 308,-168 308,-237"/>
<text text-anchor="middle" x="213.5" y="-221.8" font-family="Times,serif" font-size="14.00">6</text>
<text text-anchor="middle" x="213.5" y="-206.8" font-family="Times,serif" font-size="14.00">move to a safer cavern</text>
<text text-anchor="middle" x="213.5" y="-175.8" font-family="Times,serif" font-size="14.00">get your Rock Raiders to safety</text>
</g>
<!-- 0\n[start]&#45;&gt;6\nmove to a safer cavern\n\nget your Rock Raiders to safety -->
<g id="edge5" class="edge">
<title>0\n[start]&#45;&gt;6\nmove to a safer cavern\n\nget your Rock Raiders to safety</title>
<path fill="none" stroke="blue" d="M54.04,-202.5C68.81,-202.5 88.36,-202.5 108.68,-202.5"/>
<polygon fill="blue" stroke="blue" points="108.69,-206 118.69,-202.5 108.69,-199 108.69,-206"/>
</g>
<!-- 8 -->
<g id="node9" class="node">
<title>8</title>
<text text-anchor="middle" x="1211" y="-303.8" font-family="Times,serif" font-size="14.00">8</text>
</g>
<!-- 0\n[start]&#45;&gt;8 -->
<g id="edge7" class="edge">
<title>0\n[start]&#45;&gt;8</title>
<path fill="none" stroke="blue" d="M27.78,-221.77C28.48,-261.23 36.25,-351.03 90,-393.5 211.58,-489.56 282.56,-421.5 437.5,-421.5 437.5,-421.5 437.5,-421.5 862,-421.5 992.86,-421.5 1028.97,-405.89 1148,-351.5 1159.33,-346.32 1170.73,-338.99 1180.61,-331.78"/>
<polygon fill="blue" stroke="blue" points="1182.99,-334.37 1188.86,-325.54 1178.77,-328.78 1182.99,-334.37"/>
</g>
<!-- 14\ndefend the Rock Radier HQ\n\nbuild up your defenses\n\narm your Rock Raiders -->
<g id="node15" class="node">
<title>14\ndefend the Rock Radier HQ\n\nbuild up your defenses\n\narm your Rock Raiders</title>
<polygon fill="none" stroke="black" points="298,-355.5 129,-355.5 129,-255.5 298,-255.5 298,-355.5"/>
<text text-anchor="middle" x="213.5" y="-340.3" font-family="Times,serif" font-size="14.00">14</text>
<text text-anchor="middle" x="213.5" y="-325.3" font-family="Times,serif" font-size="14.00">defend the Rock Radier HQ</text>
<text text-anchor="middle" x="213.5" y="-294.3" font-family="Times,serif" font-size="14.00">build up your defenses</text>
<text text-anchor="middle" x="213.5" y="-263.3" font-family="Times,serif" font-size="14.00">arm your Rock Raiders</text>
</g>
<!-- 0\n[start]&#45;&gt;14\ndefend the Rock Radier HQ\n\nbuild up your defenses\n\narm your Rock Raiders -->
<g id="edge4" class="edge">
<title>0\n[start]&#45;&gt;14\ndefend the Rock Radier HQ\n\nbuild up your defenses\n\narm your Rock Raiders</title>
<path fill="none" stroke="blue" d="M52.99,-221.69C64.05,-229.79 77.38,-239.06 90,-246.5 99.51,-252.11 109.64,-257.64 119.84,-262.94"/>
<polygon fill="blue" stroke="blue" points="118.31,-266.09 128.81,-267.52 121.5,-259.86 118.31,-266.09"/>
</g>
<!-- 16\nclean up this mess\n\nget the Rock Raider HQ back in operation -->
<g id="node17" class="node">
<title>16\nclean up this mess\n\nget the Rock Raider HQ back in operation</title>
<polygon fill="none" stroke="black" points="337,-69 90,-69 90,0 337,0 337,-69"/>
<text text-anchor="middle" x="213.5" y="-53.8" font-family="Times,serif" font-size="14.00">16</text>
<text text-anchor="middle" x="213.5" y="-38.8" font-family="Times,serif" font-size="14.00">clean up this mess</text>
<text text-anchor="middle" x="213.5" y="-7.8" font-family="Times,serif" font-size="14.00">get the Rock Raider HQ back in operation</text>
</g>
<!-- 0\n[start]&#45;&gt;16\nclean up this mess\n\nget the Rock Raider HQ back in operation -->
<g id="edge3" class="edge">
<title>0\n[start]&#45;&gt;16\nclean up this mess\n\nget the Rock Raider HQ back in operation</title>
<path fill="none" stroke="blue" d="M33.91,-183.31C42.52,-158.22 60.75,-114.33 90,-87.5 95.05,-82.87 100.56,-78.6 106.37,-74.67"/>
<polygon fill="blue" stroke="blue" points="108.5,-77.47 115.07,-69.16 104.75,-71.56 108.5,-77.47"/>
</g>
<!-- 18\nreach the Rock Raider HQ\n\nlocate the base -->
<g id="node19" class="node">
<title>18\nreach the Rock Raider HQ\n\nlocate the base</title>
<polygon fill="none" stroke="black" points="791,-136 630,-136 630,-67 791,-67 791,-136"/>
<text text-anchor="middle" x="710.5" y="-120.8" font-family="Times,serif" font-size="14.00">18</text>
<text text-anchor="middle" x="710.5" y="-105.8" font-family="Times,serif" font-size="14.00">reach the Rock Raider HQ</text>
<text text-anchor="middle" x="710.5" y="-74.8" font-family="Times,serif" font-size="14.00">locate the base</text>
</g>
<!-- 0\n[start]&#45;&gt;18\nreach the Rock Raider HQ\n\nlocate the base -->
<g id="edge6" class="edge">
<title>0\n[start]&#45;&gt;18\nreach the Rock Raider HQ\n\nlocate the base</title>
<path fill="none" stroke="blue" d="M46.56,-183.49C58.03,-173.02 73.64,-160.88 90,-154.5 267.89,-85.08 495.75,-86.29 619.57,-93.67"/>
<polygon fill="blue" stroke="blue" points="619.56,-97.18 629.76,-94.31 620,-90.19 619.56,-97.18"/>
</g>
<!-- 1\n[end] -->
<g id="node2" class="node">
<title>1\n[end]</title>
<text text-anchor="middle" x="2730" y="-197.3" font-family="Times,serif" font-size="14.00" fill="blue">1</text>
<text text-anchor="middle" x="2730" y="-182.3" font-family="Times,serif" font-size="14.00" fill="blue">[end]</text>
</g>
<!-- 3\nand keep it safe\n\nand make sure it is heavily defended -->
<g id="node4" class="node">
<title>3\nand keep it safe\n\nand make sure it is heavily defended</title>
<polygon fill="none" stroke="black" points="1148,-111 931,-111 931,-42 1148,-42 1148,-111"/>
<text text-anchor="middle" x="1039.5" y="-95.8" font-family="Times,serif" font-size="14.00">3</text>
<text text-anchor="middle" x="1039.5" y="-80.8" font-family="Times,serif" font-size="14.00">and keep it safe</text>
<text text-anchor="middle" x="1039.5" y="-49.8" font-family="Times,serif" font-size="14.00">and make sure it is heavily defended</text>
</g>
<!-- 2\nbuild the Rock Raider HQ\n\nbuild up your base&#45;&gt;3\nand keep it safe\n\nand make sure it is heavily defended -->
<g id="edge9" class="edge">
<title>2\nbuild the Rock Raider HQ\n\nbuild up your base&#45;&gt;3\nand keep it safe\n\nand make sure it is heavily defended</title>
<path fill="none" stroke="black" d="M774.37,-153.86C798.19,-140.91 821.04,-128.76 827,-126.5 856.77,-115.21 889.88,-105.94 920.91,-98.57"/>
<polygon fill="black" stroke="black" points="921.96,-101.92 930.91,-96.24 920.37,-95.1 921.96,-101.92"/>
</g>
<!-- 24 -->
<g id="node25" class="node">
<title>24</title>
<text text-anchor="middle" x="861" y="-247.8" font-family="Times,serif" font-size="14.00">24</text>
</g>
<!-- 2\nbuild the Rock Raider HQ\n\nbuild up your base&#45;&gt;24 -->
<g id="edge8" class="edge">
<title>2\nbuild the Rock Raider HQ\n\nbuild up your base&#45;&gt;24</title>
<path fill="none" stroke="black" d="M790.53,-222.03C802.4,-227.06 814.09,-232.03 824.41,-236.4"/>
<polygon fill="black" stroke="black" points="823.27,-239.72 833.84,-240.4 826,-233.28 823.27,-239.72"/>
</g>
<!-- 4\n[has_monsters] -->
<g id="node5" class="node">
<title>4\n[has_monsters]</title>
<text text-anchor="middle" x="1716" y="-80.3" font-family="Times,serif" font-size="14.00" fill="blue">4</text>
<text text-anchor="middle" x="1716" y="-65.3" font-family="Times,serif" font-size="14.00" fill="blue">[has_monsters]</text>
</g>
<!-- 3\nand keep it safe\n\nand make sure it is heavily defended&#45;&gt;4\n[has_monsters] -->
<g id="edge10" class="edge">
<title>3\nand keep it safe\n\nand make sure it is heavily defended&#45;&gt;4\n[has_monsters]</title>
<path fill="none" stroke="blue" d="M1148.12,-76.5C1291.85,-76.5 1541.55,-76.5 1655.37,-76.5"/>
<polygon fill="blue" stroke="blue" points="1655.63,-80 1665.63,-76.5 1655.63,-73 1655.63,-80"/>
</g>
<!-- 29\n. Then\n\n. Once you have done that, -->
<g id="node30" class="node">
<title>29\n. Then\n\n. Once you have done that,</title>
<polygon fill="none" stroke="black" points="1966,-146 1802,-146 1802,-77 1966,-77 1966,-146"/>
<text text-anchor="middle" x="1884" y="-130.8" font-family="Times,serif" font-size="14.00">29</text>
<text text-anchor="middle" x="1884" y="-115.8" font-family="Times,serif" font-size="14.00">. Then</text>
<text text-anchor="middle" x="1884" y="-84.8" font-family="Times,serif" font-size="14.00">. Once you have done that,</text>
</g>
<!-- 4\n[has_monsters]&#45;&gt;29\n. Then\n\n. Once you have done that, -->
<g id="edge11" class="edge">
<title>4\n[has_monsters]&#45;&gt;29\n. Then\n\n. Once you have done that,</title>
<path fill="none" stroke="blue" d="M1766.36,-86.91C1774.48,-88.62 1783.12,-90.44 1791.89,-92.29"/>
<polygon fill="blue" stroke="blue" points="1791.3,-95.74 1801.81,-94.38 1792.75,-88.89 1791.3,-95.74"/>
</g>
<!-- 31\n. -->
<g id="node32" class="node">
<title>31\n.</title>
<polygon fill="none" stroke="black" points="2447,-212.5 2393,-212.5 2393,-174.5 2447,-174.5 2447,-212.5"/>
<text text-anchor="middle" x="2420" y="-197.3" font-family="Times,serif" font-size="14.00">31</text>
<text text-anchor="middle" x="2420" y="-182.3" font-family="Times,serif" font-size="14.00">.</text>
</g>
<!-- 4\n[has_monsters]&#45;&gt;31\n. -->
<g id="edge12" class="edge">
<title>4\n[has_monsters]&#45;&gt;31\n.</title>
<path fill="none" stroke="blue" d="M1766.33,-70.13C1816.72,-64.69 1897.09,-59 1966,-67.5 2143.8,-89.44 2187.8,-106.62 2357,-165.5 2365.75,-168.55 2374.96,-172.36 2383.53,-176.17"/>
<polygon fill="blue" stroke="blue" points="2382.32,-179.47 2392.87,-180.45 2385.24,-173.1 2382.32,-179.47"/>
</g>
<!-- 5\nexplore the cavern&#45;&gt;24 -->
<g id="edge13" class="edge">
<title>5\nexplore the cavern&#45;&gt;24</title>
<path fill="none" stroke="black" d="M762.88,-317.41C772.44,-313.24 782.18,-308.55 791,-303.5 804.86,-295.57 819.12,-285.25 831.06,-275.89"/>
<polygon fill="black" stroke="black" points="833.29,-278.59 838.91,-269.61 828.92,-273.12 833.29,-278.59"/>
</g>
<!-- 7\n[spawn_has_erosion] -->
<g id="node8" class="node">
<title>7\n[spawn_has_erosion]</title>
<text text-anchor="middle" x="438.5" y="-206.3" font-family="Times,serif" font-size="14.00" fill="blue">7</text>
<text text-anchor="middle" x="438.5" y="-191.3" font-family="Times,serif" font-size="14.00" fill="blue">[spawn_has_erosion]</text>
</g>
<!-- 6\nmove to a safer cavern\n\nget your Rock Raiders to safety&#45;&gt;7\n[spawn_has_erosion] -->
<g id="edge14" class="edge">
<title>6\nmove to a safer cavern\n\nget your Rock Raiders to safety&#45;&gt;7\n[spawn_has_erosion]</title>
<path fill="none" stroke="blue" d="M308.1,-202.5C326.34,-202.5 345.23,-202.5 362.75,-202.5"/>
<polygon fill="blue" stroke="blue" points="362.9,-206 372.9,-202.5 362.9,-199 362.9,-206"/>
</g>
<!-- 7\n[spawn_has_erosion]&#45;&gt;24 -->
<g id="edge15" class="edge">
<title>7\n[spawn_has_erosion]&#45;&gt;24</title>
<path fill="none" stroke="blue" d="M504.14,-213.89C540.94,-220.07 587.95,-227.46 630,-232.5 698.13,-240.67 778.05,-246.41 823.48,-249.32"/>
<polygon fill="blue" stroke="blue" points="823.52,-252.83 833.72,-249.96 823.96,-245.84 823.52,-252.83"/>
</g>
<!-- 25\n, -->
<g id="node26" class="node">
<title>25\n,</title>
<polygon fill="none" stroke="black" points="594,-207.5 540,-207.5 540,-169.5 594,-169.5 594,-207.5"/>
<text text-anchor="middle" x="567" y="-192.3" font-family="Times,serif" font-size="14.00">25</text>
<text text-anchor="middle" x="567" y="-177.3" font-family="Times,serif" font-size="14.00">,</text>
</g>
<!-- 7\n[spawn_has_erosion]&#45;&gt;25\n, -->
<g id="edge16" class="edge">
<title>7\n[spawn_has_erosion]&#45;&gt;25\n,</title>
<path fill="none" stroke="blue" d="M504.23,-195.34C513.02,-194.36 521.78,-193.39 529.81,-192.5"/>
<polygon fill="blue" stroke="blue" points="530.35,-195.97 539.9,-191.39 529.58,-189.01 530.35,-195.97"/>
</g>
<!-- 9\nfind the lost Rock Raider\n\nlocate the missing Rock Raider -->
<g id="node10" class="node">
<title>9\nfind the lost Rock Raider\n\nlocate the missing Rock Raider</title>
<polygon fill="none" stroke="black" points="1464.5,-408 1276.5,-408 1276.5,-339 1464.5,-339 1464.5,-408"/>
<text text-anchor="middle" x="1370.5" y="-392.8" font-family="Times,serif" font-size="14.00">9</text>
<text text-anchor="middle" x="1370.5" y="-377.8" font-family="Times,serif" font-size="14.00">find the lost Rock Raider</text>
<text text-anchor="middle" x="1370.5" y="-346.8" font-family="Times,serif" font-size="14.00">locate the missing Rock Raider</text>
</g>
<!-- 8&#45;&gt;9\nfind the lost Rock Raider\n\nlocate the missing Rock Raider -->
<g id="edge17" class="edge">
<title>8&#45;&gt;9\nfind the lost Rock Raider\n\nlocate the missing Rock Raider</title>
<path fill="none" stroke="black" d="M1238.01,-318.4C1249.19,-323.08 1262.99,-328.87 1277.42,-334.91"/>
<polygon fill="black" stroke="black" points="1276.38,-338.27 1286.96,-338.91 1279.09,-331.82 1276.38,-338.27"/>
</g>
<!-- 11\nfind the lost Rock Raiders\n\nlocate the missing Rock Raiders -->
<g id="node12" class="node">
<title>11\nfind the lost Rock Raiders\n\nlocate the missing Rock Raiders</title>
<polygon fill="none" stroke="black" points="1467,-321 1274,-321 1274,-252 1467,-252 1467,-321"/>
<text text-anchor="middle" x="1370.5" y="-305.8" font-family="Times,serif" font-size="14.00">11</text>
<text text-anchor="middle" x="1370.5" y="-290.8" font-family="Times,serif" font-size="14.00">find the lost Rock Raiders</text>
<text text-anchor="middle" x="1370.5" y="-259.8" font-family="Times,serif" font-size="14.00">locate the missing Rock Raiders</text>
</g>
<!-- 8&#45;&gt;11\nfind the lost Rock Raiders\n\nlocate the missing Rock Raiders -->
<g id="edge18" class="edge">
<title>8&#45;&gt;11\nfind the lost Rock Raiders\n\nlocate the missing Rock Raiders</title>
<path fill="none" stroke="black" d="M1238.01,-304.03C1245.59,-303.02 1254.39,-301.85 1263.77,-300.6"/>
<polygon fill="black" stroke="black" points="1264.27,-304.06 1273.72,-299.27 1263.35,-297.12 1264.27,-304.06"/>
</g>
<!-- 10\n[lost_miners_one] -->
<g id="node11" class="node">
<title>10\n[lost_miners_one]</title>
<text text-anchor="middle" x="1566.5" y="-369.3" font-family="Times,serif" font-size="14.00" fill="blue">10</text>
<text text-anchor="middle" x="1566.5" y="-354.3" font-family="Times,serif" font-size="14.00" fill="blue">[lost_miners_one]</text>
</g>
<!-- 9\nfind the lost Rock Raider\n\nlocate the missing Rock Raider&#45;&gt;10\n[lost_miners_one] -->
<g id="edge19" class="edge">
<title>9\nfind the lost Rock Raider\n\nlocate the missing Rock Raider&#45;&gt;10\n[lost_miners_one]</title>
<path fill="none" stroke="blue" d="M1464.52,-369.66C1475.87,-369.2 1487.29,-368.73 1498.16,-368.28"/>
<polygon fill="blue" stroke="blue" points="1498.55,-371.76 1508.4,-367.85 1498.26,-364.77 1498.55,-371.76"/>
</g>
<!-- 13 -->
<g id="node14" class="node">
<title>13</title>
<text text-anchor="middle" x="1716" y="-315.8" font-family="Times,serif" font-size="14.00">13</text>
</g>
<!-- 10\n[lost_miners_one]&#45;&gt;13 -->
<g id="edge20" class="edge">
<title>10\n[lost_miners_one]&#45;&gt;13</title>
<path fill="none" stroke="blue" d="M1624.53,-347.72C1642.92,-341.98 1662.78,-335.78 1679.2,-330.67"/>
<polygon fill="blue" stroke="blue" points="1680.42,-333.95 1688.93,-327.63 1678.34,-327.27 1680.42,-333.95"/>
</g>
<!-- 12\n[lost_miners_many] -->
<g id="node13" class="node">
<title>12\n[lost_miners_many]</title>
<text text-anchor="middle" x="1566.5" y="-298.3" font-family="Times,serif" font-size="14.00" fill="blue">12</text>
<text text-anchor="middle" x="1566.5" y="-283.3" font-family="Times,serif" font-size="14.00" fill="blue">[lost_miners_many]</text>
</g>
<!-- 11\nfind the lost Rock Raiders\n\nlocate the missing Rock Raiders&#45;&gt;12\n[lost_miners_many] -->
<g id="edge21" class="edge">
<title>11\nfind the lost Rock Raiders\n\nlocate the missing Rock Raiders&#45;&gt;12\n[lost_miners_many]</title>
<path fill="none" stroke="blue" d="M1467.08,-290.44C1475.71,-290.8 1484.37,-291.15 1492.76,-291.5"/>
<polygon fill="blue" stroke="blue" points="1492.71,-295 1502.85,-291.92 1493,-288.01 1492.71,-295"/>
</g>
<!-- 12\n[lost_miners_many]&#45;&gt;13 -->
<g id="edge22" class="edge">
<title>12\n[lost_miners_many]&#45;&gt;13</title>
<path fill="none" stroke="blue" d="M1630.05,-305.1C1646.61,-307.91 1663.93,-310.84 1678.58,-313.33"/>
<polygon fill="blue" stroke="blue" points="1678.29,-316.83 1688.73,-315.05 1679.46,-309.93 1678.29,-316.83"/>
</g>
<!-- 30\n. Once you have done that,\n\n. With them secure,\n\n. Along the way, -->
<g id="node31" class="node">
<title>30\n. Once you have done that,\n\n. With them secure,\n\n. Along the way,</title>
<polygon fill="none" stroke="black" points="1966,-340.5 1802,-340.5 1802,-240.5 1966,-240.5 1966,-340.5"/>
<text text-anchor="middle" x="1884" y="-325.3" font-family="Times,serif" font-size="14.00">30</text>
<text text-anchor="middle" x="1884" y="-310.3" font-family="Times,serif" font-size="14.00">. Once you have done that,</text>
<text text-anchor="middle" x="1884" y="-279.3" font-family="Times,serif" font-size="14.00">. With them secure,</text>
<text text-anchor="middle" x="1884" y="-248.3" font-family="Times,serif" font-size="14.00">. Along the way,</text>
</g>
<!-- 13&#45;&gt;30\n. Once you have done that,\n\n. With them secure,\n\n. Along the way, -->
<g id="edge23" class="edge">
<title>13&#45;&gt;30\n. Once you have done that,\n\n. With them secure,\n\n. Along the way,</title>
<path fill="none" stroke="black" d="M1743.3,-314.9C1756.8,-312.55 1774.13,-309.52 1791.96,-306.4"/>
<polygon fill="black" stroke="black" points="1792.65,-309.84 1801.9,-304.67 1791.45,-302.94 1792.65,-309.84"/>
</g>
<!-- 13&#45;&gt;31\n. -->
<g id="edge24" class="edge">
<title>13&#45;&gt;31\n.</title>
<path fill="none" stroke="black" d="M1743.18,-331.34C1759.68,-338.15 1781.64,-346.01 1802,-349.5 1873.84,-361.81 1894.02,-360.98 1966,-349.5 2127.54,-323.73 2308.24,-245.49 2383.31,-210.6"/>
<polygon fill="black" stroke="black" points="2385.2,-213.58 2392.78,-206.17 2382.24,-207.24 2385.2,-213.58"/>
</g>
<!-- 15\n[has_monsters] -->
<g id="node16" class="node">
<title>15\n[has_monsters]</title>
<text text-anchor="middle" x="438.5" y="-309.3" font-family="Times,serif" font-size="14.00" fill="blue">15</text>
<text text-anchor="middle" x="438.5" y="-294.3" font-family="Times,serif" font-size="14.00" fill="blue">[has_monsters]</text>
</g>
<!-- 14\ndefend the Rock Radier HQ\n\nbuild up your defenses\n\narm your Rock Raiders&#45;&gt;15\n[has_monsters] -->
<g id="edge25" class="edge">
<title>14\ndefend the Rock Radier HQ\n\nbuild up your defenses\n\narm your Rock Raiders&#45;&gt;15\n[has_monsters]</title>
<path fill="none" stroke="blue" d="M298.17,-305.5C324.77,-305.5 353.63,-305.5 378.15,-305.5"/>
<polygon fill="blue" stroke="blue" points="378.37,-309 388.37,-305.5 378.37,-302 378.37,-309"/>
</g>
<!-- 15\n[has_monsters]&#45;&gt;24 -->
<g id="edge26" class="edge">
<title>15\n[has_monsters]&#45;&gt;24</title>
<path fill="none" stroke="blue" d="M488.56,-299.2C574.02,-288.23 748.26,-265.85 823.76,-256.15"/>
<polygon fill="blue" stroke="blue" points="824.27,-259.62 833.74,-254.87 823.38,-252.67 824.27,-259.62"/>
</g>
<!-- 27\n, -->
<g id="node28" class="node">
<title>27\n,</title>
<polygon fill="none" stroke="black" points="594,-355.5 540,-355.5 540,-317.5 594,-317.5 594,-355.5"/>
<text text-anchor="middle" x="567" y="-340.3" font-family="Times,serif" font-size="14.00">27</text>
<text text-anchor="middle" x="567" y="-325.3" font-family="Times,serif" font-size="14.00">,</text>
</g>
<!-- 15\n[has_monsters]&#45;&gt;27\n, -->
<g id="edge27" class="edge">
<title>15\n[has_monsters]&#45;&gt;27\n,</title>
<path fill="none" stroke="blue" d="M488.77,-317.57C502.46,-320.93 517.06,-324.51 529.84,-327.64"/>
<polygon fill="blue" stroke="blue" points="529.11,-331.06 539.65,-330.04 530.77,-324.26 529.11,-331.06"/>
</g>
<!-- 17\n[spawn_is_ruins] -->
<g id="node18" class="node">
<title>17\n[spawn_is_ruins]</title>
<text text-anchor="middle" x="710.5" y="-33.3" font-family="Times,serif" font-size="14.00" fill="blue">17</text>
<text text-anchor="middle" x="710.5" y="-18.3" font-family="Times,serif" font-size="14.00" fill="blue">[spawn_is_ruins]</text>
</g>
<!-- 16\nclean up this mess\n\nget the Rock Raider HQ back in operation&#45;&gt;17\n[spawn_is_ruins] -->
<g id="edge28" class="edge">
<title>16\nclean up this mess\n\nget the Rock Raider HQ back in operation&#45;&gt;17\n[spawn_is_ruins]</title>
<path fill="none" stroke="blue" d="M337.18,-33.26C434.73,-32.28 567.32,-30.94 645.12,-30.15"/>
<polygon fill="blue" stroke="blue" points="645.29,-33.65 655.26,-30.05 645.22,-26.65 645.29,-33.65"/>
</g>
<!-- 17\n[spawn_is_ruins]&#45;&gt;3\nand keep it safe\n\nand make sure it is heavily defended -->
<g id="edge30" class="edge">
<title>17\n[spawn_is_ruins]&#45;&gt;3\nand keep it safe\n\nand make sure it is heavily defended</title>
<path fill="none" stroke="blue" d="M765.86,-37.31C807.92,-43.36 867.71,-51.95 920.58,-59.55"/>
<polygon fill="blue" stroke="blue" points="920.31,-63.05 930.71,-61.01 921.31,-56.12 920.31,-63.05"/>
</g>
<!-- 17\n[spawn_is_ruins]&#45;&gt;24 -->
<g id="edge29" class="edge">
<title>17\n[spawn_is_ruins]&#45;&gt;24</title>
<path fill="none" stroke="blue" d="M765.7,-40.74C775.1,-44.74 784.07,-50.16 791,-57.5 830.67,-99.55 806.46,-128.46 827,-182.5 832.38,-196.64 839.51,-211.87 845.76,-224.41"/>
<polygon fill="blue" stroke="blue" points="842.68,-226.08 850.33,-233.41 848.93,-222.91 842.68,-226.08"/>
</g>
<!-- 19\n[find_hq] -->
<g id="node20" class="node">
<title>19\n[find_hq]</title>
<text text-anchor="middle" x="861" y="-158.3" font-family="Times,serif" font-size="14.00" fill="blue">19</text>
<text text-anchor="middle" x="861" y="-143.3" font-family="Times,serif" font-size="14.00" fill="blue">[find_hq]</text>
</g>
<!-- 18\nreach the Rock Raider HQ\n\nlocate the base&#45;&gt;19\n[find_hq] -->
<g id="edge31" class="edge">
<title>18\nreach the Rock Raider HQ\n\nlocate the base&#45;&gt;19\n[find_hq]</title>
<path fill="none" stroke="blue" d="M791.4,-130.02C800.28,-133.19 809.06,-136.32 817.21,-139.23"/>
<polygon fill="blue" stroke="blue" points="816.22,-142.59 826.81,-142.66 818.57,-136 816.22,-142.59"/>
</g>
<!-- 19\n[find_hq]&#45;&gt;3\nand keep it safe\n\nand make sure it is heavily defended -->
<g id="edge32" class="edge">
<title>19\n[find_hq]&#45;&gt;3\nand keep it safe\n\nand make sure it is heavily defended</title>
<path fill="none" stroke="blue" d="M895.05,-136.98C906.35,-131.2 919.13,-124.87 931,-119.5 934.21,-118.05 937.49,-116.59 940.8,-115.14"/>
<polygon fill="blue" stroke="blue" points="942.44,-118.25 950.23,-111.07 939.66,-111.82 942.44,-118.25"/>
</g>
<!-- 20\nand use it to\n\n, and from there you can -->
<g id="node21" class="node">
<title>20\nand use it to\n\n, and from there you can</title>
<polygon fill="none" stroke="black" points="1115.5,-198 963.5,-198 963.5,-129 1115.5,-129 1115.5,-198"/>
<text text-anchor="middle" x="1039.5" y="-182.8" font-family="Times,serif" font-size="14.00">20</text>
<text text-anchor="middle" x="1039.5" y="-167.8" font-family="Times,serif" font-size="14.00">and use it to</text>
<text text-anchor="middle" x="1039.5" y="-136.8" font-family="Times,serif" font-size="14.00">, and from there you can</text>
</g>
<!-- 19\n[find_hq]&#45;&gt;20\nand use it to\n\n, and from there you can -->
<g id="edge33" class="edge">
<title>19\n[find_hq]&#45;&gt;20\nand use it to\n\n, and from there you can</title>
<path fill="none" stroke="blue" d="M895.2,-156.19C911.76,-157.04 932.63,-158.1 953.28,-159.15"/>
<polygon fill="blue" stroke="blue" points="953.21,-162.66 963.38,-159.67 953.57,-155.66 953.21,-162.66"/>
</g>
<!-- 28\nand -->
<g id="node29" class="node">
<title>28\nand</title>
<polygon fill="none" stroke="black" points="1066.5,-254.5 1012.5,-254.5 1012.5,-216.5 1066.5,-216.5 1066.5,-254.5"/>
<text text-anchor="middle" x="1039.5" y="-239.3" font-family="Times,serif" font-size="14.00">28</text>
<text text-anchor="middle" x="1039.5" y="-224.3" font-family="Times,serif" font-size="14.00">and</text>
</g>
<!-- 19\n[find_hq]&#45;&gt;28\nand -->
<g id="edge34" class="edge">
<title>19\n[find_hq]&#45;&gt;28\nand</title>
<path fill="none" stroke="blue" d="M882.28,-173.59C895.3,-184.92 913.09,-198.74 931,-207.5 953.48,-218.5 980.79,-225.54 1002.26,-229.81"/>
<polygon fill="blue" stroke="blue" points="1001.81,-233.29 1012.28,-231.69 1003.1,-226.41 1001.81,-233.29"/>
</g>
<!-- 20\nand use it to\n\n, and from there you can&#45;&gt;8 -->
<g id="edge35" class="edge">
<title>20\nand use it to\n\n, and from there you can&#45;&gt;8</title>
<path fill="none" stroke="black" d="M1115.69,-187.1C1127.23,-192.68 1138.45,-199.42 1148,-207.5 1171.23,-227.15 1188.42,-257.79 1198.73,-279.98"/>
<polygon fill="black" stroke="black" points="1195.58,-281.51 1202.85,-289.21 1201.97,-278.65 1195.58,-281.51"/>
</g>
<!-- 21\ncontinue our mining operation by\ncollecting %(resources)s\n\ncollect %(resources)s -->
<g id="node22" class="node">
<title>21\ncontinue our mining operation by\ncollecting %(resources)s\n\ncollect %(resources)s</title>
<polygon fill="none" stroke="black" points="2202,-235.5 2002,-235.5 2002,-151.5 2202,-151.5 2202,-235.5"/>
<text text-anchor="middle" x="2102" y="-220.3" font-family="Times,serif" font-size="14.00">21</text>
<text text-anchor="middle" x="2102" y="-205.3" font-family="Times,serif" font-size="14.00">continue our mining operation by</text>
<text text-anchor="middle" x="2102" y="-190.3" font-family="Times,serif" font-size="14.00">collecting %(resources)s</text>
<text text-anchor="middle" x="2102" y="-159.3" font-family="Times,serif" font-size="14.00">collect %(resources)s</text>
</g>
<!-- 20\nand use it to\n\n, and from there you can&#45;&gt;21\ncontinue our mining operation by\ncollecting %(resources)s\n\ncollect %(resources)s -->
<g id="edge36" class="edge">
<title>20\nand use it to\n\n, and from there you can&#45;&gt;21\ncontinue our mining operation by\ncollecting %(resources)s\n\ncollect %(resources)s</title>
<path fill="none" stroke="black" d="M1115.61,-167.44C1182.28,-170.6 1282.35,-174.5 1369.5,-174.5 1369.5,-174.5 1369.5,-174.5 1717,-174.5 1809.63,-174.5 1914.67,-180.08 1991.45,-185.2"/>
<polygon fill="black" stroke="black" points="1991.4,-188.7 2001.61,-185.88 1991.87,-181.72 1991.4,-188.7"/>
</g>
<!-- 22\n[collect_resources] -->
<g id="node23" class="node">
<title>22\n[collect_resources]</title>
<text text-anchor="middle" x="2297.5" y="-197.3" font-family="Times,serif" font-size="14.00" fill="blue">22</text>
<text text-anchor="middle" x="2297.5" y="-182.3" font-family="Times,serif" font-size="14.00" fill="blue">[collect_resources]</text>
</g>
<!-- 21\ncontinue our mining operation by\ncollecting %(resources)s\n\ncollect %(resources)s&#45;&gt;22\n[collect_resources] -->
<g id="edge37" class="edge">
<title>21\ncontinue our mining operation by\ncollecting %(resources)s\n\ncollect %(resources)s&#45;&gt;22\n[collect_resources]</title>
<path fill="none" stroke="blue" d="M2202.02,-193.5C2210.74,-193.5 2219.44,-193.5 2227.84,-193.5"/>
<polygon fill="blue" stroke="blue" points="2227.9,-197 2237.9,-193.5 2227.9,-190 2227.9,-197"/>
</g>
<!-- 22\n[collect_resources]&#45;&gt;31\n. -->
<g id="edge38" class="edge">
<title>22\n[collect_resources]&#45;&gt;31\n.</title>
<path fill="none" stroke="blue" d="M2357.34,-193.5C2365.98,-193.5 2374.66,-193.5 2382.66,-193.5"/>
<polygon fill="blue" stroke="blue" points="2382.74,-197 2392.74,-193.5 2382.74,-190 2382.74,-197"/>
</g>
<!-- 23\nWe&#39;re counting on you, Cadet!\n\nGood luck out there, Cadet! -->
<g id="node24" class="node">
<title>23\nWe&#39;re counting on you, Cadet!\n\nGood luck out there, Cadet!</title>
<polygon fill="none" stroke="black" points="2667,-197 2483,-197 2483,-128 2667,-128 2667,-197"/>
<text text-anchor="middle" x="2575" y="-181.8" font-family="Times,serif" font-size="14.00">23</text>
<text text-anchor="middle" x="2575" y="-166.8" font-family="Times,serif" font-size="14.00">We&#39;re counting on you, Cadet!</text>
<text text-anchor="middle" x="2575" y="-135.8" font-family="Times,serif" font-size="14.00">Good luck out there, Cadet!</text>
</g>
<!-- 23\nWe&#39;re counting on you, Cadet!\n\nGood luck out there, Cadet!&#45;&gt;1\n[end] -->
<g id="edge39" class="edge">
<title>23\nWe&#39;re counting on you, Cadet!\n\nGood luck out there, Cadet!&#45;&gt;1\n[end]</title>
<path fill="none" stroke="blue" d="M2667.21,-180.98C2676.29,-182.82 2685.08,-184.6 2693.04,-186.21"/>
<polygon fill="blue" stroke="blue" points="2692.5,-189.68 2702.99,-188.23 2693.89,-182.81 2692.5,-189.68"/>
</g>
<!-- 26\n, then\n\nand -->
<g id="node27" class="node">
<title>26\n, then\n\nand</title>
<polygon fill="none" stroke="black" points="1066.5,-342 1012.5,-342 1012.5,-273 1066.5,-273 1066.5,-342"/>
<text text-anchor="middle" x="1039.5" y="-326.8" font-family="Times,serif" font-size="14.00">26</text>
<text text-anchor="middle" x="1039.5" y="-311.8" font-family="Times,serif" font-size="14.00">, then</text>
<text text-anchor="middle" x="1039.5" y="-280.8" font-family="Times,serif" font-size="14.00">and</text>
</g>
<!-- 24&#45;&gt;26\n, then\n\nand -->
<g id="edge40" class="edge">
<title>24&#45;&gt;26\n, then\n\nand</title>
<path fill="none" stroke="black" d="M888.04,-259.76C918.42,-269.4 968.79,-285.38 1002.79,-296.17"/>
<polygon fill="black" stroke="black" points="1001.76,-299.51 1012.35,-299.2 1003.88,-292.84 1001.76,-299.51"/>
</g>
<!-- 24&#45;&gt;28\nand -->
<g id="edge41" class="edge">
<title>24&#45;&gt;28\nand</title>
<path fill="none" stroke="black" d="M888.04,-249.14C918.28,-246.4 968.36,-241.86 1002.35,-238.78"/>
<polygon fill="black" stroke="black" points="1002.71,-242.26 1012.35,-237.87 1002.07,-235.29 1002.71,-242.26"/>
</g>
<!-- 25\n,&#45;&gt;2\nbuild the Rock Raider HQ\n\nbuild up your base -->
<g id="edge42" class="edge">
<title>25\n,&#45;&gt;2\nbuild the Rock Raider HQ\n\nbuild up your base</title>
<path fill="none" stroke="black" d="M594.28,-188.5C601.97,-188.5 610.84,-188.5 620.17,-188.5"/>
<polygon fill="black" stroke="black" points="620.44,-192 630.44,-188.5 620.44,-185 620.44,-192"/>
</g>
<!-- 25\n,&#45;&gt;18\nreach the Rock Raider HQ\n\nlocate the base -->
<g id="edge43" class="edge">
<title>25\n,&#45;&gt;18\nreach the Rock Raider HQ\n\nlocate the base</title>
<path fill="none" stroke="black" d="M593.47,-169.37C604.49,-161.37 617.67,-152.17 630,-144.5 631.7,-143.44 633.43,-142.39 635.17,-141.33"/>
<polygon fill="black" stroke="black" points="637.23,-144.18 644.05,-136.07 633.67,-138.15 637.23,-144.18"/>
</g>
<!-- 26\n, then\n\nand&#45;&gt;8 -->
<g id="edge44" class="edge">
<title>26\n, then\n\nand&#45;&gt;8</title>
<path fill="none" stroke="black" d="M1066.61,-307.5C1095.23,-307.5 1141.34,-307.5 1173.52,-307.5"/>
<polygon fill="black" stroke="black" points="1173.86,-311 1183.86,-307.5 1173.86,-304 1173.86,-311"/>
</g>
<!-- 27\n,&#45;&gt;5\nexplore the cavern -->
<g id="edge45" class="edge">
<title>27\n,&#45;&gt;5\nexplore the cavern</title>
<path fill="none" stroke="black" d="M594.28,-336.5C607.72,-336.5 624.75,-336.5 641.57,-336.5"/>
<polygon fill="black" stroke="black" points="641.99,-340 651.99,-336.5 641.99,-333 641.99,-340"/>
</g>
<!-- 28\nand&#45;&gt;21\ncontinue our mining operation by\ncollecting %(resources)s\n\ncollect %(resources)s -->
<g id="edge46" class="edge">
<title>28\nand&#45;&gt;21\ncontinue our mining operation by\ncollecting %(resources)s\n\ncollect %(resources)s</title>
<path fill="none" stroke="black" d="M1066.9,-232.4C1122.68,-226.12 1256.7,-212.5 1369.5,-212.5 1369.5,-212.5 1369.5,-212.5 1717,-212.5 1809.63,-212.5 1914.67,-206.92 1991.45,-201.8"/>
<polygon fill="black" stroke="black" points="1991.87,-205.28 2001.61,-201.12 1991.4,-198.3 1991.87,-205.28"/>
</g>
<!-- 29\n. Then\n\n. Once you have done that,&#45;&gt;21\ncontinue our mining operation by\ncollecting %(resources)s\n\ncollect %(resources)s -->
<g id="edge47" class="edge">
<title>29\n. Then\n\n. Once you have done that,&#45;&gt;21\ncontinue our mining operation by\ncollecting %(resources)s\n\ncollect %(resources)s</title>
<path fill="none" stroke="black" d="M1966.04,-142.27C1974.66,-145.54 1983.52,-148.9 1992.39,-152.27"/>
<polygon fill="black" stroke="black" points="1991.4,-155.64 2002,-155.92 1993.89,-149.09 1991.4,-155.64"/>
</g>
<!-- 30\n. Once you have done that,\n\n. With them secure,\n\n. Along the way,&#45;&gt;21\ncontinue our mining operation by\ncollecting %(resources)s\n\ncollect %(resources)s -->
<g id="edge48" class="edge">
<title>30\n. Once you have done that,\n\n. With them secure,\n\n. Along the way,&#45;&gt;21\ncontinue our mining operation by\ncollecting %(resources)s\n\ncollect %(resources)s</title>
<path fill="none" stroke="black" d="M1966.04,-254.1C1976.41,-249.45 1987.14,-244.63 1997.8,-239.84"/>
<polygon fill="black" stroke="black" points="1999.45,-242.94 2007.14,-235.65 1996.59,-236.55 1999.45,-242.94"/>
</g>
<!-- 31\n.&#45;&gt;1\n[end] -->
<g id="edge49" class="edge">
<title>31\n.&#45;&gt;1\n[end]</title>
<path fill="none" stroke="blue" d="M2447.06,-200.21C2458.07,-202.72 2471.08,-205.26 2483,-206.5 2564.34,-214.94 2585.66,-214.94 2667,-206.5 2675.48,-205.62 2684.5,-204.08 2692.97,-202.37"/>
<polygon fill="blue" stroke="blue" points="2693.91,-205.74 2702.94,-200.21 2692.43,-198.9 2693.91,-205.74"/>
</g>
<!-- 31\n.&#45;&gt;23\nWe&#39;re counting on you, Cadet!\n\nGood luck out there, Cadet! -->
<g id="edge50" class="edge">
<title>31\n.&#45;&gt;23\nWe&#39;re counting on you, Cadet!\n\nGood luck out there, Cadet!</title>
<path fill="none" stroke="black" d="M2447.3,-188.17C2454.91,-186.63 2463.71,-184.85 2473.05,-182.95"/>
<polygon fill="black" stroke="black" points="2473.84,-186.36 2482.95,-180.95 2472.45,-179.5 2473.84,-186.36"/>
</g>
</g>
</svg>
