<?xml version="1.0" encoding="UTF-8" standalone="no"?>
<!DOCTYPE svg PUBLIC "-//W3C//DTD SVG 1.1//EN"
 "http://www.w3.org/Graphics/SVG/1.1/DTD/svg11.dtd">
<!-- Generated by graphviz version 2.43.0 (0)
 -->
<!-- Title: G Pages: 1 -->
<svg width="3547pt" height="508pt"
 viewBox="0.00 0.00 3546.94 507.90" xmlns="http://www.w3.org/2000/svg" xmlns:xlink="http://www.w3.org/1999/xlink">
<g id="graph0" class="graph" transform="scale(1 1) rotate(0) translate(4 503.9)">
<title>G</title>
<polygon fill="white" stroke="transparent" points="-4,4 -4,-503.9 3542.94,-503.9 3542.94,4 -4,4"/>
<!-- 0\n[start] -->
<g id="node1" class="node">
<title>0\n[start]</title>
<ellipse fill="none" stroke="green" cx="34.65" cy="-230.37" rx="34.8" ry="34.8"/>
<text text-anchor="middle" x="34.65" y="-234.17" font-family="Times,serif" font-size="14.00" fill="green">0</text>
<text text-anchor="middle" x="34.65" y="-219.17" font-family="Times,serif" font-size="14.00" fill="green">[start]</text>
</g>
<!-- 2\nbuild the Rock Raider HQ\nbuild up your base -->
<g id="node3" class="node">
<title>2\nbuild the Rock Raider HQ\nbuild up your base</title>
<polygon fill="none" stroke="black" points="861.8,-487.87 701.8,-487.87 701.8,-434.87 861.8,-434.87 861.8,-487.87"/>
<text text-anchor="middle" x="781.8" y="-472.67" font-family="Times,serif" font-size="14.00">2</text>
<text text-anchor="middle" x="781.8" y="-457.67" font-family="Times,serif" font-size="14.00">build the Rock Raider HQ</text>
<text text-anchor="middle" x="781.8" y="-442.67" font-family="Times,serif" font-size="14.00">build up your base</text>
</g>
<!-- 0\n[start]&#45;&gt;2\nbuild the Rock Raider HQ\nbuild up your base -->
<g id="edge2" class="edge">
<title>0\n[start]&#45;&gt;2\nbuild the Rock Raider HQ\nbuild up your base</title>
<path fill="none" stroke="green" stroke-dasharray="5,2" d="M39.9,-264.96C46.62,-303.73 63.55,-365.34 105.3,-397.37 277.44,-529.48 551.59,-504.61 691.82,-480.27"/>
<polygon fill="green" stroke="green" points="692.45,-483.71 701.69,-478.52 691.23,-476.82 692.45,-483.71"/>
</g>
<!-- 5\nexplore the cavern -->
<g id="node6" class="node">
<title>5\nexplore the cavern</title>
<polygon fill="none" stroke="black" points="840.3,-121.37 723.3,-121.37 723.3,-83.37 840.3,-83.37 840.3,-121.37"/>
<text text-anchor="middle" x="781.8" y="-106.17" font-family="Times,serif" font-size="14.00">5</text>
<text text-anchor="middle" x="781.8" y="-91.17" font-family="Times,serif" font-size="14.00">explore the cavern</text>
</g>
<!-- 0\n[start]&#45;&gt;5\nexplore the cavern -->
<g id="edge4" class="edge">
<title>0\n[start]&#45;&gt;5\nexplore the cavern</title>
<path fill="none" stroke="green" stroke-dasharray="5,2" d="M43.82,-196.77C53.16,-166.24 71.72,-122.8 105.3,-101.37 210.33,-34.37 541.59,-59.59 665.3,-74.37 680.93,-76.24 697.5,-79.48 713.06,-83.11"/>
<polygon fill="green" stroke="green" points="712.58,-86.6 723.12,-85.54 714.22,-79.79 712.58,-86.6"/>
</g>
<!-- 6\nmove to a safer cavern\nget your Rock Raiders to safety\nmake sure your Rock Raiders are safe -->
<g id="node7" class="node">
<title>6\nmove to a safer cavern\nget your Rock Raiders to safety\nmake sure your Rock Raiders are safe</title>
<polygon fill="none" stroke="black" points="340.8,-264.37 116.8,-264.37 116.8,-196.37 340.8,-196.37 340.8,-264.37"/>
<text text-anchor="middle" x="228.8" y="-249.17" font-family="Times,serif" font-size="14.00">6</text>
<text text-anchor="middle" x="228.8" y="-234.17" font-family="Times,serif" font-size="14.00">move to a safer cavern</text>
<text text-anchor="middle" x="228.8" y="-219.17" font-family="Times,serif" font-size="14.00">get your Rock Raiders to safety</text>
<text text-anchor="middle" x="228.8" y="-204.17" font-family="Times,serif" font-size="14.00">make sure your Rock Raiders are safe</text>
</g>
<!-- 0\n[start]&#45;&gt;6\nmove to a safer cavern\nget your Rock Raiders to safety\nmake sure your Rock Raiders are safe -->
<g id="edge1" class="edge">
<title>0\n[start]&#45;&gt;6\nmove to a safer cavern\nget your Rock Raiders to safety\nmake sure your Rock Raiders are safe</title>
<path fill="none" stroke="green" stroke-dasharray="5,2" d="M69.56,-230.37C80.38,-230.37 93.04,-230.37 106.4,-230.37"/>
<polygon fill="green" stroke="green" points="106.74,-233.87 116.74,-230.37 106.74,-226.87 106.74,-233.87"/>
</g>
<!-- 8 -->
<g id="node9" class="node">
<title>8</title>
<text text-anchor="middle" x="1282.3" y="-142.67" font-family="Times,serif" font-size="14.00">8</text>
</g>
<!-- 0\n[start]&#45;&gt;8 -->
<g id="edge7" class="edge">
<title>0\n[start]&#45;&gt;8</title>
<path fill="none" stroke="green" stroke-dasharray="5,2" d="M38.84,-195.94C44.61,-155.09 60.69,-88.28 105.3,-54.37 228.94,39.62 297.48,-17.37 452.8,-17.37 452.8,-17.37 452.8,-17.37 933.3,-17.37 1054.34,-17.37 1185.13,-86.84 1246.18,-123.82"/>
<polygon fill="green" stroke="green" points="1244.67,-127 1255.02,-129.24 1248.33,-121.03 1244.67,-127"/>
</g>
<!-- 18\ndefend the Rock Radier HQ\nbuild up your defenses\narm your Rock Raiders -->
<g id="node19" class="node">
<title>18\ndefend the Rock Radier HQ\nbuild up your defenses\narm your Rock Raiders</title>
<polygon fill="none" stroke="black" points="313.3,-178.37 144.3,-178.37 144.3,-110.37 313.3,-110.37 313.3,-178.37"/>
<text text-anchor="middle" x="228.8" y="-163.17" font-family="Times,serif" font-size="14.00">18</text>
<text text-anchor="middle" x="228.8" y="-148.17" font-family="Times,serif" font-size="14.00">defend the Rock Radier HQ</text>
<text text-anchor="middle" x="228.8" y="-133.17" font-family="Times,serif" font-size="14.00">build up your defenses</text>
<text text-anchor="middle" x="228.8" y="-118.17" font-family="Times,serif" font-size="14.00">arm your Rock Raiders</text>
</g>
<!-- 0\n[start]&#45;&gt;18\ndefend the Rock Radier HQ\nbuild up your defenses\narm your Rock Raiders -->
<g id="edge3" class="edge">
<title>0\n[start]&#45;&gt;18\ndefend the Rock Radier HQ\nbuild up your defenses\narm your Rock Raiders</title>
<path fill="none" stroke="green" stroke-dasharray="5,2" d="M63.67,-211.16C76.08,-203.16 91.06,-194.17 105.3,-187.37 114.62,-182.92 124.54,-178.69 134.53,-174.73"/>
<polygon fill="green" stroke="green" points="136.05,-177.9 144.12,-171.03 133.53,-171.37 136.05,-177.9"/>
</g>
<!-- 20\nclean up this mess\nget the Rock Raider HQ back in operation -->
<g id="node21" class="node">
<title>20\nclean up this mess\nget the Rock Raider HQ back in operation</title>
<polygon fill="none" stroke="black" points="352.3,-335.87 105.3,-335.87 105.3,-282.87 352.3,-282.87 352.3,-335.87"/>
<text text-anchor="middle" x="228.8" y="-320.67" font-family="Times,serif" font-size="14.00">20</text>
<text text-anchor="middle" x="228.8" y="-305.67" font-family="Times,serif" font-size="14.00">clean up this mess</text>
<text text-anchor="middle" x="228.8" y="-290.67" font-family="Times,serif" font-size="14.00">get the Rock Raider HQ back in operation</text>
</g>
<!-- 0\n[start]&#45;&gt;20\nclean up this mess\nget the Rock Raider HQ back in operation -->
<g id="edge5" class="edge">
<title>0\n[start]&#45;&gt;20\nclean up this mess\nget the Rock Raider HQ back in operation</title>
<path fill="none" stroke="green" stroke-dasharray="5,2" d="M63.5,-249.95C75.88,-258.01 90.89,-266.95 105.3,-273.37 109.92,-275.44 114.7,-277.42 119.56,-279.32"/>
<polygon fill="green" stroke="green" points="118.41,-282.62 129,-282.86 120.87,-276.07 118.41,-282.62"/>
</g>
<!-- 22\nreach the Rock Raider HQ\nlocate the base -->
<g id="node23" class="node">
<title>22\nreach the Rock Raider HQ\nlocate the base</title>
<polygon fill="none" stroke="black" points="862.3,-416.87 701.3,-416.87 701.3,-363.87 862.3,-363.87 862.3,-416.87"/>
<text text-anchor="middle" x="781.8" y="-401.67" font-family="Times,serif" font-size="14.00">22</text>
<text text-anchor="middle" x="781.8" y="-386.67" font-family="Times,serif" font-size="14.00">reach the Rock Raider HQ</text>
<text text-anchor="middle" x="781.8" y="-371.67" font-family="Times,serif" font-size="14.00">locate the base</text>
</g>
<!-- 0\n[start]&#45;&gt;22\nreach the Rock Raider HQ\nlocate the base -->
<g id="edge6" class="edge">
<title>0\n[start]&#45;&gt;22\nreach the Rock Raider HQ\nlocate the base</title>
<path fill="none" stroke="green" stroke-dasharray="5,2" d="M46.05,-263.2C56.46,-290.18 75.3,-326.86 105.3,-345.37 287.88,-458.08 553.57,-432.93 690.99,-409.22"/>
<polygon fill="green" stroke="green" points="691.82,-412.62 701.06,-407.44 690.6,-405.73 691.82,-412.62"/>
</g>
<!-- 1\n[end] -->
<g id="node2" class="node">
<title>1\n[end]</title>
<ellipse fill="none" stroke="green" cx="3507.12" cy="-300.37" rx="31.64" ry="31.64"/>
<text text-anchor="middle" x="3507.12" y="-304.17" font-family="Times,serif" font-size="14.00" fill="green">1</text>
<text text-anchor="middle" x="3507.12" y="-289.17" font-family="Times,serif" font-size="14.00" fill="green">[end]</text>
</g>
<!-- 3\nand keep it safe\nand make sure it is heavily defended -->
<g id="node4" class="node">
<title>3\nand keep it safe\nand make sure it is heavily defended</title>
<polygon fill="none" stroke="black" points="1219.3,-373.87 1002.3,-373.87 1002.3,-320.87 1219.3,-320.87 1219.3,-373.87"/>
<text text-anchor="middle" x="1110.8" y="-358.67" font-family="Times,serif" font-size="14.00">3</text>
<text text-anchor="middle" x="1110.8" y="-343.67" font-family="Times,serif" font-size="14.00">and keep it safe</text>
<text text-anchor="middle" x="1110.8" y="-328.67" font-family="Times,serif" font-size="14.00">and make sure it is heavily defended</text>
</g>
<!-- 2\nbuild the Rock Raider HQ\nbuild up your base&#45;&gt;3\nand keep it safe\nand make sure it is heavily defended -->
<g id="edge9" class="edge">
<title>2\nbuild the Rock Raider HQ\nbuild up your base&#45;&gt;3\nand keep it safe\nand make sure it is heavily defended</title>
<path fill="none" stroke="black" d="M859.05,-434.79C908.43,-417.58 972.82,-395.13 1023.98,-377.29"/>
<polygon fill="black" stroke="black" points="1025.41,-380.5 1033.7,-373.9 1023.11,-373.89 1025.41,-380.5"/>
</g>
<!-- 31 -->
<g id="node32" class="node">
<title>31</title>
<text text-anchor="middle" x="932.3" y="-196.67" font-family="Times,serif" font-size="14.00">31</text>
</g>
<!-- 2\nbuild the Rock Raider HQ\nbuild up your base&#45;&gt;31 -->
<g id="edge8" class="edge">
<title>2\nbuild the Rock Raider HQ\nbuild up your base&#45;&gt;31</title>
<path fill="none" stroke="black" d="M854.02,-434.76C857.04,-432.21 859.83,-429.42 862.3,-426.37 911.48,-365.7 869.51,-326.98 898.3,-254.37 901.98,-245.07 907.22,-235.56 912.44,-227.16"/>
<polygon fill="black" stroke="black" points="915.53,-228.83 918.03,-218.54 909.65,-225.03 915.53,-228.83"/>
</g>
<!-- 4\n[has_monsters] -->
<g id="node5" class="node">
<title>4\n[has_monsters]</title>
<text text-anchor="middle" x="1850.3" y="-351.17" font-family="Times,serif" font-size="14.00" fill="blue">4</text>
<text text-anchor="middle" x="1850.3" y="-336.17" font-family="Times,serif" font-size="14.00" fill="blue">[has_monsters]</text>
</g>
<!-- 3\nand keep it safe\nand make sure it is heavily defended&#45;&gt;4\n[has_monsters] -->
<g id="edge10" class="edge">
<title>3\nand keep it safe\nand make sure it is heavily defended&#45;&gt;4\n[has_monsters]</title>
<path fill="none" stroke="blue" d="M1219.43,-347.37C1377.11,-347.37 1665.63,-347.37 1789.84,-347.37"/>
<polygon fill="blue" stroke="blue" points="1789.92,-350.87 1799.92,-347.37 1789.92,-343.87 1789.92,-350.87"/>
</g>
<!-- 37\n. -->
<g id="node38" class="node">
<title>37\n.</title>
<polygon fill="none" stroke="black" points="2413.3,-366.37 2359.3,-366.37 2359.3,-328.37 2413.3,-328.37 2413.3,-366.37"/>
<text text-anchor="middle" x="2386.3" y="-351.17" font-family="Times,serif" font-size="14.00">37</text>
<text text-anchor="middle" x="2386.3" y="-336.17" font-family="Times,serif" font-size="14.00">.</text>
</g>
<!-- 4\n[has_monsters]&#45;&gt;37\n. -->
<g id="edge11" class="edge">
<title>4\n[has_monsters]&#45;&gt;37\n.</title>
<path fill="none" stroke="blue" d="M1900.58,-347.37C2006.86,-347.37 2255.56,-347.37 2348.97,-347.37"/>
<polygon fill="blue" stroke="blue" points="2349.07,-350.87 2359.07,-347.37 2349.07,-343.87 2349.07,-350.87"/>
</g>
<!-- 5\nexplore the cavern&#45;&gt;31 -->
<g id="edge12" class="edge">
<title>5\nexplore the cavern&#45;&gt;31</title>
<path fill="none" stroke="black" d="M836.33,-121.45C845.28,-125.52 854.27,-130.18 862.3,-135.37 879.27,-146.36 895.85,-161.78 908.5,-174.84"/>
<polygon fill="black" stroke="black" points="906.05,-177.35 915.47,-182.21 911.14,-172.54 906.05,-177.35"/>
</g>
<!-- 7\n[spawn_has_erosion] -->
<g id="node8" class="node">
<title>7\n[spawn_has_erosion]</title>
<text text-anchor="middle" x="453.8" y="-236.17" font-family="Times,serif" font-size="14.00" fill="blue">7</text>
<text text-anchor="middle" x="453.8" y="-221.17" font-family="Times,serif" font-size="14.00" fill="blue">[spawn_has_erosion]</text>
</g>
<!-- 6\nmove to a safer cavern\nget your Rock Raiders to safety\nmake sure your Rock Raiders are safe&#45;&gt;7\n[spawn_has_erosion] -->
<g id="edge13" class="edge">
<title>6\nmove to a safer cavern\nget your Rock Raiders to safety\nmake sure your Rock Raiders are safe&#45;&gt;7\n[spawn_has_erosion]</title>
<path fill="none" stroke="blue" d="M340.97,-231.37C353.46,-231.48 365.95,-231.6 377.82,-231.7"/>
<polygon fill="blue" stroke="blue" points="378.05,-235.2 388.08,-231.79 378.11,-228.2 378.05,-235.2"/>
</g>
<!-- 25\nas soon as possible\nas soon as you can -->
<g id="node26" class="node">
<title>25\nas soon as possible\nas soon as you can</title>
<polygon fill="none" stroke="black" points="841.8,-268.87 721.8,-268.87 721.8,-215.87 841.8,-215.87 841.8,-268.87"/>
<text text-anchor="middle" x="781.8" y="-253.67" font-family="Times,serif" font-size="14.00">25</text>
<text text-anchor="middle" x="781.8" y="-238.67" font-family="Times,serif" font-size="14.00">as soon as possible</text>
<text text-anchor="middle" x="781.8" y="-223.67" font-family="Times,serif" font-size="14.00">as soon as you can</text>
</g>
<!-- 7\n[spawn_has_erosion]&#45;&gt;25\nas soon as possible\nas soon as you can -->
<g id="edge15" class="edge">
<title>7\n[spawn_has_erosion]&#45;&gt;25\nas soon as possible\nas soon as you can</title>
<path fill="none" stroke="blue" d="M519.59,-234.36C575.01,-236.06 654.56,-238.5 711.29,-240.24"/>
<polygon fill="blue" stroke="blue" points="711.5,-243.75 721.61,-240.56 711.72,-236.75 711.5,-243.75"/>
</g>
<!-- 7\n[spawn_has_erosion]&#45;&gt;31 -->
<g id="edge14" class="edge">
<title>7\n[spawn_has_erosion]&#45;&gt;31</title>
<path fill="none" stroke="blue" d="M519.31,-224.57C568.98,-218.87 639.38,-211.45 701.3,-207.37 769.57,-202.88 849.44,-201.27 894.82,-200.69"/>
<polygon fill="blue" stroke="blue" points="895.09,-204.19 905.05,-200.57 895.01,-197.19 895.09,-204.19"/>
</g>
<!-- 32\n, -->
<g id="node33" class="node">
<title>32\n,</title>
<polygon fill="none" stroke="black" points="637.3,-372.37 583.3,-372.37 583.3,-334.37 637.3,-334.37 637.3,-372.37"/>
<text text-anchor="middle" x="610.3" y="-357.17" font-family="Times,serif" font-size="14.00">32</text>
<text text-anchor="middle" x="610.3" y="-342.17" font-family="Times,serif" font-size="14.00">,</text>
</g>
<!-- 7\n[spawn_has_erosion]&#45;&gt;32\n, -->
<g id="edge16" class="edge">
<title>7\n[spawn_has_erosion]&#45;&gt;32\n,</title>
<path fill="none" stroke="blue" d="M472.4,-251.46C491.52,-271.49 523.59,-303.1 555.3,-325.37 561.1,-329.45 567.58,-333.32 573.98,-336.81"/>
<polygon fill="blue" stroke="blue" points="572.72,-340.1 583.2,-341.62 575.96,-333.89 572.72,-340.1"/>
</g>
<!-- 9\nfind the lost Rock Raider\nlocate the missing Rock Raider -->
<g id="node10" class="node">
<title>9\nfind the lost Rock Raider\nlocate the missing Rock Raider</title>
<polygon fill="none" stroke="black" points="1560.8,-248.87 1372.8,-248.87 1372.8,-195.87 1560.8,-195.87 1560.8,-248.87"/>
<text text-anchor="middle" x="1466.8" y="-233.67" font-family="Times,serif" font-size="14.00">9</text>
<text text-anchor="middle" x="1466.8" y="-218.67" font-family="Times,serif" font-size="14.00">find the lost Rock Raider</text>
<text text-anchor="middle" x="1466.8" y="-203.67" font-family="Times,serif" font-size="14.00">locate the missing Rock Raider</text>
</g>
<!-- 8&#45;&gt;9\nfind the lost Rock Raider\nlocate the missing Rock Raider -->
<g id="edge19" class="edge">
<title>8&#45;&gt;9\nfind the lost Rock Raider\nlocate the missing Rock Raider</title>
<path fill="none" stroke="black" d="M1307.71,-164.41C1318.77,-171.97 1332.27,-180.37 1345.3,-186.37 1351.02,-189.01 1356.99,-191.51 1363.07,-193.87"/>
<polygon fill="black" stroke="black" points="1362.11,-197.25 1372.7,-197.47 1364.56,-190.69 1362.11,-197.25"/>
</g>
<!-- 11\nfind the cavern with the lost Rock\nRaiders\nlocate the missing group of Rock Raiders -->
<g id="node12" class="node">
<title>11\nfind the cavern with the lost Rock\nRaiders\nlocate the missing group of Rock Raiders</title>
<polygon fill="none" stroke="black" points="1588.3,-177.37 1345.3,-177.37 1345.3,-109.37 1588.3,-109.37 1588.3,-177.37"/>
<text text-anchor="middle" x="1466.8" y="-162.17" font-family="Times,serif" font-size="14.00">11</text>
<text text-anchor="middle" x="1466.8" y="-147.17" font-family="Times,serif" font-size="14.00">find the cavern with the lost Rock</text>
<text text-anchor="middle" x="1466.8" y="-132.17" font-family="Times,serif" font-size="14.00">Raiders</text>
<text text-anchor="middle" x="1466.8" y="-117.17" font-family="Times,serif" font-size="14.00">locate the missing group of Rock Raiders</text>
</g>
<!-- 8&#45;&gt;11\nfind the cavern with the lost Rock\nRaiders\nlocate the missing group of Rock Raiders -->
<g id="edge18" class="edge">
<title>8&#45;&gt;11\nfind the cavern with the lost Rock\nRaiders\nlocate the missing group of Rock Raiders</title>
<path fill="none" stroke="black" d="M1309.44,-145.94C1316.83,-145.82 1325.4,-145.68 1334.65,-145.53"/>
<polygon fill="black" stroke="black" points="1334.99,-149.03 1344.93,-145.36 1334.87,-142.03 1334.99,-149.03"/>
</g>
<!-- 13\nfind the lost Rock Raiders\nlocate the missing Rock Raiders -->
<g id="node14" class="node">
<title>13\nfind the lost Rock Raiders\nlocate the missing Rock Raiders</title>
<polygon fill="none" stroke="black" points="1563.3,-90.87 1370.3,-90.87 1370.3,-37.87 1563.3,-37.87 1563.3,-90.87"/>
<text text-anchor="middle" x="1466.8" y="-75.67" font-family="Times,serif" font-size="14.00">13</text>
<text text-anchor="middle" x="1466.8" y="-60.67" font-family="Times,serif" font-size="14.00">find the lost Rock Raiders</text>
<text text-anchor="middle" x="1466.8" y="-45.67" font-family="Times,serif" font-size="14.00">locate the missing Rock Raiders</text>
</g>
<!-- 8&#45;&gt;13\nfind the lost Rock Raiders\nlocate the missing Rock Raiders -->
<g id="edge17" class="edge">
<title>8&#45;&gt;13\nfind the lost Rock Raiders\nlocate the missing Rock Raiders</title>
<path fill="none" stroke="black" d="M1303.9,-128.23C1315.43,-118.84 1330.44,-107.82 1345.3,-100.37 1350.24,-97.9 1355.38,-95.56 1360.64,-93.36"/>
<polygon fill="black" stroke="black" points="1362.21,-96.5 1370.2,-89.54 1359.61,-90 1362.21,-96.5"/>
</g>
<!-- 10\n[lost_miners_one] -->
<g id="node11" class="node">
<title>10\n[lost_miners_one]</title>
<text text-anchor="middle" x="1694.3" y="-214.17" font-family="Times,serif" font-size="14.00" fill="blue">10</text>
<text text-anchor="middle" x="1694.3" y="-199.17" font-family="Times,serif" font-size="14.00" fill="blue">[lost_miners_one]</text>
</g>
<!-- 9\nfind the lost Rock Raider\nlocate the missing Rock Raider&#45;&gt;10\n[lost_miners_one] -->
<g id="edge20" class="edge">
<title>9\nfind the lost Rock Raider\nlocate the missing Rock Raider&#45;&gt;10\n[lost_miners_one]</title>
<path fill="none" stroke="blue" d="M1560.82,-217.42C1582.61,-216.26 1605.42,-215.05 1625.85,-213.96"/>
<polygon fill="blue" stroke="blue" points="1626.19,-217.45 1635.99,-213.42 1625.82,-210.46 1626.19,-217.45"/>
</g>
<!-- 15 -->
<g id="node16" class="node">
<title>15</title>
<text text-anchor="middle" x="1850.3" y="-139.67" font-family="Times,serif" font-size="14.00">15</text>
</g>
<!-- 10\n[lost_miners_one]&#45;&gt;15 -->
<g id="edge21" class="edge">
<title>10\n[lost_miners_one]&#45;&gt;15</title>
<path fill="none" stroke="blue" d="M1739.01,-191.35C1762.56,-181.11 1791.25,-168.63 1813.47,-158.96"/>
<polygon fill="blue" stroke="blue" points="1815.09,-162.07 1822.87,-154.87 1812.3,-155.65 1815.09,-162.07"/>
</g>
<!-- 12\n[lost_miners_together] -->
<g id="node13" class="node">
<title>12\n[lost_miners_together]</title>
<text text-anchor="middle" x="1694.3" y="-147.17" font-family="Times,serif" font-size="14.00" fill="blue">12</text>
<text text-anchor="middle" x="1694.3" y="-132.17" font-family="Times,serif" font-size="14.00" fill="blue">[lost_miners_together]</text>
</g>
<!-- 11\nfind the cavern with the lost Rock\nRaiders\nlocate the missing group of Rock Raiders&#45;&gt;12\n[lost_miners_together] -->
<g id="edge22" class="edge">
<title>11\nfind the cavern with the lost Rock\nRaiders\nlocate the missing group of Rock Raiders&#45;&gt;12\n[lost_miners_together]</title>
<path fill="none" stroke="blue" d="M1588.47,-143.37C1597.18,-143.37 1605.83,-143.37 1614.2,-143.37"/>
<polygon fill="blue" stroke="blue" points="1614.27,-146.87 1624.26,-143.37 1614.26,-139.87 1614.27,-146.87"/>
</g>
<!-- 12\n[lost_miners_together]&#45;&gt;15 -->
<g id="edge23" class="edge">
<title>12\n[lost_miners_together]&#45;&gt;15</title>
<path fill="none" stroke="blue" d="M1764.64,-143.37C1781.34,-143.37 1798.53,-143.37 1813.02,-143.37"/>
<polygon fill="blue" stroke="blue" points="1813.04,-146.87 1823.04,-143.37 1813.04,-139.87 1813.04,-146.87"/>
</g>
<!-- 14\n[lost_miners_apart] -->
<g id="node15" class="node">
<title>14\n[lost_miners_apart]</title>
<text text-anchor="middle" x="1694.3" y="-80.17" font-family="Times,serif" font-size="14.00" fill="blue">14</text>
<text text-anchor="middle" x="1694.3" y="-65.17" font-family="Times,serif" font-size="14.00" fill="blue">[lost_miners_apart]</text>
</g>
<!-- 13\nfind the lost Rock Raiders\nlocate the missing Rock Raiders&#45;&gt;14\n[lost_miners_apart] -->
<g id="edge24" class="edge">
<title>13\nfind the lost Rock Raiders\nlocate the missing Rock Raiders&#45;&gt;14\n[lost_miners_apart]</title>
<path fill="none" stroke="blue" d="M1563.43,-69.46C1583.18,-70.51 1603.65,-71.6 1622.33,-72.6"/>
<polygon fill="blue" stroke="blue" points="1622.34,-76.1 1632.51,-73.14 1622.71,-69.11 1622.34,-76.1"/>
</g>
<!-- 14\n[lost_miners_apart]&#45;&gt;15 -->
<g id="edge25" class="edge">
<title>14\n[lost_miners_apart]&#45;&gt;15</title>
<path fill="none" stroke="blue" d="M1739.01,-95.39C1762.56,-105.64 1791.25,-118.12 1813.47,-127.79"/>
<polygon fill="blue" stroke="blue" points="1812.3,-131.1 1822.87,-131.88 1815.09,-124.68 1812.3,-131.1"/>
</g>
<!-- 16\nbefore the %(monster_type)s monsters do! -->
<g id="node17" class="node">
<title>16\nbefore the %(monster_type)s monsters do!</title>
<polygon fill="none" stroke="black" points="2187.3,-139.37 1936.3,-139.37 1936.3,-101.37 2187.3,-101.37 2187.3,-139.37"/>
<text text-anchor="middle" x="2061.8" y="-124.17" font-family="Times,serif" font-size="14.00">16</text>
<text text-anchor="middle" x="2061.8" y="-109.17" font-family="Times,serif" font-size="14.00">before the %(monster_type)s monsters do!</text>
</g>
<!-- 15&#45;&gt;16\nbefore the %(monster_type)s monsters do! -->
<g id="edge27" class="edge">
<title>15&#45;&gt;16\nbefore the %(monster_type)s monsters do!</title>
<path fill="none" stroke="black" d="M1877.41,-140.51C1890.52,-139.07 1907.5,-137.2 1925.83,-135.19"/>
<polygon fill="black" stroke="black" points="1926.27,-138.66 1935.83,-134.09 1925.51,-131.71 1926.27,-138.66"/>
</g>
<!-- 39\n. -->
<g id="node40" class="node">
<title>39\n.</title>
<polygon fill="none" stroke="black" points="2088.8,-195.37 2034.8,-195.37 2034.8,-157.37 2088.8,-157.37 2088.8,-195.37"/>
<text text-anchor="middle" x="2061.8" y="-180.17" font-family="Times,serif" font-size="14.00">39</text>
<text text-anchor="middle" x="2061.8" y="-165.17" font-family="Times,serif" font-size="14.00">.</text>
</g>
<!-- 15&#45;&gt;39\n. -->
<g id="edge26" class="edge">
<title>15&#45;&gt;39\n.</title>
<path fill="none" stroke="black" d="M1877.41,-147.49C1914.52,-153.33 1982.66,-164.07 2024.62,-170.68"/>
<polygon fill="black" stroke="black" points="2024.26,-174.16 2034.69,-172.26 2025.35,-167.25 2024.26,-174.16"/>
</g>
<!-- 17\n[has_monsters] -->
<g id="node18" class="node">
<title>17\n[has_monsters]</title>
<text text-anchor="middle" x="2273.3" y="-127.17" font-family="Times,serif" font-size="14.00" fill="blue">17</text>
<text text-anchor="middle" x="2273.3" y="-112.17" font-family="Times,serif" font-size="14.00" fill="blue">[has_monsters]</text>
</g>
<!-- 16\nbefore the %(monster_type)s monsters do!&#45;&gt;17\n[has_monsters] -->
<g id="edge28" class="edge">
<title>16\nbefore the %(monster_type)s monsters do!&#45;&gt;17\n[has_monsters]</title>
<path fill="none" stroke="blue" d="M2187.39,-122.16C2196.16,-122.28 2204.74,-122.41 2212.87,-122.52"/>
<polygon fill="blue" stroke="blue" points="2212.86,-126.02 2222.91,-122.67 2212.96,-119.02 2212.86,-126.02"/>
</g>
<!-- 40 -->
<g id="node41" class="node">
<title>40</title>
<text text-anchor="middle" x="2386.3" y="-160.67" font-family="Times,serif" font-size="14.00">40</text>
</g>
<!-- 17\n[has_monsters]&#45;&gt;40 -->
<g id="edge29" class="edge">
<title>17\n[has_monsters]&#45;&gt;40</title>
<path fill="none" stroke="blue" d="M2323.31,-141.48C2332.16,-144.75 2341.23,-148.1 2349.61,-151.19"/>
<polygon fill="blue" stroke="blue" points="2348.48,-154.51 2359.07,-154.69 2350.9,-147.94 2348.48,-154.51"/>
</g>
<!-- 19\n[has_monsters] -->
<g id="node20" class="node">
<title>19\n[has_monsters]</title>
<text text-anchor="middle" x="453.8" y="-148.17" font-family="Times,serif" font-size="14.00" fill="blue">19</text>
<text text-anchor="middle" x="453.8" y="-133.17" font-family="Times,serif" font-size="14.00" fill="blue">[has_monsters]</text>
</g>
<!-- 18\ndefend the Rock Radier HQ\nbuild up your defenses\narm your Rock Raiders&#45;&gt;19\n[has_monsters] -->
<g id="edge30" class="edge">
<title>18\ndefend the Rock Radier HQ\nbuild up your defenses\narm your Rock Raiders&#45;&gt;19\n[has_monsters]</title>
<path fill="none" stroke="blue" d="M313.47,-144.37C340.07,-144.37 368.93,-144.37 393.45,-144.37"/>
<polygon fill="blue" stroke="blue" points="393.67,-147.87 403.67,-144.37 393.67,-140.87 393.67,-147.87"/>
</g>
<!-- 19\n[has_monsters]&#45;&gt;31 -->
<g id="edge31" class="edge">
<title>19\n[has_monsters]&#45;&gt;31</title>
<path fill="none" stroke="blue" d="M504,-150.16C600,-161.44 810.29,-186.15 894.93,-196.1"/>
<polygon fill="blue" stroke="blue" points="894.75,-199.6 905.09,-197.29 895.56,-192.65 894.75,-199.6"/>
</g>
<!-- 34\n, -->
<g id="node35" class="node">
<title>34\n,</title>
<polygon fill="none" stroke="black" points="637.3,-121.37 583.3,-121.37 583.3,-83.37 637.3,-83.37 637.3,-121.37"/>
<text text-anchor="middle" x="610.3" y="-106.17" font-family="Times,serif" font-size="14.00">34</text>
<text text-anchor="middle" x="610.3" y="-91.17" font-family="Times,serif" font-size="14.00">,</text>
</g>
<!-- 19\n[has_monsters]&#45;&gt;34\n, -->
<g id="edge32" class="edge">
<title>19\n[has_monsters]&#45;&gt;34\n,</title>
<path fill="none" stroke="blue" d="M504.11,-130.97C526.47,-124.89 552.44,-117.83 572.98,-112.25"/>
<polygon fill="blue" stroke="blue" points="574.15,-115.56 582.89,-109.55 572.32,-108.8 574.15,-115.56"/>
</g>
<!-- 21\n[spawn_is_ruins] -->
<g id="node22" class="node">
<title>21\n[spawn_is_ruins]</title>
<text text-anchor="middle" x="610.3" y="-301.17" font-family="Times,serif" font-size="14.00" fill="blue">21</text>
<text text-anchor="middle" x="610.3" y="-286.17" font-family="Times,serif" font-size="14.00" fill="blue">[spawn_is_ruins]</text>
</g>
<!-- 20\nclean up this mess\nget the Rock Raider HQ back in operation&#45;&gt;21\n[spawn_is_ruins] -->
<g id="edge33" class="edge">
<title>20\nclean up this mess\nget the Rock Raider HQ back in operation&#45;&gt;21\n[spawn_is_ruins]</title>
<path fill="none" stroke="blue" d="M352.49,-305.5C416.64,-303.47 492.53,-301.07 545.1,-299.4"/>
<polygon fill="blue" stroke="blue" points="545.41,-302.9 555.29,-299.08 545.19,-295.9 545.41,-302.9"/>
</g>
<!-- 21\n[spawn_is_ruins]&#45;&gt;3\nand keep it safe\nand make sure it is heavily defended -->
<g id="edge36" class="edge">
<title>21\n[spawn_is_ruins]&#45;&gt;3\nand keep it safe\nand make sure it is heavily defended</title>
<path fill="none" stroke="blue" d="M665.59,-302.82C743.38,-310.62 888.5,-325.18 991.69,-335.53"/>
<polygon fill="blue" stroke="blue" points="991.55,-339.03 1001.85,-336.55 992.25,-332.07 991.55,-339.03"/>
</g>
<!-- 21\n[spawn_is_ruins]&#45;&gt;25\nas soon as possible\nas soon as you can -->
<g id="edge35" class="edge">
<title>21\n[spawn_is_ruins]&#45;&gt;25\nas soon as possible\nas soon as you can</title>
<path fill="none" stroke="blue" d="M665.39,-279.82C680.24,-275 696.53,-269.72 712.08,-264.67"/>
<polygon fill="blue" stroke="blue" points="713.21,-267.99 721.64,-261.57 711.05,-261.33 713.21,-267.99"/>
</g>
<!-- 21\n[spawn_is_ruins]&#45;&gt;31 -->
<g id="edge34" class="edge">
<title>21\n[spawn_is_ruins]&#45;&gt;31</title>
<path fill="none" stroke="blue" d="M665.54,-304.59C718.57,-309.13 800.16,-309.24 862.3,-278.37 884.77,-267.21 903.16,-245.22 915.29,-227.43"/>
<polygon fill="blue" stroke="blue" points="918.52,-228.88 921.04,-218.59 912.65,-225.06 918.52,-228.88"/>
</g>
<!-- 23\n[find_hq] -->
<g id="node24" class="node">
<title>23\n[find_hq]</title>
<text text-anchor="middle" x="932.3" y="-286.17" font-family="Times,serif" font-size="14.00" fill="blue">23</text>
<text text-anchor="middle" x="932.3" y="-271.17" font-family="Times,serif" font-size="14.00" fill="blue">[find_hq]</text>
</g>
<!-- 22\nreach the Rock Raider HQ\nlocate the base&#45;&gt;23\n[find_hq] -->
<g id="edge37" class="edge">
<title>22\nreach the Rock Raider HQ\nlocate the base&#45;&gt;23\n[find_hq]</title>
<path fill="none" stroke="blue" d="M819.5,-363.68C843.06,-346.54 873.47,-324.43 896.62,-307.59"/>
<polygon fill="blue" stroke="blue" points="898.77,-310.36 904.8,-301.65 894.65,-304.7 898.77,-310.36"/>
</g>
<!-- 23\n[find_hq]&#45;&gt;3\nand keep it safe\nand make sure it is heavily defended -->
<g id="edge38" class="edge">
<title>23\n[find_hq]&#45;&gt;3\nand keep it safe\nand make sure it is heavily defended</title>
<path fill="none" stroke="blue" d="M966.37,-297.52C977.67,-302.49 990.45,-307.88 1002.3,-312.37 1006.76,-314.07 1011.35,-315.76 1016,-317.43"/>
<polygon fill="blue" stroke="blue" points="1015.01,-320.79 1025.61,-320.82 1017.34,-314.19 1015.01,-320.79"/>
</g>
<!-- 24\nand use it to\n, and from there you can -->
<g id="node25" class="node">
<title>24\nand use it to\n, and from there you can</title>
<polygon fill="none" stroke="black" points="1186.8,-302.87 1034.8,-302.87 1034.8,-249.87 1186.8,-249.87 1186.8,-302.87"/>
<text text-anchor="middle" x="1110.8" y="-287.67" font-family="Times,serif" font-size="14.00">24</text>
<text text-anchor="middle" x="1110.8" y="-272.67" font-family="Times,serif" font-size="14.00">and use it to</text>
<text text-anchor="middle" x="1110.8" y="-257.67" font-family="Times,serif" font-size="14.00">, and from there you can</text>
</g>
<!-- 23\n[find_hq]&#45;&gt;24\nand use it to\n, and from there you can -->
<g id="edge39" class="edge">
<title>23\n[find_hq]&#45;&gt;24\nand use it to\n, and from there you can</title>
<path fill="none" stroke="blue" d="M966.49,-281.25C983.06,-280.68 1003.93,-279.97 1024.58,-279.27"/>
<polygon fill="blue" stroke="blue" points="1024.8,-282.77 1034.67,-278.93 1024.56,-275.77 1024.8,-282.77"/>
</g>
<!-- 35\nand -->
<g id="node36" class="node">
<title>35\nand</title>
<polygon fill="none" stroke="black" points="1137.8,-231.37 1083.8,-231.37 1083.8,-193.37 1137.8,-193.37 1137.8,-231.37"/>
<text text-anchor="middle" x="1110.8" y="-216.17" font-family="Times,serif" font-size="14.00">35</text>
<text text-anchor="middle" x="1110.8" y="-201.17" font-family="Times,serif" font-size="14.00">and</text>
</g>
<!-- 23\n[find_hq]&#45;&gt;35\nand -->
<g id="edge40" class="edge">
<title>23\n[find_hq]&#45;&gt;35\nand</title>
<path fill="none" stroke="blue" d="M961.58,-263.19C973.72,-255.6 988.31,-247.29 1002.3,-241.37 1025.25,-231.68 1052.34,-224.39 1073.59,-219.55"/>
<polygon fill="blue" stroke="blue" points="1074.49,-222.93 1083.5,-217.37 1072.99,-216.1 1074.49,-222.93"/>
</g>
<!-- 24\nand use it to\n, and from there you can&#45;&gt;8 -->
<g id="edge41" class="edge">
<title>24\nand use it to\n, and from there you can&#45;&gt;8</title>
<path fill="none" stroke="black" d="M1187.05,-258.39C1198.51,-253.66 1209.7,-247.75 1219.3,-240.37 1242.01,-222.91 1259.04,-194.64 1269.44,-173.65"/>
<polygon fill="black" stroke="black" points="1272.62,-175.12 1273.76,-164.59 1266.3,-172.11 1272.62,-175.12"/>
</g>
<!-- 36 -->
<g id="node37" class="node">
<title>36</title>
<text text-anchor="middle" x="1282.3" y="-272.67" font-family="Times,serif" font-size="14.00">36</text>
</g>
<!-- 24\nand use it to\n, and from there you can&#45;&gt;36 -->
<g id="edge42" class="edge">
<title>24\nand use it to\n, and from there you can&#45;&gt;36</title>
<path fill="none" stroke="black" d="M1187.13,-276.37C1207.34,-276.37 1228.27,-276.37 1245.25,-276.37"/>
<polygon fill="black" stroke="black" points="1245.27,-279.87 1255.27,-276.37 1245.27,-272.87 1245.27,-279.87"/>
</g>
<!-- 25\nas soon as possible\nas soon as you can&#45;&gt;31 -->
<g id="edge43" class="edge">
<title>25\nas soon as possible\nas soon as you can&#45;&gt;31</title>
<path fill="none" stroke="black" d="M841.91,-225.65C859.96,-220.55 879.25,-215.09 895.28,-210.56"/>
<polygon fill="black" stroke="black" points="896.62,-213.82 905.29,-207.73 894.72,-207.08 896.62,-213.82"/>
</g>
<!-- 26\ncontinue our mining operation by\ncollecting %(resources)s\ncollect %(resources)s -->
<g id="node27" class="node">
<title>26\ncontinue our mining operation by\ncollecting %(resources)s\ncollect %(resources)s</title>
<polygon fill="none" stroke="black" points="2841.3,-303.37 2641.3,-303.37 2641.3,-235.37 2841.3,-235.37 2841.3,-303.37"/>
<text text-anchor="middle" x="2741.3" y="-288.17" font-family="Times,serif" font-size="14.00">26</text>
<text text-anchor="middle" x="2741.3" y="-273.17" font-family="Times,serif" font-size="14.00">continue our mining operation by</text>
<text text-anchor="middle" x="2741.3" y="-258.17" font-family="Times,serif" font-size="14.00">collecting %(resources)s</text>
<text text-anchor="middle" x="2741.3" y="-243.17" font-family="Times,serif" font-size="14.00">collect %(resources)s</text>
</g>
<!-- 27\n[collect_resources] -->
<g id="node28" class="node">
<title>27\n[collect_resources]</title>
<text text-anchor="middle" x="2977.8" y="-272.17" font-family="Times,serif" font-size="14.00" fill="blue">27</text>
<text text-anchor="middle" x="2977.8" y="-257.17" font-family="Times,serif" font-size="14.00" fill="blue">[collect_resources]</text>
</g>
<!-- 26\ncontinue our mining operation by\ncollecting %(resources)s\ncollect %(resources)s&#45;&gt;27\n[collect_resources] -->
<g id="edge44" class="edge">
<title>26\ncontinue our mining operation by\ncollecting %(resources)s\ncollect %(resources)s&#45;&gt;27\n[collect_resources]</title>
<path fill="none" stroke="blue" d="M2841.41,-268.95C2863.86,-268.86 2887.22,-268.76 2908.09,-268.67"/>
<polygon fill="blue" stroke="blue" points="2908.13,-272.17 2918.12,-268.62 2908.1,-265.17 2908.13,-272.17"/>
</g>
<!-- 42\n. -->
<g id="node43" class="node">
<title>42\n.</title>
<polygon fill="none" stroke="black" points="3168.3,-319.37 3114.3,-319.37 3114.3,-281.37 3168.3,-281.37 3168.3,-319.37"/>
<text text-anchor="middle" x="3141.3" y="-304.17" font-family="Times,serif" font-size="14.00">42</text>
<text text-anchor="middle" x="3141.3" y="-289.17" font-family="Times,serif" font-size="14.00">.</text>
</g>
<!-- 27\n[collect_resources]&#45;&gt;42\n. -->
<g id="edge45" class="edge">
<title>27\n[collect_resources]&#45;&gt;42\n.</title>
<path fill="none" stroke="blue" d="M3037.56,-280.02C3059.88,-284.44 3084.63,-289.35 3104.25,-293.23"/>
<polygon fill="blue" stroke="blue" points="3103.79,-296.71 3114.28,-295.22 3105.15,-289.84 3103.79,-296.71"/>
</g>
<!-- 28\nWe need %(resources)s\nyou need to collect %(resources)s -->
<g id="node29" class="node">
<title>28\nWe need %(resources)s\nyou need to collect %(resources)s</title>
<polygon fill="none" stroke="black" points="3078.3,-358.87 2877.3,-358.87 2877.3,-305.87 3078.3,-305.87 3078.3,-358.87"/>
<text text-anchor="middle" x="2977.8" y="-343.67" font-family="Times,serif" font-size="14.00">28</text>
<text text-anchor="middle" x="2977.8" y="-328.67" font-family="Times,serif" font-size="14.00">We need %(resources)s</text>
<text text-anchor="middle" x="2977.8" y="-313.67" font-family="Times,serif" font-size="14.00">you need to collect %(resources)s</text>
</g>
<!-- 28\nWe need %(resources)s\nyou need to collect %(resources)s&#45;&gt;42\n. -->
<g id="edge46" class="edge">
<title>28\nWe need %(resources)s\nyou need to collect %(resources)s&#45;&gt;42\n.</title>
<path fill="none" stroke="black" d="M3078.32,-312.66C3087.44,-310.85 3096.21,-309.11 3104.15,-307.54"/>
<polygon fill="black" stroke="black" points="3104.94,-310.95 3114.07,-305.57 3103.58,-304.08 3104.94,-310.95"/>
</g>
<!-- 29\nWe&#39;re counting on you!\nGood luck out there! -->
<g id="node30" class="node">
<title>29\nWe&#39;re counting on you!\nGood luck out there!</title>
<polygon fill="none" stroke="black" points="3439.3,-354.87 3294.3,-354.87 3294.3,-301.87 3439.3,-301.87 3439.3,-354.87"/>
<text text-anchor="middle" x="3366.8" y="-339.67" font-family="Times,serif" font-size="14.00">29</text>
<text text-anchor="middle" x="3366.8" y="-324.67" font-family="Times,serif" font-size="14.00">We&#39;re counting on you!</text>
<text text-anchor="middle" x="3366.8" y="-309.67" font-family="Times,serif" font-size="14.00">Good luck out there!</text>
</g>
<!-- 29\nWe&#39;re counting on you!\nGood luck out there!&#45;&gt;1\n[end] -->
<g id="edge47" class="edge">
<title>29\nWe&#39;re counting on you!\nGood luck out there!&#45;&gt;1\n[end]</title>
<path fill="none" stroke="green" stroke-dasharray="5,2" d="M3439.39,-313.88C3448.48,-312.04 3457.51,-310.21 3465.86,-308.52"/>
<polygon fill="green" stroke="green" points="3466.56,-311.95 3475.67,-306.54 3465.17,-305.09 3466.56,-311.95"/>
</g>
<!-- 30 -->
<g id="node31" class="node">
<title>30</title>
<text text-anchor="middle" x="3231.3" y="-296.67" font-family="Times,serif" font-size="14.00">30</text>
</g>
<!-- 30&#45;&gt;1\n[end] -->
<g id="edge49" class="edge">
<title>30&#45;&gt;1\n[end]</title>
<path fill="none" stroke="green" stroke-dasharray="5,2" d="M3258.49,-296.76C3269.52,-295.41 3282.51,-294.04 3294.3,-293.37 3358.64,-289.75 3374.94,-290.01 3439.3,-293.37 3447.66,-293.81 3456.59,-294.55 3465.11,-295.4"/>
<polygon fill="green" stroke="green" points="3464.92,-298.9 3475.23,-296.46 3465.65,-291.93 3464.92,-298.9"/>
</g>
<!-- 30&#45;&gt;29\nWe&#39;re counting on you!\nGood luck out there! -->
<g id="edge48" class="edge">
<title>30&#45;&gt;29\nWe&#39;re counting on you!\nGood luck out there!</title>
<path fill="none" stroke="black" d="M3258.35,-305.84C3266.07,-307.46 3274.96,-309.32 3284.25,-311.27"/>
<polygon fill="black" stroke="black" points="3283.54,-314.7 3294.04,-313.33 3284.98,-307.85 3283.54,-314.7"/>
</g>
<!-- 33\n, then\nand -->
<g id="node34" class="node">
<title>33\n, then\nand</title>
<polygon fill="none" stroke="black" points="1137.8,-173.87 1083.8,-173.87 1083.8,-120.87 1137.8,-120.87 1137.8,-173.87"/>
<text text-anchor="middle" x="1110.8" y="-158.67" font-family="Times,serif" font-size="14.00">33</text>
<text text-anchor="middle" x="1110.8" y="-143.67" font-family="Times,serif" font-size="14.00">, then</text>
<text text-anchor="middle" x="1110.8" y="-128.67" font-family="Times,serif" font-size="14.00">and</text>
</g>
<!-- 31&#45;&gt;33\n, then\nand -->
<g id="edge50" class="edge">
<title>31&#45;&gt;33\n, then\nand</title>
<path fill="none" stroke="black" d="M959.34,-192.55C989.58,-183.47 1039.65,-168.44 1073.65,-158.23"/>
<polygon fill="black" stroke="black" points="1075.08,-161.46 1083.65,-155.23 1073.06,-154.75 1075.08,-161.46"/>
</g>
<!-- 31&#45;&gt;35\nand -->
<g id="edge51" class="edge">
<title>31&#45;&gt;35\nand</title>
<path fill="none" stroke="black" d="M959.34,-202.15C989.58,-204.2 1039.65,-207.61 1073.65,-209.92"/>
<polygon fill="black" stroke="black" points="1073.43,-213.41 1083.65,-210.6 1073.91,-206.43 1073.43,-213.41"/>
</g>
<!-- 32\n,&#45;&gt;2\nbuild the Rock Raider HQ\nbuild up your base -->
<g id="edge53" class="edge">
<title>32\n,&#45;&gt;2\nbuild the Rock Raider HQ\nbuild up your base</title>
<path fill="none" stroke="black" d="M631.56,-372.47C649.07,-388.29 675.54,-410.65 701.3,-426.37 703.23,-427.56 705.21,-428.72 707.23,-429.86"/>
<polygon fill="black" stroke="black" points="705.79,-433.06 716.25,-434.74 709.12,-426.91 705.79,-433.06"/>
</g>
<!-- 32\n,&#45;&gt;22\nreach the Rock Raider HQ\nlocate the base -->
<g id="edge52" class="edge">
<title>32\n,&#45;&gt;22\nreach the Rock Raider HQ\nlocate the base</title>
<path fill="none" stroke="black" d="M637.41,-359.07C652.11,-362.28 671.42,-366.5 691.09,-370.79"/>
<polygon fill="black" stroke="black" points="690.55,-374.26 701.06,-372.97 692.04,-367.42 690.55,-374.26"/>
</g>
<!-- 33\n, then\nand&#45;&gt;8 -->
<g id="edge54" class="edge">
<title>33\n, then\nand&#45;&gt;8</title>
<path fill="none" stroke="black" d="M1137.91,-147.22C1166.53,-147.05 1212.64,-146.78 1244.82,-146.59"/>
<polygon fill="black" stroke="black" points="1245.17,-150.09 1255.15,-146.53 1245.13,-143.09 1245.17,-150.09"/>
</g>
<!-- 34\n,&#45;&gt;5\nexplore the cavern -->
<g id="edge55" class="edge">
<title>34\n,&#45;&gt;5\nexplore the cavern</title>
<path fill="none" stroke="black" d="M637.41,-102.37C657.58,-102.37 686.45,-102.37 713.01,-102.37"/>
<polygon fill="black" stroke="black" points="713.05,-105.87 723.05,-102.37 713.05,-98.87 713.05,-105.87"/>
</g>
<!-- 35\nand&#45;&gt;36 -->
<g id="edge56" class="edge">
<title>35\nand&#45;&gt;36</title>
<path fill="none" stroke="black" d="M1138.02,-217.52C1160.17,-222.32 1192.46,-230.39 1219.3,-241.37 1228.38,-245.09 1237.79,-249.88 1246.46,-254.7"/>
<polygon fill="black" stroke="black" points="1244.76,-257.76 1255.17,-259.7 1248.24,-251.69 1244.76,-257.76"/>
</g>
<!-- 36&#45;&gt;26\ncontinue our mining operation by\ncollecting %(resources)s\ncollect %(resources)s -->
<g id="edge57" class="edge">
<title>36&#45;&gt;26\ncontinue our mining operation by\ncollecting %(resources)s\ncollect %(resources)s</title>
<path fill="none" stroke="black" d="M1309.68,-276.48C1374.8,-276.74 1548.44,-277.37 1693.3,-277.37 1693.3,-277.37 1693.3,-277.37 2387.3,-277.37 2468.95,-277.37 2561.2,-275.21 2630.91,-273.13"/>
<polygon fill="black" stroke="black" points="2631.14,-276.63 2641.03,-272.83 2630.93,-269.63 2631.14,-276.63"/>
</g>
<!-- 37\n.&#45;&gt;30 -->
<g id="edge59" class="edge">
<title>37\n.&#45;&gt;30</title>
<path fill="none" stroke="black" d="M2413.43,-357.92C2424.34,-361.87 2437.26,-365.99 2449.3,-368.37 2576.43,-393.6 2610.69,-387.37 2740.3,-387.37 2740.3,-387.37 2740.3,-387.37 2978.8,-387.37 3059.79,-387.37 3147.8,-346.57 3195.23,-320.85"/>
<polygon fill="black" stroke="black" points="3197.1,-323.82 3204.16,-315.93 3193.72,-317.69 3197.1,-323.82"/>
</g>
<!-- 38\nThen\nOnce you have done that, -->
<g id="node39" class="node">
<title>38\nThen\nOnce you have done that,</title>
<polygon fill="none" stroke="black" points="2605.3,-358.87 2449.3,-358.87 2449.3,-305.87 2605.3,-305.87 2605.3,-358.87"/>
<text text-anchor="middle" x="2527.3" y="-343.67" font-family="Times,serif" font-size="14.00">38</text>
<text text-anchor="middle" x="2527.3" y="-328.67" font-family="Times,serif" font-size="14.00">Then</text>
<text text-anchor="middle" x="2527.3" y="-313.67" font-family="Times,serif" font-size="14.00">Once you have done that,</text>
</g>
<!-- 37\n.&#45;&gt;38\nThen\nOnce you have done that, -->
<g id="edge58" class="edge">
<title>37\n.&#45;&gt;38\nThen\nOnce you have done that,</title>
<path fill="none" stroke="black" d="M2413.44,-344.55C2421.06,-343.73 2429.85,-342.78 2439.08,-341.79"/>
<polygon fill="black" stroke="black" points="2439.66,-345.24 2449.23,-340.69 2438.91,-338.28 2439.66,-345.24"/>
</g>
<!-- 38\nThen\nOnce you have done that,&#45;&gt;26\ncontinue our mining operation by\ncollecting %(resources)s\ncollect %(resources)s -->
<g id="edge61" class="edge">
<title>38\nThen\nOnce you have done that,&#45;&gt;26\ncontinue our mining operation by\ncollecting %(resources)s\ncollect %(resources)s</title>
<path fill="none" stroke="black" d="M2605.43,-309.45C2613.86,-306.95 2622.56,-304.36 2631.28,-301.77"/>
<polygon fill="black" stroke="black" points="2632.53,-305.05 2641.12,-298.85 2630.54,-298.34 2632.53,-305.05"/>
</g>
<!-- 38\nThen\nOnce you have done that,&#45;&gt;28\nWe need %(resources)s\nyou need to collect %(resources)s -->
<g id="edge60" class="edge">
<title>38\nThen\nOnce you have done that,&#45;&gt;28\nWe need %(resources)s\nyou need to collect %(resources)s</title>
<path fill="none" stroke="black" d="M2605.4,-332.37C2677.45,-332.37 2785.79,-332.37 2866.9,-332.37"/>
<polygon fill="black" stroke="black" points="2867.15,-335.87 2877.15,-332.37 2867.15,-328.87 2867.15,-335.87"/>
</g>
<!-- 39\n.&#45;&gt;40 -->
<g id="edge62" class="edge">
<title>39\n.&#45;&gt;40</title>
<path fill="none" stroke="black" d="M2088.91,-175.4C2146.16,-173.27 2282.81,-168.19 2348.63,-165.74"/>
<polygon fill="black" stroke="black" points="2349.07,-169.23 2358.93,-165.36 2348.81,-162.23 2349.07,-169.23"/>
</g>
<!-- 40&#45;&gt;30 -->
<g id="edge63" class="edge">
<title>40&#45;&gt;30</title>
<path fill="none" stroke="black" d="M2413.42,-163C2471.92,-160.06 2617.97,-153.37 2740.3,-153.37 2740.3,-153.37 2740.3,-153.37 2978.8,-153.37 3074.02,-153.37 3165.22,-232.89 3206.8,-274.96"/>
<polygon fill="black" stroke="black" points="3204.5,-277.61 3213.98,-282.35 3209.52,-272.74 3204.5,-277.61"/>
</g>
<!-- 41\nOnce you have done that,\nWith them secure,\nAlong the way, -->
<g id="node42" class="node">
<title>41\nOnce you have done that,\nWith them secure,\nAlong the way,</title>
<polygon fill="none" stroke="black" points="2605.3,-249.37 2449.3,-249.37 2449.3,-181.37 2605.3,-181.37 2605.3,-249.37"/>
<text text-anchor="middle" x="2527.3" y="-234.17" font-family="Times,serif" font-size="14.00">41</text>
<text text-anchor="middle" x="2527.3" y="-219.17" font-family="Times,serif" font-size="14.00">Once you have done that,</text>
<text text-anchor="middle" x="2527.3" y="-204.17" font-family="Times,serif" font-size="14.00">With them secure,</text>
<text text-anchor="middle" x="2527.3" y="-189.17" font-family="Times,serif" font-size="14.00">Along the way,</text>
</g>
<!-- 40&#45;&gt;41\nOnce you have done that,\nWith them secure,\nAlong the way, -->
<g id="edge64" class="edge">
<title>40&#45;&gt;41\nOnce you have done that,\nWith them secure,\nAlong the way,</title>
<path fill="none" stroke="black" d="M2413.44,-173.97C2421.23,-176.82 2430.22,-180.12 2439.67,-183.59"/>
<polygon fill="black" stroke="black" points="2438.64,-186.94 2449.23,-187.1 2441.05,-180.37 2438.64,-186.94"/>
</g>
<!-- 41\nOnce you have done that,\nWith them secure,\nAlong the way,&#45;&gt;26\ncontinue our mining operation by\ncollecting %(resources)s\ncollect %(resources)s -->
<g id="edge65" class="edge">
<title>41\nOnce you have done that,\nWith them secure,\nAlong the way,&#45;&gt;26\ncontinue our mining operation by\ncollecting %(resources)s\ncollect %(resources)s</title>
<path fill="none" stroke="black" d="M2605.43,-235.02C2613.86,-237.17 2622.56,-239.38 2631.28,-241.61"/>
<polygon fill="black" stroke="black" points="2630.57,-245.04 2641.12,-244.11 2632.3,-238.25 2630.57,-245.04"/>
</g>
<!-- 42\n.&#45;&gt;30 -->
<g id="edge66" class="edge">
<title>42\n.&#45;&gt;30</title>
<path fill="none" stroke="black" d="M3168.7,-300.37C3176.69,-300.37 3185.61,-300.37 3194.12,-300.37"/>
<polygon fill="black" stroke="black" points="3194.22,-303.87 3204.22,-300.37 3194.22,-296.87 3194.22,-303.87"/>
</g>
</g>
</svg>
