<?xml version="1.0" encoding="UTF-8" standalone="no"?>
<!DOCTYPE svg PUBLIC "-//W3C//DTD SVG 1.1//EN"
 "http://www.w3.org/Graphics/SVG/1.1/DTD/svg11.dtd">
<!-- Generated by graphviz version 2.43.0 (0)
 -->
<!-- Title: G Pages: 1 -->
<svg width="3312pt" height="489pt"
 viewBox="0.00 0.00 3312.00 488.87" xmlns="http://www.w3.org/2000/svg" xmlns:xlink="http://www.w3.org/1999/xlink">
<g id="graph0" class="graph" transform="scale(1 1) rotate(0) translate(4 484.87)">
<title>G</title>
<polygon fill="white" stroke="transparent" points="-4,4 -4,-484.87 3308,-484.87 3308,4 -4,4"/>
<!-- 0\n[start] -->
<g id="node1" class="node">
<title>0\n[start]</title>
<text text-anchor="middle" x="27" y="-226.33" font-family="Times,serif" font-size="14.00" fill="green">0</text>
<text text-anchor="middle" x="27" y="-211.33" font-family="Times,serif" font-size="14.00" fill="green">[start]</text>
</g>
<!-- 2\nbuild the Rock Raider HQ\nbuild up your base -->
<g id="node3" class="node">
<title>2\nbuild the Rock Raider HQ\nbuild up your base</title>
<polygon fill="none" stroke="black" points="846.5,-156.03 686.5,-156.03 686.5,-103.03 846.5,-103.03 846.5,-156.03"/>
<text text-anchor="middle" x="766.5" y="-140.83" font-family="Times,serif" font-size="14.00">2</text>
<text text-anchor="middle" x="766.5" y="-125.83" font-family="Times,serif" font-size="14.00">build the Rock Raider HQ</text>
<text text-anchor="middle" x="766.5" y="-110.83" font-family="Times,serif" font-size="14.00">build up your base</text>
</g>
<!-- 0\n[start]&#45;&gt;2\nbuild the Rock Raider HQ\nbuild up your base -->
<g id="edge5" class="edge">
<title>0\n[start]&#45;&gt;2\nbuild the Rock Raider HQ\nbuild up your base</title>
<path fill="none" stroke="green" d="M33.08,-203.24C40.77,-178.39 57.99,-136.18 90,-117.53 197.53,-54.87 526,-98.87 650,-109.53 658.54,-110.26 667.41,-111.29 676.25,-112.51"/>
<polygon fill="green" stroke="green" points="675.81,-115.98 686.2,-113.95 676.81,-109.05 675.81,-115.98"/>
</g>
<!-- 5\nexplore the cavern -->
<g id="node6" class="node">
<title>5\nexplore the cavern</title>
<polygon fill="none" stroke="black" points="825,-250.53 708,-250.53 708,-212.53 825,-212.53 825,-250.53"/>
<text text-anchor="middle" x="766.5" y="-235.33" font-family="Times,serif" font-size="14.00">5</text>
<text text-anchor="middle" x="766.5" y="-220.33" font-family="Times,serif" font-size="14.00">explore the cavern</text>
</g>
<!-- 0\n[start]&#45;&gt;5\nexplore the cavern -->
<g id="edge4" class="edge">
<title>0\n[start]&#45;&gt;5\nexplore the cavern</title>
<path fill="none" stroke="green" d="M54.25,-222.85C157.84,-224.11 540.3,-228.78 697.43,-230.69"/>
<polygon fill="green" stroke="green" points="697.85,-234.2 707.89,-230.82 697.94,-227.2 697.85,-234.2"/>
</g>
<!-- 6\nmove to a safer cavern\nget your Rock Raiders to safety\nmake sure your Rock Raiders are safe -->
<g id="node7" class="node">
<title>6\nmove to a safer cavern\nget your Rock Raiders to safety\nmake sure your Rock Raiders are safe</title>
<polygon fill="none" stroke="black" points="325.5,-194.53 101.5,-194.53 101.5,-126.53 325.5,-126.53 325.5,-194.53"/>
<text text-anchor="middle" x="213.5" y="-179.33" font-family="Times,serif" font-size="14.00">6</text>
<text text-anchor="middle" x="213.5" y="-164.33" font-family="Times,serif" font-size="14.00">move to a safer cavern</text>
<text text-anchor="middle" x="213.5" y="-149.33" font-family="Times,serif" font-size="14.00">get your Rock Raiders to safety</text>
<text text-anchor="middle" x="213.5" y="-134.33" font-family="Times,serif" font-size="14.00">make sure your Rock Raiders are safe</text>
</g>
<!-- 0\n[start]&#45;&gt;6\nmove to a safer cavern\nget your Rock Raiders to safety\nmake sure your Rock Raiders are safe -->
<g id="edge2" class="edge">
<title>0\n[start]&#45;&gt;6\nmove to a safer cavern\nget your Rock Raiders to safety\nmake sure your Rock Raiders are safe</title>
<path fill="none" stroke="green" d="M54.04,-213.77C67.03,-209.41 83.73,-203.8 101.38,-197.87"/>
<polygon fill="green" stroke="green" points="102.91,-201.04 111.27,-194.54 100.68,-194.41 102.91,-201.04"/>
</g>
<!-- 8 -->
<g id="node9" class="node">
<title>8</title>
<text text-anchor="middle" x="1267" y="-343.83" font-family="Times,serif" font-size="14.00">8</text>
</g>
<!-- 0\n[start]&#45;&gt;8 -->
<g id="edge7" class="edge">
<title>0\n[start]&#45;&gt;8</title>
<path fill="none" stroke="green" d="M27.64,-241.77C28.03,-282.14 35.15,-375.71 90,-421.53 209.43,-521.3 281.88,-464.53 437.5,-464.53 437.5,-464.53 437.5,-464.53 918,-464.53 1038.04,-464.53 1169.8,-401.2 1231.07,-367.73"/>
<polygon fill="green" stroke="green" points="1232.88,-370.73 1239.94,-362.82 1229.5,-364.6 1232.88,-370.73"/>
</g>
<!-- 18\ndefend the Rock Radier HQ\nbuild up your defenses\narm your Rock Raiders -->
<g id="node19" class="node">
<title>18\ndefend the Rock Radier HQ\nbuild up your defenses\narm your Rock Raiders</title>
<polygon fill="none" stroke="black" points="298,-330.53 129,-330.53 129,-262.53 298,-262.53 298,-330.53"/>
<text text-anchor="middle" x="213.5" y="-315.33" font-family="Times,serif" font-size="14.00">18</text>
<text text-anchor="middle" x="213.5" y="-300.33" font-family="Times,serif" font-size="14.00">defend the Rock Radier HQ</text>
<text text-anchor="middle" x="213.5" y="-285.33" font-family="Times,serif" font-size="14.00">build up your defenses</text>
<text text-anchor="middle" x="213.5" y="-270.33" font-family="Times,serif" font-size="14.00">arm your Rock Raiders</text>
</g>
<!-- 0\n[start]&#45;&gt;18\ndefend the Rock Radier HQ\nbuild up your defenses\narm your Rock Raiders -->
<g id="edge1" class="edge">
<title>0\n[start]&#45;&gt;18\ndefend the Rock Radier HQ\nbuild up your defenses\narm your Rock Raiders</title>
<path fill="none" stroke="green" d="M54.04,-232.97C71.41,-239.93 95.38,-249.55 119.43,-259.2"/>
<polygon fill="green" stroke="green" points="118.41,-262.56 129,-263.03 121.02,-256.06 118.41,-262.56"/>
</g>
<!-- 20\nclean up this mess\nget the Rock Raider HQ back in operation -->
<g id="node21" class="node">
<title>20\nclean up this mess\nget the Rock Raider HQ back in operation</title>
<polygon fill="none" stroke="black" points="337,-412.03 90,-412.03 90,-359.03 337,-359.03 337,-412.03"/>
<text text-anchor="middle" x="213.5" y="-396.83" font-family="Times,serif" font-size="14.00">20</text>
<text text-anchor="middle" x="213.5" y="-381.83" font-family="Times,serif" font-size="14.00">clean up this mess</text>
<text text-anchor="middle" x="213.5" y="-366.83" font-family="Times,serif" font-size="14.00">get the Rock Raider HQ back in operation</text>
</g>
<!-- 0\n[start]&#45;&gt;20\nclean up this mess\nget the Rock Raider HQ back in operation -->
<g id="edge3" class="edge">
<title>0\n[start]&#45;&gt;20\nclean up this mess\nget the Rock Raider HQ back in operation</title>
<path fill="none" stroke="green" d="M33.48,-241.83C41.71,-267.52 59.62,-312.81 90,-339.53 96.25,-345.02 103.23,-349.89 110.59,-354.2"/>
<polygon fill="green" stroke="green" points="108.93,-357.28 119.38,-358.99 112.28,-351.13 108.93,-357.28"/>
</g>
<!-- 22\nreach the Rock Raider HQ\nlocate the base -->
<g id="node23" class="node">
<title>22\nreach the Rock Raider HQ\nlocate the base</title>
<polygon fill="none" stroke="black" points="847,-85.03 686,-85.03 686,-32.03 847,-32.03 847,-85.03"/>
<text text-anchor="middle" x="766.5" y="-69.83" font-family="Times,serif" font-size="14.00">22</text>
<text text-anchor="middle" x="766.5" y="-54.83" font-family="Times,serif" font-size="14.00">reach the Rock Raider HQ</text>
<text text-anchor="middle" x="766.5" y="-39.83" font-family="Times,serif" font-size="14.00">locate the base</text>
</g>
<!-- 0\n[start]&#45;&gt;22\nreach the Rock Raider HQ\nlocate the base -->
<g id="edge6" class="edge">
<title>0\n[start]&#45;&gt;22\nreach the Rock Raider HQ\nlocate the base</title>
<path fill="none" stroke="green" d="M30.06,-203.43C34.6,-171.88 48.6,-109.57 90,-81.53 268.14,39.12 537.61,-1.25 676.21,-33.88"/>
<polygon fill="green" stroke="green" points="675.42,-37.29 685.96,-36.22 677.05,-30.48 675.42,-37.29"/>
</g>
<!-- 1\n[end] -->
<g id="node2" class="node">
<title>1\n[end]</title>
<text text-anchor="middle" x="3277" y="-365.33" font-family="Times,serif" font-size="14.00" fill="green">1</text>
<text text-anchor="middle" x="3277" y="-350.33" font-family="Times,serif" font-size="14.00" fill="green">[end]</text>
</g>
<!-- 3\nand keep it safe\nand make sure it is heavily defended -->
<g id="node4" class="node">
<title>3\nand keep it safe\nand make sure it is heavily defended</title>
<polygon fill="none" stroke="black" points="1204,-253.03 987,-253.03 987,-200.03 1204,-200.03 1204,-253.03"/>
<text text-anchor="middle" x="1095.5" y="-237.83" font-family="Times,serif" font-size="14.00">3</text>
<text text-anchor="middle" x="1095.5" y="-222.83" font-family="Times,serif" font-size="14.00">and keep it safe</text>
<text text-anchor="middle" x="1095.5" y="-207.83" font-family="Times,serif" font-size="14.00">and make sure it is heavily defended</text>
</g>
<!-- 2\nbuild the Rock Raider HQ\nbuild up your base&#45;&gt;3\nand keep it safe\nand make sure it is heavily defended -->
<g id="edge9" class="edge">
<title>2\nbuild the Rock Raider HQ\nbuild up your base&#45;&gt;3\nand keep it safe\nand make sure it is heavily defended</title>
<path fill="none" stroke="black" d="M846.66,-153.01C891.4,-166.28 947.74,-182.99 995.39,-197.13"/>
<polygon fill="black" stroke="black" points="994.53,-200.52 1005.11,-200.01 996.52,-193.81 994.53,-200.52"/>
</g>
<!-- 29 -->
<g id="node30" class="node">
<title>29</title>
<text text-anchor="middle" x="917" y="-257.83" font-family="Times,serif" font-size="14.00">29</text>
</g>
<!-- 2\nbuild the Rock Raider HQ\nbuild up your base&#45;&gt;29 -->
<g id="edge8" class="edge">
<title>2\nbuild the Rock Raider HQ\nbuild up your base&#45;&gt;29</title>
<path fill="none" stroke="black" d="M826.72,-156.24C833.87,-160.55 840.82,-165.33 847,-170.53 868.71,-188.78 887.71,-215.06 900.24,-234.69"/>
<polygon fill="black" stroke="black" points="897.28,-236.54 905.53,-243.18 903.22,-232.85 897.28,-236.54"/>
</g>
<!-- 4\n[has_monsters] -->
<g id="node5" class="node">
<title>4\n[has_monsters]</title>
<text text-anchor="middle" x="2212" y="-230.33" font-family="Times,serif" font-size="14.00" fill="blue">4</text>
<text text-anchor="middle" x="2212" y="-215.33" font-family="Times,serif" font-size="14.00" fill="blue">[has_monsters]</text>
</g>
<!-- 3\nand keep it safe\nand make sure it is heavily defended&#45;&gt;4\n[has_monsters] -->
<g id="edge10" class="edge">
<title>3\nand keep it safe\nand make sure it is heavily defended&#45;&gt;4\n[has_monsters]</title>
<path fill="none" stroke="blue" d="M1204.17,-226.53C1274.32,-226.53 1367.84,-226.53 1450.5,-226.53 1450.5,-226.53 1450.5,-226.53 1813,-226.53 1933.35,-226.53 2074.18,-226.53 2151.9,-226.53"/>
<polygon fill="blue" stroke="blue" points="2151.98,-230.03 2161.98,-226.53 2151.98,-223.03 2151.98,-230.03"/>
</g>
<!-- 34\n. Then\n. Once you have done that, -->
<g id="node35" class="node">
<title>34\n. Then\n. Once you have done that,</title>
<polygon fill="none" stroke="black" points="2462,-218.03 2298,-218.03 2298,-165.03 2462,-165.03 2462,-218.03"/>
<text text-anchor="middle" x="2380" y="-202.83" font-family="Times,serif" font-size="14.00">34</text>
<text text-anchor="middle" x="2380" y="-187.83" font-family="Times,serif" font-size="14.00">. Then</text>
<text text-anchor="middle" x="2380" y="-172.83" font-family="Times,serif" font-size="14.00">. Once you have done that,</text>
</g>
<!-- 4\n[has_monsters]&#45;&gt;34\n. Then\n. Once you have done that, -->
<g id="edge11" class="edge">
<title>4\n[has_monsters]&#45;&gt;34\n. Then\n. Once you have done that,</title>
<path fill="none" stroke="blue" d="M2262.36,-216.12C2270.48,-214.41 2279.12,-212.58 2287.89,-210.74"/>
<polygon fill="blue" stroke="blue" points="2288.75,-214.13 2297.81,-208.64 2287.3,-207.28 2288.75,-214.13"/>
</g>
<!-- 38\n. -->
<g id="node39" class="node">
<title>38\n.</title>
<polygon fill="none" stroke="black" points="2943,-327.53 2889,-327.53 2889,-289.53 2943,-289.53 2943,-327.53"/>
<text text-anchor="middle" x="2916" y="-312.33" font-family="Times,serif" font-size="14.00">38</text>
<text text-anchor="middle" x="2916" y="-297.33" font-family="Times,serif" font-size="14.00">.</text>
</g>
<!-- 4\n[has_monsters]&#45;&gt;38\n. -->
<g id="edge12" class="edge">
<title>4\n[has_monsters]&#45;&gt;38\n.</title>
<path fill="none" stroke="blue" d="M2262.08,-232.26C2395.3,-247.82 2761.48,-290.59 2878.52,-304.26"/>
<polygon fill="blue" stroke="blue" points="2878.4,-307.77 2888.74,-305.46 2879.21,-300.82 2878.4,-307.77"/>
</g>
<!-- 5\nexplore the cavern&#45;&gt;29 -->
<g id="edge13" class="edge">
<title>5\nexplore the cavern&#45;&gt;29</title>
<path fill="none" stroke="black" d="M825.34,-243.21C843.64,-246.91 863.35,-250.89 879.7,-254.19"/>
<polygon fill="black" stroke="black" points="879.41,-257.7 889.91,-256.25 880.8,-250.84 879.41,-257.7"/>
</g>
<!-- 7\n[spawn_has_erosion] -->
<g id="node8" class="node">
<title>7\n[spawn_has_erosion]</title>
<text text-anchor="middle" x="438.5" y="-171.33" font-family="Times,serif" font-size="14.00" fill="blue">7</text>
<text text-anchor="middle" x="438.5" y="-156.33" font-family="Times,serif" font-size="14.00" fill="blue">[spawn_has_erosion]</text>
</g>
<!-- 6\nmove to a safer cavern\nget your Rock Raiders to safety\nmake sure your Rock Raiders are safe&#45;&gt;7\n[spawn_has_erosion] -->
<g id="edge14" class="edge">
<title>6\nmove to a safer cavern\nget your Rock Raiders to safety\nmake sure your Rock Raiders are safe&#45;&gt;7\n[spawn_has_erosion]</title>
<path fill="none" stroke="blue" d="M325.67,-164.01C338.16,-164.41 350.66,-164.8 362.53,-165.17"/>
<polygon fill="blue" stroke="blue" points="362.68,-168.68 372.79,-165.49 362.9,-161.68 362.68,-168.68"/>
</g>
<!-- 25\nas soon as possible\nas soon as you can -->
<g id="node26" class="node">
<title>25\nas soon as possible\nas soon as you can</title>
<polygon fill="none" stroke="black" points="826.5,-322.03 706.5,-322.03 706.5,-269.03 826.5,-269.03 826.5,-322.03"/>
<text text-anchor="middle" x="766.5" y="-306.83" font-family="Times,serif" font-size="14.00">25</text>
<text text-anchor="middle" x="766.5" y="-291.83" font-family="Times,serif" font-size="14.00">as soon as possible</text>
<text text-anchor="middle" x="766.5" y="-276.83" font-family="Times,serif" font-size="14.00">as soon as you can</text>
</g>
<!-- 7\n[spawn_has_erosion]&#45;&gt;25\nas soon as possible\nas soon as you can -->
<g id="edge16" class="edge">
<title>7\n[spawn_has_erosion]&#45;&gt;25\nas soon as possible\nas soon as you can</title>
<path fill="none" stroke="blue" d="M487.95,-186.55C543.29,-208.28 634.24,-243.99 696.86,-268.57"/>
<polygon fill="blue" stroke="blue" points="695.68,-271.87 706.27,-272.27 698.24,-265.36 695.68,-271.87"/>
</g>
<!-- 7\n[spawn_has_erosion]&#45;&gt;29 -->
<g id="edge15" class="edge">
<title>7\n[spawn_has_erosion]&#45;&gt;29</title>
<path fill="none" stroke="blue" d="M504.15,-168.53C603.04,-170.85 786.74,-178.5 847,-203.53 864.47,-210.78 880.83,-224.12 893.23,-236.18"/>
<polygon fill="blue" stroke="blue" points="890.9,-238.8 900.42,-243.46 895.88,-233.88 890.9,-238.8"/>
</g>
<!-- 30\n, -->
<g id="node31" class="node">
<title>30\n,</title>
<polygon fill="none" stroke="black" points="622,-156.53 568,-156.53 568,-118.53 622,-118.53 622,-156.53"/>
<text text-anchor="middle" x="595" y="-141.33" font-family="Times,serif" font-size="14.00">30</text>
<text text-anchor="middle" x="595" y="-126.33" font-family="Times,serif" font-size="14.00">,</text>
</g>
<!-- 7\n[spawn_has_erosion]&#45;&gt;30\n, -->
<g id="edge17" class="edge">
<title>7\n[spawn_has_erosion]&#45;&gt;30\n,</title>
<path fill="none" stroke="blue" d="M504.13,-154.98C522.44,-151.42 541.73,-147.68 557.72,-144.57"/>
<polygon fill="blue" stroke="blue" points="558.56,-147.97 567.71,-142.63 557.23,-141.1 558.56,-147.97"/>
</g>
<!-- 9\nfind the lost Rock Raider\nlocate the missing Rock Raider -->
<g id="node10" class="node">
<title>9\nfind the lost Rock Raider\nlocate the missing Rock Raider</title>
<polygon fill="none" stroke="black" points="1545.5,-467.03 1357.5,-467.03 1357.5,-414.03 1545.5,-414.03 1545.5,-467.03"/>
<text text-anchor="middle" x="1451.5" y="-451.83" font-family="Times,serif" font-size="14.00">9</text>
<text text-anchor="middle" x="1451.5" y="-436.83" font-family="Times,serif" font-size="14.00">find the lost Rock Raider</text>
<text text-anchor="middle" x="1451.5" y="-421.83" font-family="Times,serif" font-size="14.00">locate the missing Rock Raider</text>
</g>
<!-- 8&#45;&gt;9\nfind the lost Rock Raider\nlocate the missing Rock Raider -->
<g id="edge18" class="edge">
<title>8&#45;&gt;9\nfind the lost Rock Raider\nlocate the missing Rock Raider</title>
<path fill="none" stroke="black" d="M1283.44,-365.53C1295.09,-378.08 1312.08,-394.34 1330,-404.53 1335.74,-407.79 1341.8,-410.78 1348.04,-413.52"/>
<polygon fill="black" stroke="black" points="1346.69,-416.76 1357.27,-417.37 1349.38,-410.29 1346.69,-416.76"/>
</g>
<!-- 11\nfind the cavern with the lost Rock\nRaiders\nlocate the missing group of Rock Raiders -->
<g id="node12" class="node">
<title>11\nfind the cavern with the lost Rock\nRaiders\nlocate the missing group of Rock Raiders</title>
<polygon fill="none" stroke="black" points="1573,-395.53 1330,-395.53 1330,-327.53 1573,-327.53 1573,-395.53"/>
<text text-anchor="middle" x="1451.5" y="-380.33" font-family="Times,serif" font-size="14.00">11</text>
<text text-anchor="middle" x="1451.5" y="-365.33" font-family="Times,serif" font-size="14.00">find the cavern with the lost Rock</text>
<text text-anchor="middle" x="1451.5" y="-350.33" font-family="Times,serif" font-size="14.00">Raiders</text>
<text text-anchor="middle" x="1451.5" y="-335.33" font-family="Times,serif" font-size="14.00">locate the missing group of Rock Raiders</text>
</g>
<!-- 8&#45;&gt;11\nfind the cavern with the lost Rock\nRaiders\nlocate the missing group of Rock Raiders -->
<g id="edge19" class="edge">
<title>8&#45;&gt;11\nfind the cavern with the lost Rock\nRaiders\nlocate the missing group of Rock Raiders</title>
<path fill="none" stroke="black" d="M1294.15,-349.53C1301.61,-350.1 1310.28,-350.77 1319.65,-351.49"/>
<polygon fill="black" stroke="black" points="1319.39,-354.98 1329.63,-352.25 1319.93,-348 1319.39,-354.98"/>
</g>
<!-- 13\nfind the lost Rock Raiders\nlocate the missing Rock Raiders -->
<g id="node14" class="node">
<title>13\nfind the lost Rock Raiders\nlocate the missing Rock Raiders</title>
<polygon fill="none" stroke="black" points="1548,-309.03 1355,-309.03 1355,-256.03 1548,-256.03 1548,-309.03"/>
<text text-anchor="middle" x="1451.5" y="-293.83" font-family="Times,serif" font-size="14.00">13</text>
<text text-anchor="middle" x="1451.5" y="-278.83" font-family="Times,serif" font-size="14.00">find the lost Rock Raiders</text>
<text text-anchor="middle" x="1451.5" y="-263.83" font-family="Times,serif" font-size="14.00">locate the missing Rock Raiders</text>
</g>
<!-- 8&#45;&gt;13\nfind the lost Rock Raiders\nlocate the missing Rock Raiders -->
<g id="edge20" class="edge">
<title>8&#45;&gt;13\nfind the lost Rock Raiders\nlocate the missing Rock Raiders</title>
<path fill="none" stroke="black" d="M1294.18,-334.23C1305.1,-328.97 1318.01,-323.09 1330,-318.53 1335.49,-316.43 1341.16,-314.39 1346.9,-312.39"/>
<polygon fill="black" stroke="black" points="1348.28,-315.62 1356.63,-309.09 1346.04,-308.99 1348.28,-315.62"/>
</g>
<!-- 10\n[lost_miners_one] -->
<g id="node11" class="node">
<title>10\n[lost_miners_one]</title>
<text text-anchor="middle" x="1679" y="-433.33" font-family="Times,serif" font-size="14.00" fill="blue">10</text>
<text text-anchor="middle" x="1679" y="-418.33" font-family="Times,serif" font-size="14.00" fill="blue">[lost_miners_one]</text>
</g>
<!-- 9\nfind the lost Rock Raider\nlocate the missing Rock Raider&#45;&gt;10\n[lost_miners_one] -->
<g id="edge21" class="edge">
<title>9\nfind the lost Rock Raider\nlocate the missing Rock Raider&#45;&gt;10\n[lost_miners_one]</title>
<path fill="none" stroke="blue" d="M1545.52,-435.99C1567.32,-434.92 1590.13,-433.81 1610.56,-432.82"/>
<polygon fill="blue" stroke="blue" points="1610.87,-436.3 1620.69,-432.32 1610.53,-429.31 1610.87,-436.3"/>
</g>
<!-- 15 -->
<g id="node16" class="node">
<title>15</title>
<text text-anchor="middle" x="1812" y="-359.83" font-family="Times,serif" font-size="14.00">15</text>
</g>
<!-- 10\n[lost_miners_one]&#45;&gt;15 -->
<g id="edge22" class="edge">
<title>10\n[lost_miners_one]&#45;&gt;15</title>
<path fill="none" stroke="blue" d="M1717.89,-410.44C1736.17,-401.23 1757.95,-390.25 1775.85,-381.23"/>
<polygon fill="blue" stroke="blue" points="1777.46,-384.34 1784.82,-376.72 1774.31,-378.09 1777.46,-384.34"/>
</g>
<!-- 12\n[lost_miners_together] -->
<g id="node13" class="node">
<title>12\n[lost_miners_together]</title>
<text text-anchor="middle" x="1679" y="-366.33" font-family="Times,serif" font-size="14.00" fill="blue">12</text>
<text text-anchor="middle" x="1679" y="-351.33" font-family="Times,serif" font-size="14.00" fill="blue">[lost_miners_together]</text>
</g>
<!-- 11\nfind the cavern with the lost Rock\nRaiders\nlocate the missing group of Rock Raiders&#45;&gt;12\n[lost_miners_together] -->
<g id="edge23" class="edge">
<title>11\nfind the cavern with the lost Rock\nRaiders\nlocate the missing group of Rock Raiders&#45;&gt;12\n[lost_miners_together]</title>
<path fill="none" stroke="blue" d="M1573.17,-362.06C1581.88,-362.1 1590.53,-362.14 1598.9,-362.17"/>
<polygon fill="blue" stroke="blue" points="1598.95,-365.67 1608.97,-362.22 1598.98,-358.67 1598.95,-365.67"/>
</g>
<!-- 12\n[lost_miners_together]&#45;&gt;15 -->
<g id="edge24" class="edge">
<title>12\n[lost_miners_together]&#45;&gt;15</title>
<path fill="none" stroke="blue" d="M1749.34,-363.05C1758.13,-363.12 1766.82,-363.19 1774.79,-363.25"/>
<polygon fill="blue" stroke="blue" points="1774.77,-366.75 1784.8,-363.33 1774.82,-359.75 1774.77,-366.75"/>
</g>
<!-- 14\n[lost_miners_apart] -->
<g id="node15" class="node">
<title>14\n[lost_miners_apart]</title>
<text text-anchor="middle" x="1679" y="-299.33" font-family="Times,serif" font-size="14.00" fill="blue">14</text>
<text text-anchor="middle" x="1679" y="-284.33" font-family="Times,serif" font-size="14.00" fill="blue">[lost_miners_apart]</text>
</g>
<!-- 13\nfind the lost Rock Raiders\nlocate the missing Rock Raiders&#45;&gt;14\n[lost_miners_apart] -->
<g id="edge25" class="edge">
<title>13\nfind the lost Rock Raiders\nlocate the missing Rock Raiders&#45;&gt;14\n[lost_miners_apart]</title>
<path fill="none" stroke="blue" d="M1548.13,-288.04C1567.88,-289.18 1588.35,-290.36 1607.03,-291.43"/>
<polygon fill="blue" stroke="blue" points="1607.03,-294.94 1617.22,-292.02 1607.43,-287.95 1607.03,-294.94"/>
</g>
<!-- 14\n[lost_miners_apart]&#45;&gt;15 -->
<g id="edge26" class="edge">
<title>14\n[lost_miners_apart]&#45;&gt;15</title>
<path fill="none" stroke="blue" d="M1716.84,-314.65C1735.27,-324.22 1757.47,-335.74 1775.69,-345.2"/>
<polygon fill="blue" stroke="blue" points="1774.32,-348.43 1784.81,-349.93 1777.55,-342.22 1774.32,-348.43"/>
</g>
<!-- 16\nbefore the %(monster_type)s monsters do! -->
<g id="node17" class="node">
<title>16\nbefore the %(monster_type)s monsters do!</title>
<polygon fill="none" stroke="black" points="2126,-434.53 1875,-434.53 1875,-396.53 2126,-396.53 2126,-434.53"/>
<text text-anchor="middle" x="2000.5" y="-419.33" font-family="Times,serif" font-size="14.00">16</text>
<text text-anchor="middle" x="2000.5" y="-404.33" font-family="Times,serif" font-size="14.00">before the %(monster_type)s monsters do!</text>
</g>
<!-- 15&#45;&gt;16\nbefore the %(monster_type)s monsters do! -->
<g id="edge28" class="edge">
<title>15&#45;&gt;16\nbefore the %(monster_type)s monsters do!</title>
<path fill="none" stroke="black" d="M1839.18,-371.79C1850.21,-375.21 1863.2,-379.15 1875,-382.53 1888.15,-386.28 1902.12,-390.13 1915.77,-393.8"/>
<polygon fill="black" stroke="black" points="1915.07,-397.24 1925.64,-396.45 1916.89,-390.48 1915.07,-397.24"/>
</g>
<!-- 35\n. -->
<g id="node36" class="node">
<title>35\n.</title>
<polygon fill="none" stroke="black" points="2027.5,-333.53 1973.5,-333.53 1973.5,-295.53 2027.5,-295.53 2027.5,-333.53"/>
<text text-anchor="middle" x="2000.5" y="-318.33" font-family="Times,serif" font-size="14.00">35</text>
<text text-anchor="middle" x="2000.5" y="-303.33" font-family="Times,serif" font-size="14.00">.</text>
</g>
<!-- 15&#45;&gt;35\n. -->
<g id="edge27" class="edge">
<title>15&#45;&gt;35\n.</title>
<path fill="none" stroke="black" d="M1839.33,-356.61C1871.82,-348.07 1927.21,-333.52 1963.59,-323.96"/>
<polygon fill="black" stroke="black" points="1964.53,-327.33 1973.31,-321.41 1962.75,-320.56 1964.53,-327.33"/>
</g>
<!-- 15&#45;&gt;38\n. -->
<g id="edge29" class="edge">
<title>15&#45;&gt;38\n.</title>
<path fill="none" stroke="black" d="M1839.3,-363.76C1927.43,-364.38 2220.38,-365.21 2462,-351.53 2617.37,-342.73 2801.85,-322.01 2878.65,-312.92"/>
<polygon fill="black" stroke="black" points="2879.24,-316.38 2888.76,-311.72 2878.41,-309.43 2879.24,-316.38"/>
</g>
<!-- 17\n[has_monsters] -->
<g id="node18" class="node">
<title>17\n[has_monsters]</title>
<text text-anchor="middle" x="2212" y="-419.33" font-family="Times,serif" font-size="14.00" fill="blue">17</text>
<text text-anchor="middle" x="2212" y="-404.33" font-family="Times,serif" font-size="14.00" fill="blue">[has_monsters]</text>
</g>
<!-- 16\nbefore the %(monster_type)s monsters do!&#45;&gt;17\n[has_monsters] -->
<g id="edge30" class="edge">
<title>16\nbefore the %(monster_type)s monsters do!&#45;&gt;17\n[has_monsters]</title>
<path fill="none" stroke="blue" d="M2126.09,-415.53C2134.86,-415.53 2143.44,-415.53 2151.57,-415.53"/>
<polygon fill="blue" stroke="blue" points="2151.61,-419.03 2161.61,-415.53 2151.61,-412.03 2151.61,-419.03"/>
</g>
<!-- 36\nOnce you have done that,\nWith them secure,\nAlong the way, -->
<g id="node37" class="node">
<title>36\nOnce you have done that,\nWith them secure,\nAlong the way,</title>
<polygon fill="none" stroke="black" points="2458,-342.53 2302,-342.53 2302,-274.53 2458,-274.53 2458,-342.53"/>
<text text-anchor="middle" x="2380" y="-327.33" font-family="Times,serif" font-size="14.00">36</text>
<text text-anchor="middle" x="2380" y="-312.33" font-family="Times,serif" font-size="14.00">Once you have done that,</text>
<text text-anchor="middle" x="2380" y="-297.33" font-family="Times,serif" font-size="14.00">With them secure,</text>
<text text-anchor="middle" x="2380" y="-282.33" font-family="Times,serif" font-size="14.00">Along the way,</text>
</g>
<!-- 17\n[has_monsters]&#45;&gt;36\nOnce you have done that,\nWith them secure,\nAlong the way, -->
<g id="edge31" class="edge">
<title>17\n[has_monsters]&#45;&gt;36\nOnce you have done that,\nWith them secure,\nAlong the way,</title>
<path fill="none" stroke="blue" d="M2242.68,-396.4C2263.46,-383 2291.97,-364.62 2317.55,-348.14"/>
<polygon fill="blue" stroke="blue" points="2319.58,-350.99 2326.09,-342.63 2315.79,-345.1 2319.58,-350.99"/>
</g>
<!-- 37 -->
<g id="node38" class="node">
<title>37</title>
<text text-anchor="middle" x="3006" y="-357.83" font-family="Times,serif" font-size="14.00">37</text>
</g>
<!-- 17\n[has_monsters]&#45;&gt;37 -->
<g id="edge32" class="edge">
<title>17\n[has_monsters]&#45;&gt;37</title>
<path fill="none" stroke="blue" d="M2262.1,-414.9C2335.12,-414.02 2476.66,-412.53 2597,-412.53 2597,-412.53 2597,-412.53 2794.5,-412.53 2857.38,-412.53 2927.92,-390.77 2969.29,-375.67"/>
<polygon fill="blue" stroke="blue" points="2970.76,-378.86 2978.91,-372.09 2968.32,-372.3 2970.76,-378.86"/>
</g>
<!-- 19\n[has_monsters] -->
<g id="node20" class="node">
<title>19\n[has_monsters]</title>
<text text-anchor="middle" x="438.5" y="-311.33" font-family="Times,serif" font-size="14.00" fill="blue">19</text>
<text text-anchor="middle" x="438.5" y="-296.33" font-family="Times,serif" font-size="14.00" fill="blue">[has_monsters]</text>
</g>
<!-- 18\ndefend the Rock Radier HQ\nbuild up your defenses\narm your Rock Raiders&#45;&gt;19\n[has_monsters] -->
<g id="edge33" class="edge">
<title>18\ndefend the Rock Radier HQ\nbuild up your defenses\narm your Rock Raiders&#45;&gt;19\n[has_monsters]</title>
<path fill="none" stroke="blue" d="M298.17,-300.65C324.77,-301.96 353.63,-303.39 378.15,-304.6"/>
<polygon fill="blue" stroke="blue" points="378.21,-308.1 388.37,-305.1 378.56,-301.11 378.21,-308.1"/>
</g>
<!-- 19\n[has_monsters]&#45;&gt;29 -->
<g id="edge34" class="edge">
<title>19\n[has_monsters]&#45;&gt;29</title>
<path fill="none" stroke="blue" d="M488.68,-324.1C567.82,-347.84 726.74,-383.29 847,-331.53 867.9,-322.53 885.74,-303.92 898.04,-288.15"/>
<polygon fill="blue" stroke="blue" points="901.13,-289.87 904.29,-279.76 895.51,-285.69 901.13,-289.87"/>
</g>
<!-- 32\n, -->
<g id="node33" class="node">
<title>32\n,</title>
<polygon fill="none" stroke="black" points="622,-326.53 568,-326.53 568,-288.53 622,-288.53 622,-326.53"/>
<text text-anchor="middle" x="595" y="-311.33" font-family="Times,serif" font-size="14.00">32</text>
<text text-anchor="middle" x="595" y="-296.33" font-family="Times,serif" font-size="14.00">,</text>
</g>
<!-- 19\n[has_monsters]&#45;&gt;32\n, -->
<g id="edge35" class="edge">
<title>19\n[has_monsters]&#45;&gt;32\n,</title>
<path fill="none" stroke="blue" d="M488.81,-307.53C511.07,-307.53 536.91,-307.53 557.4,-307.53"/>
<polygon fill="blue" stroke="blue" points="557.59,-311.03 567.59,-307.53 557.59,-304.03 557.59,-311.03"/>
</g>
<!-- 21\n[spawn_is_ruins] -->
<g id="node22" class="node">
<title>21\n[spawn_is_ruins]</title>
<text text-anchor="middle" x="595" y="-405.33" font-family="Times,serif" font-size="14.00" fill="blue">21</text>
<text text-anchor="middle" x="595" y="-390.33" font-family="Times,serif" font-size="14.00" fill="blue">[spawn_is_ruins]</text>
</g>
<!-- 20\nclean up this mess\nget the Rock Raider HQ back in operation&#45;&gt;21\n[spawn_is_ruins] -->
<g id="edge36" class="edge">
<title>20\nclean up this mess\nget the Rock Raider HQ back in operation&#45;&gt;21\n[spawn_is_ruins]</title>
<path fill="none" stroke="blue" d="M337.19,-390.7C401.34,-393.4 477.24,-396.6 529.8,-398.82"/>
<polygon fill="blue" stroke="blue" points="529.86,-402.32 540,-399.25 530.15,-395.33 529.86,-402.32"/>
</g>
<!-- 21\n[spawn_is_ruins]&#45;&gt;3\nand keep it safe\nand make sure it is heavily defended -->
<g id="edge39" class="edge">
<title>21\n[spawn_is_ruins]&#45;&gt;3\nand keep it safe\nand make sure it is heavily defended</title>
<path fill="none" stroke="blue" d="M650.4,-410.07C702.3,-416.1 781.97,-419.79 847,-398.53 919.68,-374.76 924.12,-342.03 987,-298.53 1006.06,-285.34 1027.21,-271.09 1045.68,-258.77"/>
<polygon fill="blue" stroke="blue" points="1047.85,-261.54 1054.23,-253.08 1043.97,-255.71 1047.85,-261.54"/>
</g>
<!-- 21\n[spawn_is_ruins]&#45;&gt;25\nas soon as possible\nas soon as you can -->
<g id="edge38" class="edge">
<title>21\n[spawn_is_ruins]&#45;&gt;25\nas soon as possible\nas soon as you can</title>
<path fill="none" stroke="blue" d="M626.7,-382.33C651.08,-367.08 685.7,-345.43 714.27,-327.56"/>
<polygon fill="blue" stroke="blue" points="716.3,-330.42 722.92,-322.15 712.59,-324.49 716.3,-330.42"/>
</g>
<!-- 21\n[spawn_is_ruins]&#45;&gt;29 -->
<g id="edge37" class="edge">
<title>21\n[spawn_is_ruins]&#45;&gt;29</title>
<path fill="none" stroke="blue" d="M650.03,-405.69C704.01,-407.23 787.33,-402.23 847,-364.53 874.99,-346.84 894.25,-313.23 905.17,-289.21"/>
<polygon fill="blue" stroke="blue" points="908.44,-290.46 909.21,-279.89 902.02,-287.67 908.44,-290.46"/>
</g>
<!-- 23\n[find_hq] -->
<g id="node24" class="node">
<title>23\n[find_hq]</title>
<text text-anchor="middle" x="917" y="-102.33" font-family="Times,serif" font-size="14.00" fill="blue">23</text>
<text text-anchor="middle" x="917" y="-87.33" font-family="Times,serif" font-size="14.00" fill="blue">[find_hq]</text>
</g>
<!-- 22\nreach the Rock Raider HQ\nlocate the base&#45;&gt;23\n[find_hq] -->
<g id="edge40" class="edge">
<title>22\nreach the Rock Raider HQ\nlocate the base&#45;&gt;23\n[find_hq]</title>
<path fill="none" stroke="blue" d="M847.4,-80.05C856.19,-82.41 864.86,-84.75 872.94,-86.93"/>
<polygon fill="blue" stroke="blue" points="872.25,-90.36 882.81,-89.59 874.07,-83.61 872.25,-90.36"/>
</g>
<!-- 23\n[find_hq]&#45;&gt;3\nand keep it safe\nand make sure it is heavily defended -->
<g id="edge41" class="edge">
<title>23\n[find_hq]&#45;&gt;3\nand keep it safe\nand make sure it is heavily defended</title>
<path fill="none" stroke="blue" d="M927.83,-117.83C939.35,-138.6 960.29,-171.24 987,-190.53 989.09,-192.04 991.26,-193.49 993.47,-194.88"/>
<polygon fill="blue" stroke="blue" points="991.87,-198 1002.28,-199.97 995.37,-191.94 991.87,-198"/>
</g>
<!-- 24\nand use it to\n, and from there you can -->
<g id="node25" class="node">
<title>24\nand use it to\n, and from there you can</title>
<polygon fill="none" stroke="black" points="1171.5,-125.03 1019.5,-125.03 1019.5,-72.03 1171.5,-72.03 1171.5,-125.03"/>
<text text-anchor="middle" x="1095.5" y="-109.83" font-family="Times,serif" font-size="14.00">24</text>
<text text-anchor="middle" x="1095.5" y="-94.83" font-family="Times,serif" font-size="14.00">and use it to</text>
<text text-anchor="middle" x="1095.5" y="-79.83" font-family="Times,serif" font-size="14.00">, and from there you can</text>
</g>
<!-- 23\n[find_hq]&#45;&gt;24\nand use it to\n, and from there you can -->
<g id="edge42" class="edge">
<title>23\n[find_hq]&#45;&gt;24\nand use it to\n, and from there you can</title>
<path fill="none" stroke="blue" d="M951.2,-98.53C967.76,-98.53 988.63,-98.53 1009.28,-98.53"/>
<polygon fill="blue" stroke="blue" points="1009.38,-102.03 1019.38,-98.53 1009.38,-95.03 1009.38,-102.03"/>
</g>
<!-- 33\nand -->
<g id="node34" class="node">
<title>33\nand</title>
<polygon fill="none" stroke="black" points="1122.5,-181.53 1068.5,-181.53 1068.5,-143.53 1122.5,-143.53 1122.5,-181.53"/>
<text text-anchor="middle" x="1095.5" y="-166.33" font-family="Times,serif" font-size="14.00">33</text>
<text text-anchor="middle" x="1095.5" y="-151.33" font-family="Times,serif" font-size="14.00">and</text>
</g>
<!-- 23\n[find_hq]&#45;&gt;33\nand -->
<g id="edge43" class="edge">
<title>23\n[find_hq]&#45;&gt;33\nand</title>
<path fill="none" stroke="blue" d="M951.06,-117.04C962.25,-122.83 974.96,-128.9 987,-133.53 1010.26,-142.45 1037.36,-149.74 1058.52,-154.78"/>
<polygon fill="blue" stroke="blue" points="1057.86,-158.22 1068.39,-157.07 1059.44,-151.4 1057.86,-158.22"/>
</g>
<!-- 24\nand use it to\n, and from there you can&#45;&gt;8 -->
<g id="edge44" class="edge">
<title>24\nand use it to\n, and from there you can&#45;&gt;8</title>
<path fill="none" stroke="black" d="M1171.65,-113.22C1183.67,-118.33 1195.07,-125.23 1204,-134.53 1253.3,-185.84 1263.74,-274.03 1265.72,-319.15"/>
<polygon fill="black" stroke="black" points="1262.23,-319.5 1266.06,-329.38 1269.23,-319.27 1262.23,-319.5"/>
</g>
<!-- 26\ncontinue our mining operation by\ncollecting %(resources)s\ncollect %(resources)s -->
<g id="node27" class="node">
<title>26\ncontinue our mining operation by\ncollecting %(resources)s\ncollect %(resources)s</title>
<polygon fill="none" stroke="black" points="2698,-218.53 2498,-218.53 2498,-150.53 2698,-150.53 2698,-218.53"/>
<text text-anchor="middle" x="2598" y="-203.33" font-family="Times,serif" font-size="14.00">26</text>
<text text-anchor="middle" x="2598" y="-188.33" font-family="Times,serif" font-size="14.00">continue our mining operation by</text>
<text text-anchor="middle" x="2598" y="-173.33" font-family="Times,serif" font-size="14.00">collecting %(resources)s</text>
<text text-anchor="middle" x="2598" y="-158.33" font-family="Times,serif" font-size="14.00">collect %(resources)s</text>
</g>
<!-- 24\nand use it to\n, and from there you can&#45;&gt;26\ncontinue our mining operation by\ncollecting %(resources)s\ncollect %(resources)s -->
<g id="edge45" class="edge">
<title>24\nand use it to\n, and from there you can&#45;&gt;26\ncontinue our mining operation by\ncollecting %(resources)s\ncollect %(resources)s</title>
<path fill="none" stroke="black" d="M1171.77,-98.53C1243.44,-98.53 1354.32,-98.53 1450.5,-98.53 1450.5,-98.53 1450.5,-98.53 2213,-98.53 2324.82,-98.53 2353.64,-106.95 2462,-134.53 2475.68,-138.01 2489.89,-142.38 2503.74,-147.09"/>
<polygon fill="black" stroke="black" points="2502.66,-150.42 2513.25,-150.4 2504.95,-143.81 2502.66,-150.42"/>
</g>
<!-- 25\nas soon as possible\nas soon as you can&#45;&gt;29 -->
<g id="edge46" class="edge">
<title>25\nas soon as possible\nas soon as you can&#45;&gt;29</title>
<path fill="none" stroke="black" d="M826.62,-281.99C844.66,-277.86 863.96,-273.44 879.98,-269.77"/>
<polygon fill="black" stroke="black" points="881.03,-273.12 890,-267.48 879.47,-266.3 881.03,-273.12"/>
</g>
<!-- 27\n[collect_resources] -->
<g id="node28" class="node">
<title>27\n[collect_resources]</title>
<text text-anchor="middle" x="2793.5" y="-196.33" font-family="Times,serif" font-size="14.00" fill="blue">27</text>
<text text-anchor="middle" x="2793.5" y="-181.33" font-family="Times,serif" font-size="14.00" fill="blue">[collect_resources]</text>
</g>
<!-- 26\ncontinue our mining operation by\ncollecting %(resources)s\ncollect %(resources)s&#45;&gt;27\n[collect_resources] -->
<g id="edge47" class="edge">
<title>26\ncontinue our mining operation by\ncollecting %(resources)s\ncollect %(resources)s&#45;&gt;27\n[collect_resources]</title>
<path fill="none" stroke="blue" d="M2698.02,-188.62C2706.74,-188.98 2715.44,-189.34 2723.84,-189.69"/>
<polygon fill="blue" stroke="blue" points="2723.77,-193.19 2733.9,-190.1 2724.06,-186.19 2723.77,-193.19"/>
</g>
<!-- 27\n[collect_resources]&#45;&gt;38\n. -->
<g id="edge48" class="edge">
<title>27\n[collect_resources]&#45;&gt;38\n.</title>
<path fill="none" stroke="blue" d="M2826.11,-211.72C2835.2,-217.87 2844.85,-225.03 2853,-232.53 2868.98,-247.2 2884.41,-266.1 2895.88,-281.37"/>
<polygon fill="blue" stroke="blue" points="2893.07,-283.46 2901.82,-289.44 2898.71,-279.31 2893.07,-283.46"/>
</g>
<!-- 28\nWe&#39;re counting on you!\nGood luck out there! -->
<g id="node29" class="node">
<title>28\nWe&#39;re counting on you!\nGood luck out there!</title>
<polygon fill="none" stroke="black" points="3214,-361.03 3069,-361.03 3069,-308.03 3214,-308.03 3214,-361.03"/>
<text text-anchor="middle" x="3141.5" y="-345.83" font-family="Times,serif" font-size="14.00">28</text>
<text text-anchor="middle" x="3141.5" y="-330.83" font-family="Times,serif" font-size="14.00">We&#39;re counting on you!</text>
<text text-anchor="middle" x="3141.5" y="-315.83" font-family="Times,serif" font-size="14.00">Good luck out there!</text>
</g>
<!-- 28\nWe&#39;re counting on you!\nGood luck out there!&#45;&gt;1\n[end] -->
<g id="edge49" class="edge">
<title>28\nWe&#39;re counting on you!\nGood luck out there!&#45;&gt;1\n[end]</title>
<path fill="none" stroke="green" d="M3214.33,-349.05C3223.17,-350.84 3231.89,-352.6 3239.87,-354.22"/>
<polygon fill="green" stroke="green" points="3239.37,-357.69 3249.87,-356.24 3240.76,-350.83 3239.37,-357.69"/>
</g>
<!-- 31\n, then\nand -->
<g id="node32" class="node">
<title>31\n, then\nand</title>
<polygon fill="none" stroke="black" points="1122.5,-360.03 1068.5,-360.03 1068.5,-307.03 1122.5,-307.03 1122.5,-360.03"/>
<text text-anchor="middle" x="1095.5" y="-344.83" font-family="Times,serif" font-size="14.00">31</text>
<text text-anchor="middle" x="1095.5" y="-329.83" font-family="Times,serif" font-size="14.00">, then</text>
<text text-anchor="middle" x="1095.5" y="-314.83" font-family="Times,serif" font-size="14.00">and</text>
</g>
<!-- 29&#45;&gt;31\n, then\nand -->
<g id="edge50" class="edge">
<title>29&#45;&gt;31\n, then\nand</title>
<path fill="none" stroke="black" d="M944.04,-272.15C974.42,-284.54 1024.79,-305.09 1058.79,-318.96"/>
<polygon fill="black" stroke="black" points="1057.77,-322.32 1068.35,-322.86 1060.41,-315.84 1057.77,-322.32"/>
</g>
<!-- 29&#45;&gt;33\nand -->
<g id="edge51" class="edge">
<title>29&#45;&gt;33\nand</title>
<path fill="none" stroke="black" d="M930.99,-243.35C943.54,-227.13 963.98,-203.93 987,-190.53 1008.77,-177.85 1036.31,-170.82 1058.07,-166.97"/>
<polygon fill="black" stroke="black" points="1058.92,-170.38 1068.23,-165.33 1057.8,-163.47 1058.92,-170.38"/>
</g>
<!-- 30\n,&#45;&gt;2\nbuild the Rock Raider HQ\nbuild up your base -->
<g id="edge52" class="edge">
<title>30\n,&#45;&gt;2\nbuild the Rock Raider HQ\nbuild up your base</title>
<path fill="none" stroke="black" d="M622.11,-136.29C636.89,-135.6 656.33,-134.68 676.11,-133.74"/>
<polygon fill="black" stroke="black" points="676.32,-137.24 686.14,-133.27 675.99,-130.25 676.32,-137.24"/>
</g>
<!-- 30\n,&#45;&gt;22\nreach the Rock Raider HQ\nlocate the base -->
<g id="edge53" class="edge">
<title>30\n,&#45;&gt;22\nreach the Rock Raider HQ\nlocate the base</title>
<path fill="none" stroke="black" d="M622.25,-124.35C640.13,-115.46 664.39,-103.56 686,-93.53 689.1,-92.08 692.28,-90.62 695.5,-89.16"/>
<polygon fill="black" stroke="black" points="696.95,-92.34 704.62,-85.03 694.07,-85.96 696.95,-92.34"/>
</g>
<!-- 31\n, then\nand&#45;&gt;8 -->
<g id="edge54" class="edge">
<title>31\n, then\nand&#45;&gt;8</title>
<path fill="none" stroke="black" d="M1122.61,-335.68C1151.23,-338.05 1197.34,-341.85 1229.52,-344.51"/>
<polygon fill="black" stroke="black" points="1229.6,-348.03 1239.86,-345.37 1230.18,-341.05 1229.6,-348.03"/>
</g>
<!-- 32\n,&#45;&gt;5\nexplore the cavern -->
<g id="edge55" class="edge">
<title>32\n,&#45;&gt;5\nexplore the cavern</title>
<path fill="none" stroke="black" d="M622.33,-292.6C640.04,-282.86 664.07,-270.2 686,-260.53 690.75,-258.43 695.71,-256.36 700.72,-254.35"/>
<polygon fill="black" stroke="black" points="702.35,-257.47 710.38,-250.56 699.8,-250.95 702.35,-257.47"/>
</g>
<!-- 33\nand&#45;&gt;26\ncontinue our mining operation by\ncollecting %(resources)s\ncollect %(resources)s -->
<g id="edge56" class="edge">
<title>33\nand&#45;&gt;26\ncontinue our mining operation by\ncollecting %(resources)s\ncollect %(resources)s</title>
<path fill="none" stroke="black" d="M1122.65,-159.28C1181.25,-152.32 1327.56,-136.53 1450.5,-136.53 1450.5,-136.53 1450.5,-136.53 2213,-136.53 2323.99,-136.53 2352.16,-139.61 2462,-155.53 2470.45,-156.75 2479.15,-158.19 2487.89,-159.77"/>
<polygon fill="black" stroke="black" points="2487.27,-163.22 2497.75,-161.61 2488.56,-156.34 2487.27,-163.22"/>
</g>
<!-- 34\n. Then\n. Once you have done that,&#45;&gt;26\ncontinue our mining operation by\ncollecting %(resources)s\ncollect %(resources)s -->
<g id="edge57" class="edge">
<title>34\n. Then\n. Once you have done that,&#45;&gt;26\ncontinue our mining operation by\ncollecting %(resources)s\ncollect %(resources)s</title>
<path fill="none" stroke="black" d="M2462.04,-188.9C2470.48,-188.63 2479.14,-188.34 2487.82,-188.06"/>
<polygon fill="black" stroke="black" points="2488.11,-191.56 2498,-187.73 2487.89,-184.56 2488.11,-191.56"/>
</g>
<!-- 35\n.&#45;&gt;36\nOnce you have done that,\nWith them secure,\nAlong the way, -->
<g id="edge58" class="edge">
<title>35\n.&#45;&gt;36\nOnce you have done that,\nWith them secure,\nAlong the way,</title>
<path fill="none" stroke="black" d="M2027.75,-314.11C2081.49,-313.25 2206.19,-311.27 2291.58,-309.91"/>
<polygon fill="black" stroke="black" points="2291.85,-313.41 2301.79,-309.75 2291.73,-306.41 2291.85,-313.41"/>
</g>
<!-- 36\nOnce you have done that,\nWith them secure,\nAlong the way,&#45;&gt;26\ncontinue our mining operation by\ncollecting %(resources)s\ncollect %(resources)s -->
<g id="edge59" class="edge">
<title>36\nOnce you have done that,\nWith them secure,\nAlong the way,&#45;&gt;26\ncontinue our mining operation by\ncollecting %(resources)s\ncollect %(resources)s</title>
<path fill="none" stroke="black" d="M2440.31,-274.48C2467.58,-258.82 2500.09,-240.16 2528.41,-223.9"/>
<polygon fill="black" stroke="black" points="2530.52,-226.73 2537.45,-218.71 2527.03,-220.66 2530.52,-226.73"/>
</g>
<!-- 37&#45;&gt;1\n[end] -->
<g id="edge60" class="edge">
<title>37&#45;&gt;1\n[end]</title>
<path fill="none" stroke="green" d="M3033.15,-366.18C3044.18,-367.91 3057.18,-369.67 3069,-370.53 3133.28,-375.17 3149.72,-375.17 3214,-370.53 3222.41,-369.92 3231.4,-368.85 3239.87,-367.67"/>
<polygon fill="green" stroke="green" points="3240.47,-371.11 3249.85,-366.18 3239.44,-364.19 3240.47,-371.11"/>
</g>
<!-- 37&#45;&gt;28\nWe&#39;re counting on you!\nGood luck out there! -->
<g id="edge61" class="edge">
<title>37&#45;&gt;28\nWe&#39;re counting on you!\nGood luck out there!</title>
<path fill="none" stroke="black" d="M3033.06,-356.26C3040.69,-354.71 3049.47,-352.93 3058.66,-351.08"/>
<polygon fill="black" stroke="black" points="3059.64,-354.45 3068.75,-349.04 3058.25,-347.59 3059.64,-354.45"/>
</g>
<!-- 38\n.&#45;&gt;37 -->
<g id="edge62" class="edge">
<title>38\n.&#45;&gt;37</title>
<path fill="none" stroke="black" d="M2943.4,-324.43C2951.83,-329.5 2961.29,-335.2 2970.22,-340.58"/>
<polygon fill="black" stroke="black" points="2968.55,-343.66 2978.92,-345.82 2972.16,-337.66 2968.55,-343.66"/>
</g>
</g>
</svg>
