<?xml version="1.0" encoding="UTF-8" standalone="no"?>
<!DOCTYPE svg PUBLIC "-//W3C//DTD SVG 1.1//EN"
 "http://www.w3.org/Graphics/SVG/1.1/DTD/svg11.dtd">
<!-- Generated by graphviz version 2.43.0 (0)
 -->
<!-- Title: G Pages: 1 -->
<svg width="3444pt" height="483pt"
 viewBox="0.00 0.00 3444.00 483.19" xmlns="http://www.w3.org/2000/svg" xmlns:xlink="http://www.w3.org/1999/xlink">
<g id="graph0" class="graph" transform="scale(1 1) rotate(0) translate(4 479.19)">
<title>G</title>
<polygon fill="white" stroke="transparent" points="-4,4 -4,-479.19 3440,-479.19 3440,4 -4,4"/>
<!-- 0\n[start] -->
<g id="node1" class="node">
<title>0\n[start]</title>
<text text-anchor="middle" x="27" y="-233.01" font-family="Times,serif" font-size="14.00" fill="blue">0</text>
<text text-anchor="middle" x="27" y="-218.01" font-family="Times,serif" font-size="14.00" fill="blue">[start]</text>
</g>
<!-- 2\nbuild the Rock Raider HQ\nbuild up your base -->
<g id="node3" class="node">
<title>2\nbuild the Rock Raider HQ\nbuild up your base</title>
<polygon fill="none" stroke="black" points="939.5,-162.71 779.5,-162.71 779.5,-109.71 939.5,-109.71 939.5,-162.71"/>
<text text-anchor="middle" x="859.5" y="-147.51" font-family="Times,serif" font-size="14.00">2</text>
<text text-anchor="middle" x="859.5" y="-132.51" font-family="Times,serif" font-size="14.00">build the Rock Raider HQ</text>
<text text-anchor="middle" x="859.5" y="-117.51" font-family="Times,serif" font-size="14.00">build up your base</text>
</g>
<!-- 0\n[start]&#45;&gt;2\nbuild the Rock Raider HQ\nbuild up your base -->
<g id="edge2" class="edge">
<title>0\n[start]&#45;&gt;2\nbuild the Rock Raider HQ\nbuild up your base</title>
<path fill="none" stroke="blue" d="M33.07,-209.91C40.75,-185.04 57.96,-142.81 90,-124.21 194.36,-63.61 512.32,-117.1 633,-116.21 681.89,-115.85 694.29,-112.02 743,-116.21 751.54,-116.94 760.41,-117.98 769.25,-119.19"/>
<polygon fill="blue" stroke="blue" points="768.81,-122.66 779.2,-120.63 769.81,-115.74 768.81,-122.66"/>
</g>
<!-- 5\nexplore the cavern -->
<g id="node6" class="node">
<title>5\nexplore the cavern</title>
<polygon fill="none" stroke="black" points="918,-257.21 801,-257.21 801,-219.21 918,-219.21 918,-257.21"/>
<text text-anchor="middle" x="859.5" y="-242.01" font-family="Times,serif" font-size="14.00">5</text>
<text text-anchor="middle" x="859.5" y="-227.01" font-family="Times,serif" font-size="14.00">explore the cavern</text>
</g>
<!-- 0\n[start]&#45;&gt;5\nexplore the cavern -->
<g id="edge1" class="edge">
<title>0\n[start]&#45;&gt;5\nexplore the cavern</title>
<path fill="none" stroke="blue" d="M54.23,-229.49C167.64,-230.72 617.95,-235.6 790.62,-237.47"/>
<polygon fill="blue" stroke="blue" points="790.81,-240.97 800.85,-237.58 790.89,-233.97 790.81,-240.97"/>
</g>
<!-- 6\nmove to a safer cavern\nget your Rock Raiders to safety\nmake sure your Rock Raiders are safe -->
<g id="node7" class="node">
<title>6\nmove to a safer cavern\nget your Rock Raiders to safety\nmake sure your Rock Raiders are safe</title>
<polygon fill="none" stroke="black" points="314,-201.21 90,-201.21 90,-133.21 314,-133.21 314,-201.21"/>
<text text-anchor="middle" x="202" y="-186.01" font-family="Times,serif" font-size="14.00">6</text>
<text text-anchor="middle" x="202" y="-171.01" font-family="Times,serif" font-size="14.00">move to a safer cavern</text>
<text text-anchor="middle" x="202" y="-156.01" font-family="Times,serif" font-size="14.00">get your Rock Raiders to safety</text>
<text text-anchor="middle" x="202" y="-141.01" font-family="Times,serif" font-size="14.00">make sure your Rock Raiders are safe</text>
</g>
<!-- 0\n[start]&#45;&gt;6\nmove to a safer cavern\nget your Rock Raiders to safety\nmake sure your Rock Raiders are safe -->
<g id="edge5" class="edge">
<title>0\n[start]&#45;&gt;6\nmove to a safer cavern\nget your Rock Raiders to safety\nmake sure your Rock Raiders are safe</title>
<path fill="none" stroke="blue" d="M54.27,-219.79C66.02,-215.58 80.7,-210.32 96.2,-204.76"/>
<polygon fill="blue" stroke="blue" points="97.71,-207.94 105.94,-201.27 95.35,-201.35 97.71,-207.94"/>
</g>
<!-- 8 -->
<g id="node9" class="node">
<title>8</title>
<text text-anchor="middle" x="1360" y="-310.51" font-family="Times,serif" font-size="14.00">8</text>
</g>
<!-- 0\n[start]&#45;&gt;8 -->
<g id="edge7" class="edge">
<title>0\n[start]&#45;&gt;8</title>
<path fill="none" stroke="blue" d="M29.65,-248.3C33.64,-282.13 46.93,-352.48 90,-389.21 222.29,-502.03 298.64,-471.21 472.5,-471.21 472.5,-471.21 472.5,-471.21 1011,-471.21 1138.61,-471.21 1271.11,-382.4 1328.97,-338.37"/>
<polygon fill="blue" stroke="blue" points="1331.17,-341.09 1336.95,-332.22 1326.89,-335.55 1331.17,-341.09"/>
</g>
<!-- 18\ndefend the Rock Radier HQ\nbuild up your defenses\narm your Rock Raiders -->
<g id="node19" class="node">
<title>18\ndefend the Rock Radier HQ\nbuild up your defenses\narm your Rock Raiders</title>
<polygon fill="none" stroke="black" points="286.5,-337.21 117.5,-337.21 117.5,-269.21 286.5,-269.21 286.5,-337.21"/>
<text text-anchor="middle" x="202" y="-322.01" font-family="Times,serif" font-size="14.00">18</text>
<text text-anchor="middle" x="202" y="-307.01" font-family="Times,serif" font-size="14.00">defend the Rock Radier HQ</text>
<text text-anchor="middle" x="202" y="-292.01" font-family="Times,serif" font-size="14.00">build up your defenses</text>
<text text-anchor="middle" x="202" y="-277.01" font-family="Times,serif" font-size="14.00">arm your Rock Raiders</text>
</g>
<!-- 0\n[start]&#45;&gt;18\ndefend the Rock Radier HQ\nbuild up your defenses\narm your Rock Raiders -->
<g id="edge4" class="edge">
<title>0\n[start]&#45;&gt;18\ndefend the Rock Radier HQ\nbuild up your defenses\narm your Rock Raiders</title>
<path fill="none" stroke="blue" d="M54.27,-240.45C69.92,-247.14 90.78,-256.06 111.85,-265.07"/>
<polygon fill="blue" stroke="blue" points="110.63,-268.36 121.21,-269.07 113.39,-261.92 110.63,-268.36"/>
</g>
<!-- 20\nclean up this mess\nget the Rock Raider HQ back in operation -->
<g id="node21" class="node">
<title>20\nclean up this mess\nget the Rock Raider HQ back in operation</title>
<polygon fill="none" stroke="black" points="597,-419.71 350,-419.71 350,-366.71 597,-366.71 597,-419.71"/>
<text text-anchor="middle" x="473.5" y="-404.51" font-family="Times,serif" font-size="14.00">20</text>
<text text-anchor="middle" x="473.5" y="-389.51" font-family="Times,serif" font-size="14.00">clean up this mess</text>
<text text-anchor="middle" x="473.5" y="-374.51" font-family="Times,serif" font-size="14.00">get the Rock Raider HQ back in operation</text>
</g>
<!-- 0\n[start]&#45;&gt;20\nclean up this mess\nget the Rock Raider HQ back in operation -->
<g id="edge3" class="edge">
<title>0\n[start]&#45;&gt;20\nclean up this mess\nget the Rock Raider HQ back in operation</title>
<path fill="none" stroke="blue" d="M32.25,-248.26C39.3,-274.97 56.11,-322.87 90,-346.21 162.27,-395.96 260.87,-407.07 339.87,-406.08"/>
<polygon fill="blue" stroke="blue" points="339.96,-409.57 349.89,-405.88 339.82,-402.58 339.96,-409.57"/>
</g>
<!-- 22\nreach the Rock Raider HQ\nlocate the base -->
<g id="node23" class="node">
<title>22\nreach the Rock Raider HQ\nlocate the base</title>
<polygon fill="none" stroke="black" points="940,-91.71 779,-91.71 779,-38.71 940,-38.71 940,-91.71"/>
<text text-anchor="middle" x="859.5" y="-76.51" font-family="Times,serif" font-size="14.00">22</text>
<text text-anchor="middle" x="859.5" y="-61.51" font-family="Times,serif" font-size="14.00">reach the Rock Raider HQ</text>
<text text-anchor="middle" x="859.5" y="-46.51" font-family="Times,serif" font-size="14.00">locate the base</text>
</g>
<!-- 0\n[start]&#45;&gt;22\nreach the Rock Raider HQ\nlocate the base -->
<g id="edge6" class="edge">
<title>0\n[start]&#45;&gt;22\nreach the Rock Raider HQ\nlocate the base</title>
<path fill="none" stroke="blue" d="M30.32,-210.14C35.21,-179.31 49.66,-119.24 90,-92.21 298.62,47.62 615.62,-3.48 769.06,-40.4"/>
<polygon fill="blue" stroke="blue" points="768.38,-43.84 778.93,-42.81 770.04,-37.04 768.38,-43.84"/>
</g>
<!-- 1\n[end] -->
<g id="node2" class="node">
<title>1\n[end]</title>
<text text-anchor="middle" x="3409" y="-341.01" font-family="Times,serif" font-size="14.00" fill="blue">1</text>
<text text-anchor="middle" x="3409" y="-326.01" font-family="Times,serif" font-size="14.00" fill="blue">[end]</text>
</g>
<!-- 3\nand keep it safe\nand make sure it is heavily defended -->
<g id="node4" class="node">
<title>3\nand keep it safe\nand make sure it is heavily defended</title>
<polygon fill="none" stroke="black" points="1297,-228.71 1080,-228.71 1080,-175.71 1297,-175.71 1297,-228.71"/>
<text text-anchor="middle" x="1188.5" y="-213.51" font-family="Times,serif" font-size="14.00">3</text>
<text text-anchor="middle" x="1188.5" y="-198.51" font-family="Times,serif" font-size="14.00">and keep it safe</text>
<text text-anchor="middle" x="1188.5" y="-183.51" font-family="Times,serif" font-size="14.00">and make sure it is heavily defended</text>
</g>
<!-- 2\nbuild the Rock Raider HQ\nbuild up your base&#45;&gt;3\nand keep it safe\nand make sure it is heavily defended -->
<g id="edge9" class="edge">
<title>2\nbuild the Rock Raider HQ\nbuild up your base&#45;&gt;3\nand keep it safe\nand make sure it is heavily defended</title>
<path fill="none" stroke="black" d="M939.66,-152.18C978.67,-160.06 1026.52,-169.71 1069.72,-178.43"/>
<polygon fill="black" stroke="black" points="1069.24,-181.91 1079.73,-180.45 1070.62,-175.05 1069.24,-181.91"/>
</g>
<!-- 29 -->
<g id="node30" class="node">
<title>29</title>
<text text-anchor="middle" x="1010" y="-266.51" font-family="Times,serif" font-size="14.00">29</text>
</g>
<!-- 2\nbuild the Rock Raider HQ\nbuild up your base&#45;&gt;29 -->
<g id="edge8" class="edge">
<title>2\nbuild the Rock Raider HQ\nbuild up your base&#45;&gt;29</title>
<path fill="none" stroke="black" d="M919.77,-162.86C926.91,-167.18 933.85,-171.98 940,-177.21 962.19,-196.06 981.35,-223.34 993.82,-243.49"/>
<polygon fill="black" stroke="black" points="990.9,-245.42 999.06,-252.18 996.89,-241.81 990.9,-245.42"/>
</g>
<!-- 4\n[has_monsters] -->
<g id="node5" class="node">
<title>4\n[has_monsters]</title>
<text text-anchor="middle" x="2305" y="-206.01" font-family="Times,serif" font-size="14.00" fill="blue">4</text>
<text text-anchor="middle" x="2305" y="-191.01" font-family="Times,serif" font-size="14.00" fill="blue">[has_monsters]</text>
</g>
<!-- 3\nand keep it safe\nand make sure it is heavily defended&#45;&gt;4\n[has_monsters] -->
<g id="edge10" class="edge">
<title>3\nand keep it safe\nand make sure it is heavily defended&#45;&gt;4\n[has_monsters]</title>
<path fill="none" stroke="blue" d="M1297.17,-202.21C1367.32,-202.21 1460.84,-202.21 1543.5,-202.21 1543.5,-202.21 1543.5,-202.21 1906,-202.21 2026.35,-202.21 2167.18,-202.21 2244.9,-202.21"/>
<polygon fill="blue" stroke="blue" points="2244.98,-205.71 2254.98,-202.21 2244.98,-198.71 2244.98,-205.71"/>
</g>
<!-- 34\n. Then\n. Once you have done that, -->
<g id="node35" class="node">
<title>34\n. Then\n. Once you have done that,</title>
<polygon fill="none" stroke="black" points="2555,-193.71 2391,-193.71 2391,-140.71 2555,-140.71 2555,-193.71"/>
<text text-anchor="middle" x="2473" y="-178.51" font-family="Times,serif" font-size="14.00">34</text>
<text text-anchor="middle" x="2473" y="-163.51" font-family="Times,serif" font-size="14.00">. Then</text>
<text text-anchor="middle" x="2473" y="-148.51" font-family="Times,serif" font-size="14.00">. Once you have done that,</text>
</g>
<!-- 4\n[has_monsters]&#45;&gt;34\n. Then\n. Once you have done that, -->
<g id="edge11" class="edge">
<title>4\n[has_monsters]&#45;&gt;34\n. Then\n. Once you have done that,</title>
<path fill="none" stroke="blue" d="M2355.36,-191.8C2363.48,-190.09 2372.12,-188.26 2380.89,-186.42"/>
<polygon fill="blue" stroke="blue" points="2381.75,-189.81 2390.81,-184.32 2380.3,-182.96 2381.75,-189.81"/>
</g>
<!-- 38\n. -->
<g id="node39" class="node">
<title>38\n.</title>
<polygon fill="none" stroke="black" points="3036,-303.21 2982,-303.21 2982,-265.21 3036,-265.21 3036,-303.21"/>
<text text-anchor="middle" x="3009" y="-288.01" font-family="Times,serif" font-size="14.00">38</text>
<text text-anchor="middle" x="3009" y="-273.01" font-family="Times,serif" font-size="14.00">.</text>
</g>
<!-- 4\n[has_monsters]&#45;&gt;38\n. -->
<g id="edge12" class="edge">
<title>4\n[has_monsters]&#45;&gt;38\n.</title>
<path fill="none" stroke="blue" d="M2355.08,-207.94C2488.3,-223.5 2854.48,-266.27 2971.52,-279.95"/>
<polygon fill="blue" stroke="blue" points="2971.4,-283.46 2981.74,-281.14 2972.21,-276.5 2971.4,-283.46"/>
</g>
<!-- 5\nexplore the cavern&#45;&gt;29 -->
<g id="edge13" class="edge">
<title>5\nexplore the cavern&#45;&gt;29</title>
<path fill="none" stroke="black" d="M918.34,-250.67C936.64,-254.61 956.35,-258.86 972.7,-262.38"/>
<polygon fill="black" stroke="black" points="972.39,-265.9 982.91,-264.58 973.87,-259.06 972.39,-265.9"/>
</g>
<!-- 7\n[spawn_has_erosion] -->
<g id="node8" class="node">
<title>7\n[spawn_has_erosion]</title>
<text text-anchor="middle" x="473.5" y="-179.01" font-family="Times,serif" font-size="14.00" fill="blue">7</text>
<text text-anchor="middle" x="473.5" y="-164.01" font-family="Times,serif" font-size="14.00" fill="blue">[spawn_has_erosion]</text>
</g>
<!-- 6\nmove to a safer cavern\nget your Rock Raiders to safety\nmake sure your Rock Raiders are safe&#45;&gt;7\n[spawn_has_erosion] -->
<g id="edge14" class="edge">
<title>6\nmove to a safer cavern\nget your Rock Raiders to safety\nmake sure your Rock Raiders are safe&#45;&gt;7\n[spawn_has_erosion]</title>
<path fill="none" stroke="blue" d="M314.17,-170.51C342.33,-171.34 371.91,-172.22 397.78,-172.99"/>
<polygon fill="blue" stroke="blue" points="397.77,-176.49 407.87,-173.29 397.98,-169.49 397.77,-176.49"/>
</g>
<!-- 25\nas soon as possible\nas soon as you can -->
<g id="node26" class="node">
<title>25\nas soon as possible\nas soon as you can</title>
<polygon fill="none" stroke="black" points="919.5,-328.71 799.5,-328.71 799.5,-275.71 919.5,-275.71 919.5,-328.71"/>
<text text-anchor="middle" x="859.5" y="-313.51" font-family="Times,serif" font-size="14.00">25</text>
<text text-anchor="middle" x="859.5" y="-298.51" font-family="Times,serif" font-size="14.00">as soon as possible</text>
<text text-anchor="middle" x="859.5" y="-283.51" font-family="Times,serif" font-size="14.00">as soon as you can</text>
</g>
<!-- 7\n[spawn_has_erosion]&#45;&gt;25\nas soon as possible\nas soon as you can -->
<g id="edge16" class="edge">
<title>7\n[spawn_has_erosion]&#45;&gt;25\nas soon as possible\nas soon as you can</title>
<path fill="none" stroke="blue" d="M531.99,-194.22C600.87,-217 716.17,-255.13 789.71,-279.46"/>
<polygon fill="blue" stroke="blue" points="788.76,-282.83 799.35,-282.65 790.96,-276.18 788.76,-282.83"/>
</g>
<!-- 7\n[spawn_has_erosion]&#45;&gt;29 -->
<g id="edge15" class="edge">
<title>7\n[spawn_has_erosion]&#45;&gt;29</title>
<path fill="none" stroke="blue" d="M539.38,-175.08C649.86,-175.7 869.42,-180.75 940,-210.21 957.96,-217.7 974.53,-231.77 986.94,-244.4"/>
<polygon fill="blue" stroke="blue" points="984.7,-247.13 994.1,-252.01 989.79,-242.33 984.7,-247.13"/>
</g>
<!-- 30\n, -->
<g id="node31" class="node">
<title>30\n,</title>
<polygon fill="none" stroke="black" points="715,-163.21 661,-163.21 661,-125.21 715,-125.21 715,-163.21"/>
<text text-anchor="middle" x="688" y="-148.01" font-family="Times,serif" font-size="14.00">30</text>
<text text-anchor="middle" x="688" y="-133.01" font-family="Times,serif" font-size="14.00">,</text>
</g>
<!-- 7\n[spawn_has_erosion]&#45;&gt;30\n, -->
<g id="edge17" class="edge">
<title>7\n[spawn_has_erosion]&#45;&gt;30\n,</title>
<path fill="none" stroke="blue" d="M539.12,-165.78C575.71,-160.44 620.13,-153.96 650.68,-149.51"/>
<polygon fill="blue" stroke="blue" points="651.48,-152.93 660.87,-148.02 650.47,-146 651.48,-152.93"/>
</g>
<!-- 9\nfind the lost Rock Raider\nlocate the missing Rock Raider -->
<g id="node10" class="node">
<title>9\nfind the lost Rock Raider\nlocate the missing Rock Raider</title>
<polygon fill="none" stroke="black" points="1638.5,-442.71 1450.5,-442.71 1450.5,-389.71 1638.5,-389.71 1638.5,-442.71"/>
<text text-anchor="middle" x="1544.5" y="-427.51" font-family="Times,serif" font-size="14.00">9</text>
<text text-anchor="middle" x="1544.5" y="-412.51" font-family="Times,serif" font-size="14.00">find the lost Rock Raider</text>
<text text-anchor="middle" x="1544.5" y="-397.51" font-family="Times,serif" font-size="14.00">locate the missing Rock Raider</text>
</g>
<!-- 8&#45;&gt;9\nfind the lost Rock Raider\nlocate the missing Rock Raider -->
<g id="edge18" class="edge">
<title>8&#45;&gt;9\nfind the lost Rock Raider\nlocate the missing Rock Raider</title>
<path fill="none" stroke="black" d="M1373.77,-332.41C1385.1,-347.28 1402.94,-367.81 1423,-380.21 1428.68,-383.71 1434.72,-386.9 1440.95,-389.79"/>
<polygon fill="black" stroke="black" points="1439.64,-393.03 1450.21,-393.81 1442.43,-386.61 1439.64,-393.03"/>
</g>
<!-- 11\nfind the cavern with the lost Rock\nRaiders\nlocate the missing group of Rock Raiders -->
<g id="node12" class="node">
<title>11\nfind the cavern with the lost Rock\nRaiders\nlocate the missing group of Rock Raiders</title>
<polygon fill="none" stroke="black" points="1666,-371.21 1423,-371.21 1423,-303.21 1666,-303.21 1666,-371.21"/>
<text text-anchor="middle" x="1544.5" y="-356.01" font-family="Times,serif" font-size="14.00">11</text>
<text text-anchor="middle" x="1544.5" y="-341.01" font-family="Times,serif" font-size="14.00">find the cavern with the lost Rock</text>
<text text-anchor="middle" x="1544.5" y="-326.01" font-family="Times,serif" font-size="14.00">Raiders</text>
<text text-anchor="middle" x="1544.5" y="-311.01" font-family="Times,serif" font-size="14.00">locate the missing group of Rock Raiders</text>
</g>
<!-- 8&#45;&gt;11\nfind the cavern with the lost Rock\nRaiders\nlocate the missing group of Rock Raiders -->
<g id="edge19" class="edge">
<title>8&#45;&gt;11\nfind the cavern with the lost Rock\nRaiders\nlocate the missing group of Rock Raiders</title>
<path fill="none" stroke="black" d="M1387.15,-317.5C1394.61,-318.44 1403.28,-319.53 1412.65,-320.71"/>
<polygon fill="black" stroke="black" points="1412.27,-324.2 1422.63,-321.97 1413.15,-317.25 1412.27,-324.2"/>
</g>
<!-- 13\nfind the lost Rock Raiders\nlocate the missing Rock Raiders -->
<g id="node14" class="node">
<title>13\nfind the lost Rock Raiders\nlocate the missing Rock Raiders</title>
<polygon fill="none" stroke="black" points="1641,-284.71 1448,-284.71 1448,-231.71 1641,-231.71 1641,-284.71"/>
<text text-anchor="middle" x="1544.5" y="-269.51" font-family="Times,serif" font-size="14.00">13</text>
<text text-anchor="middle" x="1544.5" y="-254.51" font-family="Times,serif" font-size="14.00">find the lost Rock Raiders</text>
<text text-anchor="middle" x="1544.5" y="-239.51" font-family="Times,serif" font-size="14.00">locate the missing Rock Raiders</text>
</g>
<!-- 8&#45;&gt;13\nfind the lost Rock Raiders\nlocate the missing Rock Raiders -->
<g id="edge20" class="edge">
<title>8&#45;&gt;13\nfind the lost Rock Raiders\nlocate the missing Rock Raiders</title>
<path fill="none" stroke="black" d="M1387.21,-305.61C1398.24,-302.03 1411.23,-297.86 1423,-294.21 1429.88,-292.07 1436.99,-289.88 1444.15,-287.7"/>
<polygon fill="black" stroke="black" points="1445.39,-290.98 1453.94,-284.73 1443.36,-284.28 1445.39,-290.98"/>
</g>
<!-- 10\n[lost_miners_one] -->
<g id="node11" class="node">
<title>10\n[lost_miners_one]</title>
<text text-anchor="middle" x="1772" y="-409.01" font-family="Times,serif" font-size="14.00" fill="blue">10</text>
<text text-anchor="middle" x="1772" y="-394.01" font-family="Times,serif" font-size="14.00" fill="blue">[lost_miners_one]</text>
</g>
<!-- 9\nfind the lost Rock Raider\nlocate the missing Rock Raider&#45;&gt;10\n[lost_miners_one] -->
<g id="edge21" class="edge">
<title>9\nfind the lost Rock Raider\nlocate the missing Rock Raider&#45;&gt;10\n[lost_miners_one]</title>
<path fill="none" stroke="blue" d="M1638.52,-411.67C1660.32,-410.61 1683.13,-409.49 1703.56,-408.5"/>
<polygon fill="blue" stroke="blue" points="1703.87,-411.98 1713.69,-408 1703.53,-404.99 1703.87,-411.98"/>
</g>
<!-- 15 -->
<g id="node16" class="node">
<title>15</title>
<text text-anchor="middle" x="1905" y="-335.51" font-family="Times,serif" font-size="14.00">15</text>
</g>
<!-- 10\n[lost_miners_one]&#45;&gt;15 -->
<g id="edge22" class="edge">
<title>10\n[lost_miners_one]&#45;&gt;15</title>
<path fill="none" stroke="blue" d="M1810.89,-386.12C1829.17,-376.91 1850.95,-365.93 1868.85,-356.91"/>
<polygon fill="blue" stroke="blue" points="1870.46,-360.02 1877.82,-352.4 1867.31,-353.77 1870.46,-360.02"/>
</g>
<!-- 12\n[lost_miners_together] -->
<g id="node13" class="node">
<title>12\n[lost_miners_together]</title>
<text text-anchor="middle" x="1772" y="-342.01" font-family="Times,serif" font-size="14.00" fill="blue">12</text>
<text text-anchor="middle" x="1772" y="-327.01" font-family="Times,serif" font-size="14.00" fill="blue">[lost_miners_together]</text>
</g>
<!-- 11\nfind the cavern with the lost Rock\nRaiders\nlocate the missing group of Rock Raiders&#45;&gt;12\n[lost_miners_together] -->
<g id="edge23" class="edge">
<title>11\nfind the cavern with the lost Rock\nRaiders\nlocate the missing group of Rock Raiders&#45;&gt;12\n[lost_miners_together]</title>
<path fill="none" stroke="blue" d="M1666.17,-337.74C1674.88,-337.78 1683.53,-337.82 1691.9,-337.86"/>
<polygon fill="blue" stroke="blue" points="1691.95,-341.36 1701.97,-337.9 1691.98,-334.36 1691.95,-341.36"/>
</g>
<!-- 12\n[lost_miners_together]&#45;&gt;15 -->
<g id="edge24" class="edge">
<title>12\n[lost_miners_together]&#45;&gt;15</title>
<path fill="none" stroke="blue" d="M1842.34,-338.74C1851.13,-338.8 1859.82,-338.87 1867.79,-338.93"/>
<polygon fill="blue" stroke="blue" points="1867.77,-342.43 1877.8,-339.01 1867.82,-335.43 1867.77,-342.43"/>
</g>
<!-- 14\n[lost_miners_apart] -->
<g id="node15" class="node">
<title>14\n[lost_miners_apart]</title>
<text text-anchor="middle" x="1772" y="-275.01" font-family="Times,serif" font-size="14.00" fill="blue">14</text>
<text text-anchor="middle" x="1772" y="-260.01" font-family="Times,serif" font-size="14.00" fill="blue">[lost_miners_apart]</text>
</g>
<!-- 13\nfind the lost Rock Raiders\nlocate the missing Rock Raiders&#45;&gt;14\n[lost_miners_apart] -->
<g id="edge25" class="edge">
<title>13\nfind the lost Rock Raiders\nlocate the missing Rock Raiders&#45;&gt;14\n[lost_miners_apart]</title>
<path fill="none" stroke="blue" d="M1641.13,-263.72C1660.88,-264.86 1681.35,-266.04 1700.03,-267.12"/>
<polygon fill="blue" stroke="blue" points="1700.03,-270.62 1710.22,-267.7 1700.43,-263.63 1700.03,-270.62"/>
</g>
<!-- 14\n[lost_miners_apart]&#45;&gt;15 -->
<g id="edge26" class="edge">
<title>14\n[lost_miners_apart]&#45;&gt;15</title>
<path fill="none" stroke="blue" d="M1809.84,-290.33C1828.27,-299.9 1850.47,-311.42 1868.69,-320.88"/>
<polygon fill="blue" stroke="blue" points="1867.32,-324.11 1877.81,-325.61 1870.55,-317.9 1867.32,-324.11"/>
</g>
<!-- 16\nbefore the %(monster_type)s monsters do! -->
<g id="node17" class="node">
<title>16\nbefore the %(monster_type)s monsters do!</title>
<polygon fill="none" stroke="black" points="2219,-410.21 1968,-410.21 1968,-372.21 2219,-372.21 2219,-410.21"/>
<text text-anchor="middle" x="2093.5" y="-395.01" font-family="Times,serif" font-size="14.00">16</text>
<text text-anchor="middle" x="2093.5" y="-380.01" font-family="Times,serif" font-size="14.00">before the %(monster_type)s monsters do!</text>
</g>
<!-- 15&#45;&gt;16\nbefore the %(monster_type)s monsters do! -->
<g id="edge28" class="edge">
<title>15&#45;&gt;16\nbefore the %(monster_type)s monsters do!</title>
<path fill="none" stroke="black" d="M1932.18,-347.47C1943.21,-350.89 1956.2,-354.84 1968,-358.21 1981.15,-361.96 1995.12,-365.81 2008.77,-369.48"/>
<polygon fill="black" stroke="black" points="2008.07,-372.92 2018.64,-372.13 2009.89,-366.16 2008.07,-372.92"/>
</g>
<!-- 35\n. -->
<g id="node36" class="node">
<title>35\n.</title>
<polygon fill="none" stroke="black" points="2332,-308.21 2278,-308.21 2278,-270.21 2332,-270.21 2332,-308.21"/>
<text text-anchor="middle" x="2305" y="-293.01" font-family="Times,serif" font-size="14.00">35</text>
<text text-anchor="middle" x="2305" y="-278.01" font-family="Times,serif" font-size="14.00">.</text>
</g>
<!-- 15&#45;&gt;35\n. -->
<g id="edge27" class="edge">
<title>15&#45;&gt;35\n.</title>
<path fill="none" stroke="black" d="M1932.23,-335.26C1943.26,-333.64 1956.25,-331.78 1968,-330.21 2077.03,-315.64 2206.24,-300.46 2267.84,-293.35"/>
<polygon fill="black" stroke="black" points="2268.3,-296.82 2277.83,-292.19 2267.5,-289.86 2268.3,-296.82"/>
</g>
<!-- 15&#45;&gt;38\n. -->
<g id="edge29" class="edge">
<title>15&#45;&gt;38\n.</title>
<path fill="none" stroke="black" d="M1932.3,-339.44C2020.43,-340.06 2313.38,-340.89 2555,-327.21 2710.37,-318.41 2894.85,-297.69 2971.65,-288.61"/>
<polygon fill="black" stroke="black" points="2972.24,-292.06 2981.76,-287.4 2971.41,-285.11 2972.24,-292.06"/>
</g>
<!-- 17\n[has_monsters] -->
<g id="node18" class="node">
<title>17\n[has_monsters]</title>
<text text-anchor="middle" x="2305" y="-395.01" font-family="Times,serif" font-size="14.00" fill="blue">17</text>
<text text-anchor="middle" x="2305" y="-380.01" font-family="Times,serif" font-size="14.00" fill="blue">[has_monsters]</text>
</g>
<!-- 16\nbefore the %(monster_type)s monsters do!&#45;&gt;17\n[has_monsters] -->
<g id="edge30" class="edge">
<title>16\nbefore the %(monster_type)s monsters do!&#45;&gt;17\n[has_monsters]</title>
<path fill="none" stroke="blue" d="M2219.09,-391.21C2227.86,-391.21 2236.44,-391.21 2244.57,-391.21"/>
<polygon fill="blue" stroke="blue" points="2244.61,-394.71 2254.61,-391.21 2244.61,-387.71 2244.61,-394.71"/>
</g>
<!-- 36\nOnce you have done that,\nWith them secure,\nAlong the way, -->
<g id="node37" class="node">
<title>36\nOnce you have done that,\nWith them secure,\nAlong the way,</title>
<polygon fill="none" stroke="black" points="2551,-318.21 2395,-318.21 2395,-250.21 2551,-250.21 2551,-318.21"/>
<text text-anchor="middle" x="2473" y="-303.01" font-family="Times,serif" font-size="14.00">36</text>
<text text-anchor="middle" x="2473" y="-288.01" font-family="Times,serif" font-size="14.00">Once you have done that,</text>
<text text-anchor="middle" x="2473" y="-273.01" font-family="Times,serif" font-size="14.00">With them secure,</text>
<text text-anchor="middle" x="2473" y="-258.01" font-family="Times,serif" font-size="14.00">Along the way,</text>
</g>
<!-- 17\n[has_monsters]&#45;&gt;36\nOnce you have done that,\nWith them secure,\nAlong the way, -->
<g id="edge31" class="edge">
<title>17\n[has_monsters]&#45;&gt;36\nOnce you have done that,\nWith them secure,\nAlong the way,</title>
<path fill="none" stroke="blue" d="M2335.68,-372.08C2356.46,-358.68 2384.97,-340.31 2410.55,-323.82"/>
<polygon fill="blue" stroke="blue" points="2412.58,-326.67 2419.09,-318.31 2408.79,-320.79 2412.58,-326.67"/>
</g>
<!-- 37 -->
<g id="node38" class="node">
<title>37</title>
<text text-anchor="middle" x="3099" y="-333.51" font-family="Times,serif" font-size="14.00">37</text>
</g>
<!-- 17\n[has_monsters]&#45;&gt;37 -->
<g id="edge32" class="edge">
<title>17\n[has_monsters]&#45;&gt;37</title>
<path fill="none" stroke="blue" d="M2355.1,-390.58C2428.12,-389.7 2569.66,-388.21 2690,-388.21 2690,-388.21 2690,-388.21 2887.5,-388.21 2950.38,-388.21 3020.92,-366.45 3062.29,-351.35"/>
<polygon fill="blue" stroke="blue" points="3063.76,-354.54 3071.91,-347.77 3061.32,-347.98 3063.76,-354.54"/>
</g>
<!-- 19\n[has_monsters] -->
<g id="node20" class="node">
<title>19\n[has_monsters]</title>
<text text-anchor="middle" x="473.5" y="-318.01" font-family="Times,serif" font-size="14.00" fill="blue">19</text>
<text text-anchor="middle" x="473.5" y="-303.01" font-family="Times,serif" font-size="14.00" fill="blue">[has_monsters]</text>
</g>
<!-- 18\ndefend the Rock Radier HQ\nbuild up your defenses\narm your Rock Raiders&#45;&gt;19\n[has_monsters] -->
<g id="edge33" class="edge">
<title>18\ndefend the Rock Radier HQ\nbuild up your defenses\narm your Rock Raiders&#45;&gt;19\n[has_monsters]</title>
<path fill="none" stroke="blue" d="M286.79,-306.63C327.75,-308.3 376.08,-310.27 413.16,-311.78"/>
<polygon fill="blue" stroke="blue" points="413.18,-315.29 423.31,-312.2 413.46,-308.29 413.18,-315.29"/>
</g>
<!-- 19\n[has_monsters]&#45;&gt;29 -->
<g id="edge34" class="edge">
<title>19\n[has_monsters]&#45;&gt;29</title>
<path fill="none" stroke="blue" d="M523.81,-330.29C611.53,-356.02 798.71,-397.81 940,-338.21 960.53,-329.55 978.29,-311.64 990.65,-296.38"/>
<polygon fill="blue" stroke="blue" points="993.59,-298.3 996.94,-288.24 988.05,-294.01 993.59,-298.3"/>
</g>
<!-- 32\n, -->
<g id="node33" class="node">
<title>32\n,</title>
<polygon fill="none" stroke="black" points="715,-333.21 661,-333.21 661,-295.21 715,-295.21 715,-333.21"/>
<text text-anchor="middle" x="688" y="-318.01" font-family="Times,serif" font-size="14.00">32</text>
<text text-anchor="middle" x="688" y="-303.01" font-family="Times,serif" font-size="14.00">,</text>
</g>
<!-- 19\n[has_monsters]&#45;&gt;32\n, -->
<g id="edge35" class="edge">
<title>19\n[has_monsters]&#45;&gt;32\n,</title>
<path fill="none" stroke="blue" d="M523.52,-314.21C562.29,-314.21 615.54,-314.21 650.59,-314.21"/>
<polygon fill="blue" stroke="blue" points="650.85,-317.71 660.85,-314.21 650.85,-310.71 650.85,-317.71"/>
</g>
<!-- 21\n[spawn_is_ruins] -->
<g id="node22" class="node">
<title>21\n[spawn_is_ruins]</title>
<text text-anchor="middle" x="688" y="-412.01" font-family="Times,serif" font-size="14.00" fill="blue">21</text>
<text text-anchor="middle" x="688" y="-397.01" font-family="Times,serif" font-size="14.00" fill="blue">[spawn_is_ruins]</text>
</g>
<!-- 20\nclean up this mess\nget the Rock Raider HQ back in operation&#45;&gt;21\n[spawn_is_ruins] -->
<g id="edge36" class="edge">
<title>20\nclean up this mess\nget the Rock Raider HQ back in operation&#45;&gt;21\n[spawn_is_ruins]</title>
<path fill="none" stroke="blue" d="M597.19,-401.87C605.86,-402.48 614.38,-403.08 622.51,-403.65"/>
<polygon fill="blue" stroke="blue" points="622.37,-407.15 632.59,-404.37 622.86,-400.17 622.37,-407.15"/>
</g>
<!-- 21\n[spawn_is_ruins]&#45;&gt;3\nand keep it safe\nand make sure it is heavily defended -->
<g id="edge39" class="edge">
<title>21\n[spawn_is_ruins]&#45;&gt;3\nand keep it safe\nand make sure it is heavily defended</title>
<path fill="none" stroke="blue" d="M743.4,-419.24C796,-427.27 876.8,-432.53 940,-405.21 1001.16,-378.76 998.59,-345.98 1044,-297.21 1060.3,-279.7 1061.04,-271.78 1080,-257.21 1091.34,-248.49 1104.28,-240.51 1117.15,-233.49"/>
<polygon fill="blue" stroke="blue" points="1118.83,-236.56 1126.03,-228.79 1115.56,-230.37 1118.83,-236.56"/>
</g>
<!-- 21\n[spawn_is_ruins]&#45;&gt;25\nas soon as possible\nas soon as you can -->
<g id="edge38" class="edge">
<title>21\n[spawn_is_ruins]&#45;&gt;25\nas soon as possible\nas soon as you can</title>
<path fill="none" stroke="blue" d="M719.7,-389.01C744.08,-373.76 778.7,-352.11 807.27,-334.25"/>
<polygon fill="blue" stroke="blue" points="809.3,-337.1 815.92,-328.83 805.59,-331.17 809.3,-337.1"/>
</g>
<!-- 21\n[spawn_is_ruins]&#45;&gt;29 -->
<g id="edge37" class="edge">
<title>21\n[spawn_is_ruins]&#45;&gt;29</title>
<path fill="none" stroke="blue" d="M743.21,-412.26C797.14,-413.69 880.25,-408.58 940,-371.21 967.69,-353.89 987.02,-320.92 998.03,-297.36"/>
<polygon fill="blue" stroke="blue" points="1001.23,-298.78 1002.11,-288.22 994.84,-295.93 1001.23,-298.78"/>
</g>
<!-- 23\n[find_hq] -->
<g id="node24" class="node">
<title>23\n[find_hq]</title>
<text text-anchor="middle" x="1010" y="-110.01" font-family="Times,serif" font-size="14.00" fill="blue">23</text>
<text text-anchor="middle" x="1010" y="-95.01" font-family="Times,serif" font-size="14.00" fill="blue">[find_hq]</text>
</g>
<!-- 22\nreach the Rock Raider HQ\nlocate the base&#45;&gt;23\n[find_hq] -->
<g id="edge40" class="edge">
<title>22\nreach the Rock Raider HQ\nlocate the base&#45;&gt;23\n[find_hq]</title>
<path fill="none" stroke="blue" d="M940.4,-87.27C949.19,-89.69 957.86,-92.09 965.94,-94.32"/>
<polygon fill="blue" stroke="blue" points="965.24,-97.76 975.81,-97.04 967.11,-91.01 965.24,-97.76"/>
</g>
<!-- 23\n[find_hq]&#45;&gt;3\nand keep it safe\nand make sure it is heavily defended -->
<g id="edge41" class="edge">
<title>23\n[find_hq]&#45;&gt;3\nand keep it safe\nand make sure it is heavily defended</title>
<path fill="none" stroke="blue" d="M1029.06,-125.48C1042.15,-138.51 1060.84,-155.25 1080,-166.21 1083.08,-167.97 1086.27,-169.66 1089.52,-171.29"/>
<polygon fill="blue" stroke="blue" points="1088.31,-174.59 1098.85,-175.69 1091.3,-168.26 1088.31,-174.59"/>
</g>
<!-- 24\nand use it to\n, and from there you can -->
<g id="node25" class="node">
<title>24\nand use it to\n, and from there you can</title>
<polygon fill="none" stroke="black" points="1264.5,-100.71 1112.5,-100.71 1112.5,-47.71 1264.5,-47.71 1264.5,-100.71"/>
<text text-anchor="middle" x="1188.5" y="-85.51" font-family="Times,serif" font-size="14.00">24</text>
<text text-anchor="middle" x="1188.5" y="-70.51" font-family="Times,serif" font-size="14.00">and use it to</text>
<text text-anchor="middle" x="1188.5" y="-55.51" font-family="Times,serif" font-size="14.00">, and from there you can</text>
</g>
<!-- 23\n[find_hq]&#45;&gt;24\nand use it to\n, and from there you can -->
<g id="edge42" class="edge">
<title>23\n[find_hq]&#45;&gt;24\nand use it to\n, and from there you can</title>
<path fill="none" stroke="blue" d="M1044.2,-100.19C1060.76,-97.18 1081.63,-93.4 1102.28,-89.66"/>
<polygon fill="blue" stroke="blue" points="1103.16,-93.05 1112.38,-87.83 1101.91,-86.17 1103.16,-93.05"/>
</g>
<!-- 33\nand -->
<g id="node34" class="node">
<title>33\nand</title>
<polygon fill="none" stroke="black" points="1215.5,-157.21 1161.5,-157.21 1161.5,-119.21 1215.5,-119.21 1215.5,-157.21"/>
<text text-anchor="middle" x="1188.5" y="-142.01" font-family="Times,serif" font-size="14.00">33</text>
<text text-anchor="middle" x="1188.5" y="-127.01" font-family="Times,serif" font-size="14.00">and</text>
</g>
<!-- 23\n[find_hq]&#45;&gt;33\nand -->
<g id="edge43" class="edge">
<title>23\n[find_hq]&#45;&gt;33\nand</title>
<path fill="none" stroke="blue" d="M1044.2,-112.23C1074.7,-117.76 1119.82,-125.93 1151.25,-131.63"/>
<polygon fill="blue" stroke="blue" points="1150.88,-135.12 1161.34,-133.46 1152.13,-128.24 1150.88,-135.12"/>
</g>
<!-- 24\nand use it to\n, and from there you can&#45;&gt;8 -->
<g id="edge44" class="edge">
<title>24\nand use it to\n, and from there you can&#45;&gt;8</title>
<path fill="none" stroke="black" d="M1264.56,-88.99C1276.59,-94.09 1288.01,-100.96 1297,-110.21 1344.22,-158.77 1355.61,-242.14 1358.27,-285.74"/>
<polygon fill="black" stroke="black" points="1354.78,-286.11 1358.77,-295.93 1361.78,-285.77 1354.78,-286.11"/>
</g>
<!-- 26\ncontinue our mining operation by\ncollecting %(resources)s\ncollect %(resources)s -->
<g id="node27" class="node">
<title>26\ncontinue our mining operation by\ncollecting %(resources)s\ncollect %(resources)s</title>
<polygon fill="none" stroke="black" points="2791,-194.21 2591,-194.21 2591,-126.21 2791,-126.21 2791,-194.21"/>
<text text-anchor="middle" x="2691" y="-179.01" font-family="Times,serif" font-size="14.00">26</text>
<text text-anchor="middle" x="2691" y="-164.01" font-family="Times,serif" font-size="14.00">continue our mining operation by</text>
<text text-anchor="middle" x="2691" y="-149.01" font-family="Times,serif" font-size="14.00">collecting %(resources)s</text>
<text text-anchor="middle" x="2691" y="-134.01" font-family="Times,serif" font-size="14.00">collect %(resources)s</text>
</g>
<!-- 24\nand use it to\n, and from there you can&#45;&gt;26\ncontinue our mining operation by\ncollecting %(resources)s\ncollect %(resources)s -->
<g id="edge45" class="edge">
<title>24\nand use it to\n, and from there you can&#45;&gt;26\ncontinue our mining operation by\ncollecting %(resources)s\ncollect %(resources)s</title>
<path fill="none" stroke="black" d="M1264.77,-74.21C1336.44,-74.21 1447.32,-74.21 1543.5,-74.21 1543.5,-74.21 1543.5,-74.21 2306,-74.21 2417.82,-74.21 2446.64,-82.63 2555,-110.21 2568.68,-113.69 2582.89,-118.06 2596.74,-122.77"/>
<polygon fill="black" stroke="black" points="2595.66,-126.1 2606.25,-126.08 2597.95,-119.49 2595.66,-126.1"/>
</g>
<!-- 25\nas soon as possible\nas soon as you can&#45;&gt;29 -->
<g id="edge46" class="edge">
<title>25\nas soon as possible\nas soon as you can&#45;&gt;29</title>
<path fill="none" stroke="black" d="M919.62,-289.47C937.66,-285.58 956.96,-281.42 972.98,-277.97"/>
<polygon fill="black" stroke="black" points="973.96,-281.34 983,-275.81 972.48,-274.5 973.96,-281.34"/>
</g>
<!-- 27\n[collect_resources] -->
<g id="node28" class="node">
<title>27\n[collect_resources]</title>
<text text-anchor="middle" x="2886.5" y="-172.01" font-family="Times,serif" font-size="14.00" fill="blue">27</text>
<text text-anchor="middle" x="2886.5" y="-157.01" font-family="Times,serif" font-size="14.00" fill="blue">[collect_resources]</text>
</g>
<!-- 26\ncontinue our mining operation by\ncollecting %(resources)s\ncollect %(resources)s&#45;&gt;27\n[collect_resources] -->
<g id="edge47" class="edge">
<title>26\ncontinue our mining operation by\ncollecting %(resources)s\ncollect %(resources)s&#45;&gt;27\n[collect_resources]</title>
<path fill="none" stroke="blue" d="M2791.02,-164.3C2799.74,-164.66 2808.44,-165.02 2816.84,-165.37"/>
<polygon fill="blue" stroke="blue" points="2816.77,-168.87 2826.9,-165.78 2817.06,-161.87 2816.77,-168.87"/>
</g>
<!-- 27\n[collect_resources]&#45;&gt;38\n. -->
<g id="edge48" class="edge">
<title>27\n[collect_resources]&#45;&gt;38\n.</title>
<path fill="none" stroke="blue" d="M2919.11,-187.4C2928.2,-193.55 2937.85,-200.71 2946,-208.21 2961.98,-222.88 2977.41,-241.78 2988.88,-257.05"/>
<polygon fill="blue" stroke="blue" points="2986.07,-259.14 2994.82,-265.12 2991.71,-254.99 2986.07,-259.14"/>
</g>
<!-- 28\nWe&#39;re counting on you, Cadet!\nGood luck out there, Cadet! -->
<g id="node29" class="node">
<title>28\nWe&#39;re counting on you, Cadet!\nGood luck out there, Cadet!</title>
<polygon fill="none" stroke="black" points="3346,-336.71 3162,-336.71 3162,-283.71 3346,-283.71 3346,-336.71"/>
<text text-anchor="middle" x="3254" y="-321.51" font-family="Times,serif" font-size="14.00">28</text>
<text text-anchor="middle" x="3254" y="-306.51" font-family="Times,serif" font-size="14.00">We&#39;re counting on you, Cadet!</text>
<text text-anchor="middle" x="3254" y="-291.51" font-family="Times,serif" font-size="14.00">Good luck out there, Cadet!</text>
</g>
<!-- 28\nWe&#39;re counting on you, Cadet!\nGood luck out there, Cadet!&#45;&gt;1\n[end] -->
<g id="edge49" class="edge">
<title>28\nWe&#39;re counting on you, Cadet!\nGood luck out there, Cadet!&#45;&gt;1\n[end]</title>
<path fill="none" stroke="blue" d="M3346.21,-326.3C3355.29,-327.9 3364.08,-329.46 3372.04,-330.86"/>
<polygon fill="blue" stroke="blue" points="3371.54,-334.33 3381.99,-332.62 3372.75,-327.43 3371.54,-334.33"/>
</g>
<!-- 31\n, then\nand -->
<g id="node32" class="node">
<title>31\n, then\nand</title>
<polygon fill="none" stroke="black" points="1215.5,-318.71 1161.5,-318.71 1161.5,-265.71 1215.5,-265.71 1215.5,-318.71"/>
<text text-anchor="middle" x="1188.5" y="-303.51" font-family="Times,serif" font-size="14.00">31</text>
<text text-anchor="middle" x="1188.5" y="-288.51" font-family="Times,serif" font-size="14.00">, then</text>
<text text-anchor="middle" x="1188.5" y="-273.51" font-family="Times,serif" font-size="14.00">and</text>
</g>
<!-- 29&#45;&gt;31\n, then\nand -->
<g id="edge50" class="edge">
<title>29&#45;&gt;31\n, then\nand</title>
<path fill="none" stroke="black" d="M1037.04,-273.45C1067.28,-277.22 1117.36,-283.46 1151.35,-287.7"/>
<polygon fill="black" stroke="black" points="1150.99,-291.18 1161.35,-288.95 1151.86,-284.24 1150.99,-291.18"/>
</g>
<!-- 29&#45;&gt;33\nand -->
<g id="edge51" class="edge">
<title>29&#45;&gt;33\nand</title>
<path fill="none" stroke="black" d="M1018.08,-252.18C1028.23,-228.75 1049.14,-188.24 1080,-166.21 1100.87,-151.31 1129.05,-144.33 1151.33,-141.07"/>
<polygon fill="black" stroke="black" points="1151.94,-144.52 1161.41,-139.78 1151.05,-137.58 1151.94,-144.52"/>
</g>
<!-- 30\n,&#45;&gt;2\nbuild the Rock Raider HQ\nbuild up your base -->
<g id="edge52" class="edge">
<title>30\n,&#45;&gt;2\nbuild the Rock Raider HQ\nbuild up your base</title>
<path fill="none" stroke="black" d="M715.11,-142.97C729.89,-142.28 749.33,-141.36 769.11,-140.43"/>
<polygon fill="black" stroke="black" points="769.32,-143.92 779.14,-139.95 768.99,-136.93 769.32,-143.92"/>
</g>
<!-- 30\n,&#45;&gt;22\nreach the Rock Raider HQ\nlocate the base -->
<g id="edge53" class="edge">
<title>30\n,&#45;&gt;22\nreach the Rock Raider HQ\nlocate the base</title>
<path fill="none" stroke="black" d="M715.25,-131.03C733.13,-122.14 757.39,-110.24 779,-100.21 782.1,-98.77 785.28,-97.3 788.5,-95.84"/>
<polygon fill="black" stroke="black" points="789.95,-99.02 797.62,-91.71 787.07,-92.64 789.95,-99.02"/>
</g>
<!-- 31\n, then\nand&#45;&gt;8 -->
<g id="edge54" class="edge">
<title>31\n, then\nand&#45;&gt;8</title>
<path fill="none" stroke="black" d="M1215.61,-295.6C1244.23,-299.31 1290.34,-305.29 1322.52,-309.47"/>
<polygon fill="black" stroke="black" points="1322.49,-313 1332.86,-310.81 1323.39,-306.05 1322.49,-313"/>
</g>
<!-- 32\n,&#45;&gt;5\nexplore the cavern -->
<g id="edge55" class="edge">
<title>32\n,&#45;&gt;5\nexplore the cavern</title>
<path fill="none" stroke="black" d="M715.33,-299.29C733.04,-289.54 757.07,-276.88 779,-267.21 783.75,-265.11 788.71,-263.04 793.72,-261.03"/>
<polygon fill="black" stroke="black" points="795.35,-264.15 803.38,-257.24 792.8,-257.63 795.35,-264.15"/>
</g>
<!-- 33\nand&#45;&gt;26\ncontinue our mining operation by\ncollecting %(resources)s\ncollect %(resources)s -->
<g id="edge56" class="edge">
<title>33\nand&#45;&gt;26\ncontinue our mining operation by\ncollecting %(resources)s\ncollect %(resources)s</title>
<path fill="none" stroke="black" d="M1215.65,-134.97C1274.25,-128 1420.56,-112.21 1543.5,-112.21 1543.5,-112.21 1543.5,-112.21 2306,-112.21 2416.99,-112.21 2445.16,-115.29 2555,-131.21 2563.45,-132.43 2572.15,-133.87 2580.89,-135.45"/>
<polygon fill="black" stroke="black" points="2580.27,-138.9 2590.75,-137.29 2581.56,-132.02 2580.27,-138.9"/>
</g>
<!-- 34\n. Then\n. Once you have done that,&#45;&gt;26\ncontinue our mining operation by\ncollecting %(resources)s\ncollect %(resources)s -->
<g id="edge57" class="edge">
<title>34\n. Then\n. Once you have done that,&#45;&gt;26\ncontinue our mining operation by\ncollecting %(resources)s\ncollect %(resources)s</title>
<path fill="none" stroke="black" d="M2555.04,-164.58C2563.48,-164.31 2572.14,-164.03 2580.82,-163.74"/>
<polygon fill="black" stroke="black" points="2581.11,-167.24 2591,-163.41 2580.89,-160.24 2581.11,-167.24"/>
</g>
<!-- 35\n.&#45;&gt;36\nOnce you have done that,\nWith them secure,\nAlong the way, -->
<g id="edge58" class="edge">
<title>35\n.&#45;&gt;36\nOnce you have done that,\nWith them secure,\nAlong the way,</title>
<path fill="none" stroke="black" d="M2332.3,-288.41C2346.78,-287.98 2365.67,-287.41 2384.86,-286.83"/>
<polygon fill="black" stroke="black" points="2385.01,-290.33 2394.9,-286.53 2384.8,-283.33 2385.01,-290.33"/>
</g>
<!-- 36\nOnce you have done that,\nWith them secure,\nAlong the way,&#45;&gt;26\ncontinue our mining operation by\ncollecting %(resources)s\ncollect %(resources)s -->
<g id="edge59" class="edge">
<title>36\nOnce you have done that,\nWith them secure,\nAlong the way,&#45;&gt;26\ncontinue our mining operation by\ncollecting %(resources)s\ncollect %(resources)s</title>
<path fill="none" stroke="black" d="M2533.31,-250.16C2560.58,-234.5 2593.09,-215.84 2621.41,-199.58"/>
<polygon fill="black" stroke="black" points="2623.52,-202.41 2630.45,-194.39 2620.03,-196.34 2623.52,-202.41"/>
</g>
<!-- 37&#45;&gt;1\n[end] -->
<g id="edge60" class="edge">
<title>37&#45;&gt;1\n[end]</title>
<path fill="none" stroke="blue" d="M3126.15,-341.86C3137.18,-343.59 3150.18,-345.35 3162,-346.21 3243.57,-352.1 3264.43,-352.1 3346,-346.21 3354.41,-345.6 3363.4,-344.54 3371.87,-343.35"/>
<polygon fill="blue" stroke="blue" points="3372.47,-346.79 3381.85,-341.86 3371.44,-339.87 3372.47,-346.79"/>
</g>
<!-- 37&#45;&gt;28\nWe&#39;re counting on you, Cadet!\nGood luck out there, Cadet! -->
<g id="edge61" class="edge">
<title>37&#45;&gt;28\nWe&#39;re counting on you, Cadet!\nGood luck out there, Cadet!</title>
<path fill="none" stroke="black" d="M3126.3,-332.56C3133.91,-331.22 3142.71,-329.67 3152.05,-328.02"/>
<polygon fill="black" stroke="black" points="3152.71,-331.46 3161.95,-326.27 3151.49,-324.57 3152.71,-331.46"/>
</g>
<!-- 38\n.&#45;&gt;37 -->
<g id="edge62" class="edge">
<title>38\n.&#45;&gt;37</title>
<path fill="none" stroke="black" d="M3036.4,-300.11C3044.83,-305.18 3054.29,-310.88 3063.22,-316.26"/>
<polygon fill="black" stroke="black" points="3061.55,-319.34 3071.92,-321.5 3065.16,-313.34 3061.55,-319.34"/>
</g>
</g>
</svg>
