<?xml version="1.0" encoding="UTF-8" standalone="no"?>
<!DOCTYPE svg PUBLIC "-//W3C//DTD SVG 1.1//EN"
 "http://www.w3.org/Graphics/SVG/1.1/DTD/svg11.dtd">
<!-- Generated by graphviz version 2.43.0 (0)
 -->
<!-- Title: G Pages: 1 -->
<svg width="896pt" height="1306pt"
 viewBox="0.00 0.00 895.50 1306.00" xmlns="http://www.w3.org/2000/svg" xmlns:xlink="http://www.w3.org/1999/xlink">
<g id="graph0" class="graph" transform="scale(1 1) rotate(0) translate(4 1302)">
<title>G</title>
<polygon fill="white" stroke="transparent" points="-4,4 -4,-1302 891.5,-1302 891.5,4 -4,4"/>
<!-- 0\n[start] -->
<g id="node1" class="node">
<title>0\n[start]</title>
<text text-anchor="middle" x="466.5" y="-1282.8" font-family="Times,serif" font-size="14.00">0</text>
<text text-anchor="middle" x="466.5" y="-1267.8" font-family="Times,serif" font-size="14.00">[start]</text>
</g>
<!-- 2\nbuild the Rock Raider HQ\nbuild up your base -->
<g id="node3" class="node">
<title>2\nbuild the Rock Raider HQ\nbuild up your base</title>
<polygon fill="none" stroke="black" points="425.5,-972 265.5,-972 265.5,-919 425.5,-919 425.5,-972"/>
<text text-anchor="middle" x="345.5" y="-956.8" font-family="Times,serif" font-size="14.00">2</text>
<text text-anchor="middle" x="345.5" y="-941.8" font-family="Times,serif" font-size="14.00">build the Rock Raider HQ</text>
<text text-anchor="middle" x="345.5" y="-926.8" font-family="Times,serif" font-size="14.00">build up your base</text>
</g>
<!-- 0\n[start]&#45;&gt;2\nbuild the Rock Raider HQ\nbuild up your base -->
<g id="edge2" class="edge">
<title>0\n[start]&#45;&gt;2\nbuild the Rock Raider HQ\nbuild up your base</title>
<path fill="none" stroke="black" d="M439.45,-1272.64C410.09,-1265.68 363.16,-1251.07 331.5,-1224 302.42,-1199.13 297.64,-1186.9 287.5,-1150 271.15,-1090.52 301.21,-1021.51 323.82,-981.07"/>
<polygon fill="black" stroke="black" points="327,-982.57 328.94,-972.16 320.93,-979.08 327,-982.57"/>
</g>
<!-- 5\nexplore the cavern -->
<g id="node6" class="node">
<title>5\nexplore the cavern</title>
<polygon fill="none" stroke="black" points="599,-964.5 482,-964.5 482,-926.5 599,-926.5 599,-964.5"/>
<text text-anchor="middle" x="540.5" y="-949.3" font-family="Times,serif" font-size="14.00">5</text>
<text text-anchor="middle" x="540.5" y="-934.3" font-family="Times,serif" font-size="14.00">explore the cavern</text>
</g>
<!-- 0\n[start]&#45;&gt;5\nexplore the cavern -->
<g id="edge1" class="edge">
<title>0\n[start]&#45;&gt;5\nexplore the cavern</title>
<path fill="none" stroke="black" d="M471.48,-1259.55C474.24,-1249.14 477.68,-1235.87 480.5,-1224 502.05,-1133.31 524.51,-1025.16 534.77,-974.85"/>
<polygon fill="black" stroke="black" points="538.26,-975.24 536.82,-964.74 531.4,-973.84 538.26,-975.24"/>
</g>
<!-- 6\n[spawn_has_erosion] -->
<g id="node7" class="node">
<title>6\n[spawn_has_erosion]</title>
<text text-anchor="middle" x="405.5" y="-1208.8" font-family="Times,serif" font-size="14.00">6</text>
<text text-anchor="middle" x="405.5" y="-1193.8" font-family="Times,serif" font-size="14.00">[spawn_has_erosion]</text>
</g>
<!-- 0\n[start]&#45;&gt;6\n[spawn_has_erosion] -->
<g id="edge5" class="edge">
<title>0\n[start]&#45;&gt;6\n[spawn_has_erosion]</title>
<path fill="none" stroke="black" d="M451.11,-1259.83C444.01,-1251.45 435.45,-1241.35 427.68,-1232.17"/>
<polygon fill="black" stroke="black" points="430.23,-1229.78 421.1,-1224.41 424.89,-1234.31 430.23,-1229.78"/>
</g>
<!-- 13\n[has_monsters] -->
<g id="node14" class="node">
<title>13\n[has_monsters]</title>
<text text-anchor="middle" x="609.5" y="-1208.8" font-family="Times,serif" font-size="14.00">13</text>
<text text-anchor="middle" x="609.5" y="-1193.8" font-family="Times,serif" font-size="14.00">[has_monsters]</text>
</g>
<!-- 0\n[start]&#45;&gt;13\n[has_monsters] -->
<g id="edge4" class="edge">
<title>0\n[start]&#45;&gt;13\n[has_monsters]</title>
<path fill="none" stroke="black" d="M493.73,-1264.29C513.76,-1254.2 541.44,-1240.27 564.7,-1228.55"/>
<polygon fill="black" stroke="black" points="566.35,-1231.64 573.71,-1224.02 563.2,-1225.39 566.35,-1231.64"/>
</g>
<!-- 15\n[spawn_is_ruins] -->
<g id="node16" class="node">
<title>15\n[spawn_is_ruins]</title>
<text text-anchor="middle" x="169.5" y="-1208.8" font-family="Times,serif" font-size="14.00">15</text>
<text text-anchor="middle" x="169.5" y="-1193.8" font-family="Times,serif" font-size="14.00">[spawn_is_ruins]</text>
</g>
<!-- 0\n[start]&#45;&gt;15\n[spawn_is_ruins] -->
<g id="edge3" class="edge">
<title>0\n[start]&#45;&gt;15\n[spawn_is_ruins]</title>
<path fill="none" stroke="black" d="M439.36,-1271.42C393.34,-1260.27 298.81,-1237.35 234.77,-1221.82"/>
<polygon fill="black" stroke="black" points="235.31,-1218.35 224.76,-1219.4 233.66,-1225.15 235.31,-1218.35"/>
</g>
<!-- 26 -->
<g id="node27" class="node">
<title>26</title>
<text text-anchor="middle" x="737.5" y="-778.8" font-family="Times,serif" font-size="14.00">26</text>
</g>
<!-- 0\n[start]&#45;&gt;26 -->
<g id="edge6" class="edge">
<title>0\n[start]&#45;&gt;26</title>
<path fill="none" stroke="black" d="M493.8,-1276.56C535.09,-1273.17 614.34,-1261.83 668.5,-1224 715.09,-1191.46 738.5,-1173.83 738.5,-1117 738.5,-1117 738.5,-1117 738.5,-944.5 738.5,-897.74 738.07,-843.35 737.78,-811.26"/>
<polygon fill="black" stroke="black" points="741.27,-810.86 737.68,-800.89 734.27,-810.92 741.27,-810.86"/>
</g>
<!-- 1\n[end] -->
<g id="node2" class="node">
<title>1\n[end]</title>
<text text-anchor="middle" x="454.5" y="-22.8" font-family="Times,serif" font-size="14.00">1</text>
<text text-anchor="middle" x="454.5" y="-7.8" font-family="Times,serif" font-size="14.00">[end]</text>
</g>
<!-- 3\n[has_monsters] -->
<g id="node4" class="node">
<title>3\n[has_monsters]</title>
<text text-anchor="middle" x="276.5" y="-867.8" font-family="Times,serif" font-size="14.00">3</text>
<text text-anchor="middle" x="276.5" y="-852.8" font-family="Times,serif" font-size="14.00">[has_monsters]</text>
</g>
<!-- 2\nbuild the Rock Raider HQ\nbuild up your base&#45;&gt;3\n[has_monsters] -->
<g id="edge8" class="edge">
<title>2\nbuild the Rock Raider HQ\nbuild up your base&#45;&gt;3\n[has_monsters]</title>
<path fill="none" stroke="black" d="M323.29,-918.91C315.49,-909.92 306.72,-899.82 298.91,-890.82"/>
<polygon fill="black" stroke="black" points="301.53,-888.5 292.33,-883.24 296.24,-893.09 301.53,-888.5"/>
</g>
<!-- 20 -->
<g id="node21" class="node">
<title>20</title>
<text text-anchor="middle" x="454.5" y="-860.3" font-family="Times,serif" font-size="14.00">20</text>
</g>
<!-- 2\nbuild the Rock Raider HQ\nbuild up your base&#45;&gt;20 -->
<g id="edge7" class="edge">
<title>2\nbuild the Rock Raider HQ\nbuild up your base&#45;&gt;20</title>
<path fill="none" stroke="black" d="M380.59,-918.91C394.17,-909 409.6,-897.75 422.83,-888.1"/>
<polygon fill="black" stroke="black" points="425.16,-890.73 431.17,-882.01 421.03,-885.08 425.16,-890.73"/>
</g>
<!-- 4\nand keep it safe\nand make sure it is heavily defended -->
<g id="node5" class="node">
<title>4\nand keep it safe\nand make sure it is heavily defended</title>
<polygon fill="none" stroke="black" points="385,-557 168,-557 168,-504 385,-504 385,-557"/>
<text text-anchor="middle" x="276.5" y="-541.8" font-family="Times,serif" font-size="14.00">4</text>
<text text-anchor="middle" x="276.5" y="-526.8" font-family="Times,serif" font-size="14.00">and keep it safe</text>
<text text-anchor="middle" x="276.5" y="-511.8" font-family="Times,serif" font-size="14.00">and make sure it is heavily defended</text>
</g>
<!-- 3\n[has_monsters]&#45;&gt;4\nand keep it safe\nand make sure it is heavily defended -->
<g id="edge9" class="edge">
<title>3\n[has_monsters]&#45;&gt;4\nand keep it safe\nand make sure it is heavily defended</title>
<path fill="none" stroke="black" d="M276.5,-844.7C276.5,-791.77 276.5,-637.77 276.5,-567.37"/>
<polygon fill="black" stroke="black" points="280,-567.21 276.5,-557.21 273,-567.21 280,-567.21"/>
</g>
<!-- 25\n. Then\n. Once you have done that, -->
<g id="node26" class="node">
<title>25\n. Then\n. Once you have done that,</title>
<polygon fill="none" stroke="black" points="426.5,-460.5 262.5,-460.5 262.5,-407.5 426.5,-407.5 426.5,-460.5"/>
<text text-anchor="middle" x="344.5" y="-445.3" font-family="Times,serif" font-size="14.00">25</text>
<text text-anchor="middle" x="344.5" y="-430.3" font-family="Times,serif" font-size="14.00">. Then</text>
<text text-anchor="middle" x="344.5" y="-415.3" font-family="Times,serif" font-size="14.00">. Once you have done that,</text>
</g>
<!-- 4\nand keep it safe\nand make sure it is heavily defended&#45;&gt;25\n. Then\n. Once you have done that, -->
<g id="edge10" class="edge">
<title>4\nand keep it safe\nand make sure it is heavily defended&#45;&gt;25\n. Then\n. Once you have done that,</title>
<path fill="none" stroke="black" d="M295.08,-503.68C302.73,-493.05 311.69,-480.59 319.87,-469.22"/>
<polygon fill="black" stroke="black" points="322.94,-470.95 325.94,-460.79 317.26,-466.86 322.94,-470.95"/>
</g>
<!-- 28\n. -->
<g id="node29" class="node">
<title>28\n.</title>
<polygon fill="none" stroke="black" points="481.5,-201 427.5,-201 427.5,-163 481.5,-163 481.5,-201"/>
<text text-anchor="middle" x="454.5" y="-185.8" font-family="Times,serif" font-size="14.00">28</text>
<text text-anchor="middle" x="454.5" y="-170.8" font-family="Times,serif" font-size="14.00">.</text>
</g>
<!-- 4\nand keep it safe\nand make sure it is heavily defended&#45;&gt;28\n. -->
<g id="edge11" class="edge">
<title>4\nand keep it safe\nand make sure it is heavily defended&#45;&gt;28\n.</title>
<path fill="none" stroke="black" d="M264.52,-503.75C260.13,-492.95 255.69,-480.11 253.5,-468 235.14,-366.47 209.39,-315.36 276.5,-237 311.48,-196.16 376.26,-185.6 417.27,-183.21"/>
<polygon fill="black" stroke="black" points="417.57,-186.7 427.41,-182.76 417.26,-179.71 417.57,-186.7"/>
</g>
<!-- 5\nexplore the cavern&#45;&gt;20 -->
<g id="edge12" class="edge">
<title>5\nexplore the cavern&#45;&gt;20</title>
<path fill="none" stroke="black" d="M520.99,-926.46C509.08,-915.46 493.72,-901.26 480.76,-889.27"/>
<polygon fill="black" stroke="black" points="482.77,-886.37 473.05,-882.15 478.02,-891.51 482.77,-886.37"/>
</g>
<!-- 7\nmove to a safer cavern\nget your Rock Raiders to safety -->
<g id="node8" class="node">
<title>7\nmove to a safer cavern\nget your Rock Raiders to safety</title>
<polygon fill="none" stroke="black" points="486,-1142.5 297,-1142.5 297,-1089.5 486,-1089.5 486,-1142.5"/>
<text text-anchor="middle" x="391.5" y="-1127.3" font-family="Times,serif" font-size="14.00">7</text>
<text text-anchor="middle" x="391.5" y="-1112.3" font-family="Times,serif" font-size="14.00">move to a safer cavern</text>
<text text-anchor="middle" x="391.5" y="-1097.3" font-family="Times,serif" font-size="14.00">get your Rock Raiders to safety</text>
</g>
<!-- 6\n[spawn_has_erosion]&#45;&gt;7\nmove to a safer cavern\nget your Rock Raiders to safety -->
<g id="edge13" class="edge">
<title>6\n[spawn_has_erosion]&#45;&gt;7\nmove to a safer cavern\nget your Rock Raiders to safety</title>
<path fill="none" stroke="black" d="M402.6,-1185.97C401.05,-1176.37 399.1,-1164.21 397.26,-1152.78"/>
<polygon fill="black" stroke="black" points="400.66,-1151.91 395.62,-1142.59 393.75,-1153.02 400.66,-1151.91"/>
</g>
<!-- 7\nmove to a safer cavern\nget your Rock Raiders to safety&#45;&gt;20 -->
<g id="edge14" class="edge">
<title>7\nmove to a safer cavern\nget your Rock Raiders to safety&#45;&gt;20</title>
<path fill="none" stroke="black" d="M400.11,-1089.39C409.45,-1060.96 424.4,-1013.57 434.5,-972 441.03,-945.14 446.63,-914.04 450.23,-892.31"/>
<polygon fill="black" stroke="black" points="453.72,-892.6 451.87,-882.17 446.82,-891.48 453.72,-892.6"/>
</g>
<!-- 22\n, -->
<g id="node23" class="node">
<title>22\n,</title>
<polygon fill="none" stroke="black" points="395.5,-1046 341.5,-1046 341.5,-1008 395.5,-1008 395.5,-1046"/>
<text text-anchor="middle" x="368.5" y="-1030.8" font-family="Times,serif" font-size="14.00">22</text>
<text text-anchor="middle" x="368.5" y="-1015.8" font-family="Times,serif" font-size="14.00">,</text>
</g>
<!-- 7\nmove to a safer cavern\nget your Rock Raiders to safety&#45;&gt;22\n, -->
<g id="edge15" class="edge">
<title>7\nmove to a safer cavern\nget your Rock Raiders to safety&#45;&gt;22\n,</title>
<path fill="none" stroke="black" d="M384.72,-1089.37C381.93,-1078.81 378.69,-1066.55 375.84,-1055.78"/>
<polygon fill="black" stroke="black" points="379.2,-1054.78 373.26,-1046.01 372.43,-1056.57 379.2,-1054.78"/>
</g>
<!-- 8\n[lost_miners_one] -->
<g id="node9" class="node">
<title>8\n[lost_miners_one]</title>
<text text-anchor="middle" x="737.5" y="-704.8" font-family="Times,serif" font-size="14.00">8</text>
<text text-anchor="middle" x="737.5" y="-689.8" font-family="Times,serif" font-size="14.00">[lost_miners_one]</text>
</g>
<!-- 9\nfind the lost Rock Raider\nlocate the missing Rock Raider -->
<g id="node10" class="node">
<title>9\nfind the lost Rock Raider\nlocate the missing Rock Raider</title>
<polygon fill="none" stroke="black" points="887.5,-646 699.5,-646 699.5,-593 887.5,-593 887.5,-646"/>
<text text-anchor="middle" x="793.5" y="-630.8" font-family="Times,serif" font-size="14.00">9</text>
<text text-anchor="middle" x="793.5" y="-615.8" font-family="Times,serif" font-size="14.00">find the lost Rock Raider</text>
<text text-anchor="middle" x="793.5" y="-600.8" font-family="Times,serif" font-size="14.00">locate the missing Rock Raider</text>
</g>
<!-- 8\n[lost_miners_one]&#45;&gt;9\nfind the lost Rock Raider\nlocate the missing Rock Raider -->
<g id="edge16" class="edge">
<title>8\n[lost_miners_one]&#45;&gt;9\nfind the lost Rock Raider\nlocate the missing Rock Raider</title>
<path fill="none" stroke="black" d="M750.21,-681.96C756,-673.74 763.05,-663.73 769.76,-654.2"/>
<polygon fill="black" stroke="black" points="772.64,-656.19 775.54,-646 766.92,-652.16 772.64,-656.19"/>
</g>
<!-- 12 -->
<g id="node13" class="node">
<title>12</title>
<text text-anchor="middle" x="629.5" y="-526.8" font-family="Times,serif" font-size="14.00">12</text>
</g>
<!-- 9\nfind the lost Rock Raider\nlocate the missing Rock Raider&#45;&gt;12 -->
<g id="edge17" class="edge">
<title>9\nfind the lost Rock Raider\nlocate the missing Rock Raider&#45;&gt;12</title>
<path fill="none" stroke="black" d="M745.18,-592.87C719.66,-579.33 688.86,-562.99 665.47,-550.58"/>
<polygon fill="black" stroke="black" points="667.04,-547.45 656.57,-545.86 663.76,-553.64 667.04,-547.45"/>
</g>
<!-- 10\n[lost_miners_many] -->
<g id="node11" class="node">
<title>10\n[lost_miners_many]</title>
<text text-anchor="middle" x="594.5" y="-704.8" font-family="Times,serif" font-size="14.00">10</text>
<text text-anchor="middle" x="594.5" y="-689.8" font-family="Times,serif" font-size="14.00">[lost_miners_many]</text>
</g>
<!-- 11\nfind the lost Rock Raiders\nlocate the missing Rock Raiders -->
<g id="node12" class="node">
<title>11\nfind the lost Rock Raiders\nlocate the missing Rock Raiders</title>
<polygon fill="none" stroke="black" points="681,-646 488,-646 488,-593 681,-593 681,-646"/>
<text text-anchor="middle" x="584.5" y="-630.8" font-family="Times,serif" font-size="14.00">11</text>
<text text-anchor="middle" x="584.5" y="-615.8" font-family="Times,serif" font-size="14.00">find the lost Rock Raiders</text>
<text text-anchor="middle" x="584.5" y="-600.8" font-family="Times,serif" font-size="14.00">locate the missing Rock Raiders</text>
</g>
<!-- 10\n[lost_miners_many]&#45;&gt;11\nfind the lost Rock Raiders\nlocate the missing Rock Raiders -->
<g id="edge18" class="edge">
<title>10\n[lost_miners_many]&#45;&gt;11\nfind the lost Rock Raiders\nlocate the missing Rock Raiders</title>
<path fill="none" stroke="black" d="M592.23,-681.96C591.26,-674.24 590.09,-664.94 588.96,-655.94"/>
<polygon fill="black" stroke="black" points="592.43,-655.49 587.71,-646 585.48,-656.36 592.43,-655.49"/>
</g>
<!-- 11\nfind the lost Rock Raiders\nlocate the missing Rock Raiders&#45;&gt;12 -->
<g id="edge19" class="edge">
<title>11\nfind the lost Rock Raiders\nlocate the missing Rock Raiders&#45;&gt;12</title>
<path fill="none" stroke="black" d="M597.76,-592.87C603.45,-581.86 610.1,-569 615.84,-557.91"/>
<polygon fill="black" stroke="black" points="619.12,-559.19 620.6,-548.7 612.9,-555.98 619.12,-559.19"/>
</g>
<!-- 27\n. Once you have done that,\n. With them secure,\n. Along the way, -->
<g id="node28" class="node">
<title>27\n. Once you have done that,\n. With them secure,\n. Along the way,</title>
<polygon fill="none" stroke="black" points="646.5,-468 482.5,-468 482.5,-400 646.5,-400 646.5,-468"/>
<text text-anchor="middle" x="564.5" y="-452.8" font-family="Times,serif" font-size="14.00">27</text>
<text text-anchor="middle" x="564.5" y="-437.8" font-family="Times,serif" font-size="14.00">. Once you have done that,</text>
<text text-anchor="middle" x="564.5" y="-422.8" font-family="Times,serif" font-size="14.00">. With them secure,</text>
<text text-anchor="middle" x="564.5" y="-407.8" font-family="Times,serif" font-size="14.00">. Along the way,</text>
</g>
<!-- 12&#45;&gt;27\n. Once you have done that,\n. With them secure,\n. Along the way, -->
<g id="edge20" class="edge">
<title>12&#45;&gt;27\n. Once you have done that,\n. With them secure,\n. Along the way,</title>
<path fill="none" stroke="black" d="M617.58,-512.17C610.73,-502.21 601.81,-489.24 593.24,-476.79"/>
<polygon fill="black" stroke="black" points="595.95,-474.54 587.4,-468.29 590.18,-478.51 595.95,-474.54"/>
</g>
<!-- 12&#45;&gt;28\n. -->
<g id="edge21" class="edge">
<title>12&#45;&gt;28\n.</title>
<path fill="none" stroke="black" d="M638.95,-512.34C645.02,-500.32 652.32,-483.68 655.5,-468 676,-366.88 699.61,-315.36 632.5,-237 597.52,-196.16 532.74,-185.6 491.73,-183.21"/>
<polygon fill="black" stroke="black" points="491.74,-179.71 481.59,-182.76 491.43,-186.7 491.74,-179.71"/>
</g>
<!-- 14\ndefend the Rock Radier HQ\nbuild up your defenses\narm your Rock Raiders -->
<g id="node15" class="node">
<title>14\ndefend the Rock Radier HQ\nbuild up your defenses\narm your Rock Raiders</title>
<polygon fill="none" stroke="black" points="711,-1150 542,-1150 542,-1082 711,-1082 711,-1150"/>
<text text-anchor="middle" x="626.5" y="-1134.8" font-family="Times,serif" font-size="14.00">14</text>
<text text-anchor="middle" x="626.5" y="-1119.8" font-family="Times,serif" font-size="14.00">defend the Rock Radier HQ</text>
<text text-anchor="middle" x="626.5" y="-1104.8" font-family="Times,serif" font-size="14.00">build up your defenses</text>
<text text-anchor="middle" x="626.5" y="-1089.8" font-family="Times,serif" font-size="14.00">arm your Rock Raiders</text>
</g>
<!-- 13\n[has_monsters]&#45;&gt;14\ndefend the Rock Radier HQ\nbuild up your defenses\narm your Rock Raiders -->
<g id="edge22" class="edge">
<title>13\n[has_monsters]&#45;&gt;14\ndefend the Rock Radier HQ\nbuild up your defenses\narm your Rock Raiders</title>
<path fill="none" stroke="black" d="M613.02,-1185.97C614.51,-1178.37 616.31,-1169.17 618.1,-1159.99"/>
<polygon fill="black" stroke="black" points="621.54,-1160.61 620.03,-1150.12 614.67,-1159.27 621.54,-1160.61"/>
</g>
<!-- 14\ndefend the Rock Radier HQ\nbuild up your defenses\narm your Rock Raiders&#45;&gt;20 -->
<g id="edge23" class="edge">
<title>14\ndefend the Rock Radier HQ\nbuild up your defenses\narm your Rock Raiders&#45;&gt;20</title>
<path fill="none" stroke="black" d="M633.4,-1081.98C640.25,-1039.58 645.07,-965.88 608.5,-919 580.66,-883.32 527.61,-871.14 491.64,-867.03"/>
<polygon fill="black" stroke="black" points="491.83,-863.53 481.53,-866.03 491.14,-870.5 491.83,-863.53"/>
</g>
<!-- 21\n,  -->
<g id="node22" class="node">
<title>21\n, </title>
<polygon fill="none" stroke="black" points="597.5,-1046 543.5,-1046 543.5,-1008 597.5,-1008 597.5,-1046"/>
<text text-anchor="middle" x="570.5" y="-1030.8" font-family="Times,serif" font-size="14.00">21</text>
<text text-anchor="middle" x="570.5" y="-1015.8" font-family="Times,serif" font-size="14.00">, </text>
</g>
<!-- 14\ndefend the Rock Radier HQ\nbuild up your defenses\narm your Rock Raiders&#45;&gt;21\n,  -->
<g id="edge24" class="edge">
<title>14\ndefend the Rock Radier HQ\nbuild up your defenses\narm your Rock Raiders&#45;&gt;21\n, </title>
<path fill="none" stroke="black" d="M605.01,-1081.61C599.24,-1072.65 593.08,-1063.08 587.59,-1054.55"/>
<polygon fill="black" stroke="black" points="590.5,-1052.61 582.15,-1046.09 584.62,-1056.4 590.5,-1052.61"/>
</g>
<!-- 16\nclean up this mess\nget the Rock Raider HQ back in operation -->
<g id="node17" class="node">
<title>16\nclean up this mess\nget the Rock Raider HQ back in operation</title>
<polygon fill="none" stroke="black" points="247,-972 0,-972 0,-919 247,-919 247,-972"/>
<text text-anchor="middle" x="123.5" y="-956.8" font-family="Times,serif" font-size="14.00">16</text>
<text text-anchor="middle" x="123.5" y="-941.8" font-family="Times,serif" font-size="14.00">clean up this mess</text>
<text text-anchor="middle" x="123.5" y="-926.8" font-family="Times,serif" font-size="14.00">get the Rock Raider HQ back in operation</text>
</g>
<!-- 15\n[spawn_is_ruins]&#45;&gt;16\nclean up this mess\nget the Rock Raider HQ back in operation -->
<g id="edge25" class="edge">
<title>15\n[spawn_is_ruins]&#45;&gt;16\nclean up this mess\nget the Rock Raider HQ back in operation</title>
<path fill="none" stroke="black" d="M166.27,-1185.89C158.73,-1143.73 139.91,-1038.37 129.94,-982.54"/>
<polygon fill="black" stroke="black" points="133.33,-981.62 128.13,-972.39 126.44,-982.85 133.33,-981.62"/>
</g>
<!-- 16\nclean up this mess\nget the Rock Raider HQ back in operation&#45;&gt;3\n[has_monsters] -->
<g id="edge27" class="edge">
<title>16\nclean up this mess\nget the Rock Raider HQ back in operation&#45;&gt;3\n[has_monsters]</title>
<path fill="none" stroke="black" d="M172.75,-918.91C191.97,-908.92 213.83,-897.56 232.51,-887.86"/>
<polygon fill="black" stroke="black" points="234.14,-890.96 241.4,-883.24 230.91,-884.74 234.14,-890.96"/>
</g>
<!-- 16\nclean up this mess\nget the Rock Raider HQ back in operation&#45;&gt;20 -->
<g id="edge26" class="edge">
<title>16\nclean up this mess\nget the Rock Raider HQ back in operation&#45;&gt;20</title>
<path fill="none" stroke="black" d="M230.05,-918.91C294.4,-903.45 372.42,-884.71 417.47,-873.89"/>
<polygon fill="black" stroke="black" points="418.47,-877.25 427.38,-871.51 416.84,-870.45 418.47,-877.25"/>
</g>
<!-- 17\n[collect_resources] -->
<g id="node18" class="node">
<title>17\n[collect_resources]</title>
<text text-anchor="middle" x="454.5" y="-348.8" font-family="Times,serif" font-size="14.00">17</text>
<text text-anchor="middle" x="454.5" y="-333.8" font-family="Times,serif" font-size="14.00">[collect_resources]</text>
</g>
<!-- 18\ncontinue our mining operation by collecting %(resources)s\ncollect %(resources)s -->
<g id="node19" class="node">
<title>18\ncontinue our mining operation by collecting %(resources)s\ncollect %(resources)s</title>
<polygon fill="none" stroke="black" points="623.5,-290 285.5,-290 285.5,-237 623.5,-237 623.5,-290"/>
<text text-anchor="middle" x="454.5" y="-274.8" font-family="Times,serif" font-size="14.00">18</text>
<text text-anchor="middle" x="454.5" y="-259.8" font-family="Times,serif" font-size="14.00">continue our mining operation by collecting %(resources)s</text>
<text text-anchor="middle" x="454.5" y="-244.8" font-family="Times,serif" font-size="14.00">collect %(resources)s</text>
</g>
<!-- 17\n[collect_resources]&#45;&gt;18\ncontinue our mining operation by collecting %(resources)s\ncollect %(resources)s -->
<g id="edge28" class="edge">
<title>17\n[collect_resources]&#45;&gt;18\ncontinue our mining operation by collecting %(resources)s\ncollect %(resources)s</title>
<path fill="none" stroke="black" d="M454.5,-325.96C454.5,-318.32 454.5,-309.14 454.5,-300.23"/>
<polygon fill="black" stroke="black" points="458,-300 454.5,-290 451,-300 458,-300"/>
</g>
<!-- 18\ncontinue our mining operation by collecting %(resources)s\ncollect %(resources)s&#45;&gt;28\n. -->
<g id="edge29" class="edge">
<title>18\ncontinue our mining operation by collecting %(resources)s\ncollect %(resources)s&#45;&gt;28\n.</title>
<path fill="none" stroke="black" d="M454.5,-236.91C454.5,-228.74 454.5,-219.65 454.5,-211.3"/>
<polygon fill="black" stroke="black" points="458,-211.24 454.5,-201.24 451,-211.24 458,-211.24"/>
</g>
<!-- 19\nWe&#39;re counting on you, Cadet!\nGood luck out there, Cadet! -->
<g id="node20" class="node">
<title>19\nWe&#39;re counting on you, Cadet!\nGood luck out there, Cadet!</title>
<polygon fill="none" stroke="black" points="486.5,-127 302.5,-127 302.5,-74 486.5,-74 486.5,-127"/>
<text text-anchor="middle" x="394.5" y="-111.8" font-family="Times,serif" font-size="14.00">19</text>
<text text-anchor="middle" x="394.5" y="-96.8" font-family="Times,serif" font-size="14.00">We&#39;re counting on you, Cadet!</text>
<text text-anchor="middle" x="394.5" y="-81.8" font-family="Times,serif" font-size="14.00">Good luck out there, Cadet!</text>
</g>
<!-- 19\nWe&#39;re counting on you, Cadet!\nGood luck out there, Cadet!&#45;&gt;1\n[end] -->
<g id="edge30" class="edge">
<title>19\nWe&#39;re counting on you, Cadet!\nGood luck out there, Cadet!&#45;&gt;1\n[end]</title>
<path fill="none" stroke="black" d="M413.81,-73.91C420.46,-65.1 427.91,-55.23 434.6,-46.36"/>
<polygon fill="black" stroke="black" points="437.5,-48.33 440.73,-38.24 431.92,-44.11 437.5,-48.33"/>
</g>
<!-- 23\nand -->
<g id="node24" class="node">
<title>23\nand</title>
<polygon fill="none" stroke="black" points="481.5,-720 427.5,-720 427.5,-682 481.5,-682 481.5,-720"/>
<text text-anchor="middle" x="454.5" y="-704.8" font-family="Times,serif" font-size="14.00">23</text>
<text text-anchor="middle" x="454.5" y="-689.8" font-family="Times,serif" font-size="14.00">and</text>
</g>
<!-- 20&#45;&gt;23\nand -->
<g id="edge31" class="edge">
<title>20&#45;&gt;23\nand</title>
<path fill="none" stroke="black" d="M454.5,-845.77C454.5,-818.1 454.5,-763.49 454.5,-730.12"/>
<polygon fill="black" stroke="black" points="458,-730.09 454.5,-720.09 451,-730.09 458,-730.09"/>
</g>
<!-- 24\n, then\nand -->
<g id="node25" class="node">
<title>24\n, then\nand</title>
<polygon fill="none" stroke="black" points="621.5,-809 567.5,-809 567.5,-756 621.5,-756 621.5,-809"/>
<text text-anchor="middle" x="594.5" y="-793.8" font-family="Times,serif" font-size="14.00">24</text>
<text text-anchor="middle" x="594.5" y="-778.8" font-family="Times,serif" font-size="14.00">, then</text>
<text text-anchor="middle" x="594.5" y="-763.8" font-family="Times,serif" font-size="14.00">and</text>
</g>
<!-- 20&#45;&gt;24\n, then\nand -->
<g id="edge32" class="edge">
<title>20&#45;&gt;24\n, then\nand</title>
<path fill="none" stroke="black" d="M481.83,-847.48C503.7,-835.06 534.56,-817.54 558.46,-803.97"/>
<polygon fill="black" stroke="black" points="560.28,-806.96 567.24,-798.98 556.82,-800.87 560.28,-806.96"/>
</g>
<!-- 21\n, &#45;&gt;5\nexplore the cavern -->
<g id="edge33" class="edge">
<title>21\n, &#45;&gt;5\nexplore the cavern</title>
<path fill="none" stroke="black" d="M563.69,-1007.96C559.92,-997.97 555.16,-985.34 550.92,-974.13"/>
<polygon fill="black" stroke="black" points="554.19,-972.86 547.38,-964.74 547.64,-975.34 554.19,-972.86"/>
</g>
<!-- 22\n,&#45;&gt;2\nbuild the Rock Raider HQ\nbuild up your base -->
<g id="edge34" class="edge">
<title>22\n,&#45;&gt;2\nbuild the Rock Raider HQ\nbuild up your base</title>
<path fill="none" stroke="black" d="M363.28,-1007.96C361.02,-1000.15 358.3,-990.74 355.67,-981.65"/>
<polygon fill="black" stroke="black" points="359.02,-980.64 352.88,-972 352.3,-982.58 359.02,-980.64"/>
</g>
<!-- 23\nand&#45;&gt;17\n[collect_resources] -->
<g id="edge35" class="edge">
<title>23\nand&#45;&gt;17\n[collect_resources]</title>
<path fill="none" stroke="black" d="M454.5,-681.96C454.5,-624.32 454.5,-444.29 454.5,-374.26"/>
<polygon fill="black" stroke="black" points="458,-374.01 454.5,-364.01 451,-374.01 458,-374.01"/>
</g>
<!-- 24\n, then\nand&#45;&gt;8\n[lost_miners_one] -->
<g id="edge36" class="edge">
<title>24\n, then\nand&#45;&gt;8\n[lost_miners_one]</title>
<path fill="none" stroke="black" d="M621.73,-766.36C642.79,-754.65 672.28,-738.26 696.23,-724.94"/>
<polygon fill="black" stroke="black" points="698.07,-727.92 705.11,-720.01 694.67,-721.81 698.07,-727.92"/>
</g>
<!-- 24\n, then\nand&#45;&gt;10\n[lost_miners_many] -->
<g id="edge37" class="edge">
<title>24\n, then\nand&#45;&gt;10\n[lost_miners_many]</title>
<path fill="none" stroke="black" d="M594.5,-755.91C594.5,-747.74 594.5,-738.65 594.5,-730.3"/>
<polygon fill="black" stroke="black" points="598,-730.24 594.5,-720.24 591,-730.24 598,-730.24"/>
</g>
<!-- 25\n. Then\n. Once you have done that,&#45;&gt;17\n[collect_resources] -->
<g id="edge38" class="edge">
<title>25\n. Then\n. Once you have done that,&#45;&gt;17\n[collect_resources]</title>
<path fill="none" stroke="black" d="M376.91,-407.37C391.64,-395.72 408.98,-382 423.53,-370.49"/>
<polygon fill="black" stroke="black" points="426.06,-372.96 431.73,-364.01 421.72,-367.46 426.06,-372.96"/>
</g>
<!-- 26&#45;&gt;8\n[lost_miners_one] -->
<g id="edge39" class="edge">
<title>26&#45;&gt;8\n[lost_miners_one]</title>
<path fill="none" stroke="black" d="M737.5,-764.25C737.5,-754.35 737.5,-741.68 737.5,-730.35"/>
<polygon fill="black" stroke="black" points="741,-730.04 737.5,-720.04 734,-730.04 741,-730.04"/>
</g>
<!-- 26&#45;&gt;10\n[lost_miners_many] -->
<g id="edge40" class="edge">
<title>26&#45;&gt;10\n[lost_miners_many]</title>
<path fill="none" stroke="black" d="M710.27,-766.36C689.21,-754.65 659.72,-738.26 635.77,-724.94"/>
<polygon fill="black" stroke="black" points="637.33,-721.81 626.89,-720.01 633.93,-727.92 637.33,-721.81"/>
</g>
<!-- 27\n. Once you have done that,\n. With them secure,\n. Along the way,&#45;&gt;17\n[collect_resources] -->
<g id="edge41" class="edge">
<title>27\n. Once you have done that,\n. With them secure,\n. Along the way,&#45;&gt;17\n[collect_resources]</title>
<path fill="none" stroke="black" d="M522.6,-399.86C510.29,-390.12 497.05,-379.65 485.54,-370.55"/>
<polygon fill="black" stroke="black" points="487.53,-367.66 477.51,-364.2 483.18,-373.15 487.53,-367.66"/>
</g>
<!-- 28\n.&#45;&gt;1\n[end] -->
<g id="edge42" class="edge">
<title>28\n.&#45;&gt;1\n[end]</title>
<path fill="none" stroke="black" d="M473.1,-162.81C481.7,-153.09 490.99,-140.39 495.5,-127 503.01,-104.68 503.01,-96.32 495.5,-74 492.12,-63.96 486.05,-54.3 479.6,-46.01"/>
<polygon fill="black" stroke="black" points="482.19,-43.65 473.1,-38.19 476.8,-48.12 482.19,-43.65"/>
</g>
<!-- 28\n.&#45;&gt;19\nWe&#39;re counting on you, Cadet!\nGood luck out there, Cadet! -->
<g id="edge43" class="edge">
<title>28\n.&#45;&gt;19\nWe&#39;re counting on you, Cadet!\nGood luck out there, Cadet!</title>
<path fill="none" stroke="black" d="M440.89,-162.96C434.68,-154.74 427.13,-144.73 419.93,-135.2"/>
<polygon fill="black" stroke="black" points="422.57,-132.88 413.75,-127 416.98,-137.09 422.57,-132.88"/>
</g>
</g>
</svg>
