<?xml version="1.0" encoding="UTF-8" standalone="no"?>
<!DOCTYPE svg PUBLIC "-//W3C//DTD SVG 1.1//EN"
 "http://www.w3.org/Graphics/SVG/1.1/DTD/svg11.dtd">
<!-- Generated by graphviz version 2.43.0 (0)
 -->
<!-- Title: G Pages: 1 -->
<svg width="2605pt" height="228pt"
 viewBox="0.00 0.00 2605.00 227.55" xmlns="http://www.w3.org/2000/svg" xmlns:xlink="http://www.w3.org/1999/xlink">
<g id="graph0" class="graph" transform="scale(1 1) rotate(0) translate(4 223.55)">
<title>G</title>
<polygon fill="white" stroke="transparent" points="-4,4 -4,-223.55 2601,-223.55 2601,4 -4,4"/>
<!-- 0\n[start] -->
<g id="node1" class="node">
<title>0\n[start]</title>
<text text-anchor="middle" x="27" y="-67.35" font-family="Times,serif" font-size="14.00" fill="blue">0</text>
<text text-anchor="middle" x="27" y="-52.35" font-family="Times,serif" font-size="14.00" fill="blue">[start]</text>
</g>
<!-- 2\nWell done!\nGood work!\nOutstanding!\nI knew you could do it, Cadet!\nWe were right to count on you, Cadet! -->
<g id="node3" class="node">
<title>2\nWell done!\nGood work!\nOutstanding!\nI knew you could do it, Cadet!\nWe were right to count on you, Cadet!</title>
<polygon fill="none" stroke="black" points="330.5,-206.55 103.5,-206.55 103.5,-108.55 330.5,-108.55 330.5,-206.55"/>
<text text-anchor="middle" x="217" y="-191.35" font-family="Times,serif" font-size="14.00">2</text>
<text text-anchor="middle" x="217" y="-176.35" font-family="Times,serif" font-size="14.00">Well done!</text>
<text text-anchor="middle" x="217" y="-161.35" font-family="Times,serif" font-size="14.00">Good work!</text>
<text text-anchor="middle" x="217" y="-146.35" font-family="Times,serif" font-size="14.00">Outstanding!</text>
<text text-anchor="middle" x="217" y="-131.35" font-family="Times,serif" font-size="14.00">I knew you could do it, Cadet!</text>
<text text-anchor="middle" x="217" y="-116.35" font-family="Times,serif" font-size="14.00">We were right to count on you, Cadet!</text>
</g>
<!-- 0\n[start]&#45;&gt;2\nWell done!\nGood work!\nOutstanding!\nI knew you could do it, Cadet!\nWe were right to count on you, Cadet! -->
<g id="edge1" class="edge">
<title>0\n[start]&#45;&gt;2\nWell done!\nGood work!\nOutstanding!\nI knew you could do it, Cadet!\nWe were right to count on you, Cadet!</title>
<path fill="none" stroke="blue" d="M54.24,-79.53C65.17,-85.98 78.07,-93.36 90,-99.55 92.89,-101.05 95.82,-102.55 98.78,-104.05"/>
<polygon fill="blue" stroke="blue" points="97.25,-107.2 107.76,-108.54 100.38,-100.94 97.25,-107.2"/>
</g>
<!-- 4\nThose %(monster_type)s monsters were no\nmatch for you! -->
<g id="node5" class="node">
<title>4\nThose %(monster_type)s monsters were no\nmatch for you!</title>
<polygon fill="none" stroke="black" points="344,-90.05 90,-90.05 90,-37.05 344,-37.05 344,-90.05"/>
<text text-anchor="middle" x="217" y="-74.85" font-family="Times,serif" font-size="14.00">4</text>
<text text-anchor="middle" x="217" y="-59.85" font-family="Times,serif" font-size="14.00">Those %(monster_type)s monsters were no</text>
<text text-anchor="middle" x="217" y="-44.85" font-family="Times,serif" font-size="14.00">match for you!</text>
</g>
<!-- 0\n[start]&#45;&gt;4\nThose %(monster_type)s monsters were no\nmatch for you! -->
<g id="edge2" class="edge">
<title>0\n[start]&#45;&gt;4\nThose %(monster_type)s monsters were no\nmatch for you!</title>
<path fill="none" stroke="blue" d="M54.14,-63.55C61.63,-63.55 70.35,-63.55 79.78,-63.55"/>
<polygon fill="blue" stroke="blue" points="79.85,-67.05 89.85,-63.55 79.85,-60.05 79.85,-67.05"/>
</g>
<!-- 10\nYou managed to\nYou were able to -->
<g id="node11" class="node">
<title>10\nYou managed to\nYou were able to</title>
<polygon fill="none" stroke="black" points="716,-62.05 606,-62.05 606,-9.05 716,-9.05 716,-62.05"/>
<text text-anchor="middle" x="661" y="-46.85" font-family="Times,serif" font-size="14.00">10</text>
<text text-anchor="middle" x="661" y="-31.85" font-family="Times,serif" font-size="14.00">You managed to</text>
<text text-anchor="middle" x="661" y="-16.85" font-family="Times,serif" font-size="14.00">You were able to</text>
</g>
<!-- 0\n[start]&#45;&gt;10\nYou managed to\nYou were able to -->
<g id="edge3" class="edge">
<title>0\n[start]&#45;&gt;10\nYou managed to\nYou were able to</title>
<path fill="none" stroke="blue" d="M53.79,-44.49C64.44,-37.74 77.26,-30.98 90,-27.55 267.98,20.37 488.68,-5.67 595.74,-23.42"/>
<polygon fill="blue" stroke="blue" points="595.3,-26.89 605.74,-25.11 596.46,-19.99 595.3,-26.89"/>
</g>
<!-- 1\n[end] -->
<g id="node2" class="node">
<title>1\n[end]</title>
<text text-anchor="middle" x="2570" y="-64.35" font-family="Times,serif" font-size="14.00" fill="blue">1</text>
<text text-anchor="middle" x="2570" y="-49.35" font-family="Times,serif" font-size="14.00" fill="blue">[end]</text>
</g>
<!-- 3\n[commend] -->
<g id="node4" class="node">
<title>3\n[commend]</title>
<text text-anchor="middle" x="430" y="-142.35" font-family="Times,serif" font-size="14.00" fill="blue">3</text>
<text text-anchor="middle" x="430" y="-127.35" font-family="Times,serif" font-size="14.00" fill="blue">[commend]</text>
</g>
<!-- 2\nWell done!\nGood work!\nOutstanding!\nI knew you could do it, Cadet!\nWe were right to count on you, Cadet!&#45;&gt;3\n[commend] -->
<g id="edge4" class="edge">
<title>2\nWell done!\nGood work!\nOutstanding!\nI knew you could do it, Cadet!\nWe were right to count on you, Cadet!&#45;&gt;3\n[commend]</title>
<path fill="none" stroke="blue" d="M330.6,-147.41C347.67,-145.87 364.49,-144.36 379.26,-143.03"/>
<polygon fill="blue" stroke="blue" points="379.99,-146.48 389.63,-142.1 379.36,-139.51 379.99,-146.48"/>
</g>
<!-- 6 -->
<g id="node7" class="node">
<title>6</title>
<text text-anchor="middle" x="543" y="-59.85" font-family="Times,serif" font-size="14.00">6</text>
</g>
<!-- 3\n[commend]&#45;&gt;6 -->
<g id="edge5" class="edge">
<title>3\n[commend]&#45;&gt;6</title>
<path fill="none" stroke="blue" d="M459.3,-119.43C473.93,-109.54 491.91,-97.39 507.37,-86.95"/>
<polygon fill="blue" stroke="blue" points="509.33,-89.85 515.66,-81.35 505.42,-84.05 509.33,-89.85"/>
</g>
<!-- 5\n[has_monsters] -->
<g id="node6" class="node">
<title>5\n[has_monsters]</title>
<text text-anchor="middle" x="430" y="-67.35" font-family="Times,serif" font-size="14.00" fill="blue">5</text>
<text text-anchor="middle" x="430" y="-52.35" font-family="Times,serif" font-size="14.00" fill="blue">[has_monsters]</text>
</g>
<!-- 4\nThose %(monster_type)s monsters were no\nmatch for you!&#45;&gt;5\n[has_monsters] -->
<g id="edge6" class="edge">
<title>4\nThose %(monster_type)s monsters were no\nmatch for you!&#45;&gt;5\n[has_monsters]</title>
<path fill="none" stroke="blue" d="M344.09,-63.55C352.88,-63.55 361.47,-63.55 369.6,-63.55"/>
<polygon fill="blue" stroke="blue" points="369.64,-67.05 379.64,-63.55 369.64,-60.05 369.64,-67.05"/>
</g>
<!-- 5\n[has_monsters]&#45;&gt;6 -->
<g id="edge7" class="edge">
<title>5\n[has_monsters]&#45;&gt;6</title>
<path fill="none" stroke="blue" d="M480.01,-63.55C488.67,-63.55 497.54,-63.55 505.76,-63.55"/>
<polygon fill="blue" stroke="blue" points="505.77,-67.05 515.77,-63.55 505.77,-60.05 505.77,-67.05"/>
</g>
<!-- 6&#45;&gt;10\nYou managed to\nYou were able to -->
<g id="edge8" class="edge">
<title>6&#45;&gt;10\nYou managed to\nYou were able to</title>
<path fill="none" stroke="black" d="M570.03,-57.27C577.78,-55.4 586.64,-53.26 595.71,-51.07"/>
<polygon fill="black" stroke="black" points="596.68,-54.44 605.58,-48.69 595.04,-47.63 596.68,-54.44"/>
</g>
<!-- 7\nWell done!\nGood work!\nOutstanding!\nI knew you could do it, Cadet!\nWe were right to count on you, Cadet! -->
<g id="node8" class="node">
<title>7\nWell done!\nGood work!\nOutstanding!\nI knew you could do it, Cadet!\nWe were right to count on you, Cadet!</title>
<polygon fill="none" stroke="black" points="2097,-219.55 1870,-219.55 1870,-121.55 2097,-121.55 2097,-219.55"/>
<text text-anchor="middle" x="1983.5" y="-204.35" font-family="Times,serif" font-size="14.00">7</text>
<text text-anchor="middle" x="1983.5" y="-189.35" font-family="Times,serif" font-size="14.00">Well done!</text>
<text text-anchor="middle" x="1983.5" y="-174.35" font-family="Times,serif" font-size="14.00">Good work!</text>
<text text-anchor="middle" x="1983.5" y="-159.35" font-family="Times,serif" font-size="14.00">Outstanding!</text>
<text text-anchor="middle" x="1983.5" y="-144.35" font-family="Times,serif" font-size="14.00">I knew you could do it, Cadet!</text>
<text text-anchor="middle" x="1983.5" y="-129.35" font-family="Times,serif" font-size="14.00">We were right to count on you, Cadet!</text>
</g>
<!-- 9\n[commend] -->
<g id="node10" class="node">
<title>9\n[commend]</title>
<text text-anchor="middle" x="2173" y="-88.35" font-family="Times,serif" font-size="14.00" fill="blue">9</text>
<text text-anchor="middle" x="2173" y="-73.35" font-family="Times,serif" font-size="14.00" fill="blue">[commend]</text>
</g>
<!-- 7\nWell done!\nGood work!\nOutstanding!\nI knew you could do it, Cadet!\nWe were right to count on you, Cadet!&#45;&gt;9\n[commend] -->
<g id="edge9" class="edge">
<title>7\nWell done!\nGood work!\nOutstanding!\nI knew you could do it, Cadet!\nWe were right to count on you, Cadet!&#45;&gt;9\n[commend]</title>
<path fill="none" stroke="blue" d="M2091.39,-121.52C2102.61,-116.38 2113.58,-111.35 2123.62,-106.74"/>
<polygon fill="blue" stroke="blue" points="2125.32,-109.81 2132.95,-102.46 2122.4,-103.45 2125.32,-109.81"/>
</g>
<!-- 8\nKeep up the good work, Cadet! -->
<g id="node9" class="node">
<title>8\nKeep up the good work, Cadet!</title>
<polygon fill="none" stroke="black" points="2077.5,-103.55 1889.5,-103.55 1889.5,-65.55 2077.5,-65.55 2077.5,-103.55"/>
<text text-anchor="middle" x="1983.5" y="-88.35" font-family="Times,serif" font-size="14.00">8</text>
<text text-anchor="middle" x="1983.5" y="-73.35" font-family="Times,serif" font-size="14.00">Keep up the good work, Cadet!</text>
</g>
<!-- 8\nKeep up the good work, Cadet!&#45;&gt;9\n[commend] -->
<g id="edge10" class="edge">
<title>8\nKeep up the good work, Cadet!&#45;&gt;9\n[commend]</title>
<path fill="none" stroke="blue" d="M2077.7,-84.55C2093.23,-84.55 2108.77,-84.55 2122.64,-84.55"/>
<polygon fill="blue" stroke="blue" points="2122.88,-88.05 2132.88,-84.55 2122.88,-81.05 2122.88,-88.05"/>
</g>
<!-- 11\nMission Complete! -->
<g id="node12" class="node">
<title>11\nMission Complete!</title>
<polygon fill="none" stroke="black" points="2371,-79.55 2249,-79.55 2249,-41.55 2371,-41.55 2371,-79.55"/>
<text text-anchor="middle" x="2310" y="-64.35" font-family="Times,serif" font-size="14.00">11</text>
<text text-anchor="middle" x="2310" y="-49.35" font-family="Times,serif" font-size="14.00">Mission Complete!</text>
</g>
<!-- 9\n[commend]&#45;&gt;11\nMission Complete! -->
<g id="edge11" class="edge">
<title>9\n[commend]&#45;&gt;11\nMission Complete!</title>
<path fill="none" stroke="blue" d="M2213.05,-77.61C2221.19,-76.16 2230.02,-74.59 2238.9,-73.01"/>
<polygon fill="blue" stroke="blue" points="2239.69,-76.43 2248.93,-71.23 2238.47,-69.54 2239.69,-76.43"/>
</g>
<!-- 12 -->
<g id="node13" class="node">
<title>12</title>
<text text-anchor="middle" x="779" y="-83.85" font-family="Times,serif" font-size="14.00">12</text>
</g>
<!-- 10\nYou managed to\nYou were able to&#45;&gt;12 -->
<g id="edge12" class="edge">
<title>10\nYou managed to\nYou were able to&#45;&gt;12</title>
<path fill="none" stroke="black" d="M716.26,-59.88C725.16,-63.87 734.18,-67.91 742.47,-71.63"/>
<polygon fill="black" stroke="black" points="741.27,-74.92 751.83,-75.82 744.13,-68.53 741.27,-74.92"/>
</g>
<!-- 20\ncollect all %(resources)s\nget the %(resources)s we needed -->
<g id="node21" class="node">
<title>20\ncollect all %(resources)s\nget the %(resources)s we needed</title>
<polygon fill="none" stroke="black" points="1589,-84.05 1393,-84.05 1393,-31.05 1589,-31.05 1589,-84.05"/>
<text text-anchor="middle" x="1491" y="-68.85" font-family="Times,serif" font-size="14.00">20</text>
<text text-anchor="middle" x="1491" y="-53.85" font-family="Times,serif" font-size="14.00">collect all %(resources)s</text>
<text text-anchor="middle" x="1491" y="-38.85" font-family="Times,serif" font-size="14.00">get the %(resources)s we needed</text>
</g>
<!-- 10\nYou managed to\nYou were able to&#45;&gt;20\ncollect all %(resources)s\nget the %(resources)s we needed -->
<g id="edge13" class="edge">
<title>10\nYou managed to\nYou were able to&#45;&gt;20\ncollect all %(resources)s\nget the %(resources)s we needed</title>
<path fill="none" stroke="black" d="M716.34,-27.89C768.56,-21.2 849.76,-12.55 920.5,-12.55 920.5,-12.55 920.5,-12.55 1241,-12.55 1288.07,-12.55 1339.36,-20.43 1383.09,-29.6"/>
<polygon fill="black" stroke="black" points="1382.36,-33.03 1392.87,-31.7 1383.83,-26.18 1382.36,-33.03"/>
</g>
<!-- 11\nMission Complete!&#45;&gt;1\n[end] -->
<g id="edge14" class="edge">
<title>11\nMission Complete!&#45;&gt;1\n[end]</title>
<path fill="none" stroke="blue" d="M2371.15,-64.17C2383.03,-64.74 2395.4,-65.25 2407,-65.55 2451.43,-66.71 2462.59,-67.34 2507,-65.55 2515.36,-65.21 2524.34,-64.62 2532.8,-63.96"/>
<polygon fill="blue" stroke="blue" points="2533.11,-67.45 2542.78,-63.14 2532.53,-60.47 2533.11,-67.45"/>
</g>
<!-- 24\n[has_monsters] -->
<g id="node25" class="node">
<title>24\n[has_monsters]</title>
<text text-anchor="middle" x="2457" y="-41.35" font-family="Times,serif" font-size="14.00" fill="blue">24</text>
<text text-anchor="middle" x="2457" y="-26.35" font-family="Times,serif" font-size="14.00" fill="blue">[has_monsters]</text>
</g>
<!-- 11\nMission Complete!&#45;&gt;24\n[has_monsters] -->
<g id="edge15" class="edge">
<title>11\nMission Complete!&#45;&gt;24\n[has_monsters]</title>
<path fill="none" stroke="blue" d="M2371.23,-51C2379.64,-49.66 2388.28,-48.29 2396.67,-46.96"/>
<polygon fill="blue" stroke="blue" points="2397.42,-50.39 2406.75,-45.36 2396.33,-43.47 2397.42,-50.39"/>
</g>
<!-- 13\nfind the lost Rock Raider -->
<g id="node14" class="node">
<title>13\nfind the lost Rock Raider</title>
<polygon fill="none" stroke="black" points="998.5,-134.55 844.5,-134.55 844.5,-96.55 998.5,-96.55 998.5,-134.55"/>
<text text-anchor="middle" x="921.5" y="-119.35" font-family="Times,serif" font-size="14.00">13</text>
<text text-anchor="middle" x="921.5" y="-104.35" font-family="Times,serif" font-size="14.00">find the lost Rock Raider</text>
</g>
<!-- 12&#45;&gt;13\nfind the lost Rock Raider -->
<g id="edge16" class="edge">
<title>12&#45;&gt;13\nfind the lost Rock Raider</title>
<path fill="none" stroke="black" d="M806.1,-92.75C814.46,-94.42 824.22,-96.36 834.45,-98.4"/>
<polygon fill="black" stroke="black" points="833.89,-101.86 844.38,-100.38 835.26,-94.99 833.89,-101.86"/>
</g>
<!-- 15\nfind the lost Rock Raiders -->
<g id="node16" class="node">
<title>15\nfind the lost Rock Raiders</title>
<polygon fill="none" stroke="black" points="1001,-78.55 842,-78.55 842,-40.55 1001,-40.55 1001,-78.55"/>
<text text-anchor="middle" x="921.5" y="-63.35" font-family="Times,serif" font-size="14.00">15</text>
<text text-anchor="middle" x="921.5" y="-48.35" font-family="Times,serif" font-size="14.00">find the lost Rock Raiders</text>
</g>
<!-- 12&#45;&gt;15\nfind the lost Rock Raiders -->
<g id="edge17" class="edge">
<title>12&#45;&gt;15\nfind the lost Rock Raiders</title>
<path fill="none" stroke="black" d="M806.1,-82.35C813.75,-80.82 822.59,-79.06 831.88,-77.21"/>
<polygon fill="black" stroke="black" points="832.58,-80.64 841.71,-75.25 831.22,-73.78 832.58,-80.64"/>
</g>
<!-- 17\nfind the lost Rock Raiders -->
<g id="node18" class="node">
<title>17\nfind the lost Rock Raiders</title>
<polygon fill="none" stroke="black" points="1001,-190.55 842,-190.55 842,-152.55 1001,-152.55 1001,-190.55"/>
<text text-anchor="middle" x="921.5" y="-175.35" font-family="Times,serif" font-size="14.00">17</text>
<text text-anchor="middle" x="921.5" y="-160.35" font-family="Times,serif" font-size="14.00">find the lost Rock Raiders</text>
</g>
<!-- 12&#45;&gt;17\nfind the lost Rock Raiders -->
<g id="edge18" class="edge">
<title>12&#45;&gt;17\nfind the lost Rock Raiders</title>
<path fill="none" stroke="black" d="M796.42,-105.73C808.14,-117.81 824.82,-133.28 842,-143.55 844.65,-145.13 847.4,-146.65 850.22,-148.09"/>
<polygon fill="black" stroke="black" points="848.87,-151.33 859.4,-152.47 851.88,-145.01 848.87,-151.33"/>
</g>
<!-- 14\n[lost_miners_one] -->
<g id="node15" class="node">
<title>14\n[lost_miners_one]</title>
<text text-anchor="middle" x="1107" y="-119.35" font-family="Times,serif" font-size="14.00" fill="blue">14</text>
<text text-anchor="middle" x="1107" y="-104.35" font-family="Times,serif" font-size="14.00" fill="blue">[lost_miners_one]</text>
</g>
<!-- 13\nfind the lost Rock Raider&#45;&gt;14\n[lost_miners_one] -->
<g id="edge19" class="edge">
<title>13\nfind the lost Rock Raider&#45;&gt;14\n[lost_miners_one]</title>
<path fill="none" stroke="blue" d="M998.73,-115.55C1011.94,-115.55 1025.59,-115.55 1038.54,-115.55"/>
<polygon fill="blue" stroke="blue" points="1038.76,-119.05 1048.76,-115.55 1038.76,-112.05 1038.76,-119.05"/>
</g>
<!-- 19 -->
<g id="node20" class="node">
<title>19</title>
<text text-anchor="middle" x="1240" y="-108.85" font-family="Times,serif" font-size="14.00">19</text>
</g>
<!-- 14\n[lost_miners_one]&#45;&gt;19 -->
<g id="edge20" class="edge">
<title>14\n[lost_miners_one]&#45;&gt;19</title>
<path fill="none" stroke="blue" d="M1165.08,-114.24C1177.85,-113.95 1191.06,-113.65 1202.72,-113.38"/>
<polygon fill="blue" stroke="blue" points="1203.01,-116.88 1212.93,-113.15 1202.85,-109.88 1203.01,-116.88"/>
</g>
<!-- 16\n[lost_miners_together] -->
<g id="node17" class="node">
<title>16\n[lost_miners_together]</title>
<text text-anchor="middle" x="1107" y="-63.35" font-family="Times,serif" font-size="14.00" fill="blue">16</text>
<text text-anchor="middle" x="1107" y="-48.35" font-family="Times,serif" font-size="14.00" fill="blue">[lost_miners_together]</text>
</g>
<!-- 15\nfind the lost Rock Raiders&#45;&gt;16\n[lost_miners_together] -->
<g id="edge21" class="edge">
<title>15\nfind the lost Rock Raiders&#45;&gt;16\n[lost_miners_together]</title>
<path fill="none" stroke="blue" d="M1001.12,-59.55C1009.56,-59.55 1018.14,-59.55 1026.59,-59.55"/>
<polygon fill="blue" stroke="blue" points="1026.8,-63.05 1036.8,-59.55 1026.8,-56.05 1026.8,-63.05"/>
</g>
<!-- 16\n[lost_miners_together]&#45;&gt;19 -->
<g id="edge22" class="edge">
<title>16\n[lost_miners_together]&#45;&gt;19</title>
<path fill="none" stroke="blue" d="M1155.29,-78.69C1171.17,-85.11 1188.59,-92.15 1203.41,-98.15"/>
<polygon fill="blue" stroke="blue" points="1202.14,-101.42 1212.73,-101.92 1204.77,-94.93 1202.14,-101.42"/>
</g>
<!-- 18\n[lost_miners_apart] -->
<g id="node19" class="node">
<title>18\n[lost_miners_apart]</title>
<text text-anchor="middle" x="1107" y="-175.35" font-family="Times,serif" font-size="14.00" fill="blue">18</text>
<text text-anchor="middle" x="1107" y="-160.35" font-family="Times,serif" font-size="14.00" fill="blue">[lost_miners_apart]</text>
</g>
<!-- 17\nfind the lost Rock Raiders&#45;&gt;18\n[lost_miners_apart] -->
<g id="edge23" class="edge">
<title>17\nfind the lost Rock Raiders&#45;&gt;18\n[lost_miners_apart]</title>
<path fill="none" stroke="blue" d="M1001.12,-171.55C1012.44,-171.55 1024.03,-171.55 1035.19,-171.55"/>
<polygon fill="blue" stroke="blue" points="1035.29,-175.05 1045.29,-171.55 1035.29,-168.05 1035.29,-175.05"/>
</g>
<!-- 18\n[lost_miners_apart]&#45;&gt;19 -->
<g id="edge24" class="edge">
<title>18\n[lost_miners_apart]&#45;&gt;19</title>
<path fill="none" stroke="blue" d="M1156.46,-152.45C1163.39,-149.55 1170.4,-146.53 1177,-143.55 1185.78,-139.58 1195.13,-135.07 1203.83,-130.73"/>
<polygon fill="blue" stroke="blue" points="1205.61,-133.75 1212.97,-126.13 1202.47,-127.5 1205.61,-133.75"/>
</g>
<!-- 22\nand -->
<g id="node23" class="node">
<title>22\nand</title>
<polygon fill="none" stroke="black" points="1357,-82.55 1303,-82.55 1303,-44.55 1357,-44.55 1357,-82.55"/>
<text text-anchor="middle" x="1330" y="-67.35" font-family="Times,serif" font-size="14.00">22</text>
<text text-anchor="middle" x="1330" y="-52.35" font-family="Times,serif" font-size="14.00">and</text>
</g>
<!-- 19&#45;&gt;22\nand -->
<g id="edge25" class="edge">
<title>19&#45;&gt;22\nand</title>
<path fill="none" stroke="black" d="M1267.4,-97.85C1275.74,-93.21 1285.1,-88 1293.94,-83.07"/>
<polygon fill="black" stroke="black" points="1295.88,-86 1302.92,-78.07 1292.48,-79.88 1295.88,-86"/>
</g>
<!-- 23\n. -->
<g id="node24" class="node">
<title>23\n.</title>
<polygon fill="none" stroke="black" points="1834,-103.55 1780,-103.55 1780,-65.55 1834,-65.55 1834,-103.55"/>
<text text-anchor="middle" x="1807" y="-88.35" font-family="Times,serif" font-size="14.00">23</text>
<text text-anchor="middle" x="1807" y="-73.35" font-family="Times,serif" font-size="14.00">.</text>
</g>
<!-- 19&#45;&gt;23\n. -->
<g id="edge26" class="edge">
<title>19&#45;&gt;23\n.</title>
<path fill="none" stroke="black" d="M1267.2,-111.67C1341.79,-109.11 1561.66,-101.07 1744,-89.55 1752.35,-89.02 1761.33,-88.36 1769.79,-87.68"/>
<polygon fill="black" stroke="black" points="1770.09,-91.17 1779.77,-86.87 1769.52,-84.2 1770.09,-91.17"/>
</g>
<!-- 21\n[collect_resources] -->
<g id="node22" class="node">
<title>21\n[collect_resources]</title>
<text text-anchor="middle" x="1684.5" y="-65.35" font-family="Times,serif" font-size="14.00" fill="blue">21</text>
<text text-anchor="middle" x="1684.5" y="-50.35" font-family="Times,serif" font-size="14.00" fill="blue">[collect_resources]</text>
</g>
<!-- 20\ncollect all %(resources)s\nget the %(resources)s we needed&#45;&gt;21\n[collect_resources] -->
<g id="edge27" class="edge">
<title>20\ncollect all %(resources)s\nget the %(resources)s we needed&#45;&gt;21\n[collect_resources]</title>
<path fill="none" stroke="blue" d="M1589.15,-59.58C1597.84,-59.76 1606.51,-59.94 1614.89,-60.12"/>
<polygon fill="blue" stroke="blue" points="1614.86,-63.62 1624.93,-60.33 1615,-56.62 1614.86,-63.62"/>
</g>
<!-- 21\n[collect_resources]&#45;&gt;23\n. -->
<g id="edge28" class="edge">
<title>21\n[collect_resources]&#45;&gt;23\n.</title>
<path fill="none" stroke="blue" d="M1744.34,-72.78C1752.98,-74.43 1761.66,-76.09 1769.66,-77.62"/>
<polygon fill="blue" stroke="blue" points="1769.26,-81.1 1779.74,-79.54 1770.58,-74.23 1769.26,-81.1"/>
</g>
<!-- 22\nand&#45;&gt;20\ncollect all %(resources)s\nget the %(resources)s we needed -->
<g id="edge29" class="edge">
<title>22\nand&#45;&gt;20\ncollect all %(resources)s\nget the %(resources)s we needed</title>
<path fill="none" stroke="black" d="M1357.26,-62.56C1364.77,-62.28 1373.46,-61.95 1382.72,-61.6"/>
<polygon fill="black" stroke="black" points="1383.11,-65.09 1392.97,-61.21 1382.85,-58.09 1383.11,-65.09"/>
</g>
<!-- 23\n.&#45;&gt;7\nWell done!\nGood work!\nOutstanding!\nI knew you could do it, Cadet!\nWe were right to count on you, Cadet! -->
<g id="edge30" class="edge">
<title>23\n.&#45;&gt;7\nWell done!\nGood work!\nOutstanding!\nI knew you could do it, Cadet!\nWe were right to count on you, Cadet!</title>
<path fill="none" stroke="black" d="M1834.12,-97.43C1845.23,-102.9 1858.98,-109.68 1873.6,-116.88"/>
<polygon fill="black" stroke="black" points="1872.28,-120.14 1882.8,-121.42 1875.38,-113.86 1872.28,-120.14"/>
</g>
<!-- 23\n.&#45;&gt;8\nKeep up the good work, Cadet! -->
<g id="edge31" class="edge">
<title>23\n.&#45;&gt;8\nKeep up the good work, Cadet!</title>
<path fill="none" stroke="black" d="M1834.12,-84.55C1846.56,-84.55 1862.34,-84.55 1878.93,-84.55"/>
<polygon fill="black" stroke="black" points="1879.34,-88.05 1889.34,-84.55 1879.34,-81.05 1879.34,-88.05"/>
</g>
<!-- 23\n.&#45;&gt;11\nMission Complete! -->
<g id="edge32" class="edge">
<title>23\n.&#45;&gt;11\nMission Complete!</title>
<path fill="none" stroke="black" d="M1834.01,-69.84C1844.79,-64.54 1857.65,-59.21 1870,-56.55 2019.03,-24.46 2060.59,-53.38 2213,-56.55 2221.33,-56.72 2230.07,-56.98 2238.73,-57.29"/>
<polygon fill="black" stroke="black" points="2238.72,-60.79 2248.84,-57.66 2238.98,-53.79 2238.72,-60.79"/>
</g>
<!-- 24\n[has_monsters]&#45;&gt;1\n[end] -->
<g id="edge33" class="edge">
<title>24\n[has_monsters]&#45;&gt;1\n[end]</title>
<path fill="none" stroke="blue" d="M2507.01,-47.71C2515.67,-49.5 2524.54,-51.34 2532.76,-53.04"/>
<polygon fill="blue" stroke="blue" points="2532.27,-56.52 2542.77,-55.12 2533.69,-49.66 2532.27,-56.52"/>
</g>
</g>
</svg>
