<?xml version="1.0" encoding="UTF-8" standalone="no"?>
<!DOCTYPE svg PUBLIC "-//W3C//DTD SVG 1.1//EN"
 "http://www.w3.org/Graphics/SVG/1.1/DTD/svg11.dtd">
<!-- Generated by graphviz version 2.43.0 (0)
 -->
<!-- Title: G Pages: 1 -->
<svg width="3886pt" height="444pt"
 viewBox="0.00 0.00 3886.00 444.00" xmlns="http://www.w3.org/2000/svg" xmlns:xlink="http://www.w3.org/1999/xlink">
<g id="graph0" class="graph" transform="scale(1 1) rotate(0) translate(4 440)">
<title>G</title>
<polygon fill="white" stroke="transparent" points="-4,4 -4,-440 3882,-440 3882,4 -4,4"/>
<!-- 0\n[start] -->
<g id="node1" class="node">
<title>0\n[start]</title>
<text text-anchor="middle" x="27" y="-219.8" font-family="Times,serif" font-size="14.00" fill="green">0</text>
<text text-anchor="middle" x="27" y="-204.8" font-family="Times,serif" font-size="14.00" fill="green">[start]</text>
</g>
<!-- 2\nWow!\nWell done!\nGood work!\nOutstanding!\nI knew you could do it, Cadet!\nWe were right to count on you, Cadet! -->
<g id="node3" class="node">
<title>2\nWow!\nWell done!\nGood work!\nOutstanding!\nI knew you could do it, Cadet!\nWe were right to count on you, Cadet!</title>
<polygon fill="none" stroke="black" points="330.5,-272.5 103.5,-272.5 103.5,-159.5 330.5,-159.5 330.5,-272.5"/>
<text text-anchor="middle" x="217" y="-257.3" font-family="Times,serif" font-size="14.00">2</text>
<text text-anchor="middle" x="217" y="-242.3" font-family="Times,serif" font-size="14.00">Wow!</text>
<text text-anchor="middle" x="217" y="-227.3" font-family="Times,serif" font-size="14.00">Well done!</text>
<text text-anchor="middle" x="217" y="-212.3" font-family="Times,serif" font-size="14.00">Good work!</text>
<text text-anchor="middle" x="217" y="-197.3" font-family="Times,serif" font-size="14.00">Outstanding!</text>
<text text-anchor="middle" x="217" y="-182.3" font-family="Times,serif" font-size="14.00">I knew you could do it, Cadet!</text>
<text text-anchor="middle" x="217" y="-167.3" font-family="Times,serif" font-size="14.00">We were right to count on you, Cadet!</text>
</g>
<!-- 0\n[start]&#45;&gt;2\nWow!\nWell done!\nGood work!\nOutstanding!\nI knew you could do it, Cadet!\nWe were right to count on you, Cadet! -->
<g id="edge1" class="edge">
<title>0\n[start]&#45;&gt;2\nWow!\nWell done!\nGood work!\nOutstanding!\nI knew you could do it, Cadet!\nWe were right to count on you, Cadet!</title>
<path fill="none" stroke="green" d="M54.14,-216C65.04,-216 78.55,-216 93.09,-216"/>
<polygon fill="green" stroke="green" points="93.29,-219.5 103.29,-216 93.29,-212.5 93.29,-219.5"/>
</g>
<!-- 4\nThose %(monster_type)s monsters were no\nmatch for you! -->
<g id="node5" class="node">
<title>4\nThose %(monster_type)s monsters were no\nmatch for you!</title>
<polygon fill="none" stroke="black" points="344,-141.5 90,-141.5 90,-88.5 344,-88.5 344,-141.5"/>
<text text-anchor="middle" x="217" y="-126.3" font-family="Times,serif" font-size="14.00">4</text>
<text text-anchor="middle" x="217" y="-111.3" font-family="Times,serif" font-size="14.00">Those %(monster_type)s monsters were no</text>
<text text-anchor="middle" x="217" y="-96.3" font-family="Times,serif" font-size="14.00">match for you!</text>
</g>
<!-- 0\n[start]&#45;&gt;4\nThose %(monster_type)s monsters were no\nmatch for you! -->
<g id="edge2" class="edge">
<title>0\n[start]&#45;&gt;4\nThose %(monster_type)s monsters were no\nmatch for you!</title>
<path fill="none" stroke="green" d="M41.39,-196.8C52.72,-181.94 70.22,-161.96 90,-150 92.21,-148.66 94.47,-147.38 96.78,-146.14"/>
<polygon fill="green" stroke="green" points="98.49,-149.2 105.87,-141.59 95.36,-142.94 98.49,-149.2"/>
</g>
<!-- 6 -->
<g id="node7" class="node">
<title>6</title>
<text text-anchor="middle" x="543" y="-212.3" font-family="Times,serif" font-size="14.00">6</text>
</g>
<!-- 0\n[start]&#45;&gt;6 -->
<g id="edge3" class="edge">
<title>0\n[start]&#45;&gt;6</title>
<path fill="none" stroke="green" d="M39.52,-235.13C50.32,-251.02 68.07,-272.51 90,-282 193.61,-326.82 232.16,-297.33 344,-282 406.18,-273.48 421.01,-265.42 480,-244 488.71,-240.84 497.91,-236.98 506.47,-233.16"/>
<polygon fill="green" stroke="green" points="508.17,-236.23 515.82,-228.89 505.26,-229.86 508.17,-236.23"/>
</g>
<!-- 1\n[end] -->
<g id="node2" class="node">
<title>1\n[end]</title>
<text text-anchor="middle" x="3851" y="-289.8" font-family="Times,serif" font-size="14.00" fill="green">1</text>
<text text-anchor="middle" x="3851" y="-274.8" font-family="Times,serif" font-size="14.00" fill="green">[end]</text>
</g>
<!-- 3\n[commend] -->
<g id="node4" class="node">
<title>3\n[commend]</title>
<text text-anchor="middle" x="430" y="-219.8" font-family="Times,serif" font-size="14.00" fill="blue">3</text>
<text text-anchor="middle" x="430" y="-204.8" font-family="Times,serif" font-size="14.00" fill="blue">[commend]</text>
</g>
<!-- 2\nWow!\nWell done!\nGood work!\nOutstanding!\nI knew you could do it, Cadet!\nWe were right to count on you, Cadet!&#45;&gt;3\n[commend] -->
<g id="edge4" class="edge">
<title>2\nWow!\nWell done!\nGood work!\nOutstanding!\nI knew you could do it, Cadet!\nWe were right to count on you, Cadet!&#45;&gt;3\n[commend]</title>
<path fill="none" stroke="blue" d="M330.6,-216C347.67,-216 364.49,-216 379.26,-216"/>
<polygon fill="blue" stroke="blue" points="379.63,-219.5 389.63,-216 379.63,-212.5 379.63,-219.5"/>
</g>
<!-- 3\n[commend]&#45;&gt;6 -->
<g id="edge5" class="edge">
<title>3\n[commend]&#45;&gt;6</title>
<path fill="none" stroke="blue" d="M470.13,-216C481.7,-216 494.31,-216 505.68,-216"/>
<polygon fill="blue" stroke="blue" points="505.72,-219.5 515.72,-216 505.72,-212.5 505.72,-219.5"/>
</g>
<!-- 5\n[has_monsters] -->
<g id="node6" class="node">
<title>5\n[has_monsters]</title>
<text text-anchor="middle" x="430" y="-141.8" font-family="Times,serif" font-size="14.00" fill="blue">5</text>
<text text-anchor="middle" x="430" y="-126.8" font-family="Times,serif" font-size="14.00" fill="blue">[has_monsters]</text>
</g>
<!-- 4\nThose %(monster_type)s monsters were no\nmatch for you!&#45;&gt;5\n[has_monsters] -->
<g id="edge6" class="edge">
<title>4\nThose %(monster_type)s monsters were no\nmatch for you!&#45;&gt;5\n[has_monsters]</title>
<path fill="none" stroke="blue" d="M344.09,-128.74C352.88,-129.7 361.47,-130.64 369.6,-131.53"/>
<polygon fill="blue" stroke="blue" points="369.32,-135.02 379.64,-132.62 370.08,-128.06 369.32,-135.02"/>
</g>
<!-- 5\n[has_monsters]&#45;&gt;6 -->
<g id="edge7" class="edge">
<title>5\n[has_monsters]&#45;&gt;6</title>
<path fill="none" stroke="blue" d="M458.15,-157.08C473.1,-167.58 491.8,-180.72 507.74,-191.92"/>
<polygon fill="blue" stroke="blue" points="506.08,-195.03 516.27,-197.92 510.1,-189.31 506.08,-195.03"/>
</g>
<!-- 9\nYou managed to\nYou were able to -->
<g id="node10" class="node">
<title>9\nYou managed to\nYou were able to</title>
<polygon fill="none" stroke="black" points="716,-284.5 606,-284.5 606,-231.5 716,-231.5 716,-284.5"/>
<text text-anchor="middle" x="661" y="-269.3" font-family="Times,serif" font-size="14.00">9</text>
<text text-anchor="middle" x="661" y="-254.3" font-family="Times,serif" font-size="14.00">You managed to</text>
<text text-anchor="middle" x="661" y="-239.3" font-family="Times,serif" font-size="14.00">You were able to</text>
</g>
<!-- 6&#45;&gt;9\nYou managed to\nYou were able to -->
<g id="edge8" class="edge">
<title>6&#45;&gt;9\nYou managed to\nYou were able to</title>
<path fill="none" stroke="black" d="M570.03,-225.43C577.87,-228.26 586.83,-231.51 596,-234.83"/>
<polygon fill="black" stroke="black" points="594.99,-238.18 605.58,-238.3 597.37,-231.6 594.99,-238.18"/>
</g>
<!-- 31\nyou -->
<g id="node32" class="node">
<title>31\nyou</title>
<polygon fill="none" stroke="black" points="688,-203 634,-203 634,-165 688,-165 688,-203"/>
<text text-anchor="middle" x="661" y="-187.8" font-family="Times,serif" font-size="14.00">31</text>
<text text-anchor="middle" x="661" y="-172.8" font-family="Times,serif" font-size="14.00">you</text>
</g>
<!-- 6&#45;&gt;31\nyou -->
<g id="edge9" class="edge">
<title>6&#45;&gt;31\nyou</title>
<path fill="none" stroke="black" d="M570.03,-208.82C585.89,-204.44 606.39,-198.79 623.81,-193.98"/>
<polygon fill="black" stroke="black" points="624.94,-197.3 633.65,-191.27 623.08,-190.55 624.94,-197.3"/>
</g>
<!-- 7\nKeep up the good work, Cadet!\nWell done!\nGood work!\nOutstanding!\nI knew you could do it, Cadet!\nWe were right to count on you, Cadet! -->
<g id="node8" class="node">
<title>7\nKeep up the good work, Cadet!\nWell done!\nGood work!\nOutstanding!\nI knew you could do it, Cadet!\nWe were right to count on you, Cadet!</title>
<polygon fill="none" stroke="black" points="3378,-404.5 3151,-404.5 3151,-291.5 3378,-291.5 3378,-404.5"/>
<text text-anchor="middle" x="3264.5" y="-389.3" font-family="Times,serif" font-size="14.00">7</text>
<text text-anchor="middle" x="3264.5" y="-374.3" font-family="Times,serif" font-size="14.00">Keep up the good work, Cadet!</text>
<text text-anchor="middle" x="3264.5" y="-359.3" font-family="Times,serif" font-size="14.00">Well done!</text>
<text text-anchor="middle" x="3264.5" y="-344.3" font-family="Times,serif" font-size="14.00">Good work!</text>
<text text-anchor="middle" x="3264.5" y="-329.3" font-family="Times,serif" font-size="14.00">Outstanding!</text>
<text text-anchor="middle" x="3264.5" y="-314.3" font-family="Times,serif" font-size="14.00">I knew you could do it, Cadet!</text>
<text text-anchor="middle" x="3264.5" y="-299.3" font-family="Times,serif" font-size="14.00">We were right to count on you, Cadet!</text>
</g>
<!-- 8\n[commend] -->
<g id="node9" class="node">
<title>8\n[commend]</title>
<text text-anchor="middle" x="3454" y="-332.8" font-family="Times,serif" font-size="14.00" fill="blue">8</text>
<text text-anchor="middle" x="3454" y="-317.8" font-family="Times,serif" font-size="14.00" fill="blue">[commend]</text>
</g>
<!-- 7\nKeep up the good work, Cadet!\nWell done!\nGood work!\nOutstanding!\nI knew you could do it, Cadet!\nWe were right to count on you, Cadet!&#45;&gt;8\n[commend] -->
<g id="edge10" class="edge">
<title>7\nKeep up the good work, Cadet!\nWell done!\nGood work!\nOutstanding!\nI knew you could do it, Cadet!\nWe were right to count on you, Cadet!&#45;&gt;8\n[commend]</title>
<path fill="none" stroke="blue" d="M3378.09,-336.59C3387.06,-335.68 3395.78,-334.8 3403.93,-333.97"/>
<polygon fill="blue" stroke="blue" points="3404.3,-337.45 3413.9,-332.96 3403.6,-330.49 3404.3,-337.45"/>
</g>
<!-- 10\nMission Complete! -->
<g id="node11" class="node">
<title>10\nMission Complete!</title>
<polygon fill="none" stroke="black" points="3652,-305 3530,-305 3530,-267 3652,-267 3652,-305"/>
<text text-anchor="middle" x="3591" y="-289.8" font-family="Times,serif" font-size="14.00">10</text>
<text text-anchor="middle" x="3591" y="-274.8" font-family="Times,serif" font-size="14.00">Mission Complete!</text>
</g>
<!-- 8\n[commend]&#45;&gt;10\nMission Complete! -->
<g id="edge11" class="edge">
<title>8\n[commend]&#45;&gt;10\nMission Complete!</title>
<path fill="none" stroke="blue" d="M3494.05,-316.56C3502.34,-313.92 3511.33,-311.06 3520.38,-308.18"/>
<polygon fill="blue" stroke="blue" points="3521.71,-311.42 3530.18,-305.05 3519.59,-304.75 3521.71,-311.42"/>
</g>
<!-- 35 -->
<g id="node36" class="node">
<title>35</title>
<text text-anchor="middle" x="844.5" y="-329.3" font-family="Times,serif" font-size="14.00">35</text>
</g>
<!-- 9\nYou managed to\nYou were able to&#45;&gt;35 -->
<g id="edge12" class="edge">
<title>9\nYou managed to\nYou were able to&#45;&gt;35</title>
<path fill="none" stroke="black" d="M716.46,-280.5C746.08,-292.75 781.89,-307.54 807.93,-318.3"/>
<polygon fill="black" stroke="black" points="806.82,-321.63 817.4,-322.21 809.49,-315.16 806.82,-321.63"/>
</g>
<!-- 42\ncollect all %(resources)s\nget the %(resources)s we needed -->
<g id="node43" class="node">
<title>42\ncollect all %(resources)s\nget the %(resources)s we needed</title>
<polygon fill="none" stroke="black" points="1842,-330.5 1646,-330.5 1646,-277.5 1842,-277.5 1842,-330.5"/>
<text text-anchor="middle" x="1744" y="-315.3" font-family="Times,serif" font-size="14.00">42</text>
<text text-anchor="middle" x="1744" y="-300.3" font-family="Times,serif" font-size="14.00">collect all %(resources)s</text>
<text text-anchor="middle" x="1744" y="-285.3" font-family="Times,serif" font-size="14.00">get the %(resources)s we needed</text>
</g>
<!-- 9\nYou managed to\nYou were able to&#45;&gt;42\ncollect all %(resources)s\nget the %(resources)s we needed -->
<g id="edge13" class="edge">
<title>9\nYou managed to\nYou were able to&#45;&gt;42\ncollect all %(resources)s\nget the %(resources)s we needed</title>
<path fill="none" stroke="black" d="M716.19,-258C791.43,-258 931.81,-258 1051.5,-258 1051.5,-258 1051.5,-258 1372,-258 1461.26,-258 1561.69,-271.28 1635.53,-283.56"/>
<polygon fill="black" stroke="black" points="1635.32,-287.08 1645.77,-285.29 1636.49,-280.18 1635.32,-287.08"/>
</g>
<!-- 33 -->
<g id="node34" class="node">
<title>33</title>
<text text-anchor="middle" x="3738" y="-310.3" font-family="Times,serif" font-size="14.00">33</text>
</g>
<!-- 10\nMission Complete!&#45;&gt;33 -->
<g id="edge14" class="edge">
<title>10\nMission Complete!&#45;&gt;33</title>
<path fill="none" stroke="black" d="M3652.23,-297.63C3668.64,-300.8 3685.91,-304.13 3700.54,-306.96"/>
<polygon fill="black" stroke="black" points="3700.21,-310.46 3710.69,-308.92 3701.53,-303.59 3700.21,-310.46"/>
</g>
<!-- 34\n[has_monsters] -->
<g id="node35" class="node">
<title>34\n[has_monsters]</title>
<text text-anchor="middle" x="3738" y="-262.8" font-family="Times,serif" font-size="14.00" fill="blue">34</text>
<text text-anchor="middle" x="3738" y="-247.8" font-family="Times,serif" font-size="14.00" fill="blue">[has_monsters]</text>
</g>
<!-- 10\nMission Complete!&#45;&gt;34\n[has_monsters] -->
<g id="edge15" class="edge">
<title>10\nMission Complete!&#45;&gt;34\n[has_monsters]</title>
<path fill="none" stroke="blue" d="M3652.23,-274.78C3660.64,-273.22 3669.28,-271.61 3677.67,-270.05"/>
<polygon fill="blue" stroke="blue" points="3678.56,-273.44 3687.75,-268.17 3677.28,-266.56 3678.56,-273.44"/>
</g>
<!-- 11\nrepaired the Rock Raider HQ\nrestored our mining operations -->
<g id="node12" class="node">
<title>11\nrepaired the Rock Raider HQ\nrestored our mining operations</title>
<polygon fill="none" stroke="black" points="937,-135.5 752,-135.5 752,-82.5 937,-82.5 937,-135.5"/>
<text text-anchor="middle" x="844.5" y="-120.3" font-family="Times,serif" font-size="14.00">11</text>
<text text-anchor="middle" x="844.5" y="-105.3" font-family="Times,serif" font-size="14.00">repaired the Rock Raider HQ</text>
<text text-anchor="middle" x="844.5" y="-90.3" font-family="Times,serif" font-size="14.00">restored our mining operations</text>
</g>
<!-- 12\n[spawn_is_ruin] -->
<g id="node13" class="node">
<title>12\n[spawn_is_ruin]</title>
<text text-anchor="middle" x="1052.5" y="-116.8" font-family="Times,serif" font-size="14.00" fill="blue">12</text>
<text text-anchor="middle" x="1052.5" y="-101.8" font-family="Times,serif" font-size="14.00" fill="blue">[spawn_is_ruin]</text>
</g>
<!-- 11\nrepaired the Rock Raider HQ\nrestored our mining operations&#45;&gt;12\n[spawn_is_ruin] -->
<g id="edge16" class="edge">
<title>11\nrepaired the Rock Raider HQ\nrestored our mining operations&#45;&gt;12\n[spawn_is_ruin]</title>
<path fill="none" stroke="blue" d="M937.05,-110.78C955.03,-111.13 973.48,-111.48 990.17,-111.81"/>
<polygon fill="blue" stroke="blue" points="990.25,-115.31 1000.31,-112.01 990.38,-108.31 990.25,-115.31"/>
</g>
<!-- 46 -->
<g id="node47" class="node">
<title>46</title>
<text text-anchor="middle" x="1238" y="-167.3" font-family="Times,serif" font-size="14.00">46</text>
</g>
<!-- 12\n[spawn_is_ruin]&#45;&gt;46 -->
<g id="edge18" class="edge">
<title>12\n[spawn_is_ruin]&#45;&gt;46</title>
<path fill="none" stroke="blue" d="M1104.61,-129.16C1135.41,-138.89 1173.85,-151.04 1201.36,-159.74"/>
<polygon fill="blue" stroke="blue" points="1200.38,-163.1 1210.97,-162.77 1202.49,-156.42 1200.38,-163.1"/>
</g>
<!-- 47\n, -->
<g id="node48" class="node">
<title>47\n,</title>
<polygon fill="none" stroke="black" points="1265,-132 1211,-132 1211,-94 1265,-94 1265,-132"/>
<text text-anchor="middle" x="1238" y="-116.8" font-family="Times,serif" font-size="14.00">47</text>
<text text-anchor="middle" x="1238" y="-101.8" font-family="Times,serif" font-size="14.00">,</text>
</g>
<!-- 12\n[spawn_is_ruin]&#45;&gt;47\n, -->
<g id="edge17" class="edge">
<title>12\n[spawn_is_ruin]&#45;&gt;47\n,</title>
<path fill="none" stroke="blue" d="M1104.61,-113C1135.14,-113 1173.17,-113 1200.63,-113"/>
<polygon fill="blue" stroke="blue" points="1200.97,-116.5 1210.97,-113 1200.97,-109.5 1200.97,-116.5"/>
</g>
<!-- 13\nfound the base -->
<g id="node14" class="node">
<title>13\nfound the base</title>
<polygon fill="none" stroke="black" points="892.5,-192 796.5,-192 796.5,-154 892.5,-154 892.5,-192"/>
<text text-anchor="middle" x="844.5" y="-176.8" font-family="Times,serif" font-size="14.00">13</text>
<text text-anchor="middle" x="844.5" y="-161.8" font-family="Times,serif" font-size="14.00">found the base</text>
</g>
<!-- 14\n[find_hq] -->
<g id="node15" class="node">
<title>14\n[find_hq]</title>
<text text-anchor="middle" x="1052.5" y="-174.8" font-family="Times,serif" font-size="14.00" fill="blue">14</text>
<text text-anchor="middle" x="1052.5" y="-159.8" font-family="Times,serif" font-size="14.00" fill="blue">[find_hq]</text>
</g>
<!-- 13\nfound the base&#45;&gt;14\n[find_hq] -->
<g id="edge19" class="edge">
<title>13\nfound the base&#45;&gt;14\n[find_hq]</title>
<path fill="none" stroke="blue" d="M892.5,-172.54C927.37,-172.21 974.54,-171.75 1008.43,-171.42"/>
<polygon fill="blue" stroke="blue" points="1008.53,-174.92 1018.49,-171.32 1008.46,-167.92 1008.53,-174.92"/>
</g>
<!-- 14\n[find_hq]&#45;&gt;46 -->
<g id="edge21" class="edge">
<title>14\n[find_hq]&#45;&gt;46</title>
<path fill="none" stroke="blue" d="M1086.73,-171C1118.88,-171 1167.49,-171 1200.66,-171"/>
<polygon fill="blue" stroke="blue" points="1200.84,-174.5 1210.84,-171 1200.84,-167.5 1200.84,-174.5"/>
</g>
<!-- 14\n[find_hq]&#45;&gt;47\n, -->
<g id="edge20" class="edge">
<title>14\n[find_hq]&#45;&gt;47\n,</title>
<path fill="none" stroke="blue" d="M1086.73,-160.5C1119.02,-150.29 1167.91,-134.84 1201.09,-124.35"/>
<polygon fill="blue" stroke="blue" points="1202.36,-127.62 1210.84,-121.27 1200.25,-120.94 1202.36,-127.62"/>
</g>
<!-- 15 -->
<g id="node16" class="node">
<title>15</title>
<text text-anchor="middle" x="2205" y="-216.3" font-family="Times,serif" font-size="14.00">15</text>
</g>
<!-- 16\nfound the lost Rock Raider\nlocated the lost Rock Raider -->
<g id="node17" class="node">
<title>16\nfound the lost Rock Raider\nlocated the lost Rock Raider</title>
<polygon fill="none" stroke="black" points="2496.5,-231.5 2325.5,-231.5 2325.5,-178.5 2496.5,-178.5 2496.5,-231.5"/>
<text text-anchor="middle" x="2411" y="-216.3" font-family="Times,serif" font-size="14.00">16</text>
<text text-anchor="middle" x="2411" y="-201.3" font-family="Times,serif" font-size="14.00">found the lost Rock Raider</text>
<text text-anchor="middle" x="2411" y="-186.3" font-family="Times,serif" font-size="14.00">located the lost Rock Raider</text>
</g>
<!-- 15&#45;&gt;16\nfound the lost Rock Raider\nlocated the lost Rock Raider -->
<g id="edge22" class="edge">
<title>15&#45;&gt;16\nfound the lost Rock Raider\nlocated the lost Rock Raider</title>
<path fill="none" stroke="black" d="M2232.25,-218.07C2253.43,-216.51 2284.58,-214.22 2314.91,-211.99"/>
<polygon fill="black" stroke="black" points="2315.43,-215.46 2325.15,-211.24 2314.92,-208.48 2315.43,-215.46"/>
</g>
<!-- 18\nfound the lost Rock Raiders\nlocated the lost Rock Raiders -->
<g id="node19" class="node">
<title>18\nfound the lost Rock Raiders\nlocated the lost Rock Raiders</title>
<polygon fill="none" stroke="black" points="2499,-302.5 2323,-302.5 2323,-249.5 2499,-249.5 2499,-302.5"/>
<text text-anchor="middle" x="2411" y="-287.3" font-family="Times,serif" font-size="14.00">18</text>
<text text-anchor="middle" x="2411" y="-272.3" font-family="Times,serif" font-size="14.00">found the lost Rock Raiders</text>
<text text-anchor="middle" x="2411" y="-257.3" font-family="Times,serif" font-size="14.00">located the lost Rock Raiders</text>
</g>
<!-- 15&#45;&gt;18\nfound the lost Rock Raiders\nlocated the lost Rock Raiders -->
<g id="edge23" class="edge">
<title>15&#45;&gt;18\nfound the lost Rock Raiders\nlocated the lost Rock Raiders</title>
<path fill="none" stroke="black" d="M2232.25,-227.21C2252.94,-232.89 2283.16,-241.18 2312.83,-249.33"/>
<polygon fill="black" stroke="black" points="2312.28,-252.81 2322.85,-252.08 2314.14,-246.06 2312.28,-252.81"/>
</g>
<!-- 17\n[lost_miners_one] -->
<g id="node18" class="node">
<title>17\n[lost_miners_one]</title>
<text text-anchor="middle" x="2605" y="-201.8" font-family="Times,serif" font-size="14.00" fill="blue">17</text>
<text text-anchor="middle" x="2605" y="-186.8" font-family="Times,serif" font-size="14.00" fill="blue">[lost_miners_one]</text>
</g>
<!-- 16\nfound the lost Rock Raider\nlocated the lost Rock Raider&#45;&gt;17\n[lost_miners_one] -->
<g id="edge24" class="edge">
<title>16\nfound the lost Rock Raider\nlocated the lost Rock Raider&#45;&gt;17\n[lost_miners_one]</title>
<path fill="none" stroke="blue" d="M2496.77,-201.91C2510.17,-201.42 2523.86,-200.92 2536.79,-200.45"/>
<polygon fill="blue" stroke="blue" points="2537.1,-203.94 2546.97,-200.08 2536.85,-196.95 2537.1,-203.94"/>
</g>
<!-- 21\n, safe and sound\nbefore anything could happen to them -->
<g id="node22" class="node">
<title>21\n, safe and sound\nbefore anything could happen to them</title>
<polygon fill="none" stroke="black" points="2935,-280.5 2711,-280.5 2711,-227.5 2935,-227.5 2935,-280.5"/>
<text text-anchor="middle" x="2823" y="-265.3" font-family="Times,serif" font-size="14.00">21</text>
<text text-anchor="middle" x="2823" y="-250.3" font-family="Times,serif" font-size="14.00">, safe and sound</text>
<text text-anchor="middle" x="2823" y="-235.3" font-family="Times,serif" font-size="14.00">before anything could happen to them</text>
</g>
<!-- 17\n[lost_miners_one]&#45;&gt;21\n, safe and sound\nbefore anything could happen to them -->
<g id="edge25" class="edge">
<title>17\n[lost_miners_one]&#45;&gt;21\n, safe and sound\nbefore anything could happen to them</title>
<path fill="none" stroke="blue" d="M2663.03,-212.79C2677.42,-216.52 2693.37,-220.65 2709.46,-224.82"/>
<polygon fill="blue" stroke="blue" points="2708.93,-228.3 2719.48,-227.42 2710.68,-221.52 2708.93,-228.3"/>
</g>
<!-- 19\n[lost_miners_together] -->
<g id="node20" class="node">
<title>19\n[lost_miners_together]</title>
<text text-anchor="middle" x="2605" y="-257.8" font-family="Times,serif" font-size="14.00" fill="blue">19</text>
<text text-anchor="middle" x="2605" y="-242.8" font-family="Times,serif" font-size="14.00" fill="blue">[lost_miners_together]</text>
</g>
<!-- 18\nfound the lost Rock Raiders\nlocated the lost Rock Raiders&#45;&gt;19\n[lost_miners_together] -->
<g id="edge26" class="edge">
<title>18\nfound the lost Rock Raiders\nlocated the lost Rock Raiders&#45;&gt;19\n[lost_miners_together]</title>
<path fill="none" stroke="blue" d="M2499.01,-266.03C2507.55,-265.05 2516.18,-264.06 2524.63,-263.09"/>
<polygon fill="blue" stroke="blue" points="2525.3,-266.54 2534.84,-261.93 2524.5,-259.59 2525.3,-266.54"/>
</g>
<!-- 20\n[lost_miners_apart] -->
<g id="node21" class="node">
<title>20\n[lost_miners_apart]</title>
<text text-anchor="middle" x="2605" y="-313.8" font-family="Times,serif" font-size="14.00" fill="blue">20</text>
<text text-anchor="middle" x="2605" y="-298.8" font-family="Times,serif" font-size="14.00" fill="blue">[lost_miners_apart]</text>
</g>
<!-- 18\nfound the lost Rock Raiders\nlocated the lost Rock Raiders&#45;&gt;20\n[lost_miners_apart] -->
<g id="edge27" class="edge">
<title>18\nfound the lost Rock Raiders\nlocated the lost Rock Raiders&#45;&gt;20\n[lost_miners_apart]</title>
<path fill="none" stroke="blue" d="M2499.01,-291.41C2510.48,-293.44 2522.13,-295.5 2533.28,-297.48"/>
<polygon fill="blue" stroke="blue" points="2532.91,-300.97 2543.37,-299.26 2534.13,-294.07 2532.91,-300.97"/>
</g>
<!-- 19\n[lost_miners_together]&#45;&gt;21\n, safe and sound\nbefore anything could happen to them -->
<g id="edge28" class="edge">
<title>19\n[lost_miners_together]&#45;&gt;21\n, safe and sound\nbefore anything could happen to them</title>
<path fill="none" stroke="blue" d="M2675.24,-254C2683.39,-254 2691.89,-254 2700.51,-254"/>
<polygon fill="blue" stroke="blue" points="2700.67,-257.5 2710.67,-254 2700.67,-250.5 2700.67,-257.5"/>
</g>
<!-- 20\n[lost_miners_apart]&#45;&gt;21\n, safe and sound\nbefore anything could happen to them -->
<g id="edge29" class="edge">
<title>20\n[lost_miners_apart]&#45;&gt;21\n, safe and sound\nbefore anything could happen to them</title>
<path fill="none" stroke="blue" d="M2666.74,-294.25C2680.25,-290.75 2694.99,-286.93 2709.84,-283.08"/>
<polygon fill="blue" stroke="blue" points="2710.8,-286.45 2719.6,-280.55 2709.04,-279.67 2710.8,-286.45"/>
</g>
<!-- 49\n. -->
<g id="node50" class="node">
<title>49\n.</title>
<polygon fill="none" stroke="black" points="3025,-273 2971,-273 2971,-235 3025,-235 3025,-273"/>
<text text-anchor="middle" x="2998" y="-257.8" font-family="Times,serif" font-size="14.00">49</text>
<text text-anchor="middle" x="2998" y="-242.8" font-family="Times,serif" font-size="14.00">.</text>
</g>
<!-- 21\n, safe and sound\nbefore anything could happen to them&#45;&gt;49\n. -->
<g id="edge30" class="edge">
<title>21\n, safe and sound\nbefore anything could happen to them&#45;&gt;49\n.</title>
<path fill="none" stroke="black" d="M2935.03,-254C2944.17,-254 2952.91,-254 2960.8,-254"/>
<polygon fill="black" stroke="black" points="2960.98,-257.5 2970.98,-254 2960.98,-250.5 2960.98,-257.5"/>
</g>
<!-- 22 -->
<g id="node23" class="node">
<title>22</title>
<text text-anchor="middle" x="1371" y="-102.3" font-family="Times,serif" font-size="14.00">22</text>
</g>
<!-- 23\nfound the lost Rock Raider\nlocated the lost Rock Raider -->
<g id="node24" class="node">
<title>23\nfound the lost Rock Raider\nlocated the lost Rock Raider</title>
<polygon fill="none" stroke="black" points="1607.5,-54.5 1436.5,-54.5 1436.5,-1.5 1607.5,-1.5 1607.5,-54.5"/>
<text text-anchor="middle" x="1522" y="-39.3" font-family="Times,serif" font-size="14.00">23</text>
<text text-anchor="middle" x="1522" y="-24.3" font-family="Times,serif" font-size="14.00">found the lost Rock Raider</text>
<text text-anchor="middle" x="1522" y="-9.3" font-family="Times,serif" font-size="14.00">located the lost Rock Raider</text>
</g>
<!-- 22&#45;&gt;23\nfound the lost Rock Raider\nlocated the lost Rock Raider -->
<g id="edge31" class="edge">
<title>22&#45;&gt;23\nfound the lost Rock Raider\nlocated the lost Rock Raider</title>
<path fill="none" stroke="black" d="M1398.3,-90.13C1409.24,-83.69 1422.13,-76.3 1434,-70 1440.77,-66.41 1447.9,-62.76 1455.04,-59.19"/>
<polygon fill="black" stroke="black" points="1456.65,-62.29 1464.06,-54.72 1453.55,-56.02 1456.65,-62.29"/>
</g>
<!-- 25\nfound the lost Rock Raiders\nlocated the lost Rock Raiders -->
<g id="node26" class="node">
<title>25\nfound the lost Rock Raiders\nlocated the lost Rock Raiders</title>
<polygon fill="none" stroke="black" points="1610,-132.5 1434,-132.5 1434,-79.5 1610,-79.5 1610,-132.5"/>
<text text-anchor="middle" x="1522" y="-117.3" font-family="Times,serif" font-size="14.00">25</text>
<text text-anchor="middle" x="1522" y="-102.3" font-family="Times,serif" font-size="14.00">found the lost Rock Raiders</text>
<text text-anchor="middle" x="1522" y="-87.3" font-family="Times,serif" font-size="14.00">located the lost Rock Raiders</text>
</g>
<!-- 22&#45;&gt;25\nfound the lost Rock Raiders\nlocated the lost Rock Raiders -->
<g id="edge32" class="edge">
<title>22&#45;&gt;25\nfound the lost Rock Raiders\nlocated the lost Rock Raiders</title>
<path fill="none" stroke="black" d="M1398.3,-106C1405.84,-106 1414.54,-106 1423.76,-106"/>
<polygon fill="black" stroke="black" points="1423.93,-109.5 1433.93,-106 1423.93,-102.5 1423.93,-109.5"/>
</g>
<!-- 24\n[lost_miners_one] -->
<g id="node25" class="node">
<title>24\n[lost_miners_one]</title>
<text text-anchor="middle" x="1744" y="-22.8" font-family="Times,serif" font-size="14.00" fill="blue">24</text>
<text text-anchor="middle" x="1744" y="-7.8" font-family="Times,serif" font-size="14.00" fill="blue">[lost_miners_one]</text>
</g>
<!-- 23\nfound the lost Rock Raider\nlocated the lost Rock Raider&#45;&gt;24\n[lost_miners_one] -->
<g id="edge33" class="edge">
<title>23\nfound the lost Rock Raider\nlocated the lost Rock Raider&#45;&gt;24\n[lost_miners_one]</title>
<path fill="none" stroke="blue" d="M1607.74,-24.53C1630.31,-23.61 1654.38,-22.63 1675.87,-21.75"/>
<polygon fill="blue" stroke="blue" points="1676.02,-25.24 1685.87,-21.34 1675.73,-18.25 1676.02,-25.24"/>
</g>
<!-- 28 -->
<g id="node29" class="node">
<title>28</title>
<text text-anchor="middle" x="1937.5" y="-99.3" font-family="Times,serif" font-size="14.00">28</text>
</g>
<!-- 24\n[lost_miners_one]&#45;&gt;28 -->
<g id="edge34" class="edge">
<title>24\n[lost_miners_one]&#45;&gt;28</title>
<path fill="none" stroke="blue" d="M1802.02,-32.84C1815.36,-36.8 1829.37,-41.54 1842,-47 1862.57,-55.89 1884.17,-68.42 1901.52,-79.37"/>
<polygon fill="blue" stroke="blue" points="1899.87,-82.47 1910.17,-84.93 1903.65,-76.58 1899.87,-82.47"/>
</g>
<!-- 26\n[lost_miners_together] -->
<g id="node27" class="node">
<title>26\n[lost_miners_together]</title>
<text text-anchor="middle" x="1744" y="-78.8" font-family="Times,serif" font-size="14.00" fill="blue">26</text>
<text text-anchor="middle" x="1744" y="-63.8" font-family="Times,serif" font-size="14.00" fill="blue">[lost_miners_together]</text>
</g>
<!-- 25\nfound the lost Rock Raiders\nlocated the lost Rock Raiders&#45;&gt;26\n[lost_miners_together] -->
<g id="edge35" class="edge">
<title>25\nfound the lost Rock Raiders\nlocated the lost Rock Raiders&#45;&gt;26\n[lost_miners_together]</title>
<path fill="none" stroke="blue" d="M1610.27,-93.7C1627.92,-91.22 1646.38,-88.61 1663.74,-86.17"/>
<polygon fill="blue" stroke="blue" points="1664.4,-89.61 1673.82,-84.75 1663.42,-82.68 1664.4,-89.61"/>
</g>
<!-- 27\n[lost_miners_apart] -->
<g id="node28" class="node">
<title>27\n[lost_miners_apart]</title>
<text text-anchor="middle" x="1744" y="-134.8" font-family="Times,serif" font-size="14.00" fill="blue">27</text>
<text text-anchor="middle" x="1744" y="-119.8" font-family="Times,serif" font-size="14.00" fill="blue">[lost_miners_apart]</text>
</g>
<!-- 25\nfound the lost Rock Raiders\nlocated the lost Rock Raiders&#45;&gt;27\n[lost_miners_apart] -->
<g id="edge36" class="edge">
<title>25\nfound the lost Rock Raiders\nlocated the lost Rock Raiders&#45;&gt;27\n[lost_miners_apart]</title>
<path fill="none" stroke="blue" d="M1610.27,-115.92C1630.8,-118.25 1652.44,-120.71 1672.15,-122.95"/>
<polygon fill="blue" stroke="blue" points="1671.93,-126.45 1682.26,-124.1 1672.72,-119.49 1671.93,-126.45"/>
</g>
<!-- 26\n[lost_miners_together]&#45;&gt;28 -->
<g id="edge37" class="edge">
<title>26\n[lost_miners_together]&#45;&gt;28</title>
<path fill="none" stroke="blue" d="M1814.14,-85.11C1843.25,-89.37 1875.94,-94.14 1900.2,-97.69"/>
<polygon fill="blue" stroke="blue" points="1899.97,-101.2 1910.37,-99.18 1900.99,-94.27 1899.97,-101.2"/>
</g>
<!-- 27\n[lost_miners_apart]&#45;&gt;28 -->
<g id="edge38" class="edge">
<title>27\n[lost_miners_apart]&#45;&gt;28</title>
<path fill="none" stroke="blue" d="M1805.59,-122.14C1836.74,-117.59 1873.65,-112.19 1900.33,-108.29"/>
<polygon fill="blue" stroke="blue" points="1900.99,-111.73 1910.37,-106.82 1899.97,-104.8 1900.99,-111.73"/>
</g>
<!-- 48\nand -->
<g id="node49" class="node">
<title>48\nand</title>
<polygon fill="none" stroke="black" points="2087,-180 2033,-180 2033,-142 2087,-142 2087,-180"/>
<text text-anchor="middle" x="2060" y="-164.8" font-family="Times,serif" font-size="14.00">48</text>
<text text-anchor="middle" x="2060" y="-149.8" font-family="Times,serif" font-size="14.00">and</text>
</g>
<!-- 28&#45;&gt;48\nand -->
<g id="edge39" class="edge">
<title>28&#45;&gt;48\nand</title>
<path fill="none" stroke="black" d="M1964.65,-115.59C1981.94,-123.91 2004.82,-134.92 2023.71,-144.02"/>
<polygon fill="black" stroke="black" points="2022.38,-147.26 2032.9,-148.44 2025.41,-140.95 2022.38,-147.26"/>
</g>
<!-- 29\ncollected %(resources)s\ncollected all %(resources)s\ngot all %(resources)s -->
<g id="node30" class="node">
<title>29\ncollected %(resources)s\ncollected all %(resources)s\ngot all %(resources)s</title>
<polygon fill="none" stroke="black" points="2287,-184 2123,-184 2123,-116 2287,-116 2287,-184"/>
<text text-anchor="middle" x="2205" y="-168.8" font-family="Times,serif" font-size="14.00">29</text>
<text text-anchor="middle" x="2205" y="-153.8" font-family="Times,serif" font-size="14.00">collected %(resources)s</text>
<text text-anchor="middle" x="2205" y="-138.8" font-family="Times,serif" font-size="14.00">collected all %(resources)s</text>
<text text-anchor="middle" x="2205" y="-123.8" font-family="Times,serif" font-size="14.00">got all %(resources)s</text>
</g>
<!-- 30\n[collect_resources] -->
<g id="node31" class="node">
<title>30\n[collect_resources]</title>
<text text-anchor="middle" x="2823" y="-174.8" font-family="Times,serif" font-size="14.00" fill="blue">30</text>
<text text-anchor="middle" x="2823" y="-159.8" font-family="Times,serif" font-size="14.00" fill="blue">[collect_resources]</text>
</g>
<!-- 29\ncollected %(resources)s\ncollected all %(resources)s\ngot all %(resources)s&#45;&gt;30\n[collect_resources] -->
<g id="edge40" class="edge">
<title>29\ncollected %(resources)s\ncollected all %(resources)s\ngot all %(resources)s&#45;&gt;30\n[collect_resources]</title>
<path fill="none" stroke="blue" d="M2287.16,-152.77C2409.42,-156.93 2638.66,-164.75 2753.2,-168.65"/>
<polygon fill="blue" stroke="blue" points="2753.14,-172.15 2763.25,-169 2753.38,-165.16 2753.14,-172.15"/>
</g>
<!-- 30\n[collect_resources]&#45;&gt;49\n. -->
<g id="edge41" class="edge">
<title>30\n[collect_resources]&#45;&gt;49\n.</title>
<path fill="none" stroke="blue" d="M2870.95,-190C2890.91,-198.42 2914.32,-208.73 2935,-219 2943.87,-223.41 2953.27,-228.49 2961.99,-233.38"/>
<polygon fill="blue" stroke="blue" points="2960.36,-236.48 2970.78,-238.39 2963.82,-230.4 2960.36,-236.48"/>
</g>
<!-- 31\nyou&#45;&gt;11\nrepaired the Rock Raider HQ\nrestored our mining operations -->
<g id="edge43" class="edge">
<title>31\nyou&#45;&gt;11\nrepaired the Rock Raider HQ\nrestored our mining operations</title>
<path fill="none" stroke="black" d="M688.28,-172.33C706.18,-164.45 730.44,-153.91 752,-145 756.4,-143.18 760.93,-141.33 765.51,-139.48"/>
<polygon fill="black" stroke="black" points="766.98,-142.66 774.95,-135.68 764.36,-136.17 766.98,-142.66"/>
</g>
<!-- 31\nyou&#45;&gt;13\nfound the base -->
<g id="edge42" class="edge">
<title>31\nyou&#45;&gt;13\nfound the base</title>
<path fill="none" stroke="black" d="M688,-182.42C713.59,-180.87 753.5,-178.45 786.48,-176.46"/>
<polygon fill="black" stroke="black" points="786.69,-179.95 796.46,-175.85 786.27,-172.96 786.69,-179.95"/>
</g>
<!-- 31\nyou&#45;&gt;15 -->
<g id="edge44" class="edge">
<title>31\nyou&#45;&gt;15</title>
<path fill="none" stroke="black" d="M688.25,-189.84C706.13,-193.61 730.39,-198.28 752,-201 884.34,-217.63 918.12,-220 1051.5,-220 1051.5,-220 1051.5,-220 1938.5,-220 2020.48,-220 2116.69,-220 2167.8,-220"/>
<polygon fill="black" stroke="black" points="2168,-223.5 2178,-220 2168,-216.5 2168,-223.5"/>
</g>
<!-- 32 -->
<g id="node33" class="node">
<title>32</title>
<polygon fill="none" stroke="black" points="3115,-323 3061,-323 3061,-287 3115,-287 3115,-323"/>
<text text-anchor="middle" x="3088" y="-301.3" font-family="Times,serif" font-size="14.00">32</text>
</g>
<!-- 32&#45;&gt;7\nKeep up the good work, Cadet!\nWell done!\nGood work!\nOutstanding!\nI knew you could do it, Cadet!\nWe were right to count on you, Cadet! -->
<g id="edge45" class="edge">
<title>32&#45;&gt;7\nKeep up the good work, Cadet!\nWell done!\nGood work!\nOutstanding!\nI knew you could do it, Cadet!\nWe were right to count on you, Cadet!</title>
<path fill="none" stroke="black" d="M3115.12,-311.44C3122.75,-313.32 3131.64,-315.51 3141.19,-317.86"/>
<polygon fill="black" stroke="black" points="3140.41,-321.27 3150.95,-320.27 3142.08,-314.48 3140.41,-321.27"/>
</g>
<!-- 32&#45;&gt;10\nMission Complete! -->
<g id="edge46" class="edge">
<title>32&#45;&gt;10\nMission Complete!</title>
<path fill="none" stroke="black" d="M3115.02,-293.54C3125.91,-289.34 3138.84,-285.09 3151,-283 3279.61,-260.86 3432.56,-269.68 3519.76,-277.95"/>
<polygon fill="black" stroke="black" points="3519.52,-281.44 3529.81,-278.92 3520.19,-274.47 3519.52,-281.44"/>
</g>
<!-- 33&#45;&gt;1\n[end] -->
<g id="edge47" class="edge">
<title>33&#45;&gt;1\n[end]</title>
<path fill="none" stroke="green" d="M3765.02,-307.44C3779.53,-303.78 3797.83,-299.16 3813.72,-295.15"/>
<polygon fill="green" stroke="green" points="3814.91,-298.46 3823.75,-292.62 3813.2,-291.67 3814.91,-298.46"/>
</g>
<!-- 34\n[has_monsters]&#45;&gt;1\n[end] -->
<g id="edge48" class="edge">
<title>34\n[has_monsters]&#45;&gt;1\n[end]</title>
<path fill="none" stroke="green" d="M3788.01,-270.92C3796.76,-273.05 3805.73,-275.23 3814.04,-277.25"/>
<polygon fill="green" stroke="green" points="3813.23,-280.66 3823.77,-279.62 3814.88,-273.86 3813.23,-280.66"/>
</g>
<!-- 36\nfind the lost Rock Raider -->
<g id="node37" class="node">
<title>36\nfind the lost Rock Raider</title>
<polygon fill="none" stroke="black" points="1129.5,-422 975.5,-422 975.5,-384 1129.5,-384 1129.5,-422"/>
<text text-anchor="middle" x="1052.5" y="-406.8" font-family="Times,serif" font-size="14.00">36</text>
<text text-anchor="middle" x="1052.5" y="-391.8" font-family="Times,serif" font-size="14.00">find the lost Rock Raider</text>
</g>
<!-- 35&#45;&gt;36\nfind the lost Rock Raider -->
<g id="edge50" class="edge">
<title>35&#45;&gt;36\nfind the lost Rock Raider</title>
<path fill="none" stroke="black" d="M871.59,-341.87C900.13,-351.57 946.99,-367.49 985.73,-380.65"/>
<polygon fill="black" stroke="black" points="984.79,-384.03 995.38,-383.93 987.04,-377.4 984.79,-384.03"/>
</g>
<!-- 38\nfind the lost Rock Raiders -->
<g id="node39" class="node">
<title>38\nfind the lost Rock Raiders</title>
<polygon fill="none" stroke="black" points="1132,-352 973,-352 973,-314 1132,-314 1132,-352"/>
<text text-anchor="middle" x="1052.5" y="-336.8" font-family="Times,serif" font-size="14.00">38</text>
<text text-anchor="middle" x="1052.5" y="-321.8" font-family="Times,serif" font-size="14.00">find the lost Rock Raiders</text>
</g>
<!-- 35&#45;&gt;38\nfind the lost Rock Raiders -->
<g id="edge49" class="edge">
<title>35&#45;&gt;38\nfind the lost Rock Raiders</title>
<path fill="none" stroke="black" d="M871.59,-333C894.65,-333 929.65,-333 962.67,-333"/>
<polygon fill="black" stroke="black" points="962.84,-336.5 972.84,-333 962.84,-329.5 962.84,-336.5"/>
</g>
<!-- 37\n[lost_miners_one] -->
<g id="node38" class="node">
<title>37\n[lost_miners_one]</title>
<text text-anchor="middle" x="1238" y="-420.8" font-family="Times,serif" font-size="14.00" fill="blue">37</text>
<text text-anchor="middle" x="1238" y="-405.8" font-family="Times,serif" font-size="14.00" fill="blue">[lost_miners_one]</text>
</g>
<!-- 36\nfind the lost Rock Raider&#45;&gt;37\n[lost_miners_one] -->
<g id="edge51" class="edge">
<title>36\nfind the lost Rock Raider&#45;&gt;37\n[lost_miners_one]</title>
<path fill="none" stroke="blue" d="M1129.73,-408.82C1142.94,-409.82 1156.59,-410.86 1169.54,-411.85"/>
<polygon fill="blue" stroke="blue" points="1169.52,-415.36 1179.76,-412.63 1170.05,-408.38 1169.52,-415.36"/>
</g>
<!-- 41 -->
<g id="node42" class="node">
<title>41</title>
<text text-anchor="middle" x="1371" y="-355.3" font-family="Times,serif" font-size="14.00">41</text>
</g>
<!-- 37\n[lost_miners_one]&#45;&gt;41 -->
<g id="edge52" class="edge">
<title>37\n[lost_miners_one]&#45;&gt;41</title>
<path fill="none" stroke="blue" d="M1287.05,-397.97C1294.11,-395.04 1301.27,-391.99 1308,-389 1316.75,-385.11 1326.09,-380.72 1334.79,-376.53"/>
<polygon fill="blue" stroke="blue" points="1336.47,-379.6 1343.93,-372.08 1333.41,-373.31 1336.47,-379.6"/>
</g>
<!-- 39\n[lost_miners_together] -->
<g id="node40" class="node">
<title>39\n[lost_miners_together]</title>
<text text-anchor="middle" x="1238" y="-364.8" font-family="Times,serif" font-size="14.00" fill="blue">39</text>
<text text-anchor="middle" x="1238" y="-349.8" font-family="Times,serif" font-size="14.00" fill="blue">[lost_miners_together]</text>
</g>
<!-- 38\nfind the lost Rock Raiders&#45;&gt;39\n[lost_miners_together] -->
<g id="edge53" class="edge">
<title>38\nfind the lost Rock Raiders&#45;&gt;39\n[lost_miners_together]</title>
<path fill="none" stroke="blue" d="M1132.12,-345C1140.65,-346.3 1149.33,-347.62 1157.87,-348.93"/>
<polygon fill="blue" stroke="blue" points="1157.39,-352.39 1167.8,-350.44 1158.45,-345.47 1157.39,-352.39"/>
</g>
<!-- 40\n[lost_miners_apart] -->
<g id="node41" class="node">
<title>40\n[lost_miners_apart]</title>
<text text-anchor="middle" x="1238" y="-308.8" font-family="Times,serif" font-size="14.00" fill="blue">40</text>
<text text-anchor="middle" x="1238" y="-293.8" font-family="Times,serif" font-size="14.00" fill="blue">[lost_miners_apart]</text>
</g>
<!-- 38\nfind the lost Rock Raiders&#45;&gt;40\n[lost_miners_apart] -->
<g id="edge54" class="edge">
<title>38\nfind the lost Rock Raiders&#45;&gt;40\n[lost_miners_apart]</title>
<path fill="none" stroke="blue" d="M1132.12,-321C1143.44,-319.28 1155.03,-317.51 1166.19,-315.81"/>
<polygon fill="blue" stroke="blue" points="1166.93,-319.23 1176.29,-314.26 1165.88,-312.31 1166.93,-319.23"/>
</g>
<!-- 39\n[lost_miners_together]&#45;&gt;41 -->
<g id="edge55" class="edge">
<title>39\n[lost_miners_together]&#45;&gt;41</title>
<path fill="none" stroke="blue" d="M1308.34,-359.94C1317.13,-359.81 1325.82,-359.67 1333.79,-359.55"/>
<polygon fill="blue" stroke="blue" points="1333.85,-363.05 1343.8,-359.4 1333.75,-356.05 1333.85,-363.05"/>
</g>
<!-- 40\n[lost_miners_apart]&#45;&gt;41 -->
<g id="edge56" class="edge">
<title>40\n[lost_miners_apart]&#45;&gt;41</title>
<path fill="none" stroke="blue" d="M1286.17,-324.06C1293.48,-327.04 1300.95,-330.09 1308,-333 1316.55,-336.53 1325.74,-340.36 1334.36,-343.97"/>
<polygon fill="blue" stroke="blue" points="1333.21,-347.28 1343.78,-347.93 1335.92,-340.83 1333.21,-347.28"/>
</g>
<!-- 44\nand -->
<g id="node45" class="node">
<title>44\nand</title>
<polygon fill="none" stroke="black" points="1549,-328 1495,-328 1495,-290 1549,-290 1549,-328"/>
<text text-anchor="middle" x="1522" y="-312.8" font-family="Times,serif" font-size="14.00">44</text>
<text text-anchor="middle" x="1522" y="-297.8" font-family="Times,serif" font-size="14.00">and</text>
</g>
<!-- 41&#45;&gt;44\nand -->
<g id="edge57" class="edge">
<title>41&#45;&gt;44\nand</title>
<path fill="none" stroke="black" d="M1398.3,-350.18C1422.45,-342.07 1458.44,-329.99 1485.21,-321.01"/>
<polygon fill="black" stroke="black" points="1486.6,-324.24 1494.97,-317.74 1484.37,-317.6 1486.6,-324.24"/>
</g>
<!-- 45\n. -->
<g id="node46" class="node">
<title>45\n.</title>
<polygon fill="none" stroke="black" points="2087,-376 2033,-376 2033,-338 2087,-338 2087,-376"/>
<text text-anchor="middle" x="2060" y="-360.8" font-family="Times,serif" font-size="14.00">45</text>
<text text-anchor="middle" x="2060" y="-345.8" font-family="Times,serif" font-size="14.00">.</text>
</g>
<!-- 41&#45;&gt;45\n. -->
<g id="edge58" class="edge">
<title>41&#45;&gt;45\n.</title>
<path fill="none" stroke="black" d="M1398.09,-358.92C1503.73,-358.62 1899.84,-357.46 2022.53,-357.11"/>
<polygon fill="black" stroke="black" points="2022.89,-360.61 2032.88,-357.08 2022.87,-353.61 2022.89,-360.61"/>
</g>
<!-- 43\n[collect_resources] -->
<g id="node44" class="node">
<title>43\n[collect_resources]</title>
<text text-anchor="middle" x="1937.5" y="-311.8" font-family="Times,serif" font-size="14.00" fill="blue">43</text>
<text text-anchor="middle" x="1937.5" y="-296.8" font-family="Times,serif" font-size="14.00" fill="blue">[collect_resources]</text>
</g>
<!-- 42\ncollect all %(resources)s\nget the %(resources)s we needed&#45;&gt;43\n[collect_resources] -->
<g id="edge59" class="edge">
<title>42\ncollect all %(resources)s\nget the %(resources)s we needed&#45;&gt;43\n[collect_resources]</title>
<path fill="none" stroke="blue" d="M1842.15,-306.03C1850.84,-306.21 1859.51,-306.39 1867.89,-306.57"/>
<polygon fill="blue" stroke="blue" points="1867.86,-310.07 1877.93,-306.78 1868,-303.07 1867.86,-310.07"/>
</g>
<!-- 43\n[collect_resources]&#45;&gt;45\n. -->
<g id="edge60" class="edge">
<title>43\n[collect_resources]&#45;&gt;45\n.</title>
<path fill="none" stroke="blue" d="M1985.43,-327.08C1998.03,-332.21 2011.45,-337.66 2023.32,-342.49"/>
<polygon fill="blue" stroke="blue" points="2022.3,-345.86 2032.89,-346.38 2024.94,-339.37 2022.3,-345.86"/>
</g>
<!-- 44\nand&#45;&gt;42\ncollect all %(resources)s\nget the %(resources)s we needed -->
<g id="edge61" class="edge">
<title>44\nand&#45;&gt;42\ncollect all %(resources)s\nget the %(resources)s we needed</title>
<path fill="none" stroke="black" d="M1549.1,-308.41C1570.92,-307.91 1603.57,-307.17 1635.9,-306.43"/>
<polygon fill="black" stroke="black" points="1635.99,-309.93 1645.9,-306.21 1635.83,-302.93 1635.99,-309.93"/>
</g>
<!-- 45\n.&#45;&gt;32 -->
<g id="edge62" class="edge">
<title>45\n.&#45;&gt;32</title>
<path fill="none" stroke="black" d="M2087.27,-357C2145.42,-357 2289.43,-357 2410,-357 2410,-357 2410,-357 2824,-357 2906.52,-357 3000.88,-332.06 3051.1,-316.73"/>
<polygon fill="black" stroke="black" points="3052.32,-320.01 3060.83,-313.7 3050.25,-313.33 3052.32,-320.01"/>
</g>
<!-- 46&#45;&gt;48\nand -->
<g id="edge63" class="edge">
<title>46&#45;&gt;48\nand</title>
<path fill="none" stroke="black" d="M1265.04,-172.08C1314.78,-174.04 1426.73,-178 1521,-178 1521,-178 1521,-178 1745,-178 1845.73,-178 1964.38,-169.17 2022.79,-164.24"/>
<polygon fill="black" stroke="black" points="2023.31,-167.7 2032.97,-163.36 2022.71,-160.73 2023.31,-167.7"/>
</g>
<!-- 47\n,&#45;&gt;22 -->
<g id="edge64" class="edge">
<title>47\n,&#45;&gt;22</title>
<path fill="none" stroke="black" d="M1265.19,-111.6C1284.83,-110.55 1311.94,-109.1 1333.67,-107.94"/>
<polygon fill="black" stroke="black" points="1334.05,-111.43 1343.85,-107.4 1333.68,-104.44 1334.05,-111.43"/>
</g>
<!-- 48\nand&#45;&gt;15 -->
<g id="edge66" class="edge">
<title>48\nand&#45;&gt;15</title>
<path fill="none" stroke="black" d="M2087.12,-175.62C2098.03,-181.43 2110.95,-187.92 2123,-193 2137.4,-199.07 2153.67,-204.72 2167.84,-209.27"/>
<polygon fill="black" stroke="black" points="2167.13,-212.71 2177.72,-212.37 2169.23,-206.04 2167.13,-212.71"/>
</g>
<!-- 48\nand&#45;&gt;29\ncollected %(resources)s\ncollected all %(resources)s\ngot all %(resources)s -->
<g id="edge65" class="edge">
<title>48\nand&#45;&gt;29\ncollected %(resources)s\ncollected all %(resources)s\ngot all %(resources)s</title>
<path fill="none" stroke="black" d="M2087.23,-158.98C2094.81,-158.4 2103.54,-157.73 2112.75,-157.02"/>
<polygon fill="black" stroke="black" points="2113.19,-160.5 2122.89,-156.24 2112.65,-153.52 2113.19,-160.5"/>
</g>
<!-- 49\n.&#45;&gt;32 -->
<g id="edge67" class="edge">
<title>49\n.&#45;&gt;32</title>
<path fill="none" stroke="black" d="M3025.4,-269.3C3033.83,-274.19 3043.29,-279.67 3052.22,-284.85"/>
<polygon fill="black" stroke="black" points="3050.51,-287.9 3060.92,-289.88 3054.02,-281.84 3050.51,-287.9"/>
</g>
</g>
</svg>
